M48
; DRILL file {KiCad (5.1.5)-3} date 07/08/20 17:40:25
; FORMAT={-:-/ absolute / inch / decimal}
; #@! TF.CreationDate,2020-07-08T17:40:25+02:00
; #@! TF.GenerationSoftware,Kicad,Pcbnew,(5.1.5)-3
; #@! TF.FileFunction,Plated,1,2,PTH
FMAT,2
INCH
T1C0.0157
T2C0.0197
T3C0.0236
T4C0.0382
T5C0.0394
T6C0.0433
T7C0.0598
T8C0.0673
T9C0.1260
T10C0.1575
%
G90
G05
T1
X3.83Y-2.31
X3.83Y-2.56
X3.86Y-2.25
X3.92Y-2.85
X4.2Y-2.47
X4.24Y-2.1
X4.41Y-2.53
X4.45Y-2.15
X4.46Y-2.59
X4.47Y-2.11
X4.47Y-2.63
X4.4724Y-1.9624
X4.53Y-1.9
X4.5371Y-2.0901
X4.6114Y-2.3918
X4.63Y-2.88
X4.6303Y-2.4263
X4.65Y-2.5565
X4.6724Y-2.4278
X4.7Y-2.5565
X4.7109Y-2.4359
X4.74Y-1.58
X4.7496Y-2.4288
X4.7626Y-2.3175
X4.77Y-2.55
X4.7872Y-2.1645
X4.8Y-2.33
X4.8Y-2.43
X4.83Y-2.19
X4.87Y-2.18
X4.87Y-2.93
X5.03Y-2.58
X5.03Y-2.94
X5.06Y-2.55
X5.1Y-2.89
X5.1704Y-2.5707
X5.1885Y-2.4605
X5.19Y-2.4185
X5.2Y-2.03
X5.23Y-2.42
X5.2372Y-2.1182
X5.24Y-1.71
X5.27Y-1.76
X5.27Y-2.14
X5.28Y-2.42
X5.31Y-2.39
X5.34Y-2.6
X5.4Y-1.56
X5.4Y-2.22
X5.4Y-2.6
X5.46Y-2.09
X5.46Y-2.46
X5.4802Y-1.91
X5.4855Y-1.8664
X5.49Y-1.7635
X5.5085Y-2.4885
X5.5347Y-2.5179
X5.5373Y-1.8967
X5.55Y-1.77
X5.55Y-2.22
X5.5524Y-1.8604
X5.56Y-2.43
X5.5656Y-1.924
X5.5737Y-2.5121
X5.5784Y-2.5569
X5.58Y-2.09
X5.5965Y-1.77
X5.63Y-2.56
X5.69Y-2.18
X5.6974Y-2.5698
X5.7Y-2.5305
X5.7Y-2.61
X5.8164Y-2.502
X5.83Y-2.14
X5.87Y-2.4
X5.95Y-2.44
X5.96Y-2.28
X5.96Y-2.33
X5.96Y-2.53
X5.9602Y-2.3702
X5.9725Y-2.5674
X6.0328Y-1.8685
X6.07Y-2.2
X6.07Y-2.82
X6.0777Y-2.3177
X6.08Y-2.36
X6.0809Y-2.2741
X6.11Y-2.42
X6.12Y-2.46
X6.23Y-2.82
X6.26Y-2.42
X6.2626Y-2.0776
X6.27Y-2.24
X6.27Y-2.33
X6.3015Y-2.2113
X6.3064Y-2.0751
X6.31Y-2.37
X6.31Y-2.63
X6.31Y-2.81
X6.3274Y-1.8264
X6.3382Y-1.7693
X6.3645Y-2.0255
X6.3845Y-1.8399
X6.3893Y-2.7964
X6.3902Y-1.7998
X6.4083Y-2.0474
X6.4301Y-2.0802
X6.44Y-2.43
X6.4473Y-2.2842
X6.4686Y-2.251
X6.48Y-1.93
X6.48Y-2.05
X6.52Y-1.94
X6.66Y-2.6937
X6.675Y-1.905
X6.6968Y-2.7885
X6.6994Y-2.6937
X6.7042Y-1.9342
X6.751Y-2.7885
X6.82Y-2.71
X6.83Y-2.31
X6.84Y-2.52
X6.8478Y-2.66
X6.85Y-2.74
X6.8636Y-2.7
X6.8636Y-2.8154
X6.88Y-1.84
X6.8813Y-2.8527
X6.89Y-2.26
X6.9Y-2.32
X6.9Y-2.41
X6.9Y-2.89
X6.9Y-3.06
X6.9078Y-1.8678
X7.07Y-2.94
X7.0715Y-2.8499
X7.0715Y-2.8931
X7.0784Y-2.1306
X7.08Y-1.87
X7.08Y-1.9506
X7.08Y-2.0913
X7.08Y-2.26
X7.08Y-2.39
X7.08Y-2.98
X7.0811Y-2.5893
X7.0811Y-2.6287
X7.09Y-1.75
X7.09Y-2.02
X7.09Y-2.52
X7.09Y-2.73
X7.1209Y-2.69
X7.1355Y-2.8328
X7.15Y-2.94
T2
X4.1055Y-2.96
X4.1332Y-2.8932
X4.1332Y-3.0268
X4.2Y-2.8655
X4.2Y-3.0545
X4.2668Y-2.8932
X4.2668Y-3.0268
X4.2945Y-2.96
X6.5355Y-2.96
X6.5632Y-2.8932
X6.5632Y-3.0268
X6.63Y-2.8655
X6.63Y-3.0545
X6.6968Y-2.8932
X6.6968Y-3.0268
X6.7245Y-2.96
X6.5355Y-1.67
X6.5632Y-1.6032
X6.5632Y-1.7368
X6.63Y-1.5755
X6.63Y-1.7645
X6.6968Y-1.6032
X6.6968Y-1.7368
X6.7245Y-1.67
T3
X4.19Y-1.83
X5.24Y-1.65
X5.63Y-1.96
X6.3868Y-2.8436
T4
X7.19Y-1.74
X7.19Y-1.84
X7.19Y-1.94
X7.19Y-2.04
X7.29Y-1.79
X7.29Y-1.89
X7.29Y-1.99
X7.29Y-2.09
X7.19Y-2.53
X7.19Y-2.63
X7.19Y-2.73
X7.19Y-2.83
X7.29Y-2.58
X7.29Y-2.68
X7.29Y-2.78
X7.29Y-2.88
T5
X5.4Y-2.72
X5.4Y-2.82
X5.5Y-2.72
X5.5Y-2.82
X4.6Y-3.02
X4.7Y-3.02
X4.8Y-3.02
X5.48Y-3.0
X5.58Y-3.0
X5.68Y-3.0
X5.78Y-3.0
X5.06Y-3.02
X5.16Y-3.02
X5.26Y-3.02
X4.33Y-2.11
X4.33Y-2.21
X4.33Y-2.31
X4.33Y-2.41
X4.33Y-2.51
X4.33Y-2.61
X4.33Y-2.71
T6
X7.7329Y-1.6542
X7.7329Y-1.7542
X7.7329Y-2.0758
X7.7329Y-2.1758
X7.7329Y-2.4442
X7.7329Y-2.5442
X7.7329Y-2.8658
X7.7329Y-2.9658
T7
X3.88Y-1.65
X3.88Y-1.85
T8
X7.4199Y-1.6101
X7.4199Y-2.2199
X7.4199Y-2.4001
X7.4199Y-3.0099
T9
X4.2Y-2.96
X6.63Y-2.96
X6.63Y-1.67
T10
X4.96Y-1.86
T0
M30
