G04 #@! TF.GenerationSoftware,KiCad,Pcbnew,(5.1.5)-3*
G04 #@! TF.CreationDate,2020-07-08T17:40:24+02:00*
G04 #@! TF.ProjectId,Mbed_Devboard,4d626564-5f44-4657-9662-6f6172642e6b,rev?*
G04 #@! TF.SameCoordinates,Original*
G04 #@! TF.FileFunction,Legend,Top*
G04 #@! TF.FilePolarity,Positive*
%FSLAX46Y46*%
G04 Gerber Fmt 4.6, Leading zero omitted, Abs format (unit mm)*
G04 Created by KiCad (PCBNEW (5.1.5)-3) date 2020-07-08 17:40:24*
%MOMM*%
%LPD*%
G04 APERTURE LIST*
%ADD10C,0.120000*%
%ADD11C,0.100000*%
%ADD12C,0.250000*%
%ADD13C,0.200000*%
%ADD14C,0.150000*%
%ADD15C,0.254000*%
G04 APERTURE END LIST*
D10*
X94742000Y-39370000D02*
X94742000Y-49530000D01*
X102362000Y-39370000D02*
X94742000Y-39370000D01*
X102362000Y-49530000D02*
X102362000Y-39370000D01*
X94742000Y-49530000D02*
X102362000Y-49530000D01*
X96012000Y-49530000D02*
X96012000Y-39370000D01*
X107080000Y-47788000D02*
X107080000Y-41778000D01*
X113900000Y-45538000D02*
X113900000Y-41778000D01*
X107080000Y-41778000D02*
X108340000Y-41778000D01*
X113900000Y-41778000D02*
X112640000Y-41778000D01*
X122448000Y-69088000D02*
X122448000Y-65638000D01*
X122448000Y-69088000D02*
X122448000Y-71038000D01*
X117328000Y-69088000D02*
X117328000Y-67138000D01*
X117328000Y-69088000D02*
X117328000Y-71038000D01*
X134132000Y-69088000D02*
X134132000Y-65638000D01*
X134132000Y-69088000D02*
X134132000Y-71038000D01*
X129012000Y-69088000D02*
X129012000Y-67138000D01*
X129012000Y-69088000D02*
X129012000Y-71038000D01*
X117880000Y-57106000D02*
X117880000Y-57886000D01*
X117880000Y-57886000D02*
X118880000Y-57886000D01*
X136120000Y-57106000D02*
X136120000Y-57886000D01*
X136120000Y-57886000D02*
X135120000Y-57886000D01*
X117880000Y-32141000D02*
X136120000Y-32141000D01*
X136120000Y-32141000D02*
X136120000Y-38561000D01*
X117880000Y-32141000D02*
X117880000Y-38561000D01*
X117880000Y-38561000D02*
X117500000Y-38561000D01*
X162254000Y-49528252D02*
X162254000Y-49005748D01*
X160834000Y-49528252D02*
X160834000Y-49005748D01*
X158548000Y-75938748D02*
X158548000Y-76461252D01*
X159968000Y-75938748D02*
X159968000Y-76461252D01*
X156516000Y-75938748D02*
X156516000Y-76461252D01*
X157936000Y-75938748D02*
X157936000Y-76461252D01*
X154484000Y-75947748D02*
X154484000Y-76470252D01*
X155904000Y-75947748D02*
X155904000Y-76470252D01*
X152452000Y-75929748D02*
X152452000Y-76452252D01*
X153872000Y-75929748D02*
X153872000Y-76452252D01*
X147082252Y-59234000D02*
X146559748Y-59234000D01*
X147082252Y-60654000D02*
X146559748Y-60654000D01*
X147064252Y-61266000D02*
X146541748Y-61266000D01*
X147064252Y-62686000D02*
X146541748Y-62686000D01*
X151436000Y-69080748D02*
X151436000Y-69603252D01*
X152856000Y-69080748D02*
X152856000Y-69603252D01*
X114860000Y-41648748D02*
X114860000Y-42171252D01*
X116280000Y-41648748D02*
X116280000Y-42171252D01*
X142292000Y-55872748D02*
X142292000Y-56395252D01*
X143712000Y-55872748D02*
X143712000Y-56395252D01*
X147064252Y-55170000D02*
X146541748Y-55170000D01*
X147064252Y-56590000D02*
X146541748Y-56590000D01*
X147064252Y-57202000D02*
X146541748Y-57202000D01*
X147064252Y-58622000D02*
X146541748Y-58622000D01*
X106374000Y-67317252D02*
X106374000Y-66794748D01*
X104954000Y-67317252D02*
X104954000Y-66794748D01*
X106374000Y-60967252D02*
X106374000Y-60444748D01*
X104954000Y-60967252D02*
X104954000Y-60444748D01*
X153468000Y-69071748D02*
X153468000Y-69594252D01*
X154888000Y-69071748D02*
X154888000Y-69594252D01*
X155500000Y-69071748D02*
X155500000Y-69594252D01*
X156920000Y-69071748D02*
X156920000Y-69594252D01*
X158190000Y-49528252D02*
X158190000Y-49005748D01*
X156770000Y-49528252D02*
X156770000Y-49005748D01*
X160222000Y-49537252D02*
X160222000Y-49014748D01*
X158802000Y-49537252D02*
X158802000Y-49014748D01*
X170943748Y-59384000D02*
X171466252Y-59384000D01*
X170943748Y-57964000D02*
X171466252Y-57964000D01*
X177807252Y-45772000D02*
X177284748Y-45772000D01*
X177807252Y-47192000D02*
X177284748Y-47192000D01*
X177798252Y-66600000D02*
X177275748Y-66600000D01*
X177798252Y-68020000D02*
X177275748Y-68020000D01*
X177807252Y-47804000D02*
X177284748Y-47804000D01*
X177807252Y-49224000D02*
X177284748Y-49224000D01*
X177798252Y-64314000D02*
X177275748Y-64314000D01*
X177798252Y-65734000D02*
X177275748Y-65734000D01*
X177798252Y-51868000D02*
X177275748Y-51868000D01*
X177798252Y-53288000D02*
X177275748Y-53288000D01*
X177807252Y-72696000D02*
X177284748Y-72696000D01*
X177807252Y-74116000D02*
X177284748Y-74116000D01*
X177807252Y-53900000D02*
X177284748Y-53900000D01*
X177807252Y-55320000D02*
X177284748Y-55320000D01*
X177807252Y-70664000D02*
X177284748Y-70664000D01*
X177807252Y-72084000D02*
X177284748Y-72084000D01*
X119626748Y-74624000D02*
X120149252Y-74624000D01*
X119626748Y-73204000D02*
X120149252Y-73204000D01*
X131564748Y-74624000D02*
X132087252Y-74624000D01*
X131564748Y-73204000D02*
X132087252Y-73204000D01*
X177284748Y-57352000D02*
X177807252Y-57352000D01*
X177284748Y-55932000D02*
X177807252Y-55932000D01*
X177284748Y-42874000D02*
X177807252Y-42874000D01*
X177284748Y-41454000D02*
X177807252Y-41454000D01*
X177275748Y-76402000D02*
X177798252Y-76402000D01*
X177275748Y-74982000D02*
X177798252Y-74982000D01*
X177293748Y-61416000D02*
X177816252Y-61416000D01*
X177293748Y-59996000D02*
X177816252Y-59996000D01*
X123250000Y-76708000D02*
X123250000Y-78038000D01*
X123250000Y-78038000D02*
X121920000Y-78038000D01*
X120650000Y-78038000D02*
X115510000Y-78038000D01*
X115510000Y-75378000D02*
X115510000Y-78038000D01*
X120650000Y-75378000D02*
X115510000Y-75378000D01*
X120650000Y-75378000D02*
X120650000Y-78038000D01*
X134934000Y-76708000D02*
X134934000Y-78038000D01*
X134934000Y-78038000D02*
X133604000Y-78038000D01*
X132334000Y-78038000D02*
X127194000Y-78038000D01*
X127194000Y-75378000D02*
X127194000Y-78038000D01*
X132334000Y-75378000D02*
X127194000Y-75378000D01*
X132334000Y-75378000D02*
X132334000Y-78038000D01*
D11*
X185166000Y-57086000D02*
G75*
G02X185266000Y-57086000I50000J0D01*
G01*
X185266000Y-57086000D02*
G75*
G02X185166000Y-57086000I-50000J0D01*
G01*
X185266000Y-57086000D02*
X185266000Y-57086000D01*
X185166000Y-57086000D02*
X185166000Y-57086000D01*
X180836000Y-56691000D02*
X187016000Y-56691000D01*
X180836000Y-40591000D02*
X180836000Y-56691000D01*
X187016000Y-40591000D02*
X180836000Y-40591000D01*
X202436000Y-56691000D02*
X190016000Y-56691000D01*
X202436000Y-40591000D02*
X202436000Y-56691000D01*
X190016000Y-40591000D02*
X202436000Y-40591000D01*
X185166000Y-77152000D02*
G75*
G02X185266000Y-77152000I50000J0D01*
G01*
X185266000Y-77152000D02*
G75*
G02X185166000Y-77152000I-50000J0D01*
G01*
X185266000Y-77152000D02*
X185266000Y-77152000D01*
X185166000Y-77152000D02*
X185166000Y-77152000D01*
X180836000Y-76757000D02*
X187016000Y-76757000D01*
X180836000Y-60657000D02*
X180836000Y-76757000D01*
X187016000Y-60657000D02*
X180836000Y-60657000D01*
X202436000Y-76757000D02*
X190016000Y-76757000D01*
X202436000Y-60657000D02*
X202436000Y-76757000D01*
X190016000Y-60657000D02*
X202436000Y-60657000D01*
D10*
X139700000Y-67758000D02*
X141030000Y-67758000D01*
X141030000Y-67758000D02*
X141030000Y-69088000D01*
X138430000Y-67758000D02*
X138430000Y-70358000D01*
X138430000Y-70358000D02*
X141030000Y-70358000D01*
X141030000Y-70358000D02*
X141030000Y-72958000D01*
X135830000Y-72958000D02*
X141030000Y-72958000D01*
X135830000Y-67758000D02*
X135830000Y-72958000D01*
X135830000Y-67758000D02*
X138430000Y-67758000D01*
X109982000Y-52264000D02*
X111312000Y-52264000D01*
X111312000Y-52264000D02*
X111312000Y-53594000D01*
X111312000Y-54864000D02*
X111312000Y-70164000D01*
X108652000Y-70164000D02*
X111312000Y-70164000D01*
X108652000Y-54864000D02*
X108652000Y-70164000D01*
X108652000Y-54864000D02*
X111312000Y-54864000D01*
X137862000Y-76200000D02*
X137862000Y-74870000D01*
X137862000Y-74870000D02*
X139192000Y-74870000D01*
X140462000Y-74870000D02*
X148142000Y-74870000D01*
X148142000Y-77530000D02*
X148142000Y-74870000D01*
X140462000Y-77530000D02*
X148142000Y-77530000D01*
X140462000Y-77530000D02*
X140462000Y-74870000D01*
D12*
X166115000Y-62428000D02*
G75*
G03X166115000Y-62428000I-125000J0D01*
G01*
D13*
X164440000Y-55778000D02*
X164440000Y-62078000D01*
X158140000Y-55778000D02*
X164440000Y-55778000D01*
X158140000Y-62078000D02*
X158140000Y-55778000D01*
X164440000Y-62078000D02*
X158140000Y-62078000D01*
D10*
X153399748Y-64718000D02*
X153922252Y-64718000D01*
X153399748Y-63298000D02*
X153922252Y-63298000D01*
X170925748Y-65480000D02*
X171448252Y-65480000D01*
X170925748Y-64060000D02*
X171448252Y-64060000D01*
X164862000Y-51476000D02*
X164862000Y-47626000D01*
X166862000Y-51476000D02*
X166862000Y-47626000D01*
X164862000Y-51476000D02*
X166862000Y-51476000D01*
X127052000Y-71874748D02*
X127052000Y-72397252D01*
X128472000Y-71874748D02*
X128472000Y-72397252D01*
X122988000Y-71874748D02*
X122988000Y-72397252D01*
X124408000Y-71874748D02*
X124408000Y-72397252D01*
X153618000Y-57402252D02*
X153618000Y-56879748D01*
X152198000Y-57402252D02*
X152198000Y-56879748D01*
X159564000Y-69080748D02*
X159564000Y-69603252D01*
X160984000Y-69080748D02*
X160984000Y-69603252D01*
X170925748Y-57352000D02*
X171448252Y-57352000D01*
X170925748Y-55932000D02*
X171448252Y-55932000D01*
X152198000Y-60698748D02*
X152198000Y-61221252D01*
X153618000Y-60698748D02*
X153618000Y-61221252D01*
X170934748Y-55320000D02*
X171457252Y-55320000D01*
X170934748Y-53900000D02*
X171457252Y-53900000D01*
X161596000Y-69071748D02*
X161596000Y-69594252D01*
X163016000Y-69071748D02*
X163016000Y-69594252D01*
X157532000Y-69080748D02*
X157532000Y-69603252D01*
X158952000Y-69080748D02*
X158952000Y-69603252D01*
X170934748Y-61416000D02*
X171457252Y-61416000D01*
X170934748Y-59996000D02*
X171457252Y-59996000D01*
X162866000Y-49014748D02*
X162866000Y-49537252D01*
X164286000Y-49014748D02*
X164286000Y-49537252D01*
X156158000Y-49546252D02*
X156158000Y-49023748D01*
X154738000Y-49546252D02*
X154738000Y-49023748D01*
X170925748Y-63448000D02*
X171448252Y-63448000D01*
X170925748Y-62028000D02*
X171448252Y-62028000D01*
X154126000Y-49546252D02*
X154126000Y-49023748D01*
X152706000Y-49546252D02*
X152706000Y-49023748D01*
X114860000Y-45449748D02*
X114860000Y-45972252D01*
X116280000Y-45449748D02*
X116280000Y-45972252D01*
X102115252Y-71680000D02*
X101592748Y-71680000D01*
X102115252Y-73100000D02*
X101592748Y-73100000D01*
X100591252Y-56694000D02*
X100068748Y-56694000D01*
X100591252Y-58114000D02*
X100068748Y-58114000D01*
X177275748Y-45160000D02*
X177798252Y-45160000D01*
X177275748Y-43740000D02*
X177798252Y-43740000D01*
X177275748Y-63702000D02*
X177798252Y-63702000D01*
X177275748Y-62282000D02*
X177798252Y-62282000D01*
X177284748Y-51256000D02*
X177807252Y-51256000D01*
X177284748Y-49836000D02*
X177807252Y-49836000D01*
X177293748Y-70052000D02*
X177816252Y-70052000D01*
X177293748Y-68632000D02*
X177816252Y-68632000D01*
X177807252Y-77014000D02*
X177284748Y-77014000D01*
X177807252Y-78434000D02*
X177284748Y-78434000D01*
X177816252Y-57964000D02*
X177293748Y-57964000D01*
X177816252Y-59384000D02*
X177293748Y-59384000D01*
X109481252Y-48820000D02*
X108958748Y-48820000D01*
X109481252Y-50240000D02*
X108958748Y-50240000D01*
X102880500Y-55083500D02*
X102880500Y-54458500D01*
X103193000Y-54771000D02*
X102568000Y-54771000D01*
X102328000Y-51390437D02*
X101263563Y-50326000D01*
X102328000Y-54781563D02*
X101263563Y-55846000D01*
X102328000Y-54781563D02*
X102328000Y-54146000D01*
X102328000Y-51390437D02*
X102328000Y-52026000D01*
X101263563Y-50326000D02*
X96808000Y-50326000D01*
X101263563Y-55846000D02*
X96808000Y-55846000D01*
X96808000Y-55846000D02*
X96808000Y-54146000D01*
X96808000Y-50326000D02*
X96808000Y-52026000D01*
X104700000Y-41394748D02*
X104700000Y-41917252D01*
X106120000Y-41394748D02*
X106120000Y-41917252D01*
D14*
X167068666Y-38670380D02*
X166735333Y-38194190D01*
X166497238Y-38670380D02*
X166497238Y-37670380D01*
X166878190Y-37670380D01*
X166973428Y-37718000D01*
X167021047Y-37765619D01*
X167068666Y-37860857D01*
X167068666Y-38003714D01*
X167021047Y-38098952D01*
X166973428Y-38146571D01*
X166878190Y-38194190D01*
X166497238Y-38194190D01*
X167497238Y-38146571D02*
X167830571Y-38146571D01*
X167973428Y-38670380D02*
X167497238Y-38670380D01*
X167497238Y-37670380D01*
X167973428Y-37670380D01*
X168735333Y-38146571D02*
X168402000Y-38146571D01*
X168402000Y-38670380D02*
X168402000Y-37670380D01*
X168878190Y-37670380D01*
X169402000Y-37670380D02*
X169402000Y-37908476D01*
X169163904Y-37813238D02*
X169402000Y-37908476D01*
X169640095Y-37813238D01*
X169259142Y-38098952D02*
X169402000Y-37908476D01*
X169544857Y-38098952D01*
X170163904Y-37670380D02*
X170163904Y-37908476D01*
X169925809Y-37813238D02*
X170163904Y-37908476D01*
X170402000Y-37813238D01*
X170021047Y-38098952D02*
X170163904Y-37908476D01*
X170306761Y-38098952D01*
X105346666Y-71436380D02*
X105013333Y-70960190D01*
X104775238Y-71436380D02*
X104775238Y-70436380D01*
X105156190Y-70436380D01*
X105251428Y-70484000D01*
X105299047Y-70531619D01*
X105346666Y-70626857D01*
X105346666Y-70769714D01*
X105299047Y-70864952D01*
X105251428Y-70912571D01*
X105156190Y-70960190D01*
X104775238Y-70960190D01*
X105775238Y-70912571D02*
X106108571Y-70912571D01*
X106251428Y-71436380D02*
X105775238Y-71436380D01*
X105775238Y-70436380D01*
X106251428Y-70436380D01*
X107013333Y-70912571D02*
X106680000Y-70912571D01*
X106680000Y-71436380D02*
X106680000Y-70436380D01*
X107156190Y-70436380D01*
X107680000Y-70436380D02*
X107680000Y-70674476D01*
X107441904Y-70579238D02*
X107680000Y-70674476D01*
X107918095Y-70579238D01*
X107537142Y-70864952D02*
X107680000Y-70674476D01*
X107822857Y-70864952D01*
X108441904Y-70436380D02*
X108441904Y-70674476D01*
X108203809Y-70579238D02*
X108441904Y-70674476D01*
X108680000Y-70579238D01*
X108299047Y-70864952D02*
X108441904Y-70674476D01*
X108584761Y-70864952D01*
X167068666Y-71436380D02*
X166735333Y-70960190D01*
X166497238Y-71436380D02*
X166497238Y-70436380D01*
X166878190Y-70436380D01*
X166973428Y-70484000D01*
X167021047Y-70531619D01*
X167068666Y-70626857D01*
X167068666Y-70769714D01*
X167021047Y-70864952D01*
X166973428Y-70912571D01*
X166878190Y-70960190D01*
X166497238Y-70960190D01*
X167497238Y-70912571D02*
X167830571Y-70912571D01*
X167973428Y-71436380D02*
X167497238Y-71436380D01*
X167497238Y-70436380D01*
X167973428Y-70436380D01*
X168735333Y-70912571D02*
X168402000Y-70912571D01*
X168402000Y-71436380D02*
X168402000Y-70436380D01*
X168878190Y-70436380D01*
X169402000Y-70436380D02*
X169402000Y-70674476D01*
X169163904Y-70579238D02*
X169402000Y-70674476D01*
X169640095Y-70579238D01*
X169259142Y-70864952D02*
X169402000Y-70674476D01*
X169544857Y-70864952D01*
X170163904Y-70436380D02*
X170163904Y-70674476D01*
X169925809Y-70579238D02*
X170163904Y-70674476D01*
X170402000Y-70579238D01*
X170021047Y-70864952D02*
X170163904Y-70674476D01*
X170306761Y-70864952D01*
X103084380Y-44783333D02*
X103798666Y-44783333D01*
X103941523Y-44830952D01*
X104036761Y-44926190D01*
X104084380Y-45069047D01*
X104084380Y-45164285D01*
X103512952Y-44164285D02*
X103465333Y-44259523D01*
X103417714Y-44307142D01*
X103322476Y-44354761D01*
X103274857Y-44354761D01*
X103179619Y-44307142D01*
X103132000Y-44259523D01*
X103084380Y-44164285D01*
X103084380Y-43973809D01*
X103132000Y-43878571D01*
X103179619Y-43830952D01*
X103274857Y-43783333D01*
X103322476Y-43783333D01*
X103417714Y-43830952D01*
X103465333Y-43878571D01*
X103512952Y-43973809D01*
X103512952Y-44164285D01*
X103560571Y-44259523D01*
X103608190Y-44307142D01*
X103703428Y-44354761D01*
X103893904Y-44354761D01*
X103989142Y-44307142D01*
X104036761Y-44259523D01*
X104084380Y-44164285D01*
X104084380Y-43973809D01*
X104036761Y-43878571D01*
X103989142Y-43830952D01*
X103893904Y-43783333D01*
X103703428Y-43783333D01*
X103608190Y-43830952D01*
X103560571Y-43878571D01*
X103512952Y-43973809D01*
X105442380Y-44449904D02*
X106251904Y-44449904D01*
X106347142Y-44402285D01*
X106394761Y-44354666D01*
X106442380Y-44259428D01*
X106442380Y-44068952D01*
X106394761Y-43973714D01*
X106347142Y-43926095D01*
X106251904Y-43878476D01*
X105442380Y-43878476D01*
X105775714Y-42973714D02*
X106442380Y-42973714D01*
X105394761Y-43211809D02*
X106109047Y-43449904D01*
X106109047Y-42830857D01*
X122740380Y-69849904D02*
X123549904Y-69849904D01*
X123645142Y-69802285D01*
X123692761Y-69754666D01*
X123740380Y-69659428D01*
X123740380Y-69468952D01*
X123692761Y-69373714D01*
X123645142Y-69326095D01*
X123549904Y-69278476D01*
X122740380Y-69278476D01*
X122740380Y-68897523D02*
X122740380Y-68278476D01*
X123121333Y-68611809D01*
X123121333Y-68468952D01*
X123168952Y-68373714D01*
X123216571Y-68326095D01*
X123311809Y-68278476D01*
X123549904Y-68278476D01*
X123645142Y-68326095D01*
X123692761Y-68373714D01*
X123740380Y-68468952D01*
X123740380Y-68754666D01*
X123692761Y-68849904D01*
X123645142Y-68897523D01*
X134424380Y-69849904D02*
X135233904Y-69849904D01*
X135329142Y-69802285D01*
X135376761Y-69754666D01*
X135424380Y-69659428D01*
X135424380Y-69468952D01*
X135376761Y-69373714D01*
X135329142Y-69326095D01*
X135233904Y-69278476D01*
X134424380Y-69278476D01*
X134519619Y-68849904D02*
X134472000Y-68802285D01*
X134424380Y-68707047D01*
X134424380Y-68468952D01*
X134472000Y-68373714D01*
X134519619Y-68326095D01*
X134614857Y-68278476D01*
X134710095Y-68278476D01*
X134852952Y-68326095D01*
X135424380Y-68897523D01*
X135424380Y-68278476D01*
X115842380Y-57197904D02*
X116651904Y-57197904D01*
X116747142Y-57150285D01*
X116794761Y-57102666D01*
X116842380Y-57007428D01*
X116842380Y-56816952D01*
X116794761Y-56721714D01*
X116747142Y-56674095D01*
X116651904Y-56626476D01*
X115842380Y-56626476D01*
X116842380Y-55626476D02*
X116842380Y-56197904D01*
X116842380Y-55912190D02*
X115842380Y-55912190D01*
X115985238Y-56007428D01*
X116080476Y-56102666D01*
X116128095Y-56197904D01*
X98742666Y-65547761D02*
X98885523Y-65595380D01*
X99123619Y-65595380D01*
X99218857Y-65547761D01*
X99266476Y-65500142D01*
X99314095Y-65404904D01*
X99314095Y-65309666D01*
X99266476Y-65214428D01*
X99218857Y-65166809D01*
X99123619Y-65119190D01*
X98933142Y-65071571D01*
X98837904Y-65023952D01*
X98790285Y-64976333D01*
X98742666Y-64881095D01*
X98742666Y-64785857D01*
X98790285Y-64690619D01*
X98837904Y-64643000D01*
X98933142Y-64595380D01*
X99171238Y-64595380D01*
X99314095Y-64643000D01*
X99647428Y-64595380D02*
X99885523Y-65595380D01*
X100076000Y-64881095D01*
X100266476Y-65595380D01*
X100504571Y-64595380D01*
X100837904Y-64690619D02*
X100885523Y-64643000D01*
X100980761Y-64595380D01*
X101218857Y-64595380D01*
X101314095Y-64643000D01*
X101361714Y-64690619D01*
X101409333Y-64785857D01*
X101409333Y-64881095D01*
X101361714Y-65023952D01*
X100790285Y-65595380D01*
X101409333Y-65595380D01*
X98783666Y-59132761D02*
X98926523Y-59180380D01*
X99164619Y-59180380D01*
X99259857Y-59132761D01*
X99307476Y-59085142D01*
X99355095Y-58989904D01*
X99355095Y-58894666D01*
X99307476Y-58799428D01*
X99259857Y-58751809D01*
X99164619Y-58704190D01*
X98974142Y-58656571D01*
X98878904Y-58608952D01*
X98831285Y-58561333D01*
X98783666Y-58466095D01*
X98783666Y-58370857D01*
X98831285Y-58275619D01*
X98878904Y-58228000D01*
X98974142Y-58180380D01*
X99212238Y-58180380D01*
X99355095Y-58228000D01*
X99688428Y-58180380D02*
X99926523Y-59180380D01*
X100117000Y-58466095D01*
X100307476Y-59180380D01*
X100545571Y-58180380D01*
X101450333Y-59180380D02*
X100878904Y-59180380D01*
X101164619Y-59180380D02*
X101164619Y-58180380D01*
X101069380Y-58323238D01*
X100974142Y-58418476D01*
X100878904Y-58466095D01*
X160346380Y-49909857D02*
X159870190Y-50243190D01*
X160346380Y-50481285D02*
X159346380Y-50481285D01*
X159346380Y-50100333D01*
X159394000Y-50005095D01*
X159441619Y-49957476D01*
X159536857Y-49909857D01*
X159679714Y-49909857D01*
X159774952Y-49957476D01*
X159822571Y-50005095D01*
X159870190Y-50100333D01*
X159870190Y-50481285D01*
X159346380Y-49576523D02*
X159346380Y-48957476D01*
X159727333Y-49290809D01*
X159727333Y-49147952D01*
X159774952Y-49052714D01*
X159822571Y-49005095D01*
X159917809Y-48957476D01*
X160155904Y-48957476D01*
X160251142Y-49005095D01*
X160298761Y-49052714D01*
X160346380Y-49147952D01*
X160346380Y-49433666D01*
X160298761Y-49528904D01*
X160251142Y-49576523D01*
X159346380Y-48624142D02*
X159346380Y-48005095D01*
X159727333Y-48338428D01*
X159727333Y-48195571D01*
X159774952Y-48100333D01*
X159822571Y-48052714D01*
X159917809Y-48005095D01*
X160155904Y-48005095D01*
X160251142Y-48052714D01*
X160298761Y-48100333D01*
X160346380Y-48195571D01*
X160346380Y-48481285D01*
X160298761Y-48576523D01*
X160251142Y-48624142D01*
X161360380Y-76842857D02*
X160884190Y-77176190D01*
X161360380Y-77414285D02*
X160360380Y-77414285D01*
X160360380Y-77033333D01*
X160408000Y-76938095D01*
X160455619Y-76890476D01*
X160550857Y-76842857D01*
X160693714Y-76842857D01*
X160788952Y-76890476D01*
X160836571Y-76938095D01*
X160884190Y-77033333D01*
X160884190Y-77414285D01*
X160360380Y-76509523D02*
X160360380Y-75890476D01*
X160741333Y-76223809D01*
X160741333Y-76080952D01*
X160788952Y-75985714D01*
X160836571Y-75938095D01*
X160931809Y-75890476D01*
X161169904Y-75890476D01*
X161265142Y-75938095D01*
X161312761Y-75985714D01*
X161360380Y-76080952D01*
X161360380Y-76366666D01*
X161312761Y-76461904D01*
X161265142Y-76509523D01*
X160455619Y-75509523D02*
X160408000Y-75461904D01*
X160360380Y-75366666D01*
X160360380Y-75128571D01*
X160408000Y-75033333D01*
X160455619Y-74985714D01*
X160550857Y-74938095D01*
X160646095Y-74938095D01*
X160788952Y-74985714D01*
X161360380Y-75557142D01*
X161360380Y-74938095D01*
X159328380Y-76842857D02*
X158852190Y-77176190D01*
X159328380Y-77414285D02*
X158328380Y-77414285D01*
X158328380Y-77033333D01*
X158376000Y-76938095D01*
X158423619Y-76890476D01*
X158518857Y-76842857D01*
X158661714Y-76842857D01*
X158756952Y-76890476D01*
X158804571Y-76938095D01*
X158852190Y-77033333D01*
X158852190Y-77414285D01*
X158328380Y-76509523D02*
X158328380Y-75890476D01*
X158709333Y-76223809D01*
X158709333Y-76080952D01*
X158756952Y-75985714D01*
X158804571Y-75938095D01*
X158899809Y-75890476D01*
X159137904Y-75890476D01*
X159233142Y-75938095D01*
X159280761Y-75985714D01*
X159328380Y-76080952D01*
X159328380Y-76366666D01*
X159280761Y-76461904D01*
X159233142Y-76509523D01*
X159328380Y-74938095D02*
X159328380Y-75509523D01*
X159328380Y-75223809D02*
X158328380Y-75223809D01*
X158471238Y-75319047D01*
X158566476Y-75414285D01*
X158614095Y-75509523D01*
X157296380Y-76851857D02*
X156820190Y-77185190D01*
X157296380Y-77423285D02*
X156296380Y-77423285D01*
X156296380Y-77042333D01*
X156344000Y-76947095D01*
X156391619Y-76899476D01*
X156486857Y-76851857D01*
X156629714Y-76851857D01*
X156724952Y-76899476D01*
X156772571Y-76947095D01*
X156820190Y-77042333D01*
X156820190Y-77423285D01*
X156296380Y-76518523D02*
X156296380Y-75899476D01*
X156677333Y-76232809D01*
X156677333Y-76089952D01*
X156724952Y-75994714D01*
X156772571Y-75947095D01*
X156867809Y-75899476D01*
X157105904Y-75899476D01*
X157201142Y-75947095D01*
X157248761Y-75994714D01*
X157296380Y-76089952D01*
X157296380Y-76375666D01*
X157248761Y-76470904D01*
X157201142Y-76518523D01*
X156296380Y-75280428D02*
X156296380Y-75185190D01*
X156344000Y-75089952D01*
X156391619Y-75042333D01*
X156486857Y-74994714D01*
X156677333Y-74947095D01*
X156915428Y-74947095D01*
X157105904Y-74994714D01*
X157201142Y-75042333D01*
X157248761Y-75089952D01*
X157296380Y-75185190D01*
X157296380Y-75280428D01*
X157248761Y-75375666D01*
X157201142Y-75423285D01*
X157105904Y-75470904D01*
X156915428Y-75518523D01*
X156677333Y-75518523D01*
X156486857Y-75470904D01*
X156391619Y-75423285D01*
X156344000Y-75375666D01*
X156296380Y-75280428D01*
X155264380Y-76833857D02*
X154788190Y-77167190D01*
X155264380Y-77405285D02*
X154264380Y-77405285D01*
X154264380Y-77024333D01*
X154312000Y-76929095D01*
X154359619Y-76881476D01*
X154454857Y-76833857D01*
X154597714Y-76833857D01*
X154692952Y-76881476D01*
X154740571Y-76929095D01*
X154788190Y-77024333D01*
X154788190Y-77405285D01*
X154359619Y-76452904D02*
X154312000Y-76405285D01*
X154264380Y-76310047D01*
X154264380Y-76071952D01*
X154312000Y-75976714D01*
X154359619Y-75929095D01*
X154454857Y-75881476D01*
X154550095Y-75881476D01*
X154692952Y-75929095D01*
X155264380Y-76500523D01*
X155264380Y-75881476D01*
X155264380Y-75405285D02*
X155264380Y-75214809D01*
X155216761Y-75119571D01*
X155169142Y-75071952D01*
X155026285Y-74976714D01*
X154835809Y-74929095D01*
X154454857Y-74929095D01*
X154359619Y-74976714D01*
X154312000Y-75024333D01*
X154264380Y-75119571D01*
X154264380Y-75310047D01*
X154312000Y-75405285D01*
X154359619Y-75452904D01*
X154454857Y-75500523D01*
X154692952Y-75500523D01*
X154788190Y-75452904D01*
X154835809Y-75405285D01*
X154883428Y-75310047D01*
X154883428Y-75119571D01*
X154835809Y-75024333D01*
X154788190Y-74976714D01*
X154692952Y-74929095D01*
X146178142Y-62046380D02*
X145844809Y-61570190D01*
X145606714Y-62046380D02*
X145606714Y-61046380D01*
X145987666Y-61046380D01*
X146082904Y-61094000D01*
X146130523Y-61141619D01*
X146178142Y-61236857D01*
X146178142Y-61379714D01*
X146130523Y-61474952D01*
X146082904Y-61522571D01*
X145987666Y-61570190D01*
X145606714Y-61570190D01*
X146559095Y-61141619D02*
X146606714Y-61094000D01*
X146701952Y-61046380D01*
X146940047Y-61046380D01*
X147035285Y-61094000D01*
X147082904Y-61141619D01*
X147130523Y-61236857D01*
X147130523Y-61332095D01*
X147082904Y-61474952D01*
X146511476Y-62046380D01*
X147130523Y-62046380D01*
X147701952Y-61474952D02*
X147606714Y-61427333D01*
X147559095Y-61379714D01*
X147511476Y-61284476D01*
X147511476Y-61236857D01*
X147559095Y-61141619D01*
X147606714Y-61094000D01*
X147701952Y-61046380D01*
X147892428Y-61046380D01*
X147987666Y-61094000D01*
X148035285Y-61141619D01*
X148082904Y-61236857D01*
X148082904Y-61284476D01*
X148035285Y-61379714D01*
X147987666Y-61427333D01*
X147892428Y-61474952D01*
X147701952Y-61474952D01*
X147606714Y-61522571D01*
X147559095Y-61570190D01*
X147511476Y-61665428D01*
X147511476Y-61855904D01*
X147559095Y-61951142D01*
X147606714Y-61998761D01*
X147701952Y-62046380D01*
X147892428Y-62046380D01*
X147987666Y-61998761D01*
X148035285Y-61951142D01*
X148082904Y-61855904D01*
X148082904Y-61665428D01*
X148035285Y-61570190D01*
X147987666Y-61522571D01*
X147892428Y-61474952D01*
X146160142Y-64078380D02*
X145826809Y-63602190D01*
X145588714Y-64078380D02*
X145588714Y-63078380D01*
X145969666Y-63078380D01*
X146064904Y-63126000D01*
X146112523Y-63173619D01*
X146160142Y-63268857D01*
X146160142Y-63411714D01*
X146112523Y-63506952D01*
X146064904Y-63554571D01*
X145969666Y-63602190D01*
X145588714Y-63602190D01*
X146541095Y-63173619D02*
X146588714Y-63126000D01*
X146683952Y-63078380D01*
X146922047Y-63078380D01*
X147017285Y-63126000D01*
X147064904Y-63173619D01*
X147112523Y-63268857D01*
X147112523Y-63364095D01*
X147064904Y-63506952D01*
X146493476Y-64078380D01*
X147112523Y-64078380D01*
X147445857Y-63078380D02*
X148112523Y-63078380D01*
X147683952Y-64078380D01*
X154248380Y-69984857D02*
X153772190Y-70318190D01*
X154248380Y-70556285D02*
X153248380Y-70556285D01*
X153248380Y-70175333D01*
X153296000Y-70080095D01*
X153343619Y-70032476D01*
X153438857Y-69984857D01*
X153581714Y-69984857D01*
X153676952Y-70032476D01*
X153724571Y-70080095D01*
X153772190Y-70175333D01*
X153772190Y-70556285D01*
X153343619Y-69603904D02*
X153296000Y-69556285D01*
X153248380Y-69461047D01*
X153248380Y-69222952D01*
X153296000Y-69127714D01*
X153343619Y-69080095D01*
X153438857Y-69032476D01*
X153534095Y-69032476D01*
X153676952Y-69080095D01*
X154248380Y-69651523D01*
X154248380Y-69032476D01*
X153248380Y-68175333D02*
X153248380Y-68365809D01*
X153296000Y-68461047D01*
X153343619Y-68508666D01*
X153486476Y-68603904D01*
X153676952Y-68651523D01*
X154057904Y-68651523D01*
X154153142Y-68603904D01*
X154200761Y-68556285D01*
X154248380Y-68461047D01*
X154248380Y-68270571D01*
X154200761Y-68175333D01*
X154153142Y-68127714D01*
X154057904Y-68080095D01*
X153819809Y-68080095D01*
X153724571Y-68127714D01*
X153676952Y-68175333D01*
X153629333Y-68270571D01*
X153629333Y-68461047D01*
X153676952Y-68556285D01*
X153724571Y-68603904D01*
X153819809Y-68651523D01*
X117672380Y-42552857D02*
X117196190Y-42886190D01*
X117672380Y-43124285D02*
X116672380Y-43124285D01*
X116672380Y-42743333D01*
X116720000Y-42648095D01*
X116767619Y-42600476D01*
X116862857Y-42552857D01*
X117005714Y-42552857D01*
X117100952Y-42600476D01*
X117148571Y-42648095D01*
X117196190Y-42743333D01*
X117196190Y-43124285D01*
X116767619Y-42171904D02*
X116720000Y-42124285D01*
X116672380Y-42029047D01*
X116672380Y-41790952D01*
X116720000Y-41695714D01*
X116767619Y-41648095D01*
X116862857Y-41600476D01*
X116958095Y-41600476D01*
X117100952Y-41648095D01*
X117672380Y-42219523D01*
X117672380Y-41600476D01*
X116672380Y-40695714D02*
X116672380Y-41171904D01*
X117148571Y-41219523D01*
X117100952Y-41171904D01*
X117053333Y-41076666D01*
X117053333Y-40838571D01*
X117100952Y-40743333D01*
X117148571Y-40695714D01*
X117243809Y-40648095D01*
X117481904Y-40648095D01*
X117577142Y-40695714D01*
X117624761Y-40743333D01*
X117672380Y-40838571D01*
X117672380Y-41076666D01*
X117624761Y-41171904D01*
X117577142Y-41219523D01*
X145104380Y-56776857D02*
X144628190Y-57110190D01*
X145104380Y-57348285D02*
X144104380Y-57348285D01*
X144104380Y-56967333D01*
X144152000Y-56872095D01*
X144199619Y-56824476D01*
X144294857Y-56776857D01*
X144437714Y-56776857D01*
X144532952Y-56824476D01*
X144580571Y-56872095D01*
X144628190Y-56967333D01*
X144628190Y-57348285D01*
X144199619Y-56395904D02*
X144152000Y-56348285D01*
X144104380Y-56253047D01*
X144104380Y-56014952D01*
X144152000Y-55919714D01*
X144199619Y-55872095D01*
X144294857Y-55824476D01*
X144390095Y-55824476D01*
X144532952Y-55872095D01*
X145104380Y-56443523D01*
X145104380Y-55824476D01*
X144437714Y-54967333D02*
X145104380Y-54967333D01*
X144056761Y-55205428D02*
X144771047Y-55443523D01*
X144771047Y-54824476D01*
X146160142Y-57982380D02*
X145826809Y-57506190D01*
X145588714Y-57982380D02*
X145588714Y-56982380D01*
X145969666Y-56982380D01*
X146064904Y-57030000D01*
X146112523Y-57077619D01*
X146160142Y-57172857D01*
X146160142Y-57315714D01*
X146112523Y-57410952D01*
X146064904Y-57458571D01*
X145969666Y-57506190D01*
X145588714Y-57506190D01*
X146541095Y-57077619D02*
X146588714Y-57030000D01*
X146683952Y-56982380D01*
X146922047Y-56982380D01*
X147017285Y-57030000D01*
X147064904Y-57077619D01*
X147112523Y-57172857D01*
X147112523Y-57268095D01*
X147064904Y-57410952D01*
X146493476Y-57982380D01*
X147112523Y-57982380D01*
X147445857Y-56982380D02*
X148064904Y-56982380D01*
X147731571Y-57363333D01*
X147874428Y-57363333D01*
X147969666Y-57410952D01*
X148017285Y-57458571D01*
X148064904Y-57553809D01*
X148064904Y-57791904D01*
X148017285Y-57887142D01*
X147969666Y-57934761D01*
X147874428Y-57982380D01*
X147588714Y-57982380D01*
X147493476Y-57934761D01*
X147445857Y-57887142D01*
X146160142Y-60014380D02*
X145826809Y-59538190D01*
X145588714Y-60014380D02*
X145588714Y-59014380D01*
X145969666Y-59014380D01*
X146064904Y-59062000D01*
X146112523Y-59109619D01*
X146160142Y-59204857D01*
X146160142Y-59347714D01*
X146112523Y-59442952D01*
X146064904Y-59490571D01*
X145969666Y-59538190D01*
X145588714Y-59538190D01*
X146541095Y-59109619D02*
X146588714Y-59062000D01*
X146683952Y-59014380D01*
X146922047Y-59014380D01*
X147017285Y-59062000D01*
X147064904Y-59109619D01*
X147112523Y-59204857D01*
X147112523Y-59300095D01*
X147064904Y-59442952D01*
X146493476Y-60014380D01*
X147112523Y-60014380D01*
X147493476Y-59109619D02*
X147541095Y-59062000D01*
X147636333Y-59014380D01*
X147874428Y-59014380D01*
X147969666Y-59062000D01*
X148017285Y-59109619D01*
X148064904Y-59204857D01*
X148064904Y-59300095D01*
X148017285Y-59442952D01*
X147445857Y-60014380D01*
X148064904Y-60014380D01*
X104466380Y-67698857D02*
X103990190Y-68032190D01*
X104466380Y-68270285D02*
X103466380Y-68270285D01*
X103466380Y-67889333D01*
X103514000Y-67794095D01*
X103561619Y-67746476D01*
X103656857Y-67698857D01*
X103799714Y-67698857D01*
X103894952Y-67746476D01*
X103942571Y-67794095D01*
X103990190Y-67889333D01*
X103990190Y-68270285D01*
X103561619Y-67317904D02*
X103514000Y-67270285D01*
X103466380Y-67175047D01*
X103466380Y-66936952D01*
X103514000Y-66841714D01*
X103561619Y-66794095D01*
X103656857Y-66746476D01*
X103752095Y-66746476D01*
X103894952Y-66794095D01*
X104466380Y-67365523D01*
X104466380Y-66746476D01*
X104466380Y-65794095D02*
X104466380Y-66365523D01*
X104466380Y-66079809D02*
X103466380Y-66079809D01*
X103609238Y-66175047D01*
X103704476Y-66270285D01*
X103752095Y-66365523D01*
X104466380Y-61348857D02*
X103990190Y-61682190D01*
X104466380Y-61920285D02*
X103466380Y-61920285D01*
X103466380Y-61539333D01*
X103514000Y-61444095D01*
X103561619Y-61396476D01*
X103656857Y-61348857D01*
X103799714Y-61348857D01*
X103894952Y-61396476D01*
X103942571Y-61444095D01*
X103990190Y-61539333D01*
X103990190Y-61920285D01*
X103561619Y-60967904D02*
X103514000Y-60920285D01*
X103466380Y-60825047D01*
X103466380Y-60586952D01*
X103514000Y-60491714D01*
X103561619Y-60444095D01*
X103656857Y-60396476D01*
X103752095Y-60396476D01*
X103894952Y-60444095D01*
X104466380Y-61015523D01*
X104466380Y-60396476D01*
X103466380Y-59777428D02*
X103466380Y-59682190D01*
X103514000Y-59586952D01*
X103561619Y-59539333D01*
X103656857Y-59491714D01*
X103847333Y-59444095D01*
X104085428Y-59444095D01*
X104275904Y-59491714D01*
X104371142Y-59539333D01*
X104418761Y-59586952D01*
X104466380Y-59682190D01*
X104466380Y-59777428D01*
X104418761Y-59872666D01*
X104371142Y-59920285D01*
X104275904Y-59967904D01*
X104085428Y-60015523D01*
X103847333Y-60015523D01*
X103656857Y-59967904D01*
X103561619Y-59920285D01*
X103514000Y-59872666D01*
X103466380Y-59777428D01*
X156280380Y-69975857D02*
X155804190Y-70309190D01*
X156280380Y-70547285D02*
X155280380Y-70547285D01*
X155280380Y-70166333D01*
X155328000Y-70071095D01*
X155375619Y-70023476D01*
X155470857Y-69975857D01*
X155613714Y-69975857D01*
X155708952Y-70023476D01*
X155756571Y-70071095D01*
X155804190Y-70166333D01*
X155804190Y-70547285D01*
X156280380Y-69023476D02*
X156280380Y-69594904D01*
X156280380Y-69309190D02*
X155280380Y-69309190D01*
X155423238Y-69404428D01*
X155518476Y-69499666D01*
X155566095Y-69594904D01*
X156280380Y-68547285D02*
X156280380Y-68356809D01*
X156232761Y-68261571D01*
X156185142Y-68213952D01*
X156042285Y-68118714D01*
X155851809Y-68071095D01*
X155470857Y-68071095D01*
X155375619Y-68118714D01*
X155328000Y-68166333D01*
X155280380Y-68261571D01*
X155280380Y-68452047D01*
X155328000Y-68547285D01*
X155375619Y-68594904D01*
X155470857Y-68642523D01*
X155708952Y-68642523D01*
X155804190Y-68594904D01*
X155851809Y-68547285D01*
X155899428Y-68452047D01*
X155899428Y-68261571D01*
X155851809Y-68166333D01*
X155804190Y-68118714D01*
X155708952Y-68071095D01*
X158312380Y-69975857D02*
X157836190Y-70309190D01*
X158312380Y-70547285D02*
X157312380Y-70547285D01*
X157312380Y-70166333D01*
X157360000Y-70071095D01*
X157407619Y-70023476D01*
X157502857Y-69975857D01*
X157645714Y-69975857D01*
X157740952Y-70023476D01*
X157788571Y-70071095D01*
X157836190Y-70166333D01*
X157836190Y-70547285D01*
X158312380Y-69023476D02*
X158312380Y-69594904D01*
X158312380Y-69309190D02*
X157312380Y-69309190D01*
X157455238Y-69404428D01*
X157550476Y-69499666D01*
X157598095Y-69594904D01*
X157740952Y-68452047D02*
X157693333Y-68547285D01*
X157645714Y-68594904D01*
X157550476Y-68642523D01*
X157502857Y-68642523D01*
X157407619Y-68594904D01*
X157360000Y-68547285D01*
X157312380Y-68452047D01*
X157312380Y-68261571D01*
X157360000Y-68166333D01*
X157407619Y-68118714D01*
X157502857Y-68071095D01*
X157550476Y-68071095D01*
X157645714Y-68118714D01*
X157693333Y-68166333D01*
X157740952Y-68261571D01*
X157740952Y-68452047D01*
X157788571Y-68547285D01*
X157836190Y-68594904D01*
X157931428Y-68642523D01*
X158121904Y-68642523D01*
X158217142Y-68594904D01*
X158264761Y-68547285D01*
X158312380Y-68452047D01*
X158312380Y-68261571D01*
X158264761Y-68166333D01*
X158217142Y-68118714D01*
X158121904Y-68071095D01*
X157931428Y-68071095D01*
X157836190Y-68118714D01*
X157788571Y-68166333D01*
X157740952Y-68261571D01*
X156282380Y-49909857D02*
X155806190Y-50243190D01*
X156282380Y-50481285D02*
X155282380Y-50481285D01*
X155282380Y-50100333D01*
X155330000Y-50005095D01*
X155377619Y-49957476D01*
X155472857Y-49909857D01*
X155615714Y-49909857D01*
X155710952Y-49957476D01*
X155758571Y-50005095D01*
X155806190Y-50100333D01*
X155806190Y-50481285D01*
X156282380Y-48957476D02*
X156282380Y-49528904D01*
X156282380Y-49243190D02*
X155282380Y-49243190D01*
X155425238Y-49338428D01*
X155520476Y-49433666D01*
X155568095Y-49528904D01*
X155282380Y-48624142D02*
X155282380Y-47957476D01*
X156282380Y-48386047D01*
X158314380Y-49918857D02*
X157838190Y-50252190D01*
X158314380Y-50490285D02*
X157314380Y-50490285D01*
X157314380Y-50109333D01*
X157362000Y-50014095D01*
X157409619Y-49966476D01*
X157504857Y-49918857D01*
X157647714Y-49918857D01*
X157742952Y-49966476D01*
X157790571Y-50014095D01*
X157838190Y-50109333D01*
X157838190Y-50490285D01*
X158314380Y-48966476D02*
X158314380Y-49537904D01*
X158314380Y-49252190D02*
X157314380Y-49252190D01*
X157457238Y-49347428D01*
X157552476Y-49442666D01*
X157600095Y-49537904D01*
X157314380Y-48109333D02*
X157314380Y-48299809D01*
X157362000Y-48395047D01*
X157409619Y-48442666D01*
X157552476Y-48537904D01*
X157742952Y-48585523D01*
X158123904Y-48585523D01*
X158219142Y-48537904D01*
X158266761Y-48490285D01*
X158314380Y-48395047D01*
X158314380Y-48204571D01*
X158266761Y-48109333D01*
X158219142Y-48061714D01*
X158123904Y-48014095D01*
X157885809Y-48014095D01*
X157790571Y-48061714D01*
X157742952Y-48109333D01*
X157695333Y-48204571D01*
X157695333Y-48395047D01*
X157742952Y-48490285D01*
X157790571Y-48537904D01*
X157885809Y-48585523D01*
X170562142Y-57476380D02*
X170228809Y-57000190D01*
X169990714Y-57476380D02*
X169990714Y-56476380D01*
X170371666Y-56476380D01*
X170466904Y-56524000D01*
X170514523Y-56571619D01*
X170562142Y-56666857D01*
X170562142Y-56809714D01*
X170514523Y-56904952D01*
X170466904Y-56952571D01*
X170371666Y-57000190D01*
X169990714Y-57000190D01*
X171514523Y-57476380D02*
X170943095Y-57476380D01*
X171228809Y-57476380D02*
X171228809Y-56476380D01*
X171133571Y-56619238D01*
X171038333Y-56714476D01*
X170943095Y-56762095D01*
X172419285Y-56476380D02*
X171943095Y-56476380D01*
X171895476Y-56952571D01*
X171943095Y-56904952D01*
X172038333Y-56857333D01*
X172276428Y-56857333D01*
X172371666Y-56904952D01*
X172419285Y-56952571D01*
X172466904Y-57047809D01*
X172466904Y-57285904D01*
X172419285Y-57381142D01*
X172371666Y-57428761D01*
X172276428Y-57476380D01*
X172038333Y-57476380D01*
X171943095Y-57428761D01*
X171895476Y-57381142D01*
X176903142Y-48584380D02*
X176569809Y-48108190D01*
X176331714Y-48584380D02*
X176331714Y-47584380D01*
X176712666Y-47584380D01*
X176807904Y-47632000D01*
X176855523Y-47679619D01*
X176903142Y-47774857D01*
X176903142Y-47917714D01*
X176855523Y-48012952D01*
X176807904Y-48060571D01*
X176712666Y-48108190D01*
X176331714Y-48108190D01*
X177855523Y-48584380D02*
X177284095Y-48584380D01*
X177569809Y-48584380D02*
X177569809Y-47584380D01*
X177474571Y-47727238D01*
X177379333Y-47822476D01*
X177284095Y-47870095D01*
X178712666Y-47917714D02*
X178712666Y-48584380D01*
X178474571Y-47536761D02*
X178236476Y-48251047D01*
X178855523Y-48251047D01*
X176894142Y-69412380D02*
X176560809Y-68936190D01*
X176322714Y-69412380D02*
X176322714Y-68412380D01*
X176703666Y-68412380D01*
X176798904Y-68460000D01*
X176846523Y-68507619D01*
X176894142Y-68602857D01*
X176894142Y-68745714D01*
X176846523Y-68840952D01*
X176798904Y-68888571D01*
X176703666Y-68936190D01*
X176322714Y-68936190D01*
X177846523Y-69412380D02*
X177275095Y-69412380D01*
X177560809Y-69412380D02*
X177560809Y-68412380D01*
X177465571Y-68555238D01*
X177370333Y-68650476D01*
X177275095Y-68698095D01*
X178179857Y-68412380D02*
X178798904Y-68412380D01*
X178465571Y-68793333D01*
X178608428Y-68793333D01*
X178703666Y-68840952D01*
X178751285Y-68888571D01*
X178798904Y-68983809D01*
X178798904Y-69221904D01*
X178751285Y-69317142D01*
X178703666Y-69364761D01*
X178608428Y-69412380D01*
X178322714Y-69412380D01*
X178227476Y-69364761D01*
X178179857Y-69317142D01*
X176903142Y-50616380D02*
X176569809Y-50140190D01*
X176331714Y-50616380D02*
X176331714Y-49616380D01*
X176712666Y-49616380D01*
X176807904Y-49664000D01*
X176855523Y-49711619D01*
X176903142Y-49806857D01*
X176903142Y-49949714D01*
X176855523Y-50044952D01*
X176807904Y-50092571D01*
X176712666Y-50140190D01*
X176331714Y-50140190D01*
X177855523Y-50616380D02*
X177284095Y-50616380D01*
X177569809Y-50616380D02*
X177569809Y-49616380D01*
X177474571Y-49759238D01*
X177379333Y-49854476D01*
X177284095Y-49902095D01*
X178236476Y-49711619D02*
X178284095Y-49664000D01*
X178379333Y-49616380D01*
X178617428Y-49616380D01*
X178712666Y-49664000D01*
X178760285Y-49711619D01*
X178807904Y-49806857D01*
X178807904Y-49902095D01*
X178760285Y-50044952D01*
X178188857Y-50616380D01*
X178807904Y-50616380D01*
X176894142Y-67126380D02*
X176560809Y-66650190D01*
X176322714Y-67126380D02*
X176322714Y-66126380D01*
X176703666Y-66126380D01*
X176798904Y-66174000D01*
X176846523Y-66221619D01*
X176894142Y-66316857D01*
X176894142Y-66459714D01*
X176846523Y-66554952D01*
X176798904Y-66602571D01*
X176703666Y-66650190D01*
X176322714Y-66650190D01*
X177846523Y-67126380D02*
X177275095Y-67126380D01*
X177560809Y-67126380D02*
X177560809Y-66126380D01*
X177465571Y-66269238D01*
X177370333Y-66364476D01*
X177275095Y-66412095D01*
X178798904Y-67126380D02*
X178227476Y-67126380D01*
X178513190Y-67126380D02*
X178513190Y-66126380D01*
X178417952Y-66269238D01*
X178322714Y-66364476D01*
X178227476Y-66412095D01*
X176894142Y-54680380D02*
X176560809Y-54204190D01*
X176322714Y-54680380D02*
X176322714Y-53680380D01*
X176703666Y-53680380D01*
X176798904Y-53728000D01*
X176846523Y-53775619D01*
X176894142Y-53870857D01*
X176894142Y-54013714D01*
X176846523Y-54108952D01*
X176798904Y-54156571D01*
X176703666Y-54204190D01*
X176322714Y-54204190D01*
X177846523Y-54680380D02*
X177275095Y-54680380D01*
X177560809Y-54680380D02*
X177560809Y-53680380D01*
X177465571Y-53823238D01*
X177370333Y-53918476D01*
X177275095Y-53966095D01*
X178465571Y-53680380D02*
X178560809Y-53680380D01*
X178656047Y-53728000D01*
X178703666Y-53775619D01*
X178751285Y-53870857D01*
X178798904Y-54061333D01*
X178798904Y-54299428D01*
X178751285Y-54489904D01*
X178703666Y-54585142D01*
X178656047Y-54632761D01*
X178560809Y-54680380D01*
X178465571Y-54680380D01*
X178370333Y-54632761D01*
X178322714Y-54585142D01*
X178275095Y-54489904D01*
X178227476Y-54299428D01*
X178227476Y-54061333D01*
X178275095Y-53870857D01*
X178322714Y-53775619D01*
X178370333Y-53728000D01*
X178465571Y-53680380D01*
X177379333Y-75508380D02*
X177046000Y-75032190D01*
X176807904Y-75508380D02*
X176807904Y-74508380D01*
X177188857Y-74508380D01*
X177284095Y-74556000D01*
X177331714Y-74603619D01*
X177379333Y-74698857D01*
X177379333Y-74841714D01*
X177331714Y-74936952D01*
X177284095Y-74984571D01*
X177188857Y-75032190D01*
X176807904Y-75032190D01*
X177855523Y-75508380D02*
X178046000Y-75508380D01*
X178141238Y-75460761D01*
X178188857Y-75413142D01*
X178284095Y-75270285D01*
X178331714Y-75079809D01*
X178331714Y-74698857D01*
X178284095Y-74603619D01*
X178236476Y-74556000D01*
X178141238Y-74508380D01*
X177950761Y-74508380D01*
X177855523Y-74556000D01*
X177807904Y-74603619D01*
X177760285Y-74698857D01*
X177760285Y-74936952D01*
X177807904Y-75032190D01*
X177855523Y-75079809D01*
X177950761Y-75127428D01*
X178141238Y-75127428D01*
X178236476Y-75079809D01*
X178284095Y-75032190D01*
X178331714Y-74936952D01*
X177379333Y-56712380D02*
X177046000Y-56236190D01*
X176807904Y-56712380D02*
X176807904Y-55712380D01*
X177188857Y-55712380D01*
X177284095Y-55760000D01*
X177331714Y-55807619D01*
X177379333Y-55902857D01*
X177379333Y-56045714D01*
X177331714Y-56140952D01*
X177284095Y-56188571D01*
X177188857Y-56236190D01*
X176807904Y-56236190D01*
X177950761Y-56140952D02*
X177855523Y-56093333D01*
X177807904Y-56045714D01*
X177760285Y-55950476D01*
X177760285Y-55902857D01*
X177807904Y-55807619D01*
X177855523Y-55760000D01*
X177950761Y-55712380D01*
X178141238Y-55712380D01*
X178236476Y-55760000D01*
X178284095Y-55807619D01*
X178331714Y-55902857D01*
X178331714Y-55950476D01*
X178284095Y-56045714D01*
X178236476Y-56093333D01*
X178141238Y-56140952D01*
X177950761Y-56140952D01*
X177855523Y-56188571D01*
X177807904Y-56236190D01*
X177760285Y-56331428D01*
X177760285Y-56521904D01*
X177807904Y-56617142D01*
X177855523Y-56664761D01*
X177950761Y-56712380D01*
X178141238Y-56712380D01*
X178236476Y-56664761D01*
X178284095Y-56617142D01*
X178331714Y-56521904D01*
X178331714Y-56331428D01*
X178284095Y-56236190D01*
X178236476Y-56188571D01*
X178141238Y-56140952D01*
X177379333Y-73476380D02*
X177046000Y-73000190D01*
X176807904Y-73476380D02*
X176807904Y-72476380D01*
X177188857Y-72476380D01*
X177284095Y-72524000D01*
X177331714Y-72571619D01*
X177379333Y-72666857D01*
X177379333Y-72809714D01*
X177331714Y-72904952D01*
X177284095Y-72952571D01*
X177188857Y-73000190D01*
X176807904Y-73000190D01*
X177712666Y-72476380D02*
X178379333Y-72476380D01*
X177950761Y-73476380D01*
X119721333Y-72716380D02*
X119388000Y-72240190D01*
X119149904Y-72716380D02*
X119149904Y-71716380D01*
X119530857Y-71716380D01*
X119626095Y-71764000D01*
X119673714Y-71811619D01*
X119721333Y-71906857D01*
X119721333Y-72049714D01*
X119673714Y-72144952D01*
X119626095Y-72192571D01*
X119530857Y-72240190D01*
X119149904Y-72240190D01*
X120578476Y-71716380D02*
X120388000Y-71716380D01*
X120292761Y-71764000D01*
X120245142Y-71811619D01*
X120149904Y-71954476D01*
X120102285Y-72144952D01*
X120102285Y-72525904D01*
X120149904Y-72621142D01*
X120197523Y-72668761D01*
X120292761Y-72716380D01*
X120483238Y-72716380D01*
X120578476Y-72668761D01*
X120626095Y-72621142D01*
X120673714Y-72525904D01*
X120673714Y-72287809D01*
X120626095Y-72192571D01*
X120578476Y-72144952D01*
X120483238Y-72097333D01*
X120292761Y-72097333D01*
X120197523Y-72144952D01*
X120149904Y-72192571D01*
X120102285Y-72287809D01*
X131659333Y-72716380D02*
X131326000Y-72240190D01*
X131087904Y-72716380D02*
X131087904Y-71716380D01*
X131468857Y-71716380D01*
X131564095Y-71764000D01*
X131611714Y-71811619D01*
X131659333Y-71906857D01*
X131659333Y-72049714D01*
X131611714Y-72144952D01*
X131564095Y-72192571D01*
X131468857Y-72240190D01*
X131087904Y-72240190D01*
X132564095Y-71716380D02*
X132087904Y-71716380D01*
X132040285Y-72192571D01*
X132087904Y-72144952D01*
X132183142Y-72097333D01*
X132421238Y-72097333D01*
X132516476Y-72144952D01*
X132564095Y-72192571D01*
X132611714Y-72287809D01*
X132611714Y-72525904D01*
X132564095Y-72621142D01*
X132516476Y-72668761D01*
X132421238Y-72716380D01*
X132183142Y-72716380D01*
X132087904Y-72668761D01*
X132040285Y-72621142D01*
X177379333Y-55444380D02*
X177046000Y-54968190D01*
X176807904Y-55444380D02*
X176807904Y-54444380D01*
X177188857Y-54444380D01*
X177284095Y-54492000D01*
X177331714Y-54539619D01*
X177379333Y-54634857D01*
X177379333Y-54777714D01*
X177331714Y-54872952D01*
X177284095Y-54920571D01*
X177188857Y-54968190D01*
X176807904Y-54968190D01*
X178236476Y-54777714D02*
X178236476Y-55444380D01*
X177998380Y-54396761D02*
X177760285Y-55111047D01*
X178379333Y-55111047D01*
X177379333Y-40966380D02*
X177046000Y-40490190D01*
X176807904Y-40966380D02*
X176807904Y-39966380D01*
X177188857Y-39966380D01*
X177284095Y-40014000D01*
X177331714Y-40061619D01*
X177379333Y-40156857D01*
X177379333Y-40299714D01*
X177331714Y-40394952D01*
X177284095Y-40442571D01*
X177188857Y-40490190D01*
X176807904Y-40490190D01*
X177712666Y-39966380D02*
X178331714Y-39966380D01*
X177998380Y-40347333D01*
X178141238Y-40347333D01*
X178236476Y-40394952D01*
X178284095Y-40442571D01*
X178331714Y-40537809D01*
X178331714Y-40775904D01*
X178284095Y-40871142D01*
X178236476Y-40918761D01*
X178141238Y-40966380D01*
X177855523Y-40966380D01*
X177760285Y-40918761D01*
X177712666Y-40871142D01*
X177370333Y-74494380D02*
X177037000Y-74018190D01*
X176798904Y-74494380D02*
X176798904Y-73494380D01*
X177179857Y-73494380D01*
X177275095Y-73542000D01*
X177322714Y-73589619D01*
X177370333Y-73684857D01*
X177370333Y-73827714D01*
X177322714Y-73922952D01*
X177275095Y-73970571D01*
X177179857Y-74018190D01*
X176798904Y-74018190D01*
X177751285Y-73589619D02*
X177798904Y-73542000D01*
X177894142Y-73494380D01*
X178132238Y-73494380D01*
X178227476Y-73542000D01*
X178275095Y-73589619D01*
X178322714Y-73684857D01*
X178322714Y-73780095D01*
X178275095Y-73922952D01*
X177703666Y-74494380D01*
X178322714Y-74494380D01*
X177388333Y-59508380D02*
X177055000Y-59032190D01*
X176816904Y-59508380D02*
X176816904Y-58508380D01*
X177197857Y-58508380D01*
X177293095Y-58556000D01*
X177340714Y-58603619D01*
X177388333Y-58698857D01*
X177388333Y-58841714D01*
X177340714Y-58936952D01*
X177293095Y-58984571D01*
X177197857Y-59032190D01*
X176816904Y-59032190D01*
X178340714Y-59508380D02*
X177769285Y-59508380D01*
X178055000Y-59508380D02*
X178055000Y-58508380D01*
X177959761Y-58651238D01*
X177864523Y-58746476D01*
X177769285Y-58794095D01*
X124142380Y-77041333D02*
X124856666Y-77041333D01*
X124999523Y-77088952D01*
X125094761Y-77184190D01*
X125142380Y-77327047D01*
X125142380Y-77422285D01*
X124142380Y-76660380D02*
X124142380Y-75993714D01*
X125142380Y-76422285D01*
X135826380Y-77041333D02*
X136540666Y-77041333D01*
X136683523Y-77088952D01*
X136778761Y-77184190D01*
X136826380Y-77327047D01*
X136826380Y-77422285D01*
X135826380Y-76136571D02*
X135826380Y-76327047D01*
X135874000Y-76422285D01*
X135921619Y-76469904D01*
X136064476Y-76565142D01*
X136254952Y-76612761D01*
X136635904Y-76612761D01*
X136731142Y-76565142D01*
X136778761Y-76517523D01*
X136826380Y-76422285D01*
X136826380Y-76231809D01*
X136778761Y-76136571D01*
X136731142Y-76088952D01*
X136635904Y-76041333D01*
X136397809Y-76041333D01*
X136302571Y-76088952D01*
X136254952Y-76136571D01*
X136207333Y-76231809D01*
X136207333Y-76422285D01*
X136254952Y-76517523D01*
X136302571Y-76565142D01*
X136397809Y-76612761D01*
D15*
X190940523Y-49064333D02*
X191847666Y-49064333D01*
X192029095Y-49124809D01*
X192150047Y-49245761D01*
X192210523Y-49427190D01*
X192210523Y-49548142D01*
X190940523Y-47854809D02*
X190940523Y-48459571D01*
X191545285Y-48520047D01*
X191484809Y-48459571D01*
X191424333Y-48338619D01*
X191424333Y-48036238D01*
X191484809Y-47915285D01*
X191545285Y-47854809D01*
X191666238Y-47794333D01*
X191968619Y-47794333D01*
X192089571Y-47854809D01*
X192150047Y-47915285D01*
X192210523Y-48036238D01*
X192210523Y-48338619D01*
X192150047Y-48459571D01*
X192089571Y-48520047D01*
X190940523Y-69130333D02*
X191847666Y-69130333D01*
X192029095Y-69190809D01*
X192150047Y-69311761D01*
X192210523Y-69493190D01*
X192210523Y-69614142D01*
X191363857Y-67981285D02*
X192210523Y-67981285D01*
X190880047Y-68283666D02*
X191787190Y-68586047D01*
X191787190Y-67799857D01*
D14*
X138096666Y-65770380D02*
X138096666Y-66484666D01*
X138049047Y-66627523D01*
X137953809Y-66722761D01*
X137810952Y-66770380D01*
X137715714Y-66770380D01*
X138477619Y-65770380D02*
X139096666Y-65770380D01*
X138763333Y-66151333D01*
X138906190Y-66151333D01*
X139001428Y-66198952D01*
X139049047Y-66246571D01*
X139096666Y-66341809D01*
X139096666Y-66579904D01*
X139049047Y-66675142D01*
X139001428Y-66722761D01*
X138906190Y-66770380D01*
X138620476Y-66770380D01*
X138525238Y-66722761D01*
X138477619Y-66675142D01*
X109648666Y-50276380D02*
X109648666Y-50990666D01*
X109601047Y-51133523D01*
X109505809Y-51228761D01*
X109362952Y-51276380D01*
X109267714Y-51276380D01*
X110077238Y-50371619D02*
X110124857Y-50324000D01*
X110220095Y-50276380D01*
X110458190Y-50276380D01*
X110553428Y-50324000D01*
X110601047Y-50371619D01*
X110648666Y-50466857D01*
X110648666Y-50562095D01*
X110601047Y-50704952D01*
X110029619Y-51276380D01*
X110648666Y-51276380D01*
X135874380Y-76533333D02*
X136588666Y-76533333D01*
X136731523Y-76580952D01*
X136826761Y-76676190D01*
X136874380Y-76819047D01*
X136874380Y-76914285D01*
X136874380Y-75533333D02*
X136874380Y-76104761D01*
X136874380Y-75819047D02*
X135874380Y-75819047D01*
X136017238Y-75914285D01*
X136112476Y-76009523D01*
X136160095Y-76104761D01*
D15*
X160050238Y-59502523D02*
X160050238Y-58232523D01*
X161380714Y-59381571D02*
X161320238Y-59442047D01*
X161138809Y-59502523D01*
X161017857Y-59502523D01*
X160836428Y-59442047D01*
X160715476Y-59321095D01*
X160655000Y-59200142D01*
X160594523Y-58958238D01*
X160594523Y-58776809D01*
X160655000Y-58534904D01*
X160715476Y-58413952D01*
X160836428Y-58293000D01*
X161017857Y-58232523D01*
X161138809Y-58232523D01*
X161320238Y-58293000D01*
X161380714Y-58353476D01*
X162590238Y-59502523D02*
X161864523Y-59502523D01*
X162227380Y-59502523D02*
X162227380Y-58232523D01*
X162106428Y-58413952D01*
X161985476Y-58534904D01*
X161864523Y-58595380D01*
D14*
X152827666Y-62286571D02*
X152494333Y-62286571D01*
X152494333Y-62810380D02*
X152494333Y-61810380D01*
X152970523Y-61810380D01*
X153684809Y-62286571D02*
X153827666Y-62334190D01*
X153875285Y-62381809D01*
X153922904Y-62477047D01*
X153922904Y-62619904D01*
X153875285Y-62715142D01*
X153827666Y-62762761D01*
X153732428Y-62810380D01*
X153351476Y-62810380D01*
X153351476Y-61810380D01*
X153684809Y-61810380D01*
X153780047Y-61858000D01*
X153827666Y-61905619D01*
X153875285Y-62000857D01*
X153875285Y-62096095D01*
X153827666Y-62191333D01*
X153780047Y-62238952D01*
X153684809Y-62286571D01*
X153351476Y-62286571D01*
X154303857Y-61905619D02*
X154351476Y-61858000D01*
X154446714Y-61810380D01*
X154684809Y-61810380D01*
X154780047Y-61858000D01*
X154827666Y-61905619D01*
X154875285Y-62000857D01*
X154875285Y-62096095D01*
X154827666Y-62238952D01*
X154256238Y-62810380D01*
X154875285Y-62810380D01*
X170353666Y-63048571D02*
X170020333Y-63048571D01*
X170020333Y-63572380D02*
X170020333Y-62572380D01*
X170496523Y-62572380D01*
X171210809Y-63048571D02*
X171353666Y-63096190D01*
X171401285Y-63143809D01*
X171448904Y-63239047D01*
X171448904Y-63381904D01*
X171401285Y-63477142D01*
X171353666Y-63524761D01*
X171258428Y-63572380D01*
X170877476Y-63572380D01*
X170877476Y-62572380D01*
X171210809Y-62572380D01*
X171306047Y-62620000D01*
X171353666Y-62667619D01*
X171401285Y-62762857D01*
X171401285Y-62858095D01*
X171353666Y-62953333D01*
X171306047Y-63000952D01*
X171210809Y-63048571D01*
X170877476Y-63048571D01*
X172401285Y-63572380D02*
X171829857Y-63572380D01*
X172115571Y-63572380D02*
X172115571Y-62572380D01*
X172020333Y-62715238D01*
X171925095Y-62810476D01*
X171829857Y-62858095D01*
X164409380Y-50141095D02*
X163409380Y-50141095D01*
X163409380Y-49903000D01*
X163457000Y-49760142D01*
X163552238Y-49664904D01*
X163647476Y-49617285D01*
X163837952Y-49569666D01*
X163980809Y-49569666D01*
X164171285Y-49617285D01*
X164266523Y-49664904D01*
X164361761Y-49760142D01*
X164409380Y-49903000D01*
X164409380Y-50141095D01*
X164409380Y-48617285D02*
X164409380Y-49188714D01*
X164409380Y-48903000D02*
X163409380Y-48903000D01*
X163552238Y-48998238D01*
X163647476Y-49093476D01*
X163695095Y-49188714D01*
X129769142Y-72778857D02*
X129816761Y-72826476D01*
X129864380Y-72969333D01*
X129864380Y-73064571D01*
X129816761Y-73207428D01*
X129721523Y-73302666D01*
X129626285Y-73350285D01*
X129435809Y-73397904D01*
X129292952Y-73397904D01*
X129102476Y-73350285D01*
X129007238Y-73302666D01*
X128912000Y-73207428D01*
X128864380Y-73064571D01*
X128864380Y-72969333D01*
X128912000Y-72826476D01*
X128959619Y-72778857D01*
X128959619Y-72397904D02*
X128912000Y-72350285D01*
X128864380Y-72255047D01*
X128864380Y-72016952D01*
X128912000Y-71921714D01*
X128959619Y-71874095D01*
X129054857Y-71826476D01*
X129150095Y-71826476D01*
X129292952Y-71874095D01*
X129864380Y-72445523D01*
X129864380Y-71826476D01*
X128864380Y-70969333D02*
X128864380Y-71159809D01*
X128912000Y-71255047D01*
X128959619Y-71302666D01*
X129102476Y-71397904D01*
X129292952Y-71445523D01*
X129673904Y-71445523D01*
X129769142Y-71397904D01*
X129816761Y-71350285D01*
X129864380Y-71255047D01*
X129864380Y-71064571D01*
X129816761Y-70969333D01*
X129769142Y-70921714D01*
X129673904Y-70874095D01*
X129435809Y-70874095D01*
X129340571Y-70921714D01*
X129292952Y-70969333D01*
X129245333Y-71064571D01*
X129245333Y-71255047D01*
X129292952Y-71350285D01*
X129340571Y-71397904D01*
X129435809Y-71445523D01*
X125705142Y-72778857D02*
X125752761Y-72826476D01*
X125800380Y-72969333D01*
X125800380Y-73064571D01*
X125752761Y-73207428D01*
X125657523Y-73302666D01*
X125562285Y-73350285D01*
X125371809Y-73397904D01*
X125228952Y-73397904D01*
X125038476Y-73350285D01*
X124943238Y-73302666D01*
X124848000Y-73207428D01*
X124800380Y-73064571D01*
X124800380Y-72969333D01*
X124848000Y-72826476D01*
X124895619Y-72778857D01*
X124895619Y-72397904D02*
X124848000Y-72350285D01*
X124800380Y-72255047D01*
X124800380Y-72016952D01*
X124848000Y-71921714D01*
X124895619Y-71874095D01*
X124990857Y-71826476D01*
X125086095Y-71826476D01*
X125228952Y-71874095D01*
X125800380Y-72445523D01*
X125800380Y-71826476D01*
X124800380Y-70921714D02*
X124800380Y-71397904D01*
X125276571Y-71445523D01*
X125228952Y-71397904D01*
X125181333Y-71302666D01*
X125181333Y-71064571D01*
X125228952Y-70969333D01*
X125276571Y-70921714D01*
X125371809Y-70874095D01*
X125609904Y-70874095D01*
X125705142Y-70921714D01*
X125752761Y-70969333D01*
X125800380Y-71064571D01*
X125800380Y-71302666D01*
X125752761Y-71397904D01*
X125705142Y-71445523D01*
X151615142Y-57783857D02*
X151662761Y-57831476D01*
X151710380Y-57974333D01*
X151710380Y-58069571D01*
X151662761Y-58212428D01*
X151567523Y-58307666D01*
X151472285Y-58355285D01*
X151281809Y-58402904D01*
X151138952Y-58402904D01*
X150948476Y-58355285D01*
X150853238Y-58307666D01*
X150758000Y-58212428D01*
X150710380Y-58069571D01*
X150710380Y-57974333D01*
X150758000Y-57831476D01*
X150805619Y-57783857D01*
X150805619Y-57402904D02*
X150758000Y-57355285D01*
X150710380Y-57260047D01*
X150710380Y-57021952D01*
X150758000Y-56926714D01*
X150805619Y-56879095D01*
X150900857Y-56831476D01*
X150996095Y-56831476D01*
X151138952Y-56879095D01*
X151710380Y-57450523D01*
X151710380Y-56831476D01*
X151043714Y-55974333D02*
X151710380Y-55974333D01*
X150662761Y-56212428D02*
X151377047Y-56450523D01*
X151377047Y-55831476D01*
X162281142Y-69984857D02*
X162328761Y-70032476D01*
X162376380Y-70175333D01*
X162376380Y-70270571D01*
X162328761Y-70413428D01*
X162233523Y-70508666D01*
X162138285Y-70556285D01*
X161947809Y-70603904D01*
X161804952Y-70603904D01*
X161614476Y-70556285D01*
X161519238Y-70508666D01*
X161424000Y-70413428D01*
X161376380Y-70270571D01*
X161376380Y-70175333D01*
X161424000Y-70032476D01*
X161471619Y-69984857D01*
X161471619Y-69603904D02*
X161424000Y-69556285D01*
X161376380Y-69461047D01*
X161376380Y-69222952D01*
X161424000Y-69127714D01*
X161471619Y-69080095D01*
X161566857Y-69032476D01*
X161662095Y-69032476D01*
X161804952Y-69080095D01*
X162376380Y-69651523D01*
X162376380Y-69032476D01*
X161376380Y-68699142D02*
X161376380Y-68080095D01*
X161757333Y-68413428D01*
X161757333Y-68270571D01*
X161804952Y-68175333D01*
X161852571Y-68127714D01*
X161947809Y-68080095D01*
X162185904Y-68080095D01*
X162281142Y-68127714D01*
X162328761Y-68175333D01*
X162376380Y-68270571D01*
X162376380Y-68556285D01*
X162328761Y-68651523D01*
X162281142Y-68699142D01*
X170544142Y-55349142D02*
X170496523Y-55396761D01*
X170353666Y-55444380D01*
X170258428Y-55444380D01*
X170115571Y-55396761D01*
X170020333Y-55301523D01*
X169972714Y-55206285D01*
X169925095Y-55015809D01*
X169925095Y-54872952D01*
X169972714Y-54682476D01*
X170020333Y-54587238D01*
X170115571Y-54492000D01*
X170258428Y-54444380D01*
X170353666Y-54444380D01*
X170496523Y-54492000D01*
X170544142Y-54539619D01*
X170925095Y-54539619D02*
X170972714Y-54492000D01*
X171067952Y-54444380D01*
X171306047Y-54444380D01*
X171401285Y-54492000D01*
X171448904Y-54539619D01*
X171496523Y-54634857D01*
X171496523Y-54730095D01*
X171448904Y-54872952D01*
X170877476Y-55444380D01*
X171496523Y-55444380D01*
X171877476Y-54539619D02*
X171925095Y-54492000D01*
X172020333Y-54444380D01*
X172258428Y-54444380D01*
X172353666Y-54492000D01*
X172401285Y-54539619D01*
X172448904Y-54634857D01*
X172448904Y-54730095D01*
X172401285Y-54872952D01*
X171829857Y-55444380D01*
X172448904Y-55444380D01*
X155043142Y-61348857D02*
X155090761Y-61396476D01*
X155138380Y-61539333D01*
X155138380Y-61634571D01*
X155090761Y-61777428D01*
X154995523Y-61872666D01*
X154900285Y-61920285D01*
X154709809Y-61967904D01*
X154566952Y-61967904D01*
X154376476Y-61920285D01*
X154281238Y-61872666D01*
X154186000Y-61777428D01*
X154138380Y-61634571D01*
X154138380Y-61539333D01*
X154186000Y-61396476D01*
X154233619Y-61348857D01*
X154233619Y-60967904D02*
X154186000Y-60920285D01*
X154138380Y-60825047D01*
X154138380Y-60586952D01*
X154186000Y-60491714D01*
X154233619Y-60444095D01*
X154328857Y-60396476D01*
X154424095Y-60396476D01*
X154566952Y-60444095D01*
X155138380Y-61015523D01*
X155138380Y-60396476D01*
X155138380Y-59444095D02*
X155138380Y-60015523D01*
X155138380Y-59729809D02*
X154138380Y-59729809D01*
X154281238Y-59825047D01*
X154376476Y-59920285D01*
X154424095Y-60015523D01*
X170553142Y-53317142D02*
X170505523Y-53364761D01*
X170362666Y-53412380D01*
X170267428Y-53412380D01*
X170124571Y-53364761D01*
X170029333Y-53269523D01*
X169981714Y-53174285D01*
X169934095Y-52983809D01*
X169934095Y-52840952D01*
X169981714Y-52650476D01*
X170029333Y-52555238D01*
X170124571Y-52460000D01*
X170267428Y-52412380D01*
X170362666Y-52412380D01*
X170505523Y-52460000D01*
X170553142Y-52507619D01*
X170934095Y-52507619D02*
X170981714Y-52460000D01*
X171076952Y-52412380D01*
X171315047Y-52412380D01*
X171410285Y-52460000D01*
X171457904Y-52507619D01*
X171505523Y-52602857D01*
X171505523Y-52698095D01*
X171457904Y-52840952D01*
X170886476Y-53412380D01*
X171505523Y-53412380D01*
X172124571Y-52412380D02*
X172219809Y-52412380D01*
X172315047Y-52460000D01*
X172362666Y-52507619D01*
X172410285Y-52602857D01*
X172457904Y-52793333D01*
X172457904Y-53031428D01*
X172410285Y-53221904D01*
X172362666Y-53317142D01*
X172315047Y-53364761D01*
X172219809Y-53412380D01*
X172124571Y-53412380D01*
X172029333Y-53364761D01*
X171981714Y-53317142D01*
X171934095Y-53221904D01*
X171886476Y-53031428D01*
X171886476Y-52793333D01*
X171934095Y-52602857D01*
X171981714Y-52507619D01*
X172029333Y-52460000D01*
X172124571Y-52412380D01*
X164313142Y-69975857D02*
X164360761Y-70023476D01*
X164408380Y-70166333D01*
X164408380Y-70261571D01*
X164360761Y-70404428D01*
X164265523Y-70499666D01*
X164170285Y-70547285D01*
X163979809Y-70594904D01*
X163836952Y-70594904D01*
X163646476Y-70547285D01*
X163551238Y-70499666D01*
X163456000Y-70404428D01*
X163408380Y-70261571D01*
X163408380Y-70166333D01*
X163456000Y-70023476D01*
X163503619Y-69975857D01*
X164408380Y-69023476D02*
X164408380Y-69594904D01*
X164408380Y-69309190D02*
X163408380Y-69309190D01*
X163551238Y-69404428D01*
X163646476Y-69499666D01*
X163694095Y-69594904D01*
X164408380Y-68547285D02*
X164408380Y-68356809D01*
X164360761Y-68261571D01*
X164313142Y-68213952D01*
X164170285Y-68118714D01*
X163979809Y-68071095D01*
X163598857Y-68071095D01*
X163503619Y-68118714D01*
X163456000Y-68166333D01*
X163408380Y-68261571D01*
X163408380Y-68452047D01*
X163456000Y-68547285D01*
X163503619Y-68594904D01*
X163598857Y-68642523D01*
X163836952Y-68642523D01*
X163932190Y-68594904D01*
X163979809Y-68547285D01*
X164027428Y-68452047D01*
X164027428Y-68261571D01*
X163979809Y-68166333D01*
X163932190Y-68118714D01*
X163836952Y-68071095D01*
X160249142Y-69984857D02*
X160296761Y-70032476D01*
X160344380Y-70175333D01*
X160344380Y-70270571D01*
X160296761Y-70413428D01*
X160201523Y-70508666D01*
X160106285Y-70556285D01*
X159915809Y-70603904D01*
X159772952Y-70603904D01*
X159582476Y-70556285D01*
X159487238Y-70508666D01*
X159392000Y-70413428D01*
X159344380Y-70270571D01*
X159344380Y-70175333D01*
X159392000Y-70032476D01*
X159439619Y-69984857D01*
X160344380Y-69032476D02*
X160344380Y-69603904D01*
X160344380Y-69318190D02*
X159344380Y-69318190D01*
X159487238Y-69413428D01*
X159582476Y-69508666D01*
X159630095Y-69603904D01*
X159772952Y-68461047D02*
X159725333Y-68556285D01*
X159677714Y-68603904D01*
X159582476Y-68651523D01*
X159534857Y-68651523D01*
X159439619Y-68603904D01*
X159392000Y-68556285D01*
X159344380Y-68461047D01*
X159344380Y-68270571D01*
X159392000Y-68175333D01*
X159439619Y-68127714D01*
X159534857Y-68080095D01*
X159582476Y-68080095D01*
X159677714Y-68127714D01*
X159725333Y-68175333D01*
X159772952Y-68270571D01*
X159772952Y-68461047D01*
X159820571Y-68556285D01*
X159868190Y-68603904D01*
X159963428Y-68651523D01*
X160153904Y-68651523D01*
X160249142Y-68603904D01*
X160296761Y-68556285D01*
X160344380Y-68461047D01*
X160344380Y-68270571D01*
X160296761Y-68175333D01*
X160249142Y-68127714D01*
X160153904Y-68080095D01*
X159963428Y-68080095D01*
X159868190Y-68127714D01*
X159820571Y-68175333D01*
X159772952Y-68270571D01*
X170553142Y-59413142D02*
X170505523Y-59460761D01*
X170362666Y-59508380D01*
X170267428Y-59508380D01*
X170124571Y-59460761D01*
X170029333Y-59365523D01*
X169981714Y-59270285D01*
X169934095Y-59079809D01*
X169934095Y-58936952D01*
X169981714Y-58746476D01*
X170029333Y-58651238D01*
X170124571Y-58556000D01*
X170267428Y-58508380D01*
X170362666Y-58508380D01*
X170505523Y-58556000D01*
X170553142Y-58603619D01*
X171505523Y-59508380D02*
X170934095Y-59508380D01*
X171219809Y-59508380D02*
X171219809Y-58508380D01*
X171124571Y-58651238D01*
X171029333Y-58746476D01*
X170934095Y-58794095D01*
X171838857Y-58508380D02*
X172505523Y-58508380D01*
X172076952Y-59508380D01*
X165583142Y-49918857D02*
X165630761Y-49966476D01*
X165678380Y-50109333D01*
X165678380Y-50204571D01*
X165630761Y-50347428D01*
X165535523Y-50442666D01*
X165440285Y-50490285D01*
X165249809Y-50537904D01*
X165106952Y-50537904D01*
X164916476Y-50490285D01*
X164821238Y-50442666D01*
X164726000Y-50347428D01*
X164678380Y-50204571D01*
X164678380Y-50109333D01*
X164726000Y-49966476D01*
X164773619Y-49918857D01*
X165678380Y-48966476D02*
X165678380Y-49537904D01*
X165678380Y-49252190D02*
X164678380Y-49252190D01*
X164821238Y-49347428D01*
X164916476Y-49442666D01*
X164964095Y-49537904D01*
X164678380Y-48109333D02*
X164678380Y-48299809D01*
X164726000Y-48395047D01*
X164773619Y-48442666D01*
X164916476Y-48537904D01*
X165106952Y-48585523D01*
X165487904Y-48585523D01*
X165583142Y-48537904D01*
X165630761Y-48490285D01*
X165678380Y-48395047D01*
X165678380Y-48204571D01*
X165630761Y-48109333D01*
X165583142Y-48061714D01*
X165487904Y-48014095D01*
X165249809Y-48014095D01*
X165154571Y-48061714D01*
X165106952Y-48109333D01*
X165059333Y-48204571D01*
X165059333Y-48395047D01*
X165106952Y-48490285D01*
X165154571Y-48537904D01*
X165249809Y-48585523D01*
X154155142Y-49927857D02*
X154202761Y-49975476D01*
X154250380Y-50118333D01*
X154250380Y-50213571D01*
X154202761Y-50356428D01*
X154107523Y-50451666D01*
X154012285Y-50499285D01*
X153821809Y-50546904D01*
X153678952Y-50546904D01*
X153488476Y-50499285D01*
X153393238Y-50451666D01*
X153298000Y-50356428D01*
X153250380Y-50213571D01*
X153250380Y-50118333D01*
X153298000Y-49975476D01*
X153345619Y-49927857D01*
X154250380Y-48975476D02*
X154250380Y-49546904D01*
X154250380Y-49261190D02*
X153250380Y-49261190D01*
X153393238Y-49356428D01*
X153488476Y-49451666D01*
X153536095Y-49546904D01*
X153250380Y-48070714D02*
X153250380Y-48546904D01*
X153726571Y-48594523D01*
X153678952Y-48546904D01*
X153631333Y-48451666D01*
X153631333Y-48213571D01*
X153678952Y-48118333D01*
X153726571Y-48070714D01*
X153821809Y-48023095D01*
X154059904Y-48023095D01*
X154155142Y-48070714D01*
X154202761Y-48118333D01*
X154250380Y-48213571D01*
X154250380Y-48451666D01*
X154202761Y-48546904D01*
X154155142Y-48594523D01*
X170544142Y-61445142D02*
X170496523Y-61492761D01*
X170353666Y-61540380D01*
X170258428Y-61540380D01*
X170115571Y-61492761D01*
X170020333Y-61397523D01*
X169972714Y-61302285D01*
X169925095Y-61111809D01*
X169925095Y-60968952D01*
X169972714Y-60778476D01*
X170020333Y-60683238D01*
X170115571Y-60588000D01*
X170258428Y-60540380D01*
X170353666Y-60540380D01*
X170496523Y-60588000D01*
X170544142Y-60635619D01*
X171496523Y-61540380D02*
X170925095Y-61540380D01*
X171210809Y-61540380D02*
X171210809Y-60540380D01*
X171115571Y-60683238D01*
X171020333Y-60778476D01*
X170925095Y-60826095D01*
X172353666Y-60873714D02*
X172353666Y-61540380D01*
X172115571Y-60492761D02*
X171877476Y-61207047D01*
X172496523Y-61207047D01*
X152123142Y-49927857D02*
X152170761Y-49975476D01*
X152218380Y-50118333D01*
X152218380Y-50213571D01*
X152170761Y-50356428D01*
X152075523Y-50451666D01*
X151980285Y-50499285D01*
X151789809Y-50546904D01*
X151646952Y-50546904D01*
X151456476Y-50499285D01*
X151361238Y-50451666D01*
X151266000Y-50356428D01*
X151218380Y-50213571D01*
X151218380Y-50118333D01*
X151266000Y-49975476D01*
X151313619Y-49927857D01*
X152218380Y-48975476D02*
X152218380Y-49546904D01*
X152218380Y-49261190D02*
X151218380Y-49261190D01*
X151361238Y-49356428D01*
X151456476Y-49451666D01*
X151504095Y-49546904D01*
X151218380Y-48642142D02*
X151218380Y-48023095D01*
X151599333Y-48356428D01*
X151599333Y-48213571D01*
X151646952Y-48118333D01*
X151694571Y-48070714D01*
X151789809Y-48023095D01*
X152027904Y-48023095D01*
X152123142Y-48070714D01*
X152170761Y-48118333D01*
X152218380Y-48213571D01*
X152218380Y-48499285D01*
X152170761Y-48594523D01*
X152123142Y-48642142D01*
X117577142Y-46353857D02*
X117624761Y-46401476D01*
X117672380Y-46544333D01*
X117672380Y-46639571D01*
X117624761Y-46782428D01*
X117529523Y-46877666D01*
X117434285Y-46925285D01*
X117243809Y-46972904D01*
X117100952Y-46972904D01*
X116910476Y-46925285D01*
X116815238Y-46877666D01*
X116720000Y-46782428D01*
X116672380Y-46639571D01*
X116672380Y-46544333D01*
X116720000Y-46401476D01*
X116767619Y-46353857D01*
X117672380Y-45401476D02*
X117672380Y-45972904D01*
X117672380Y-45687190D02*
X116672380Y-45687190D01*
X116815238Y-45782428D01*
X116910476Y-45877666D01*
X116958095Y-45972904D01*
X116767619Y-45020523D02*
X116720000Y-44972904D01*
X116672380Y-44877666D01*
X116672380Y-44639571D01*
X116720000Y-44544333D01*
X116767619Y-44496714D01*
X116862857Y-44449095D01*
X116958095Y-44449095D01*
X117100952Y-44496714D01*
X117672380Y-45068142D01*
X117672380Y-44449095D01*
X101211142Y-74397142D02*
X101163523Y-74444761D01*
X101020666Y-74492380D01*
X100925428Y-74492380D01*
X100782571Y-74444761D01*
X100687333Y-74349523D01*
X100639714Y-74254285D01*
X100592095Y-74063809D01*
X100592095Y-73920952D01*
X100639714Y-73730476D01*
X100687333Y-73635238D01*
X100782571Y-73540000D01*
X100925428Y-73492380D01*
X101020666Y-73492380D01*
X101163523Y-73540000D01*
X101211142Y-73587619D01*
X102163523Y-74492380D02*
X101592095Y-74492380D01*
X101877809Y-74492380D02*
X101877809Y-73492380D01*
X101782571Y-73635238D01*
X101687333Y-73730476D01*
X101592095Y-73778095D01*
X103115904Y-74492380D02*
X102544476Y-74492380D01*
X102830190Y-74492380D02*
X102830190Y-73492380D01*
X102734952Y-73635238D01*
X102639714Y-73730476D01*
X102544476Y-73778095D01*
X99687142Y-59411142D02*
X99639523Y-59458761D01*
X99496666Y-59506380D01*
X99401428Y-59506380D01*
X99258571Y-59458761D01*
X99163333Y-59363523D01*
X99115714Y-59268285D01*
X99068095Y-59077809D01*
X99068095Y-58934952D01*
X99115714Y-58744476D01*
X99163333Y-58649238D01*
X99258571Y-58554000D01*
X99401428Y-58506380D01*
X99496666Y-58506380D01*
X99639523Y-58554000D01*
X99687142Y-58601619D01*
X100639523Y-59506380D02*
X100068095Y-59506380D01*
X100353809Y-59506380D02*
X100353809Y-58506380D01*
X100258571Y-58649238D01*
X100163333Y-58744476D01*
X100068095Y-58792095D01*
X101258571Y-58506380D02*
X101353809Y-58506380D01*
X101449047Y-58554000D01*
X101496666Y-58601619D01*
X101544285Y-58696857D01*
X101591904Y-58887333D01*
X101591904Y-59125428D01*
X101544285Y-59315904D01*
X101496666Y-59411142D01*
X101449047Y-59458761D01*
X101353809Y-59506380D01*
X101258571Y-59506380D01*
X101163333Y-59458761D01*
X101115714Y-59411142D01*
X101068095Y-59315904D01*
X101020476Y-59125428D01*
X101020476Y-58887333D01*
X101068095Y-58696857D01*
X101115714Y-58601619D01*
X101163333Y-58554000D01*
X101258571Y-58506380D01*
X177370333Y-43157142D02*
X177322714Y-43204761D01*
X177179857Y-43252380D01*
X177084619Y-43252380D01*
X176941761Y-43204761D01*
X176846523Y-43109523D01*
X176798904Y-43014285D01*
X176751285Y-42823809D01*
X176751285Y-42680952D01*
X176798904Y-42490476D01*
X176846523Y-42395238D01*
X176941761Y-42300000D01*
X177084619Y-42252380D01*
X177179857Y-42252380D01*
X177322714Y-42300000D01*
X177370333Y-42347619D01*
X177846523Y-43252380D02*
X178037000Y-43252380D01*
X178132238Y-43204761D01*
X178179857Y-43157142D01*
X178275095Y-43014285D01*
X178322714Y-42823809D01*
X178322714Y-42442857D01*
X178275095Y-42347619D01*
X178227476Y-42300000D01*
X178132238Y-42252380D01*
X177941761Y-42252380D01*
X177846523Y-42300000D01*
X177798904Y-42347619D01*
X177751285Y-42442857D01*
X177751285Y-42680952D01*
X177798904Y-42776190D01*
X177846523Y-42823809D01*
X177941761Y-42871428D01*
X178132238Y-42871428D01*
X178227476Y-42823809D01*
X178275095Y-42776190D01*
X178322714Y-42680952D01*
X177370333Y-61699142D02*
X177322714Y-61746761D01*
X177179857Y-61794380D01*
X177084619Y-61794380D01*
X176941761Y-61746761D01*
X176846523Y-61651523D01*
X176798904Y-61556285D01*
X176751285Y-61365809D01*
X176751285Y-61222952D01*
X176798904Y-61032476D01*
X176846523Y-60937238D01*
X176941761Y-60842000D01*
X177084619Y-60794380D01*
X177179857Y-60794380D01*
X177322714Y-60842000D01*
X177370333Y-60889619D01*
X177941761Y-61222952D02*
X177846523Y-61175333D01*
X177798904Y-61127714D01*
X177751285Y-61032476D01*
X177751285Y-60984857D01*
X177798904Y-60889619D01*
X177846523Y-60842000D01*
X177941761Y-60794380D01*
X178132238Y-60794380D01*
X178227476Y-60842000D01*
X178275095Y-60889619D01*
X178322714Y-60984857D01*
X178322714Y-61032476D01*
X178275095Y-61127714D01*
X178227476Y-61175333D01*
X178132238Y-61222952D01*
X177941761Y-61222952D01*
X177846523Y-61270571D01*
X177798904Y-61318190D01*
X177751285Y-61413428D01*
X177751285Y-61603904D01*
X177798904Y-61699142D01*
X177846523Y-61746761D01*
X177941761Y-61794380D01*
X178132238Y-61794380D01*
X178227476Y-61746761D01*
X178275095Y-61699142D01*
X178322714Y-61603904D01*
X178322714Y-61413428D01*
X178275095Y-61318190D01*
X178227476Y-61270571D01*
X178132238Y-61222952D01*
X177379333Y-49253142D02*
X177331714Y-49300761D01*
X177188857Y-49348380D01*
X177093619Y-49348380D01*
X176950761Y-49300761D01*
X176855523Y-49205523D01*
X176807904Y-49110285D01*
X176760285Y-48919809D01*
X176760285Y-48776952D01*
X176807904Y-48586476D01*
X176855523Y-48491238D01*
X176950761Y-48396000D01*
X177093619Y-48348380D01*
X177188857Y-48348380D01*
X177331714Y-48396000D01*
X177379333Y-48443619D01*
X177712666Y-48348380D02*
X178379333Y-48348380D01*
X177950761Y-49348380D01*
X177388333Y-68049142D02*
X177340714Y-68096761D01*
X177197857Y-68144380D01*
X177102619Y-68144380D01*
X176959761Y-68096761D01*
X176864523Y-68001523D01*
X176816904Y-67906285D01*
X176769285Y-67715809D01*
X176769285Y-67572952D01*
X176816904Y-67382476D01*
X176864523Y-67287238D01*
X176959761Y-67192000D01*
X177102619Y-67144380D01*
X177197857Y-67144380D01*
X177340714Y-67192000D01*
X177388333Y-67239619D01*
X178245476Y-67144380D02*
X178055000Y-67144380D01*
X177959761Y-67192000D01*
X177912142Y-67239619D01*
X177816904Y-67382476D01*
X177769285Y-67572952D01*
X177769285Y-67953904D01*
X177816904Y-68049142D01*
X177864523Y-68096761D01*
X177959761Y-68144380D01*
X178150238Y-68144380D01*
X178245476Y-68096761D01*
X178293095Y-68049142D01*
X178340714Y-67953904D01*
X178340714Y-67715809D01*
X178293095Y-67620571D01*
X178245476Y-67572952D01*
X178150238Y-67525333D01*
X177959761Y-67525333D01*
X177864523Y-67572952D01*
X177816904Y-67620571D01*
X177769285Y-67715809D01*
X177379333Y-79731142D02*
X177331714Y-79778761D01*
X177188857Y-79826380D01*
X177093619Y-79826380D01*
X176950761Y-79778761D01*
X176855523Y-79683523D01*
X176807904Y-79588285D01*
X176760285Y-79397809D01*
X176760285Y-79254952D01*
X176807904Y-79064476D01*
X176855523Y-78969238D01*
X176950761Y-78874000D01*
X177093619Y-78826380D01*
X177188857Y-78826380D01*
X177331714Y-78874000D01*
X177379333Y-78921619D01*
X178284095Y-78826380D02*
X177807904Y-78826380D01*
X177760285Y-79302571D01*
X177807904Y-79254952D01*
X177903142Y-79207333D01*
X178141238Y-79207333D01*
X178236476Y-79254952D01*
X178284095Y-79302571D01*
X178331714Y-79397809D01*
X178331714Y-79635904D01*
X178284095Y-79731142D01*
X178236476Y-79778761D01*
X178141238Y-79826380D01*
X177903142Y-79826380D01*
X177807904Y-79778761D01*
X177760285Y-79731142D01*
X177388333Y-60681142D02*
X177340714Y-60728761D01*
X177197857Y-60776380D01*
X177102619Y-60776380D01*
X176959761Y-60728761D01*
X176864523Y-60633523D01*
X176816904Y-60538285D01*
X176769285Y-60347809D01*
X176769285Y-60204952D01*
X176816904Y-60014476D01*
X176864523Y-59919238D01*
X176959761Y-59824000D01*
X177102619Y-59776380D01*
X177197857Y-59776380D01*
X177340714Y-59824000D01*
X177388333Y-59871619D01*
X178245476Y-60109714D02*
X178245476Y-60776380D01*
X178007380Y-59728761D02*
X177769285Y-60443047D01*
X178388333Y-60443047D01*
X109053333Y-51537142D02*
X109005714Y-51584761D01*
X108862857Y-51632380D01*
X108767619Y-51632380D01*
X108624761Y-51584761D01*
X108529523Y-51489523D01*
X108481904Y-51394285D01*
X108434285Y-51203809D01*
X108434285Y-51060952D01*
X108481904Y-50870476D01*
X108529523Y-50775238D01*
X108624761Y-50680000D01*
X108767619Y-50632380D01*
X108862857Y-50632380D01*
X109005714Y-50680000D01*
X109053333Y-50727619D01*
X109386666Y-50632380D02*
X110005714Y-50632380D01*
X109672380Y-51013333D01*
X109815238Y-51013333D01*
X109910476Y-51060952D01*
X109958095Y-51108571D01*
X110005714Y-51203809D01*
X110005714Y-51441904D01*
X109958095Y-51537142D01*
X109910476Y-51584761D01*
X109815238Y-51632380D01*
X109529523Y-51632380D01*
X109434285Y-51584761D01*
X109386666Y-51537142D01*
X99401333Y-57143142D02*
X99353714Y-57190761D01*
X99210857Y-57238380D01*
X99115619Y-57238380D01*
X98972761Y-57190761D01*
X98877523Y-57095523D01*
X98829904Y-57000285D01*
X98782285Y-56809809D01*
X98782285Y-56666952D01*
X98829904Y-56476476D01*
X98877523Y-56381238D01*
X98972761Y-56286000D01*
X99115619Y-56238380D01*
X99210857Y-56238380D01*
X99353714Y-56286000D01*
X99401333Y-56333619D01*
X99782285Y-56333619D02*
X99829904Y-56286000D01*
X99925142Y-56238380D01*
X100163238Y-56238380D01*
X100258476Y-56286000D01*
X100306095Y-56333619D01*
X100353714Y-56428857D01*
X100353714Y-56524095D01*
X100306095Y-56666952D01*
X99734666Y-57238380D01*
X100353714Y-57238380D01*
X107417142Y-41822666D02*
X107464761Y-41870285D01*
X107512380Y-42013142D01*
X107512380Y-42108380D01*
X107464761Y-42251238D01*
X107369523Y-42346476D01*
X107274285Y-42394095D01*
X107083809Y-42441714D01*
X106940952Y-42441714D01*
X106750476Y-42394095D01*
X106655238Y-42346476D01*
X106560000Y-42251238D01*
X106512380Y-42108380D01*
X106512380Y-42013142D01*
X106560000Y-41870285D01*
X106607619Y-41822666D01*
X107512380Y-40870285D02*
X107512380Y-41441714D01*
X107512380Y-41156000D02*
X106512380Y-41156000D01*
X106655238Y-41251238D01*
X106750476Y-41346476D01*
X106798095Y-41441714D01*
M02*
