G04 #@! TF.GenerationSoftware,KiCad,Pcbnew,(5.1.5)-3*
G04 #@! TF.CreationDate,2020-07-08T17:40:23+02:00*
G04 #@! TF.ProjectId,Mbed_Devboard,4d626564-5f44-4657-9662-6f6172642e6b,rev?*
G04 #@! TF.SameCoordinates,Original*
G04 #@! TF.FileFunction,Copper,L2,Bot*
G04 #@! TF.FilePolarity,Positive*
%FSLAX46Y46*%
G04 Gerber Fmt 4.6, Leading zero omitted, Abs format (unit mm)*
G04 Created by KiCad (PCBNEW (5.1.5)-3) date 2020-07-08 17:40:23*
%MOMM*%
%LPD*%
G04 APERTURE LIST*
%ADD10C,6.400000*%
%ADD11C,0.800000*%
%ADD12C,3.000000*%
%ADD13R,3.000000X3.000000*%
%ADD14O,1.700000X1.700000*%
%ADD15R,1.700000X1.700000*%
%ADD16C,2.565000*%
%ADD17C,1.650000*%
%ADD18C,1.509000*%
%ADD19C,5.000000*%
%ADD20C,1.200000*%
%ADD21C,0.250000*%
%ADD22C,0.500000*%
%ADD23C,0.200000*%
%ADD24C,0.254000*%
G04 APERTURE END LIST*
D10*
X168402000Y-42418000D03*
D11*
X170802000Y-42418000D03*
X170099056Y-44115056D03*
X168402000Y-44818000D03*
X166704944Y-44115056D03*
X166002000Y-42418000D03*
X166704944Y-40720944D03*
X168402000Y-40018000D03*
X170099056Y-40720944D03*
D10*
X106680000Y-75184000D03*
D11*
X109080000Y-75184000D03*
X108377056Y-76881056D03*
X106680000Y-77584000D03*
X104982944Y-76881056D03*
X104280000Y-75184000D03*
X104982944Y-73486944D03*
X106680000Y-72784000D03*
X108377056Y-73486944D03*
X170099056Y-73486944D03*
X168402000Y-72784000D03*
X166704944Y-73486944D03*
X166002000Y-75184000D03*
X166704944Y-76881056D03*
X168402000Y-77584000D03*
X170099056Y-76881056D03*
X170802000Y-75184000D03*
D10*
X168402000Y-75184000D03*
D12*
X98552000Y-46990000D03*
D13*
X98552000Y-41910000D03*
D14*
X116840000Y-76708000D03*
X119380000Y-76708000D03*
D15*
X121920000Y-76708000D03*
D14*
X128524000Y-76708000D03*
X131064000Y-76708000D03*
D15*
X133604000Y-76708000D03*
D16*
X188466000Y-56386000D03*
X188466000Y-40896000D03*
D17*
X196416000Y-42016000D03*
X196416000Y-44556000D03*
X196416000Y-52726000D03*
X196416000Y-55266000D03*
D18*
X182626000Y-44196000D03*
X185166000Y-45466000D03*
X182626000Y-46736000D03*
X185166000Y-48006000D03*
X182626000Y-49276000D03*
X185166000Y-50546000D03*
X182626000Y-51816000D03*
X185166000Y-53086000D03*
D16*
X188466000Y-76452000D03*
X188466000Y-60962000D03*
D17*
X196416000Y-62082000D03*
X196416000Y-64622000D03*
X196416000Y-72792000D03*
X196416000Y-75332000D03*
D18*
X182626000Y-64262000D03*
X185166000Y-65532000D03*
X182626000Y-66802000D03*
X185166000Y-68072000D03*
X182626000Y-69342000D03*
X185166000Y-70612000D03*
X182626000Y-71882000D03*
X185166000Y-73152000D03*
D14*
X137160000Y-71628000D03*
X139700000Y-71628000D03*
X137160000Y-69088000D03*
D15*
X139700000Y-69088000D03*
D14*
X109982000Y-68834000D03*
X109982000Y-66294000D03*
X109982000Y-63754000D03*
X109982000Y-61214000D03*
X109982000Y-58674000D03*
X109982000Y-56134000D03*
D15*
X109982000Y-53594000D03*
D14*
X146812000Y-76200000D03*
X144272000Y-76200000D03*
X141732000Y-76200000D03*
D15*
X139192000Y-76200000D03*
D19*
X125984000Y-47244000D03*
D11*
X180086000Y-44450000D03*
X180086000Y-69342000D03*
X160274000Y-66802000D03*
X160274000Y-71374000D03*
X158242000Y-71628000D03*
X154178000Y-71628000D03*
X151130000Y-61976000D03*
X159258000Y-59182000D03*
X165608000Y-49276000D03*
X164301320Y-57176130D03*
X173482000Y-58674000D03*
X154178000Y-55880000D03*
X153232885Y-47461010D03*
X137160000Y-39624000D03*
X160058422Y-56167933D03*
X175260000Y-77724000D03*
X120396000Y-40132000D03*
X129540000Y-73406000D03*
X117602000Y-73152000D03*
X121595766Y-54977531D03*
X127762000Y-74676000D03*
X123698000Y-74422000D03*
X115062000Y-48260000D03*
D20*
X106426000Y-46482000D03*
D11*
X98044000Y-57150000D03*
X97282000Y-58674000D03*
X97282000Y-65024000D03*
X99568000Y-72390000D03*
X162288510Y-71028625D03*
X180086000Y-51308000D03*
X180086000Y-64008000D03*
X175260000Y-58928000D03*
X175260000Y-61214000D03*
X179832000Y-60706000D03*
X179832000Y-75692000D03*
X161657233Y-51448767D03*
X159258000Y-56896000D03*
X173736000Y-64008000D03*
D20*
X133096000Y-41910000D03*
X143002000Y-49784000D03*
X162225660Y-72226990D03*
D11*
X107696000Y-53340000D03*
X113599135Y-49845134D03*
X163576000Y-61722000D03*
X164592000Y-49022000D03*
X164592000Y-52070000D03*
X163761965Y-58018222D03*
X138684000Y-53086000D03*
X141732000Y-53086000D03*
X160274000Y-60198000D03*
X159004000Y-61468000D03*
X170164003Y-68420990D03*
X171475192Y-70829010D03*
X169164000Y-68420990D03*
X170097976Y-70829010D03*
X174335000Y-71512302D03*
X173228000Y-68834000D03*
X181242469Y-71952234D03*
X180871499Y-68326000D03*
X173990000Y-69596000D03*
X144780000Y-66294000D03*
X139915483Y-63209010D03*
X155448000Y-62484000D03*
X143002000Y-65024000D03*
X151700231Y-65210695D03*
X144713691Y-65272896D03*
X155194000Y-61468000D03*
X151384000Y-64262000D03*
X144779046Y-64275022D03*
X141690162Y-64944680D03*
X154432000Y-59944000D03*
X151388660Y-60202660D03*
X141571185Y-63807598D03*
X147736175Y-63550012D03*
X151384000Y-59182000D03*
X154373340Y-58869340D03*
X149098000Y-60960000D03*
X140582021Y-63954497D03*
X151384000Y-57912000D03*
X154454372Y-57762989D03*
X148082000Y-54356000D03*
X144526000Y-55372000D03*
X141224000Y-61722000D03*
X138684000Y-62484000D03*
X159069282Y-52771416D03*
X139196371Y-48514000D03*
X140646382Y-48176294D03*
X160716829Y-46389509D03*
X140970000Y-44958000D03*
X160181301Y-52707571D03*
X160991438Y-44939497D03*
X139446000Y-44792010D03*
X162770751Y-52003284D03*
X139331442Y-47406852D03*
X141030431Y-47252969D03*
X162166841Y-46734164D03*
X162310660Y-45715340D03*
X163324603Y-52835914D03*
X140970000Y-56388000D03*
X137160000Y-56388000D03*
X141366006Y-48870675D03*
X142151990Y-44958000D03*
X106680000Y-62738000D03*
X132080000Y-51562000D03*
X117130295Y-60751614D03*
X133858000Y-44704000D03*
X133858000Y-54356000D03*
X134112000Y-61468000D03*
X137160000Y-66040000D03*
X135636000Y-66040000D03*
X132842000Y-61468000D03*
X133096000Y-43434000D03*
X133025940Y-53801294D03*
X128524000Y-64770000D03*
X113538000Y-66802000D03*
X131826000Y-61431010D03*
X113284000Y-65786000D03*
X127762000Y-65532000D03*
X134874000Y-60706000D03*
X112014000Y-64262000D03*
X117610636Y-61628710D03*
X121920000Y-61722000D03*
X115242011Y-53087951D03*
X113030000Y-54610000D03*
X113538000Y-53594000D03*
X179578000Y-74676000D03*
X181610000Y-74676000D03*
X179832000Y-57404000D03*
X175006000Y-57404000D03*
X119380000Y-64935065D03*
X119657173Y-61872485D03*
X131786824Y-62495506D03*
X131328246Y-65295550D03*
X123698000Y-55372000D03*
X121920000Y-59182000D03*
X121158000Y-64770000D03*
X120640824Y-61692333D03*
X122682000Y-55626000D03*
X120971305Y-58865769D03*
X118110000Y-64935065D03*
X118678845Y-61665364D03*
X169545462Y-48387462D03*
X179790607Y-54118145D03*
X174752000Y-46736000D03*
X179832000Y-49545997D03*
X175260000Y-73406000D03*
X179614990Y-73484067D03*
X174335000Y-68580000D03*
X179861000Y-66769000D03*
X170287926Y-49129926D03*
X179832000Y-53119000D03*
X175459108Y-47443108D03*
X179832000Y-47498000D03*
X174785000Y-72457315D03*
X179614990Y-72388670D03*
X173934990Y-67564000D03*
X179861000Y-65768997D03*
D21*
X175260000Y-61214000D02*
X179324000Y-61214000D01*
X179324000Y-61214000D02*
X179832000Y-60706000D01*
X161257234Y-51848766D02*
X161257234Y-56166766D01*
X161657233Y-51448767D02*
X161257234Y-51848766D01*
X161257234Y-56166766D02*
X160528000Y-56896000D01*
X160528000Y-56896000D02*
X159258000Y-56896000D01*
D22*
X174752000Y-61722000D02*
X175260000Y-61214000D01*
X174752000Y-62738000D02*
X174752000Y-61722000D01*
X173736000Y-63754000D02*
X174752000Y-62738000D01*
X173736000Y-64008000D02*
X173736000Y-63754000D01*
X133096000Y-41910000D02*
X135128000Y-43942000D01*
X135128000Y-43942000D02*
X142748000Y-43942000D01*
X143002000Y-44196000D02*
X143002000Y-49784000D01*
X142748000Y-43942000D02*
X143002000Y-44196000D01*
X174752000Y-62738000D02*
X172563178Y-62738000D01*
X163074188Y-72226990D02*
X162225660Y-72226990D01*
X172563178Y-62738000D02*
X163074188Y-72226990D01*
D21*
X173990000Y-75692000D02*
X179832000Y-75692000D01*
X169956999Y-71658999D02*
X173990000Y-75692000D01*
X163642179Y-71658999D02*
X169956999Y-71658999D01*
X163074188Y-72226990D02*
X163642179Y-71658999D01*
X111190866Y-49845134D02*
X113599135Y-49845134D01*
X107696000Y-53340000D02*
X111190866Y-49845134D01*
X164592000Y-49022000D02*
X164592000Y-52070000D01*
X163576000Y-61722000D02*
X163576000Y-58204187D01*
X163576000Y-58204187D02*
X163761965Y-58018222D01*
X138684000Y-53086000D02*
X141732000Y-53086000D01*
X160274000Y-60960000D02*
X160274000Y-60198000D01*
X160274000Y-60960000D02*
X159512000Y-60960000D01*
X159512000Y-60960000D02*
X159004000Y-61468000D01*
X170164003Y-67855305D02*
X172487308Y-65532000D01*
X170164003Y-68420990D02*
X170164003Y-67855305D01*
X195591001Y-51901001D02*
X196416000Y-52726000D01*
X190571897Y-51901001D02*
X195591001Y-51901001D01*
X176940898Y-65532000D02*
X190571897Y-51901001D01*
X172487308Y-65532000D02*
X176940898Y-65532000D01*
X171475192Y-69732179D02*
X171475192Y-70829010D01*
X170164003Y-68420990D02*
X171475192Y-69732179D01*
X195591001Y-45380999D02*
X196416000Y-44556000D01*
X171937316Y-65081989D02*
X176754499Y-65081989D01*
X169164000Y-67855305D02*
X171937316Y-65081989D01*
X169164000Y-68420990D02*
X169164000Y-67855305D01*
X195591001Y-46245486D02*
X195591001Y-45380999D01*
X176754499Y-65081989D02*
X195591001Y-46245486D01*
X169164000Y-69895034D02*
X170097976Y-70829010D01*
X169164000Y-68420990D02*
X169164000Y-69895034D01*
X173228000Y-70405302D02*
X174335000Y-71512302D01*
X173228000Y-68834000D02*
X173228000Y-70405302D01*
X174335000Y-71512302D02*
X180802537Y-71512302D01*
X180802537Y-71512302D02*
X181242469Y-71952234D01*
X180871499Y-68326000D02*
X180871499Y-67587499D01*
X180871499Y-67587499D02*
X180848000Y-67564000D01*
X180848000Y-67564000D02*
X176530000Y-67564000D01*
X176530000Y-67564000D02*
X174498000Y-69596000D01*
X174498000Y-69596000D02*
X173990000Y-69596000D01*
X141732000Y-66294000D02*
X139515484Y-64077484D01*
X139515484Y-63609009D02*
X139915483Y-63209010D01*
X139515484Y-64077484D02*
X139515484Y-63609009D01*
X144780000Y-66294000D02*
X141732000Y-66294000D01*
X155448000Y-62484000D02*
X152721305Y-65210695D01*
X152721305Y-65210695D02*
X151700231Y-65210695D01*
X144464795Y-65024000D02*
X144713691Y-65272896D01*
X143002000Y-65024000D02*
X144464795Y-65024000D01*
X155194000Y-61468000D02*
X152617010Y-64044990D01*
X151601010Y-64044990D02*
X151384000Y-64262000D01*
X152617010Y-64044990D02*
X151601010Y-64044990D01*
X144779046Y-64275022D02*
X142359820Y-64275022D01*
X142359820Y-64275022D02*
X141690162Y-64944680D01*
X154432000Y-59944000D02*
X151647320Y-59944000D01*
X151647320Y-59944000D02*
X151388660Y-60202660D01*
X147593762Y-63407599D02*
X147736175Y-63550012D01*
X141571185Y-63807598D02*
X141971184Y-63407599D01*
X141971184Y-63407599D02*
X147593762Y-63407599D01*
X154060680Y-59182000D02*
X154373340Y-58869340D01*
X151384000Y-59182000D02*
X154060680Y-59182000D01*
X140848403Y-63170599D02*
X140848403Y-63688115D01*
X149098000Y-60960000D02*
X143059002Y-60960000D01*
X140848403Y-63688115D02*
X140582021Y-63954497D01*
X143059002Y-60960000D02*
X140848403Y-63170599D01*
X151384000Y-57912000D02*
X154305361Y-57912000D01*
X154305361Y-57912000D02*
X154454372Y-57762989D01*
X148082000Y-54356000D02*
X147066000Y-55372000D01*
X147066000Y-55372000D02*
X144526000Y-55372000D01*
X140462000Y-62484000D02*
X138684000Y-62484000D01*
X141224000Y-61722000D02*
X140462000Y-62484000D01*
X139534077Y-48176294D02*
X139196371Y-48514000D01*
X140646382Y-48176294D02*
X139534077Y-48176294D01*
X159069282Y-52771416D02*
X159069282Y-48037056D01*
X159069282Y-48037056D02*
X160716829Y-46389509D01*
X160181301Y-52707571D02*
X160181301Y-47998041D01*
X160181301Y-47998041D02*
X161441831Y-46737511D01*
X161441831Y-46737511D02*
X161441831Y-45389890D01*
X161391437Y-45339496D02*
X160991438Y-44939497D01*
X161441831Y-45389890D02*
X161391437Y-45339496D01*
X139611990Y-44958000D02*
X139446000Y-44792010D01*
X140970000Y-44958000D02*
X139611990Y-44958000D01*
X141030431Y-47252969D02*
X139485325Y-47252969D01*
X139485325Y-47252969D02*
X139331442Y-47406852D01*
X162770751Y-47338074D02*
X162566840Y-47134163D01*
X162566840Y-47134163D02*
X162166841Y-46734164D01*
X162770751Y-52003284D02*
X162770751Y-47338074D01*
X163724602Y-47129282D02*
X163724602Y-52435915D01*
X162310660Y-45715340D02*
X163724602Y-47129282D01*
X163724602Y-52435915D02*
X163324603Y-52835914D01*
X140970000Y-56388000D02*
X137160000Y-56388000D01*
X142151990Y-45523685D02*
X142151990Y-44958000D01*
X142151990Y-48084691D02*
X142151990Y-45523685D01*
X141366006Y-48870675D02*
X142151990Y-48084691D01*
X132080000Y-51562000D02*
X132080000Y-54356000D01*
X134112000Y-56388000D02*
X137160000Y-56388000D01*
X132080000Y-54356000D02*
X134112000Y-56388000D01*
X106680000Y-62738000D02*
X107245685Y-62738000D01*
X116730296Y-61151613D02*
X117130295Y-60751614D01*
X115492908Y-62389001D02*
X116730296Y-61151613D01*
X107594684Y-62389001D02*
X115492908Y-62389001D01*
X107245685Y-62738000D02*
X107594684Y-62389001D01*
X133858000Y-44704000D02*
X133858000Y-54356000D01*
X134112000Y-61468000D02*
X134112000Y-62992000D01*
X134112000Y-62992000D02*
X137160000Y-66040000D01*
X133096000Y-53731234D02*
X133025940Y-53801294D01*
X133096000Y-43434000D02*
X133096000Y-53731234D01*
X132842000Y-63246000D02*
X132842000Y-61468000D01*
X135636000Y-66040000D02*
X132842000Y-63246000D01*
X111506000Y-68834000D02*
X113538000Y-66802000D01*
X109982000Y-68834000D02*
X111506000Y-68834000D01*
X128524000Y-64770000D02*
X128524000Y-64204315D01*
X131297305Y-61431010D02*
X131826000Y-61431010D01*
X128524000Y-64204315D02*
X131297305Y-61431010D01*
X109982000Y-66294000D02*
X112776000Y-66294000D01*
X112776000Y-66294000D02*
X113284000Y-65786000D01*
X127762000Y-65532000D02*
X127762000Y-64008000D01*
X131064000Y-60706000D02*
X134874000Y-60706000D01*
X127762000Y-64008000D02*
X131064000Y-60706000D01*
X112014000Y-64262000D02*
X114977346Y-64262000D01*
X117210637Y-62028709D02*
X117610636Y-61628710D01*
X114977346Y-64262000D02*
X117210637Y-62028709D01*
X120142000Y-59944000D02*
X121520001Y-61322001D01*
X109982000Y-61214000D02*
X111252000Y-59944000D01*
X121520001Y-61322001D02*
X121920000Y-61722000D01*
X111252000Y-59944000D02*
X120142000Y-59944000D01*
X109982000Y-58674000D02*
X111184081Y-58674000D01*
X115242011Y-54616070D02*
X115242011Y-53653636D01*
X115242011Y-53653636D02*
X115242011Y-53087951D01*
X111184081Y-58674000D02*
X115242011Y-54616070D01*
X111506000Y-56134000D02*
X113030000Y-54610000D01*
X109982000Y-56134000D02*
X111506000Y-56134000D01*
X109982000Y-53594000D02*
X113538000Y-53594000D01*
X179578000Y-74676000D02*
X181610000Y-74676000D01*
X179832000Y-57404000D02*
X175006000Y-57404000D01*
X119753928Y-64561137D02*
X119380000Y-64935065D01*
X119753928Y-61872485D02*
X119753928Y-64561137D01*
X131786824Y-62495506D02*
X131786824Y-64836972D01*
X131786824Y-64836972D02*
X131328246Y-65295550D01*
X123698000Y-55937685D02*
X123247685Y-56388000D01*
X123698000Y-55372000D02*
X123698000Y-55937685D01*
X123247685Y-56388000D02*
X121920000Y-56388000D01*
X121920000Y-56388000D02*
X121920000Y-59182000D01*
X121158000Y-64770000D02*
X120640824Y-64252824D01*
X120640824Y-64252824D02*
X120640824Y-61692333D01*
X120971305Y-58300084D02*
X120971305Y-58865769D01*
X121920000Y-55626000D02*
X120971305Y-56574695D01*
X120971305Y-56574695D02*
X120971305Y-58300084D01*
X122682000Y-55626000D02*
X121920000Y-55626000D01*
X118110000Y-62234209D02*
X118678845Y-61665364D01*
X118110000Y-64935065D02*
X118110000Y-62234209D01*
D23*
X169545462Y-50737662D02*
X172626800Y-53819000D01*
X169545462Y-48387462D02*
X169545462Y-50737662D01*
X182211199Y-53819000D02*
X182944199Y-53086000D01*
X182944199Y-53086000D02*
X185166000Y-53086000D01*
X180089752Y-53819000D02*
X179790607Y-54118145D01*
X180311000Y-53819000D02*
X180089752Y-53819000D01*
X180311000Y-53819000D02*
X182211199Y-53819000D01*
X172626800Y-53819000D02*
X180311000Y-53819000D01*
X184098976Y-50546000D02*
X185166000Y-50546000D01*
X182335338Y-50546000D02*
X184098976Y-50546000D01*
X181635337Y-49845999D02*
X182335338Y-50546000D01*
X176845999Y-49845999D02*
X175006000Y-48006000D01*
X175006000Y-48006000D02*
X174752000Y-47752000D01*
X174752000Y-47752000D02*
X174752000Y-46736000D01*
X180147999Y-49845999D02*
X180132002Y-49845999D01*
X180147999Y-49845999D02*
X181635337Y-49845999D01*
X180132002Y-49845999D02*
X179832000Y-49545997D01*
X176845999Y-49845999D02*
X180147999Y-49845999D01*
X175260000Y-73406000D02*
X184912000Y-73406000D01*
X184912000Y-73406000D02*
X185166000Y-73152000D01*
X181571499Y-69848161D02*
X182335338Y-70612000D01*
X181571499Y-67017499D02*
X181571499Y-69848161D01*
X181073000Y-66519000D02*
X181571499Y-67017499D01*
X184098976Y-70612000D02*
X185166000Y-70612000D01*
X182335338Y-70612000D02*
X184098976Y-70612000D01*
X180311000Y-66519000D02*
X180111000Y-66519000D01*
X180311000Y-66519000D02*
X181073000Y-66519000D01*
X180111000Y-66519000D02*
X179861000Y-66769000D01*
X174335000Y-68580000D02*
X176396000Y-66519000D01*
X176396000Y-66519000D02*
X180311000Y-66519000D01*
X170287926Y-49129926D02*
X169995462Y-49422390D01*
X169995462Y-49422390D02*
X169995462Y-50551262D01*
X169995462Y-50551262D02*
X172813200Y-53369000D01*
X182626000Y-52767801D02*
X182626000Y-51816000D01*
X182024801Y-53369000D02*
X182626000Y-52767801D01*
D21*
X179832000Y-53119000D02*
X179832000Y-53086000D01*
D23*
X180082000Y-53369000D02*
X179832000Y-53119000D01*
X180311000Y-53369000D02*
X180082000Y-53369000D01*
X180311000Y-53369000D02*
X182024801Y-53369000D01*
X172813200Y-53369000D02*
X180311000Y-53369000D01*
X181871501Y-47490499D02*
X182626000Y-46736000D01*
X181518893Y-47843107D02*
X181871501Y-47490499D01*
X175459108Y-47443108D02*
X175859107Y-47843107D01*
X180177107Y-47843107D02*
X179832000Y-47498000D01*
X180177107Y-47843107D02*
X181518893Y-47843107D01*
X175859107Y-47843107D02*
X180177107Y-47843107D01*
X181806000Y-72702000D02*
X182626000Y-71882000D01*
X179709515Y-72457315D02*
X179954200Y-72702000D01*
X179954200Y-72702000D02*
X181806000Y-72702000D01*
X174785000Y-72457315D02*
X179709515Y-72457315D01*
X179640870Y-72388670D02*
X179614990Y-72388670D01*
X179709515Y-72457315D02*
X179640870Y-72388670D01*
X181259397Y-66069000D02*
X181992397Y-66802000D01*
X181992397Y-66802000D02*
X182626000Y-66802000D01*
X180161003Y-66069000D02*
X179861000Y-65768997D01*
X180311000Y-66069000D02*
X180161003Y-66069000D01*
X180311000Y-66069000D02*
X181259397Y-66069000D01*
X173934990Y-67564000D02*
X174500675Y-67564000D01*
X174500675Y-67564000D02*
X175995675Y-66069000D01*
X175995675Y-66069000D02*
X180311000Y-66069000D01*
D24*
G36*
X186976580Y-39673665D02*
G01*
X186766734Y-39987723D01*
X186622188Y-40336686D01*
X186548500Y-40707143D01*
X186548500Y-41084857D01*
X186622188Y-41455314D01*
X186766734Y-41804277D01*
X186976580Y-42118335D01*
X187243665Y-42385420D01*
X187557723Y-42595266D01*
X187906686Y-42739812D01*
X188277143Y-42813500D01*
X188654857Y-42813500D01*
X189025314Y-42739812D01*
X189224377Y-42657357D01*
X189216000Y-42699470D01*
X189216000Y-43152530D01*
X189304387Y-43596885D01*
X189477766Y-44015459D01*
X189729473Y-44392165D01*
X190049835Y-44712527D01*
X190426541Y-44964234D01*
X190845115Y-45137613D01*
X191289470Y-45226000D01*
X191742530Y-45226000D01*
X192186885Y-45137613D01*
X192605459Y-44964234D01*
X192982165Y-44712527D01*
X193302527Y-44392165D01*
X193554234Y-44015459D01*
X193727613Y-43596885D01*
X193816000Y-43152530D01*
X193816000Y-42699470D01*
X193727613Y-42255115D01*
X193554234Y-41836541D01*
X193302527Y-41459835D01*
X192982165Y-41139473D01*
X192605459Y-40887766D01*
X192186885Y-40714387D01*
X191742530Y-40626000D01*
X191289470Y-40626000D01*
X190845115Y-40714387D01*
X190426541Y-40887766D01*
X190383500Y-40916525D01*
X190383500Y-40707143D01*
X190309812Y-40336686D01*
X190165266Y-39987723D01*
X189955420Y-39673665D01*
X189803755Y-39522000D01*
X197206000Y-39522000D01*
X197206000Y-40787934D01*
X197107569Y-40722165D01*
X196841866Y-40612107D01*
X196559797Y-40556000D01*
X196272203Y-40556000D01*
X195990134Y-40612107D01*
X195724431Y-40722165D01*
X195485304Y-40881944D01*
X195281944Y-41085304D01*
X195122165Y-41324431D01*
X195012107Y-41590134D01*
X194956000Y-41872203D01*
X194956000Y-42159797D01*
X195012107Y-42441866D01*
X195122165Y-42707569D01*
X195281944Y-42946696D01*
X195485304Y-43150056D01*
X195688759Y-43286000D01*
X195485304Y-43421944D01*
X195281944Y-43625304D01*
X195122165Y-43864431D01*
X195012107Y-44130134D01*
X194956000Y-44412203D01*
X194956000Y-44699797D01*
X194997141Y-44906626D01*
X194956027Y-44956723D01*
X194885455Y-45088753D01*
X194855181Y-45188557D01*
X194841999Y-45232013D01*
X194831001Y-45343666D01*
X194831001Y-45343677D01*
X194827325Y-45380999D01*
X194831001Y-45418321D01*
X194831001Y-45930684D01*
X180667790Y-60093897D01*
X180635937Y-60046226D01*
X180491774Y-59902063D01*
X180322256Y-59788795D01*
X180133898Y-59710774D01*
X179933939Y-59671000D01*
X179730061Y-59671000D01*
X179530102Y-59710774D01*
X179341744Y-59788795D01*
X179172226Y-59902063D01*
X179028063Y-60046226D01*
X178914795Y-60215744D01*
X178836774Y-60404102D01*
X178826849Y-60454000D01*
X175963711Y-60454000D01*
X175919774Y-60410063D01*
X175750256Y-60296795D01*
X175561898Y-60218774D01*
X175361939Y-60179000D01*
X175158061Y-60179000D01*
X174958102Y-60218774D01*
X174769744Y-60296795D01*
X174600226Y-60410063D01*
X174456063Y-60554226D01*
X174342795Y-60723744D01*
X174264774Y-60912102D01*
X174253465Y-60968957D01*
X174156952Y-61065470D01*
X174123184Y-61093183D01*
X174095471Y-61126951D01*
X174095468Y-61126954D01*
X174012590Y-61227941D01*
X173930412Y-61381687D01*
X173879805Y-61548510D01*
X173862719Y-61722000D01*
X173867001Y-61765478D01*
X173867001Y-61853000D01*
X172606643Y-61853000D01*
X172563177Y-61848719D01*
X172519711Y-61853000D01*
X172519701Y-61853000D01*
X172389688Y-61865805D01*
X172222865Y-61916411D01*
X172069119Y-61998589D01*
X172069117Y-61998590D01*
X172069118Y-61998590D01*
X171968131Y-62081468D01*
X171968129Y-62081470D01*
X171934361Y-62109183D01*
X171906648Y-62142951D01*
X162874435Y-71175165D01*
X162810652Y-71132547D01*
X162585896Y-71039450D01*
X162347297Y-70991990D01*
X162104023Y-70991990D01*
X161865424Y-71039450D01*
X161640668Y-71132547D01*
X161438393Y-71267703D01*
X161266373Y-71439723D01*
X161131217Y-71641998D01*
X161038120Y-71866754D01*
X160990660Y-72105353D01*
X160990660Y-72348627D01*
X161038120Y-72587226D01*
X161131217Y-72811982D01*
X161266373Y-73014257D01*
X161438393Y-73186277D01*
X161640668Y-73321433D01*
X161865424Y-73414530D01*
X162104023Y-73461990D01*
X162347297Y-73461990D01*
X162585896Y-73414530D01*
X162810652Y-73321433D01*
X163012927Y-73186277D01*
X163083888Y-73115316D01*
X163117657Y-73111990D01*
X163117665Y-73111990D01*
X163247678Y-73099185D01*
X163414501Y-73048579D01*
X163568247Y-72966401D01*
X163703005Y-72855807D01*
X163730722Y-72822034D01*
X164133757Y-72418999D01*
X169642198Y-72418999D01*
X173426201Y-76203003D01*
X173449999Y-76232001D01*
X173565724Y-76326974D01*
X173697753Y-76397546D01*
X173841014Y-76441003D01*
X173952667Y-76452000D01*
X173952675Y-76452000D01*
X173990000Y-76455676D01*
X174027325Y-76452000D01*
X179128289Y-76452000D01*
X179172226Y-76495937D01*
X179341744Y-76609205D01*
X179530102Y-76687226D01*
X179730061Y-76727000D01*
X179933939Y-76727000D01*
X180133898Y-76687226D01*
X180322256Y-76609205D01*
X180491774Y-76495937D01*
X180635937Y-76351774D01*
X180749205Y-76182256D01*
X180827226Y-75993898D01*
X180867000Y-75793939D01*
X180867000Y-75590061D01*
X180836356Y-75436000D01*
X180906289Y-75436000D01*
X180950226Y-75479937D01*
X181119744Y-75593205D01*
X181308102Y-75671226D01*
X181508061Y-75711000D01*
X181711939Y-75711000D01*
X181911898Y-75671226D01*
X182100256Y-75593205D01*
X182269774Y-75479937D01*
X182413937Y-75335774D01*
X182527205Y-75166256D01*
X182605226Y-74977898D01*
X182645000Y-74777939D01*
X182645000Y-74574061D01*
X182605226Y-74374102D01*
X182527205Y-74185744D01*
X182497308Y-74141000D01*
X184189951Y-74141000D01*
X184280246Y-74231295D01*
X184507825Y-74383359D01*
X184760698Y-74488102D01*
X185029146Y-74541500D01*
X185302854Y-74541500D01*
X185571302Y-74488102D01*
X185824175Y-74383359D01*
X186051754Y-74231295D01*
X186245295Y-74037754D01*
X186397359Y-73810175D01*
X186502102Y-73557302D01*
X186555500Y-73288854D01*
X186555500Y-73015146D01*
X186502102Y-72746698D01*
X186397359Y-72493825D01*
X186245295Y-72266246D01*
X186051754Y-72072705D01*
X185824175Y-71920641D01*
X185730887Y-71882000D01*
X185824175Y-71843359D01*
X186051754Y-71691295D01*
X186245295Y-71497754D01*
X186397359Y-71270175D01*
X186502102Y-71017302D01*
X186555500Y-70748854D01*
X186555500Y-70475146D01*
X186502102Y-70206698D01*
X186397359Y-69953825D01*
X186245295Y-69726246D01*
X186051754Y-69532705D01*
X185824175Y-69380641D01*
X185730887Y-69342000D01*
X185824175Y-69303359D01*
X186051754Y-69151295D01*
X186245295Y-68957754D01*
X186397359Y-68730175D01*
X186502102Y-68477302D01*
X186555500Y-68208854D01*
X186555500Y-67935146D01*
X186502102Y-67666698D01*
X186397359Y-67413825D01*
X186245295Y-67186246D01*
X186051754Y-66992705D01*
X185824175Y-66840641D01*
X185730887Y-66802000D01*
X185824175Y-66763359D01*
X186051754Y-66611295D01*
X186245295Y-66417754D01*
X186397359Y-66190175D01*
X186502102Y-65937302D01*
X186555500Y-65668854D01*
X186555500Y-65395146D01*
X186502102Y-65126698D01*
X186397359Y-64873825D01*
X186245295Y-64646246D01*
X186051754Y-64452705D01*
X185824175Y-64300641D01*
X185571302Y-64195898D01*
X185302854Y-64142500D01*
X185029146Y-64142500D01*
X184760698Y-64195898D01*
X184507825Y-64300641D01*
X184280246Y-64452705D01*
X184086705Y-64646246D01*
X183934641Y-64873825D01*
X183829898Y-65126698D01*
X183776500Y-65395146D01*
X183776500Y-65668854D01*
X183829898Y-65937302D01*
X183934641Y-66190175D01*
X184086705Y-66417754D01*
X184280246Y-66611295D01*
X184507825Y-66763359D01*
X184601113Y-66802000D01*
X184507825Y-66840641D01*
X184280246Y-66992705D01*
X184086705Y-67186246D01*
X183934641Y-67413825D01*
X183829898Y-67666698D01*
X183776500Y-67935146D01*
X183776500Y-68208854D01*
X183829898Y-68477302D01*
X183934641Y-68730175D01*
X184086705Y-68957754D01*
X184280246Y-69151295D01*
X184507825Y-69303359D01*
X184601113Y-69342000D01*
X184507825Y-69380641D01*
X184280246Y-69532705D01*
X184086705Y-69726246D01*
X183985974Y-69877000D01*
X183908380Y-69877000D01*
X183962102Y-69747302D01*
X184015500Y-69478854D01*
X184015500Y-69205146D01*
X183962102Y-68936698D01*
X183857359Y-68683825D01*
X183705295Y-68456246D01*
X183511754Y-68262705D01*
X183284175Y-68110641D01*
X183190887Y-68072000D01*
X183284175Y-68033359D01*
X183511754Y-67881295D01*
X183705295Y-67687754D01*
X183857359Y-67460175D01*
X183962102Y-67207302D01*
X184015500Y-66938854D01*
X184015500Y-66665146D01*
X183962102Y-66396698D01*
X183857359Y-66143825D01*
X183705295Y-65916246D01*
X183511754Y-65722705D01*
X183284175Y-65570641D01*
X183031302Y-65465898D01*
X182762854Y-65412500D01*
X182489146Y-65412500D01*
X182220698Y-65465898D01*
X181967825Y-65570641D01*
X181867512Y-65637668D01*
X181804655Y-65574812D01*
X181781635Y-65546762D01*
X181669717Y-65454913D01*
X181542030Y-65386663D01*
X181403482Y-65344635D01*
X181295502Y-65334000D01*
X181259397Y-65330444D01*
X181223292Y-65334000D01*
X180801094Y-65334000D01*
X180778205Y-65278741D01*
X180664937Y-65109223D01*
X180520774Y-64965060D01*
X180351256Y-64851792D01*
X180162898Y-64773771D01*
X179962939Y-64733997D01*
X179759061Y-64733997D01*
X179559102Y-64773771D01*
X179370744Y-64851792D01*
X179201226Y-64965060D01*
X179057063Y-65109223D01*
X178943795Y-65278741D01*
X178920906Y-65334000D01*
X178213699Y-65334000D01*
X182774556Y-60773143D01*
X186548500Y-60773143D01*
X186548500Y-61150857D01*
X186622188Y-61521314D01*
X186766734Y-61870277D01*
X186976580Y-62184335D01*
X187243665Y-62451420D01*
X187557723Y-62661266D01*
X187906686Y-62805812D01*
X188277143Y-62879500D01*
X188654857Y-62879500D01*
X189025314Y-62805812D01*
X189224377Y-62723357D01*
X189216000Y-62765470D01*
X189216000Y-63218530D01*
X189304387Y-63662885D01*
X189477766Y-64081459D01*
X189729473Y-64458165D01*
X190049835Y-64778527D01*
X190426541Y-65030234D01*
X190845115Y-65203613D01*
X191289470Y-65292000D01*
X191742530Y-65292000D01*
X192186885Y-65203613D01*
X192605459Y-65030234D01*
X192982165Y-64778527D01*
X193302527Y-64458165D01*
X193554234Y-64081459D01*
X193727613Y-63662885D01*
X193816000Y-63218530D01*
X193816000Y-62765470D01*
X193727613Y-62321115D01*
X193554234Y-61902541D01*
X193302527Y-61525835D01*
X192982165Y-61205473D01*
X192605459Y-60953766D01*
X192186885Y-60780387D01*
X191742530Y-60692000D01*
X191289470Y-60692000D01*
X190845115Y-60780387D01*
X190426541Y-60953766D01*
X190383500Y-60982525D01*
X190383500Y-60773143D01*
X190309812Y-60402686D01*
X190165266Y-60053723D01*
X189955420Y-59739665D01*
X189688335Y-59472580D01*
X189374277Y-59262734D01*
X189025314Y-59118188D01*
X188654857Y-59044500D01*
X188277143Y-59044500D01*
X187906686Y-59118188D01*
X187557723Y-59262734D01*
X187243665Y-59472580D01*
X186976580Y-59739665D01*
X186766734Y-60053723D01*
X186622188Y-60402686D01*
X186548500Y-60773143D01*
X182774556Y-60773143D01*
X186618903Y-56928797D01*
X186622188Y-56945314D01*
X186766734Y-57294277D01*
X186976580Y-57608335D01*
X187243665Y-57875420D01*
X187557723Y-58085266D01*
X187906686Y-58229812D01*
X188277143Y-58303500D01*
X188654857Y-58303500D01*
X189025314Y-58229812D01*
X189374277Y-58085266D01*
X189688335Y-57875420D01*
X189955420Y-57608335D01*
X190165266Y-57294277D01*
X190309812Y-56945314D01*
X190383500Y-56574857D01*
X190383500Y-56365475D01*
X190426541Y-56394234D01*
X190845115Y-56567613D01*
X191289470Y-56656000D01*
X191742530Y-56656000D01*
X192186885Y-56567613D01*
X192605459Y-56394234D01*
X192982165Y-56142527D01*
X193302527Y-55822165D01*
X193554234Y-55445459D01*
X193727613Y-55026885D01*
X193816000Y-54582530D01*
X193816000Y-54129470D01*
X193727613Y-53685115D01*
X193554234Y-53266541D01*
X193302527Y-52889835D01*
X193073693Y-52661001D01*
X194956000Y-52661001D01*
X194956000Y-52869797D01*
X195012107Y-53151866D01*
X195122165Y-53417569D01*
X195281944Y-53656696D01*
X195485304Y-53860056D01*
X195688759Y-53996000D01*
X195485304Y-54131944D01*
X195281944Y-54335304D01*
X195122165Y-54574431D01*
X195012107Y-54840134D01*
X194956000Y-55122203D01*
X194956000Y-55409797D01*
X195012107Y-55691866D01*
X195122165Y-55957569D01*
X195281944Y-56196696D01*
X195485304Y-56400056D01*
X195724431Y-56559835D01*
X195990134Y-56669893D01*
X196272203Y-56726000D01*
X196559797Y-56726000D01*
X196841866Y-56669893D01*
X197107569Y-56559835D01*
X197206000Y-56494065D01*
X197206001Y-60853935D01*
X197107569Y-60788165D01*
X196841866Y-60678107D01*
X196559797Y-60622000D01*
X196272203Y-60622000D01*
X195990134Y-60678107D01*
X195724431Y-60788165D01*
X195485304Y-60947944D01*
X195281944Y-61151304D01*
X195122165Y-61390431D01*
X195012107Y-61656134D01*
X194956000Y-61938203D01*
X194956000Y-62225797D01*
X195012107Y-62507866D01*
X195122165Y-62773569D01*
X195281944Y-63012696D01*
X195485304Y-63216056D01*
X195688759Y-63352000D01*
X195485304Y-63487944D01*
X195281944Y-63691304D01*
X195122165Y-63930431D01*
X195012107Y-64196134D01*
X194956000Y-64478203D01*
X194956000Y-64765797D01*
X195012107Y-65047866D01*
X195122165Y-65313569D01*
X195281944Y-65552696D01*
X195485304Y-65756056D01*
X195724431Y-65915835D01*
X195990134Y-66025893D01*
X196272203Y-66082000D01*
X196559797Y-66082000D01*
X196841866Y-66025893D01*
X197107569Y-65915835D01*
X197206001Y-65850065D01*
X197206001Y-71563935D01*
X197107569Y-71498165D01*
X196841866Y-71388107D01*
X196559797Y-71332000D01*
X196272203Y-71332000D01*
X195990134Y-71388107D01*
X195724431Y-71498165D01*
X195485304Y-71657944D01*
X195281944Y-71861304D01*
X195122165Y-72100431D01*
X195012107Y-72366134D01*
X194956000Y-72648203D01*
X194956000Y-72935797D01*
X195012107Y-73217866D01*
X195122165Y-73483569D01*
X195281944Y-73722696D01*
X195485304Y-73926056D01*
X195688759Y-74062000D01*
X195485304Y-74197944D01*
X195281944Y-74401304D01*
X195122165Y-74640431D01*
X195012107Y-74906134D01*
X194956000Y-75188203D01*
X194956000Y-75475797D01*
X195012107Y-75757866D01*
X195122165Y-76023569D01*
X195281944Y-76262696D01*
X195485304Y-76466056D01*
X195724431Y-76625835D01*
X195990134Y-76735893D01*
X196272203Y-76792000D01*
X196559797Y-76792000D01*
X196841866Y-76735893D01*
X197107569Y-76625835D01*
X197206001Y-76560065D01*
X197206001Y-78080000D01*
X189480935Y-78080000D01*
X189688335Y-77941420D01*
X189955420Y-77674335D01*
X190165266Y-77360277D01*
X190309812Y-77011314D01*
X190383500Y-76640857D01*
X190383500Y-76431475D01*
X190426541Y-76460234D01*
X190845115Y-76633613D01*
X191289470Y-76722000D01*
X191742530Y-76722000D01*
X192186885Y-76633613D01*
X192605459Y-76460234D01*
X192982165Y-76208527D01*
X193302527Y-75888165D01*
X193554234Y-75511459D01*
X193727613Y-75092885D01*
X193816000Y-74648530D01*
X193816000Y-74195470D01*
X193727613Y-73751115D01*
X193554234Y-73332541D01*
X193302527Y-72955835D01*
X192982165Y-72635473D01*
X192605459Y-72383766D01*
X192186885Y-72210387D01*
X191742530Y-72122000D01*
X191289470Y-72122000D01*
X190845115Y-72210387D01*
X190426541Y-72383766D01*
X190049835Y-72635473D01*
X189729473Y-72955835D01*
X189477766Y-73332541D01*
X189304387Y-73751115D01*
X189216000Y-74195470D01*
X189216000Y-74648530D01*
X189224377Y-74690643D01*
X189025314Y-74608188D01*
X188654857Y-74534500D01*
X188277143Y-74534500D01*
X187906686Y-74608188D01*
X187557723Y-74752734D01*
X187243665Y-74962580D01*
X186976580Y-75229665D01*
X186766734Y-75543723D01*
X186622188Y-75892686D01*
X186548500Y-76263143D01*
X186548500Y-76640857D01*
X186622188Y-77011314D01*
X186766734Y-77360277D01*
X186976580Y-77674335D01*
X187243665Y-77941420D01*
X187451065Y-78080000D01*
X134818896Y-78080000D01*
X134905185Y-78009185D01*
X134984537Y-77912494D01*
X135043502Y-77802180D01*
X135079812Y-77682482D01*
X135092072Y-77558000D01*
X135092072Y-75858000D01*
X135079812Y-75733518D01*
X135043502Y-75613820D01*
X134984537Y-75503506D01*
X134905185Y-75406815D01*
X134835956Y-75350000D01*
X137703928Y-75350000D01*
X137703928Y-77050000D01*
X137716188Y-77174482D01*
X137752498Y-77294180D01*
X137811463Y-77404494D01*
X137890815Y-77501185D01*
X137987506Y-77580537D01*
X138097820Y-77639502D01*
X138217518Y-77675812D01*
X138342000Y-77688072D01*
X140042000Y-77688072D01*
X140166482Y-77675812D01*
X140286180Y-77639502D01*
X140396494Y-77580537D01*
X140493185Y-77501185D01*
X140572537Y-77404494D01*
X140631502Y-77294180D01*
X140653513Y-77221620D01*
X140785368Y-77353475D01*
X141028589Y-77515990D01*
X141298842Y-77627932D01*
X141585740Y-77685000D01*
X141878260Y-77685000D01*
X142165158Y-77627932D01*
X142435411Y-77515990D01*
X142678632Y-77353475D01*
X142885475Y-77146632D01*
X143002000Y-76972240D01*
X143118525Y-77146632D01*
X143325368Y-77353475D01*
X143568589Y-77515990D01*
X143838842Y-77627932D01*
X144125740Y-77685000D01*
X144418260Y-77685000D01*
X144705158Y-77627932D01*
X144975411Y-77515990D01*
X145218632Y-77353475D01*
X145425475Y-77146632D01*
X145587990Y-76903411D01*
X145699932Y-76633158D01*
X145757000Y-76346260D01*
X145757000Y-76053740D01*
X145699932Y-75766842D01*
X145587990Y-75496589D01*
X145425475Y-75253368D01*
X145218632Y-75046525D01*
X144975411Y-74884010D01*
X144705158Y-74772068D01*
X144418260Y-74715000D01*
X144125740Y-74715000D01*
X143838842Y-74772068D01*
X143568589Y-74884010D01*
X143325368Y-75046525D01*
X143118525Y-75253368D01*
X143002000Y-75427760D01*
X142885475Y-75253368D01*
X142678632Y-75046525D01*
X142435411Y-74884010D01*
X142165158Y-74772068D01*
X141878260Y-74715000D01*
X141585740Y-74715000D01*
X141298842Y-74772068D01*
X141028589Y-74884010D01*
X140785368Y-75046525D01*
X140653513Y-75178380D01*
X140631502Y-75105820D01*
X140572537Y-74995506D01*
X140493185Y-74898815D01*
X140396494Y-74819463D01*
X140286180Y-74760498D01*
X140166482Y-74724188D01*
X140042000Y-74711928D01*
X138342000Y-74711928D01*
X138217518Y-74724188D01*
X138097820Y-74760498D01*
X137987506Y-74819463D01*
X137890815Y-74898815D01*
X137811463Y-74995506D01*
X137752498Y-75105820D01*
X137716188Y-75225518D01*
X137703928Y-75350000D01*
X134835956Y-75350000D01*
X134808494Y-75327463D01*
X134698180Y-75268498D01*
X134578482Y-75232188D01*
X134454000Y-75219928D01*
X132754000Y-75219928D01*
X132629518Y-75232188D01*
X132509820Y-75268498D01*
X132399506Y-75327463D01*
X132302815Y-75406815D01*
X132223463Y-75503506D01*
X132164498Y-75613820D01*
X132142487Y-75686380D01*
X132010632Y-75554525D01*
X131767411Y-75392010D01*
X131497158Y-75280068D01*
X131210260Y-75223000D01*
X130917740Y-75223000D01*
X130630842Y-75280068D01*
X130360589Y-75392010D01*
X130117368Y-75554525D01*
X129910525Y-75761368D01*
X129748010Y-76004589D01*
X129636068Y-76274842D01*
X129579000Y-76561740D01*
X129579000Y-76854260D01*
X129636068Y-77141158D01*
X129748010Y-77411411D01*
X129910525Y-77654632D01*
X130117368Y-77861475D01*
X130360589Y-78023990D01*
X130495810Y-78080000D01*
X123134896Y-78080000D01*
X123221185Y-78009185D01*
X123300537Y-77912494D01*
X123359502Y-77802180D01*
X123395812Y-77682482D01*
X123408072Y-77558000D01*
X123408072Y-75858000D01*
X123395812Y-75733518D01*
X123359502Y-75613820D01*
X123300537Y-75503506D01*
X123221185Y-75406815D01*
X123124494Y-75327463D01*
X123014180Y-75268498D01*
X122894482Y-75232188D01*
X122770000Y-75219928D01*
X121070000Y-75219928D01*
X120945518Y-75232188D01*
X120825820Y-75268498D01*
X120715506Y-75327463D01*
X120618815Y-75406815D01*
X120539463Y-75503506D01*
X120480498Y-75613820D01*
X120458487Y-75686380D01*
X120326632Y-75554525D01*
X120083411Y-75392010D01*
X119813158Y-75280068D01*
X119526260Y-75223000D01*
X119233740Y-75223000D01*
X118946842Y-75280068D01*
X118676589Y-75392010D01*
X118433368Y-75554525D01*
X118226525Y-75761368D01*
X118064010Y-76004589D01*
X117952068Y-76274842D01*
X117895000Y-76561740D01*
X117895000Y-76854260D01*
X117952068Y-77141158D01*
X118064010Y-77411411D01*
X118226525Y-77654632D01*
X118433368Y-77861475D01*
X118676589Y-78023990D01*
X118811810Y-78080000D01*
X95656000Y-78080000D01*
X95656000Y-62636061D01*
X105645000Y-62636061D01*
X105645000Y-62839939D01*
X105684774Y-63039898D01*
X105762795Y-63228256D01*
X105876063Y-63397774D01*
X106020226Y-63541937D01*
X106189744Y-63655205D01*
X106378102Y-63733226D01*
X106578061Y-63773000D01*
X106781939Y-63773000D01*
X106981898Y-63733226D01*
X107170256Y-63655205D01*
X107339774Y-63541937D01*
X107394724Y-63486987D01*
X107537932Y-63443546D01*
X107669961Y-63372974D01*
X107785686Y-63278001D01*
X107809489Y-63248997D01*
X107909485Y-63149001D01*
X108625247Y-63149001D01*
X108554068Y-63320842D01*
X108497000Y-63607740D01*
X108497000Y-63900260D01*
X108554068Y-64187158D01*
X108666010Y-64457411D01*
X108828525Y-64700632D01*
X109035368Y-64907475D01*
X109209760Y-65024000D01*
X109035368Y-65140525D01*
X108828525Y-65347368D01*
X108666010Y-65590589D01*
X108554068Y-65860842D01*
X108497000Y-66147740D01*
X108497000Y-66440260D01*
X108554068Y-66727158D01*
X108666010Y-66997411D01*
X108828525Y-67240632D01*
X109035368Y-67447475D01*
X109209760Y-67564000D01*
X109035368Y-67680525D01*
X108828525Y-67887368D01*
X108666010Y-68130589D01*
X108554068Y-68400842D01*
X108497000Y-68687740D01*
X108497000Y-68980260D01*
X108554068Y-69267158D01*
X108666010Y-69537411D01*
X108828525Y-69780632D01*
X109035368Y-69987475D01*
X109278589Y-70149990D01*
X109548842Y-70261932D01*
X109835740Y-70319000D01*
X110128260Y-70319000D01*
X110415158Y-70261932D01*
X110685411Y-70149990D01*
X110928632Y-69987475D01*
X111135475Y-69780632D01*
X111260178Y-69594000D01*
X111468678Y-69594000D01*
X111506000Y-69597676D01*
X111543322Y-69594000D01*
X111543333Y-69594000D01*
X111654986Y-69583003D01*
X111798247Y-69539546D01*
X111930276Y-69468974D01*
X112046001Y-69374001D01*
X112069804Y-69344997D01*
X112473061Y-68941740D01*
X135675000Y-68941740D01*
X135675000Y-69234260D01*
X135732068Y-69521158D01*
X135844010Y-69791411D01*
X136006525Y-70034632D01*
X136213368Y-70241475D01*
X136387760Y-70358000D01*
X136213368Y-70474525D01*
X136006525Y-70681368D01*
X135844010Y-70924589D01*
X135732068Y-71194842D01*
X135675000Y-71481740D01*
X135675000Y-71774260D01*
X135732068Y-72061158D01*
X135844010Y-72331411D01*
X136006525Y-72574632D01*
X136213368Y-72781475D01*
X136456589Y-72943990D01*
X136726842Y-73055932D01*
X137013740Y-73113000D01*
X137306260Y-73113000D01*
X137593158Y-73055932D01*
X137863411Y-72943990D01*
X138106632Y-72781475D01*
X138313475Y-72574632D01*
X138430000Y-72400240D01*
X138546525Y-72574632D01*
X138753368Y-72781475D01*
X138996589Y-72943990D01*
X139266842Y-73055932D01*
X139553740Y-73113000D01*
X139846260Y-73113000D01*
X140133158Y-73055932D01*
X140403411Y-72943990D01*
X140646632Y-72781475D01*
X140853475Y-72574632D01*
X141015990Y-72331411D01*
X141127932Y-72061158D01*
X141185000Y-71774260D01*
X141185000Y-71481740D01*
X141127932Y-71194842D01*
X141015990Y-70924589D01*
X140853475Y-70681368D01*
X140721620Y-70549513D01*
X140794180Y-70527502D01*
X140904494Y-70468537D01*
X141001185Y-70389185D01*
X141080537Y-70292494D01*
X141139502Y-70182180D01*
X141175812Y-70062482D01*
X141188072Y-69938000D01*
X141188072Y-68238000D01*
X141175812Y-68113518D01*
X141139502Y-67993820D01*
X141080537Y-67883506D01*
X141001185Y-67786815D01*
X140904494Y-67707463D01*
X140794180Y-67648498D01*
X140674482Y-67612188D01*
X140550000Y-67599928D01*
X138850000Y-67599928D01*
X138725518Y-67612188D01*
X138605820Y-67648498D01*
X138495506Y-67707463D01*
X138398815Y-67786815D01*
X138319463Y-67883506D01*
X138260498Y-67993820D01*
X138238487Y-68066380D01*
X138106632Y-67934525D01*
X137863411Y-67772010D01*
X137593158Y-67660068D01*
X137306260Y-67603000D01*
X137013740Y-67603000D01*
X136726842Y-67660068D01*
X136456589Y-67772010D01*
X136213368Y-67934525D01*
X136006525Y-68141368D01*
X135844010Y-68384589D01*
X135732068Y-68654842D01*
X135675000Y-68941740D01*
X112473061Y-68941740D01*
X113577802Y-67837000D01*
X113639939Y-67837000D01*
X113839898Y-67797226D01*
X114028256Y-67719205D01*
X114197774Y-67605937D01*
X114341937Y-67461774D01*
X114455205Y-67292256D01*
X114533226Y-67103898D01*
X114573000Y-66903939D01*
X114573000Y-66700061D01*
X114533226Y-66500102D01*
X114455205Y-66311744D01*
X114341937Y-66142226D01*
X114280617Y-66080906D01*
X114319000Y-65887939D01*
X114319000Y-65684061D01*
X114279226Y-65484102D01*
X114201205Y-65295744D01*
X114087937Y-65126226D01*
X113983711Y-65022000D01*
X114940024Y-65022000D01*
X114977346Y-65025676D01*
X115014668Y-65022000D01*
X115014679Y-65022000D01*
X115126332Y-65011003D01*
X115269593Y-64967546D01*
X115401622Y-64896974D01*
X115517347Y-64802001D01*
X115541150Y-64772998D01*
X117350001Y-62964148D01*
X117350000Y-64231354D01*
X117306063Y-64275291D01*
X117192795Y-64444809D01*
X117114774Y-64633167D01*
X117075000Y-64833126D01*
X117075000Y-65037004D01*
X117114774Y-65236963D01*
X117192795Y-65425321D01*
X117306063Y-65594839D01*
X117450226Y-65739002D01*
X117619744Y-65852270D01*
X117808102Y-65930291D01*
X118008061Y-65970065D01*
X118211939Y-65970065D01*
X118411898Y-65930291D01*
X118600256Y-65852270D01*
X118745000Y-65755555D01*
X118889744Y-65852270D01*
X119078102Y-65930291D01*
X119278061Y-65970065D01*
X119481939Y-65970065D01*
X119681898Y-65930291D01*
X119870256Y-65852270D01*
X120039774Y-65739002D01*
X120183937Y-65594839D01*
X120297205Y-65425321D01*
X120317825Y-65375540D01*
X120354063Y-65429774D01*
X120498226Y-65573937D01*
X120667744Y-65687205D01*
X120856102Y-65765226D01*
X121056061Y-65805000D01*
X121259939Y-65805000D01*
X121459898Y-65765226D01*
X121648256Y-65687205D01*
X121817774Y-65573937D01*
X121961650Y-65430061D01*
X126727000Y-65430061D01*
X126727000Y-65633939D01*
X126766774Y-65833898D01*
X126844795Y-66022256D01*
X126958063Y-66191774D01*
X127102226Y-66335937D01*
X127271744Y-66449205D01*
X127460102Y-66527226D01*
X127660061Y-66567000D01*
X127863939Y-66567000D01*
X128063898Y-66527226D01*
X128252256Y-66449205D01*
X128421774Y-66335937D01*
X128565937Y-66191774D01*
X128679205Y-66022256D01*
X128757226Y-65833898D01*
X128768619Y-65776619D01*
X128825898Y-65765226D01*
X129014256Y-65687205D01*
X129183774Y-65573937D01*
X129327937Y-65429774D01*
X129441205Y-65260256D01*
X129519226Y-65071898D01*
X129559000Y-64871939D01*
X129559000Y-64668061D01*
X129519226Y-64468102D01*
X129465271Y-64337845D01*
X130854311Y-62948806D01*
X130869619Y-62985762D01*
X130982887Y-63155280D01*
X131026824Y-63199217D01*
X131026825Y-64300229D01*
X131026348Y-64300324D01*
X130837990Y-64378345D01*
X130668472Y-64491613D01*
X130524309Y-64635776D01*
X130411041Y-64805294D01*
X130333020Y-64993652D01*
X130293246Y-65193611D01*
X130293246Y-65397489D01*
X130333020Y-65597448D01*
X130411041Y-65785806D01*
X130524309Y-65955324D01*
X130668472Y-66099487D01*
X130837990Y-66212755D01*
X131026348Y-66290776D01*
X131226307Y-66330550D01*
X131430185Y-66330550D01*
X131630144Y-66290776D01*
X131818502Y-66212755D01*
X131988020Y-66099487D01*
X132132183Y-65955324D01*
X132245451Y-65785806D01*
X132323472Y-65597448D01*
X132363246Y-65397489D01*
X132363246Y-65332594D01*
X132421798Y-65261248D01*
X132492370Y-65129219D01*
X132535827Y-64985958D01*
X132546824Y-64874305D01*
X132546824Y-64874296D01*
X132550500Y-64836973D01*
X132546824Y-64799650D01*
X132546824Y-64025625D01*
X134601000Y-66079802D01*
X134601000Y-66141939D01*
X134640774Y-66341898D01*
X134718795Y-66530256D01*
X134832063Y-66699774D01*
X134976226Y-66843937D01*
X135145744Y-66957205D01*
X135334102Y-67035226D01*
X135534061Y-67075000D01*
X135737939Y-67075000D01*
X135937898Y-67035226D01*
X136126256Y-66957205D01*
X136295774Y-66843937D01*
X136398000Y-66741711D01*
X136500226Y-66843937D01*
X136669744Y-66957205D01*
X136858102Y-67035226D01*
X137058061Y-67075000D01*
X137261939Y-67075000D01*
X137461898Y-67035226D01*
X137650256Y-66957205D01*
X137819774Y-66843937D01*
X137963937Y-66699774D01*
X138077205Y-66530256D01*
X138155226Y-66341898D01*
X138195000Y-66141939D01*
X138195000Y-65938061D01*
X138155226Y-65738102D01*
X138077205Y-65549744D01*
X137963937Y-65380226D01*
X137819774Y-65236063D01*
X137650256Y-65122795D01*
X137461898Y-65044774D01*
X137261939Y-65005000D01*
X137199802Y-65005000D01*
X134872000Y-62677199D01*
X134872000Y-62382061D01*
X137649000Y-62382061D01*
X137649000Y-62585939D01*
X137688774Y-62785898D01*
X137766795Y-62974256D01*
X137880063Y-63143774D01*
X138024226Y-63287937D01*
X138193744Y-63401205D01*
X138382102Y-63479226D01*
X138582061Y-63519000D01*
X138760672Y-63519000D01*
X138755484Y-63571676D01*
X138755484Y-63571687D01*
X138751808Y-63609009D01*
X138755484Y-63646331D01*
X138755484Y-64040162D01*
X138751808Y-64077484D01*
X138755484Y-64114806D01*
X138755484Y-64114816D01*
X138766481Y-64226469D01*
X138800081Y-64337236D01*
X138809938Y-64369730D01*
X138880510Y-64501760D01*
X138889853Y-64513144D01*
X138975483Y-64617485D01*
X139004487Y-64641288D01*
X141168201Y-66805003D01*
X141191999Y-66834001D01*
X141220997Y-66857799D01*
X141307723Y-66928974D01*
X141435759Y-66997411D01*
X141439753Y-66999546D01*
X141583014Y-67043003D01*
X141694667Y-67054000D01*
X141694677Y-67054000D01*
X141732000Y-67057676D01*
X141769322Y-67054000D01*
X144076289Y-67054000D01*
X144120226Y-67097937D01*
X144289744Y-67211205D01*
X144478102Y-67289226D01*
X144678061Y-67329000D01*
X144881939Y-67329000D01*
X145081898Y-67289226D01*
X145270256Y-67211205D01*
X145439774Y-67097937D01*
X145583937Y-66953774D01*
X145697205Y-66784256D01*
X145775226Y-66595898D01*
X145815000Y-66395939D01*
X145815000Y-66192061D01*
X145775226Y-65992102D01*
X145697205Y-65803744D01*
X145645892Y-65726949D01*
X145708917Y-65574794D01*
X145748691Y-65374835D01*
X145748691Y-65170957D01*
X145708917Y-64970998D01*
X145651467Y-64832302D01*
X145696251Y-64765278D01*
X145774272Y-64576920D01*
X145814046Y-64376961D01*
X145814046Y-64173083D01*
X145812955Y-64167599D01*
X146904050Y-64167599D01*
X146932238Y-64209786D01*
X147076401Y-64353949D01*
X147245919Y-64467217D01*
X147434277Y-64545238D01*
X147634236Y-64585012D01*
X147838114Y-64585012D01*
X148038073Y-64545238D01*
X148226431Y-64467217D01*
X148395949Y-64353949D01*
X148540112Y-64209786D01*
X148653380Y-64040268D01*
X148731401Y-63851910D01*
X148771175Y-63651951D01*
X148771175Y-63448073D01*
X148731401Y-63248114D01*
X148653380Y-63059756D01*
X148540112Y-62890238D01*
X148395949Y-62746075D01*
X148226431Y-62632807D01*
X148038073Y-62554786D01*
X147838114Y-62515012D01*
X147634236Y-62515012D01*
X147434277Y-62554786D01*
X147245919Y-62632807D01*
X147223781Y-62647599D01*
X142446204Y-62647599D01*
X143373804Y-61720000D01*
X148394289Y-61720000D01*
X148438226Y-61763937D01*
X148607744Y-61877205D01*
X148796102Y-61955226D01*
X148996061Y-61995000D01*
X149199939Y-61995000D01*
X149399898Y-61955226D01*
X149588256Y-61877205D01*
X149757774Y-61763937D01*
X149901937Y-61619774D01*
X150015205Y-61450256D01*
X150093226Y-61261898D01*
X150133000Y-61061939D01*
X150133000Y-60858061D01*
X150093226Y-60658102D01*
X150015205Y-60469744D01*
X149901937Y-60300226D01*
X149757774Y-60156063D01*
X149588256Y-60042795D01*
X149399898Y-59964774D01*
X149199939Y-59925000D01*
X148996061Y-59925000D01*
X148796102Y-59964774D01*
X148607744Y-60042795D01*
X148438226Y-60156063D01*
X148394289Y-60200000D01*
X143096324Y-60200000D01*
X143059001Y-60196324D01*
X143021678Y-60200000D01*
X143021669Y-60200000D01*
X142910016Y-60210997D01*
X142794961Y-60245898D01*
X142766755Y-60254454D01*
X142634725Y-60325026D01*
X142582024Y-60368277D01*
X142519001Y-60419999D01*
X142495203Y-60448997D01*
X141954956Y-60989245D01*
X141883774Y-60918063D01*
X141714256Y-60804795D01*
X141525898Y-60726774D01*
X141325939Y-60687000D01*
X141122061Y-60687000D01*
X140922102Y-60726774D01*
X140733744Y-60804795D01*
X140564226Y-60918063D01*
X140420063Y-61062226D01*
X140306795Y-61231744D01*
X140228774Y-61420102D01*
X140189000Y-61620061D01*
X140189000Y-61682199D01*
X140147199Y-61724000D01*
X139387711Y-61724000D01*
X139343774Y-61680063D01*
X139174256Y-61566795D01*
X138985898Y-61488774D01*
X138785939Y-61449000D01*
X138582061Y-61449000D01*
X138382102Y-61488774D01*
X138193744Y-61566795D01*
X138024226Y-61680063D01*
X137880063Y-61824226D01*
X137766795Y-61993744D01*
X137688774Y-62182102D01*
X137649000Y-62382061D01*
X134872000Y-62382061D01*
X134872000Y-62171711D01*
X134915937Y-62127774D01*
X135029205Y-61958256D01*
X135107226Y-61769898D01*
X135118619Y-61712619D01*
X135175898Y-61701226D01*
X135364256Y-61623205D01*
X135533774Y-61509937D01*
X135677937Y-61365774D01*
X135791205Y-61196256D01*
X135869226Y-61007898D01*
X135909000Y-60807939D01*
X135909000Y-60604061D01*
X135869226Y-60404102D01*
X135791205Y-60215744D01*
X135677937Y-60046226D01*
X135533774Y-59902063D01*
X135364256Y-59788795D01*
X135175898Y-59710774D01*
X134975939Y-59671000D01*
X134772061Y-59671000D01*
X134572102Y-59710774D01*
X134383744Y-59788795D01*
X134214226Y-59902063D01*
X134170289Y-59946000D01*
X131101322Y-59946000D01*
X131063999Y-59942324D01*
X131026676Y-59946000D01*
X131026667Y-59946000D01*
X130915014Y-59956997D01*
X130771753Y-60000454D01*
X130639724Y-60071026D01*
X130523999Y-60165999D01*
X130500201Y-60194997D01*
X127250998Y-63444201D01*
X127222000Y-63467999D01*
X127198202Y-63496997D01*
X127198201Y-63496998D01*
X127127026Y-63583724D01*
X127056454Y-63715754D01*
X127029227Y-63805512D01*
X127012998Y-63859014D01*
X127002091Y-63969753D01*
X126998324Y-64008000D01*
X127002001Y-64045332D01*
X127002000Y-64828289D01*
X126958063Y-64872226D01*
X126844795Y-65041744D01*
X126766774Y-65230102D01*
X126727000Y-65430061D01*
X121961650Y-65430061D01*
X121961937Y-65429774D01*
X122075205Y-65260256D01*
X122153226Y-65071898D01*
X122193000Y-64871939D01*
X122193000Y-64668061D01*
X122153226Y-64468102D01*
X122075205Y-64279744D01*
X121961937Y-64110226D01*
X121817774Y-63966063D01*
X121648256Y-63852795D01*
X121459898Y-63774774D01*
X121400824Y-63763024D01*
X121400824Y-62619881D01*
X121429744Y-62639205D01*
X121618102Y-62717226D01*
X121818061Y-62757000D01*
X122021939Y-62757000D01*
X122221898Y-62717226D01*
X122410256Y-62639205D01*
X122579774Y-62525937D01*
X122723937Y-62381774D01*
X122837205Y-62212256D01*
X122915226Y-62023898D01*
X122955000Y-61823939D01*
X122955000Y-61620061D01*
X122915226Y-61420102D01*
X122837205Y-61231744D01*
X122723937Y-61062226D01*
X122579774Y-60918063D01*
X122410256Y-60804795D01*
X122221898Y-60726774D01*
X122021939Y-60687000D01*
X121959802Y-60687000D01*
X121156925Y-59884124D01*
X121158166Y-59883877D01*
X121260226Y-59985937D01*
X121429744Y-60099205D01*
X121618102Y-60177226D01*
X121818061Y-60217000D01*
X122021939Y-60217000D01*
X122221898Y-60177226D01*
X122410256Y-60099205D01*
X122579774Y-59985937D01*
X122723937Y-59841774D01*
X122837205Y-59672256D01*
X122915226Y-59483898D01*
X122955000Y-59283939D01*
X122955000Y-59080061D01*
X122915226Y-58880102D01*
X122837205Y-58691744D01*
X122723937Y-58522226D01*
X122680000Y-58478289D01*
X122680000Y-57810061D01*
X150349000Y-57810061D01*
X150349000Y-58013939D01*
X150388774Y-58213898D01*
X150466795Y-58402256D01*
X150563510Y-58547000D01*
X150466795Y-58691744D01*
X150388774Y-58880102D01*
X150349000Y-59080061D01*
X150349000Y-59283939D01*
X150388774Y-59483898D01*
X150466795Y-59672256D01*
X150482538Y-59695817D01*
X150471455Y-59712404D01*
X150393434Y-59900762D01*
X150353660Y-60100721D01*
X150353660Y-60304599D01*
X150393434Y-60504558D01*
X150471455Y-60692916D01*
X150584723Y-60862434D01*
X150728886Y-61006597D01*
X150898404Y-61119865D01*
X151086762Y-61197886D01*
X151286721Y-61237660D01*
X151490599Y-61237660D01*
X151690558Y-61197886D01*
X151878916Y-61119865D01*
X152048434Y-61006597D01*
X152192597Y-60862434D01*
X152298459Y-60704000D01*
X153728289Y-60704000D01*
X153772226Y-60747937D01*
X153941744Y-60861205D01*
X154130102Y-60939226D01*
X154282303Y-60969500D01*
X154276795Y-60977744D01*
X154198774Y-61166102D01*
X154159000Y-61366061D01*
X154159000Y-61428198D01*
X152302209Y-63284990D01*
X151729875Y-63284990D01*
X151685898Y-63266774D01*
X151485939Y-63227000D01*
X151282061Y-63227000D01*
X151082102Y-63266774D01*
X150893744Y-63344795D01*
X150724226Y-63458063D01*
X150580063Y-63602226D01*
X150466795Y-63771744D01*
X150388774Y-63960102D01*
X150349000Y-64160061D01*
X150349000Y-64363939D01*
X150388774Y-64563898D01*
X150466795Y-64752256D01*
X150580063Y-64921774D01*
X150682123Y-65023834D01*
X150665231Y-65108756D01*
X150665231Y-65312634D01*
X150705005Y-65512593D01*
X150783026Y-65700951D01*
X150896294Y-65870469D01*
X151040457Y-66014632D01*
X151209975Y-66127900D01*
X151398333Y-66205921D01*
X151598292Y-66245695D01*
X151802170Y-66245695D01*
X152002129Y-66205921D01*
X152190487Y-66127900D01*
X152360005Y-66014632D01*
X152403942Y-65970695D01*
X152683983Y-65970695D01*
X152721305Y-65974371D01*
X152758627Y-65970695D01*
X152758638Y-65970695D01*
X152870291Y-65959698D01*
X153013552Y-65916241D01*
X153145581Y-65845669D01*
X153261306Y-65750696D01*
X153285109Y-65721692D01*
X155487802Y-63519000D01*
X155549939Y-63519000D01*
X155749898Y-63479226D01*
X155938256Y-63401205D01*
X156107774Y-63287937D01*
X156251937Y-63143774D01*
X156365205Y-62974256D01*
X156443226Y-62785898D01*
X156483000Y-62585939D01*
X156483000Y-62382061D01*
X156443226Y-62182102D01*
X156365205Y-61993744D01*
X156251937Y-61824226D01*
X156190617Y-61762906D01*
X156229000Y-61569939D01*
X156229000Y-61366061D01*
X157969000Y-61366061D01*
X157969000Y-61569939D01*
X158008774Y-61769898D01*
X158086795Y-61958256D01*
X158200063Y-62127774D01*
X158344226Y-62271937D01*
X158513744Y-62385205D01*
X158702102Y-62463226D01*
X158902061Y-62503000D01*
X159105939Y-62503000D01*
X159305898Y-62463226D01*
X159494256Y-62385205D01*
X159663774Y-62271937D01*
X159807937Y-62127774D01*
X159921205Y-61958256D01*
X159999226Y-61769898D01*
X160009151Y-61720000D01*
X160236667Y-61720000D01*
X160274000Y-61723677D01*
X160311333Y-61720000D01*
X160422986Y-61709003D01*
X160566247Y-61665546D01*
X160651342Y-61620061D01*
X162541000Y-61620061D01*
X162541000Y-61823939D01*
X162580774Y-62023898D01*
X162658795Y-62212256D01*
X162772063Y-62381774D01*
X162916226Y-62525937D01*
X163085744Y-62639205D01*
X163274102Y-62717226D01*
X163474061Y-62757000D01*
X163677939Y-62757000D01*
X163877898Y-62717226D01*
X164066256Y-62639205D01*
X164235774Y-62525937D01*
X164379937Y-62381774D01*
X164493205Y-62212256D01*
X164571226Y-62023898D01*
X164611000Y-61823939D01*
X164611000Y-61620061D01*
X164571226Y-61420102D01*
X164493205Y-61231744D01*
X164379937Y-61062226D01*
X164336000Y-61018289D01*
X164336000Y-58879448D01*
X164421739Y-58822159D01*
X164565902Y-58677996D01*
X164679170Y-58508478D01*
X164757191Y-58320120D01*
X164796965Y-58120161D01*
X164796965Y-57916283D01*
X164757191Y-57716324D01*
X164679170Y-57527966D01*
X164565902Y-57358448D01*
X164509515Y-57302061D01*
X173971000Y-57302061D01*
X173971000Y-57505939D01*
X174010774Y-57705898D01*
X174088795Y-57894256D01*
X174202063Y-58063774D01*
X174346226Y-58207937D01*
X174515744Y-58321205D01*
X174704102Y-58399226D01*
X174904061Y-58439000D01*
X175107939Y-58439000D01*
X175307898Y-58399226D01*
X175496256Y-58321205D01*
X175665774Y-58207937D01*
X175709711Y-58164000D01*
X179128289Y-58164000D01*
X179172226Y-58207937D01*
X179341744Y-58321205D01*
X179530102Y-58399226D01*
X179730061Y-58439000D01*
X179933939Y-58439000D01*
X180133898Y-58399226D01*
X180322256Y-58321205D01*
X180491774Y-58207937D01*
X180635937Y-58063774D01*
X180749205Y-57894256D01*
X180827226Y-57705898D01*
X180867000Y-57505939D01*
X180867000Y-57302061D01*
X180827226Y-57102102D01*
X180749205Y-56913744D01*
X180635937Y-56744226D01*
X180491774Y-56600063D01*
X180322256Y-56486795D01*
X180133898Y-56408774D01*
X179933939Y-56369000D01*
X179730061Y-56369000D01*
X179530102Y-56408774D01*
X179341744Y-56486795D01*
X179172226Y-56600063D01*
X179128289Y-56644000D01*
X175709711Y-56644000D01*
X175665774Y-56600063D01*
X175496256Y-56486795D01*
X175307898Y-56408774D01*
X175107939Y-56369000D01*
X174904061Y-56369000D01*
X174704102Y-56408774D01*
X174515744Y-56486795D01*
X174346226Y-56600063D01*
X174202063Y-56744226D01*
X174088795Y-56913744D01*
X174010774Y-57102102D01*
X173971000Y-57302061D01*
X164509515Y-57302061D01*
X164421739Y-57214285D01*
X164252221Y-57101017D01*
X164063863Y-57022996D01*
X163863904Y-56983222D01*
X163660026Y-56983222D01*
X163460067Y-57022996D01*
X163271709Y-57101017D01*
X163102191Y-57214285D01*
X162958028Y-57358448D01*
X162844760Y-57527966D01*
X162766739Y-57716324D01*
X162726965Y-57916283D01*
X162726965Y-58120161D01*
X162766739Y-58320120D01*
X162816001Y-58439048D01*
X162816000Y-61018289D01*
X162772063Y-61062226D01*
X162658795Y-61231744D01*
X162580774Y-61420102D01*
X162541000Y-61620061D01*
X160651342Y-61620061D01*
X160698276Y-61594974D01*
X160814001Y-61500001D01*
X160908974Y-61384276D01*
X160979546Y-61252247D01*
X161023003Y-61108986D01*
X161037677Y-60960000D01*
X161034000Y-60922667D01*
X161034000Y-60901711D01*
X161077937Y-60857774D01*
X161191205Y-60688256D01*
X161269226Y-60499898D01*
X161309000Y-60299939D01*
X161309000Y-60096061D01*
X161269226Y-59896102D01*
X161191205Y-59707744D01*
X161077937Y-59538226D01*
X160933774Y-59394063D01*
X160764256Y-59280795D01*
X160575898Y-59202774D01*
X160375939Y-59163000D01*
X160172061Y-59163000D01*
X159972102Y-59202774D01*
X159783744Y-59280795D01*
X159614226Y-59394063D01*
X159470063Y-59538226D01*
X159356795Y-59707744D01*
X159278774Y-59896102D01*
X159239000Y-60096061D01*
X159239000Y-60248616D01*
X159219753Y-60254454D01*
X159087724Y-60325026D01*
X158971999Y-60419999D01*
X158961329Y-60433000D01*
X158902061Y-60433000D01*
X158702102Y-60472774D01*
X158513744Y-60550795D01*
X158344226Y-60664063D01*
X158200063Y-60808226D01*
X158086795Y-60977744D01*
X158008774Y-61166102D01*
X157969000Y-61366061D01*
X156229000Y-61366061D01*
X156189226Y-61166102D01*
X156111205Y-60977744D01*
X155997937Y-60808226D01*
X155853774Y-60664063D01*
X155684256Y-60550795D01*
X155495898Y-60472774D01*
X155343697Y-60442500D01*
X155349205Y-60434256D01*
X155427226Y-60245898D01*
X155467000Y-60045939D01*
X155467000Y-59842061D01*
X155427226Y-59642102D01*
X155349205Y-59453744D01*
X155288421Y-59362774D01*
X155290545Y-59359596D01*
X155368566Y-59171238D01*
X155408340Y-58971279D01*
X155408340Y-58767401D01*
X155368566Y-58567442D01*
X155290545Y-58379084D01*
X155289020Y-58376801D01*
X155371577Y-58253245D01*
X155449598Y-58064887D01*
X155489372Y-57864928D01*
X155489372Y-57661050D01*
X155449598Y-57461091D01*
X155371577Y-57272733D01*
X155258309Y-57103215D01*
X155114146Y-56959052D01*
X154944628Y-56845784D01*
X154756270Y-56767763D01*
X154556311Y-56727989D01*
X154352433Y-56727989D01*
X154152474Y-56767763D01*
X153964116Y-56845784D01*
X153794598Y-56959052D01*
X153650435Y-57103215D01*
X153617838Y-57152000D01*
X152087711Y-57152000D01*
X152043774Y-57108063D01*
X151874256Y-56994795D01*
X151685898Y-56916774D01*
X151485939Y-56877000D01*
X151282061Y-56877000D01*
X151082102Y-56916774D01*
X150893744Y-56994795D01*
X150724226Y-57108063D01*
X150580063Y-57252226D01*
X150466795Y-57421744D01*
X150388774Y-57610102D01*
X150349000Y-57810061D01*
X122680000Y-57810061D01*
X122680000Y-57148000D01*
X123210363Y-57148000D01*
X123247685Y-57151676D01*
X123285007Y-57148000D01*
X123285018Y-57148000D01*
X123396671Y-57137003D01*
X123539932Y-57093546D01*
X123671961Y-57022974D01*
X123787686Y-56928001D01*
X123811489Y-56898997D01*
X124208997Y-56501489D01*
X124238001Y-56477686D01*
X124332974Y-56361961D01*
X124403546Y-56229932D01*
X124446987Y-56086724D01*
X124501937Y-56031774D01*
X124615205Y-55862256D01*
X124693226Y-55673898D01*
X124733000Y-55473939D01*
X124733000Y-55270061D01*
X124693226Y-55070102D01*
X124615205Y-54881744D01*
X124501937Y-54712226D01*
X124357774Y-54568063D01*
X124188256Y-54454795D01*
X123999898Y-54376774D01*
X123799939Y-54337000D01*
X123596061Y-54337000D01*
X123396102Y-54376774D01*
X123207744Y-54454795D01*
X123038226Y-54568063D01*
X122976906Y-54629383D01*
X122783939Y-54591000D01*
X122580061Y-54591000D01*
X122380102Y-54630774D01*
X122191744Y-54708795D01*
X122022226Y-54822063D01*
X121978289Y-54866000D01*
X121957322Y-54866000D01*
X121919999Y-54862324D01*
X121882676Y-54866000D01*
X121882667Y-54866000D01*
X121771014Y-54876997D01*
X121627753Y-54920454D01*
X121495724Y-54991026D01*
X121379999Y-55085999D01*
X121356201Y-55114997D01*
X120460307Y-56010891D01*
X120431304Y-56034694D01*
X120396137Y-56077546D01*
X120336331Y-56150419D01*
X120293830Y-56229932D01*
X120265759Y-56282449D01*
X120222302Y-56425710D01*
X120211305Y-56537363D01*
X120211305Y-56537373D01*
X120207629Y-56574695D01*
X120211305Y-56612018D01*
X120211306Y-58162057D01*
X120167368Y-58205995D01*
X120054100Y-58375513D01*
X119976079Y-58563871D01*
X119936305Y-58763830D01*
X119936305Y-58967708D01*
X119976079Y-59167667D01*
X119982844Y-59184000D01*
X111748882Y-59184000D01*
X115753015Y-55179868D01*
X115782012Y-55156071D01*
X115876985Y-55040346D01*
X115947557Y-54908317D01*
X115991014Y-54765056D01*
X116002011Y-54653403D01*
X116002011Y-54653395D01*
X116005687Y-54616070D01*
X116002011Y-54578745D01*
X116002011Y-53791662D01*
X116045948Y-53747725D01*
X116159216Y-53578207D01*
X116237237Y-53389849D01*
X116277011Y-53189890D01*
X116277011Y-52986012D01*
X116237237Y-52786053D01*
X116159216Y-52597695D01*
X116045948Y-52428177D01*
X115901785Y-52284014D01*
X115732267Y-52170746D01*
X115543909Y-52092725D01*
X115343950Y-52052951D01*
X115140072Y-52052951D01*
X114940113Y-52092725D01*
X114751755Y-52170746D01*
X114582237Y-52284014D01*
X114438074Y-52428177D01*
X114324806Y-52597695D01*
X114246785Y-52786053D01*
X114237988Y-52830277D01*
X114197774Y-52790063D01*
X114028256Y-52676795D01*
X113839898Y-52598774D01*
X113639939Y-52559000D01*
X113436061Y-52559000D01*
X113236102Y-52598774D01*
X113047744Y-52676795D01*
X112878226Y-52790063D01*
X112834289Y-52834000D01*
X111470072Y-52834000D01*
X111470072Y-52744000D01*
X111457812Y-52619518D01*
X111421502Y-52499820D01*
X111362537Y-52389506D01*
X111283185Y-52292815D01*
X111186494Y-52213463D01*
X111076180Y-52154498D01*
X110956482Y-52118188D01*
X110832000Y-52105928D01*
X110004874Y-52105928D01*
X110650741Y-51460061D01*
X131045000Y-51460061D01*
X131045000Y-51663939D01*
X131084774Y-51863898D01*
X131162795Y-52052256D01*
X131276063Y-52221774D01*
X131320000Y-52265711D01*
X131320001Y-54318668D01*
X131316324Y-54356000D01*
X131320001Y-54393333D01*
X131330998Y-54504986D01*
X131338120Y-54528464D01*
X131374454Y-54648246D01*
X131445026Y-54780276D01*
X131494151Y-54840134D01*
X131540000Y-54896001D01*
X131568998Y-54919799D01*
X133548201Y-56899003D01*
X133571999Y-56928001D01*
X133600997Y-56951799D01*
X133687723Y-57022974D01*
X133795593Y-57080632D01*
X133819753Y-57093546D01*
X133963014Y-57137003D01*
X134074667Y-57148000D01*
X134074677Y-57148000D01*
X134112000Y-57151676D01*
X134149323Y-57148000D01*
X136456289Y-57148000D01*
X136500226Y-57191937D01*
X136669744Y-57305205D01*
X136858102Y-57383226D01*
X137058061Y-57423000D01*
X137261939Y-57423000D01*
X137461898Y-57383226D01*
X137650256Y-57305205D01*
X137819774Y-57191937D01*
X137863711Y-57148000D01*
X140266289Y-57148000D01*
X140310226Y-57191937D01*
X140479744Y-57305205D01*
X140668102Y-57383226D01*
X140868061Y-57423000D01*
X141071939Y-57423000D01*
X141271898Y-57383226D01*
X141460256Y-57305205D01*
X141629774Y-57191937D01*
X141773937Y-57047774D01*
X141887205Y-56878256D01*
X141965226Y-56689898D01*
X142005000Y-56489939D01*
X142005000Y-56286061D01*
X141965226Y-56086102D01*
X141887205Y-55897744D01*
X141773937Y-55728226D01*
X141629774Y-55584063D01*
X141460256Y-55470795D01*
X141271898Y-55392774D01*
X141071939Y-55353000D01*
X140868061Y-55353000D01*
X140668102Y-55392774D01*
X140479744Y-55470795D01*
X140310226Y-55584063D01*
X140266289Y-55628000D01*
X137863711Y-55628000D01*
X137819774Y-55584063D01*
X137650256Y-55470795D01*
X137461898Y-55392774D01*
X137261939Y-55353000D01*
X137058061Y-55353000D01*
X136858102Y-55392774D01*
X136669744Y-55470795D01*
X136500226Y-55584063D01*
X136456289Y-55628000D01*
X134426802Y-55628000D01*
X134151665Y-55352864D01*
X134159898Y-55351226D01*
X134348256Y-55273205D01*
X134352961Y-55270061D01*
X143491000Y-55270061D01*
X143491000Y-55473939D01*
X143530774Y-55673898D01*
X143608795Y-55862256D01*
X143722063Y-56031774D01*
X143866226Y-56175937D01*
X144035744Y-56289205D01*
X144224102Y-56367226D01*
X144424061Y-56407000D01*
X144627939Y-56407000D01*
X144827898Y-56367226D01*
X145016256Y-56289205D01*
X145185774Y-56175937D01*
X145229711Y-56132000D01*
X147028678Y-56132000D01*
X147066000Y-56135676D01*
X147103322Y-56132000D01*
X147103333Y-56132000D01*
X147214986Y-56121003D01*
X147358247Y-56077546D01*
X147490276Y-56006974D01*
X147606001Y-55912001D01*
X147629804Y-55882998D01*
X148121802Y-55391000D01*
X148183939Y-55391000D01*
X148383898Y-55351226D01*
X148572256Y-55273205D01*
X148741774Y-55159937D01*
X148885937Y-55015774D01*
X148999205Y-54846256D01*
X149077226Y-54657898D01*
X149117000Y-54457939D01*
X149117000Y-54254061D01*
X149077226Y-54054102D01*
X148999205Y-53865744D01*
X148885937Y-53696226D01*
X148741774Y-53552063D01*
X148572256Y-53438795D01*
X148383898Y-53360774D01*
X148183939Y-53321000D01*
X147980061Y-53321000D01*
X147780102Y-53360774D01*
X147591744Y-53438795D01*
X147422226Y-53552063D01*
X147278063Y-53696226D01*
X147164795Y-53865744D01*
X147086774Y-54054102D01*
X147047000Y-54254061D01*
X147047000Y-54316198D01*
X146751199Y-54612000D01*
X145229711Y-54612000D01*
X145185774Y-54568063D01*
X145016256Y-54454795D01*
X144827898Y-54376774D01*
X144627939Y-54337000D01*
X144424061Y-54337000D01*
X144224102Y-54376774D01*
X144035744Y-54454795D01*
X143866226Y-54568063D01*
X143722063Y-54712226D01*
X143608795Y-54881744D01*
X143530774Y-55070102D01*
X143491000Y-55270061D01*
X134352961Y-55270061D01*
X134517774Y-55159937D01*
X134661937Y-55015774D01*
X134775205Y-54846256D01*
X134853226Y-54657898D01*
X134893000Y-54457939D01*
X134893000Y-54254061D01*
X134853226Y-54054102D01*
X134775205Y-53865744D01*
X134661937Y-53696226D01*
X134618000Y-53652289D01*
X134618000Y-52984061D01*
X137649000Y-52984061D01*
X137649000Y-53187939D01*
X137688774Y-53387898D01*
X137766795Y-53576256D01*
X137880063Y-53745774D01*
X138024226Y-53889937D01*
X138193744Y-54003205D01*
X138382102Y-54081226D01*
X138582061Y-54121000D01*
X138785939Y-54121000D01*
X138985898Y-54081226D01*
X139174256Y-54003205D01*
X139343774Y-53889937D01*
X139387711Y-53846000D01*
X141028289Y-53846000D01*
X141072226Y-53889937D01*
X141241744Y-54003205D01*
X141430102Y-54081226D01*
X141630061Y-54121000D01*
X141833939Y-54121000D01*
X142033898Y-54081226D01*
X142222256Y-54003205D01*
X142391774Y-53889937D01*
X142535937Y-53745774D01*
X142649205Y-53576256D01*
X142727226Y-53387898D01*
X142767000Y-53187939D01*
X142767000Y-52984061D01*
X142727226Y-52784102D01*
X142679747Y-52669477D01*
X158034282Y-52669477D01*
X158034282Y-52873355D01*
X158074056Y-53073314D01*
X158152077Y-53261672D01*
X158265345Y-53431190D01*
X158409508Y-53575353D01*
X158579026Y-53688621D01*
X158767384Y-53766642D01*
X158967343Y-53806416D01*
X159171221Y-53806416D01*
X159371180Y-53766642D01*
X159559538Y-53688621D01*
X159673067Y-53612764D01*
X159691045Y-53624776D01*
X159879403Y-53702797D01*
X160079362Y-53742571D01*
X160283240Y-53742571D01*
X160483199Y-53702797D01*
X160497234Y-53696983D01*
X160497235Y-55851963D01*
X160213199Y-56136000D01*
X159961711Y-56136000D01*
X159917774Y-56092063D01*
X159748256Y-55978795D01*
X159559898Y-55900774D01*
X159359939Y-55861000D01*
X159156061Y-55861000D01*
X158956102Y-55900774D01*
X158767744Y-55978795D01*
X158598226Y-56092063D01*
X158454063Y-56236226D01*
X158340795Y-56405744D01*
X158262774Y-56594102D01*
X158223000Y-56794061D01*
X158223000Y-56997939D01*
X158262774Y-57197898D01*
X158340795Y-57386256D01*
X158454063Y-57555774D01*
X158598226Y-57699937D01*
X158767744Y-57813205D01*
X158956102Y-57891226D01*
X159156061Y-57931000D01*
X159359939Y-57931000D01*
X159559898Y-57891226D01*
X159748256Y-57813205D01*
X159917774Y-57699937D01*
X159961711Y-57656000D01*
X160490678Y-57656000D01*
X160528000Y-57659676D01*
X160565322Y-57656000D01*
X160565333Y-57656000D01*
X160676986Y-57645003D01*
X160820247Y-57601546D01*
X160952276Y-57530974D01*
X161068001Y-57436001D01*
X161091803Y-57406998D01*
X161768236Y-56730565D01*
X161797235Y-56706767D01*
X161892208Y-56591042D01*
X161962780Y-56459013D01*
X162006237Y-56315752D01*
X162017234Y-56204099D01*
X162020911Y-56166766D01*
X162017234Y-56129433D01*
X162017234Y-52713478D01*
X162110977Y-52807221D01*
X162280495Y-52920489D01*
X162289603Y-52924262D01*
X162289603Y-52937853D01*
X162329377Y-53137812D01*
X162407398Y-53326170D01*
X162520666Y-53495688D01*
X162664829Y-53639851D01*
X162834347Y-53753119D01*
X163022705Y-53831140D01*
X163222664Y-53870914D01*
X163426542Y-53870914D01*
X163626501Y-53831140D01*
X163814859Y-53753119D01*
X163984377Y-53639851D01*
X164128540Y-53495688D01*
X164241808Y-53326170D01*
X164319829Y-53137812D01*
X164332586Y-53073677D01*
X164490061Y-53105000D01*
X164693939Y-53105000D01*
X164893898Y-53065226D01*
X165082256Y-52987205D01*
X165251774Y-52873937D01*
X165395937Y-52729774D01*
X165509205Y-52560256D01*
X165587226Y-52371898D01*
X165627000Y-52171939D01*
X165627000Y-51968061D01*
X165587226Y-51768102D01*
X165509205Y-51579744D01*
X165395937Y-51410226D01*
X165352000Y-51366289D01*
X165352000Y-49725711D01*
X165395937Y-49681774D01*
X165509205Y-49512256D01*
X165587226Y-49323898D01*
X165627000Y-49123939D01*
X165627000Y-48920061D01*
X165587226Y-48720102D01*
X165509205Y-48531744D01*
X165395937Y-48362226D01*
X165319234Y-48285523D01*
X168510462Y-48285523D01*
X168510462Y-48489401D01*
X168550236Y-48689360D01*
X168628257Y-48877718D01*
X168741525Y-49047236D01*
X168810462Y-49116173D01*
X168810463Y-50701547D01*
X168806906Y-50737662D01*
X168821097Y-50881747D01*
X168848336Y-50971540D01*
X168863126Y-51020295D01*
X168931376Y-51147982D01*
X169023225Y-51259900D01*
X169051270Y-51282916D01*
X172081546Y-54313193D01*
X172104562Y-54341238D01*
X172216480Y-54433087D01*
X172344167Y-54501337D01*
X172433593Y-54528464D01*
X172482714Y-54543365D01*
X172626800Y-54557556D01*
X172662905Y-54554000D01*
X178850868Y-54554000D01*
X178873402Y-54608401D01*
X178986670Y-54777919D01*
X179130833Y-54922082D01*
X179300351Y-55035350D01*
X179488709Y-55113371D01*
X179688668Y-55153145D01*
X179892546Y-55153145D01*
X180092505Y-55113371D01*
X180280863Y-55035350D01*
X180450381Y-54922082D01*
X180594544Y-54777919D01*
X180707812Y-54608401D01*
X180730346Y-54554000D01*
X182175094Y-54554000D01*
X182211199Y-54557556D01*
X182247304Y-54554000D01*
X182355284Y-54543365D01*
X182493832Y-54501337D01*
X182621519Y-54433087D01*
X182733437Y-54341238D01*
X182756457Y-54313188D01*
X183248646Y-53821000D01*
X183985974Y-53821000D01*
X184086705Y-53971754D01*
X184280246Y-54165295D01*
X184507825Y-54317359D01*
X184760698Y-54422102D01*
X185029146Y-54475500D01*
X185302854Y-54475500D01*
X185571302Y-54422102D01*
X185824175Y-54317359D01*
X186051754Y-54165295D01*
X186245295Y-53971754D01*
X186397359Y-53744175D01*
X186502102Y-53491302D01*
X186555500Y-53222854D01*
X186555500Y-52949146D01*
X186502102Y-52680698D01*
X186397359Y-52427825D01*
X186245295Y-52200246D01*
X186051754Y-52006705D01*
X185824175Y-51854641D01*
X185730887Y-51816000D01*
X185824175Y-51777359D01*
X186051754Y-51625295D01*
X186245295Y-51431754D01*
X186397359Y-51204175D01*
X186502102Y-50951302D01*
X186555500Y-50682854D01*
X186555500Y-50409146D01*
X186502102Y-50140698D01*
X186397359Y-49887825D01*
X186245295Y-49660246D01*
X186051754Y-49466705D01*
X185824175Y-49314641D01*
X185730887Y-49276000D01*
X185824175Y-49237359D01*
X186051754Y-49085295D01*
X186245295Y-48891754D01*
X186397359Y-48664175D01*
X186502102Y-48411302D01*
X186555500Y-48142854D01*
X186555500Y-47869146D01*
X186502102Y-47600698D01*
X186397359Y-47347825D01*
X186245295Y-47120246D01*
X186051754Y-46926705D01*
X185824175Y-46774641D01*
X185730887Y-46736000D01*
X185824175Y-46697359D01*
X186051754Y-46545295D01*
X186245295Y-46351754D01*
X186397359Y-46124175D01*
X186502102Y-45871302D01*
X186555500Y-45602854D01*
X186555500Y-45329146D01*
X186502102Y-45060698D01*
X186397359Y-44807825D01*
X186245295Y-44580246D01*
X186051754Y-44386705D01*
X185824175Y-44234641D01*
X185571302Y-44129898D01*
X185302854Y-44076500D01*
X185029146Y-44076500D01*
X184760698Y-44129898D01*
X184507825Y-44234641D01*
X184280246Y-44386705D01*
X184086705Y-44580246D01*
X183934641Y-44807825D01*
X183829898Y-45060698D01*
X183776500Y-45329146D01*
X183776500Y-45602854D01*
X183829898Y-45871302D01*
X183934641Y-46124175D01*
X184086705Y-46351754D01*
X184280246Y-46545295D01*
X184507825Y-46697359D01*
X184601113Y-46736000D01*
X184507825Y-46774641D01*
X184280246Y-46926705D01*
X184086705Y-47120246D01*
X183934641Y-47347825D01*
X183829898Y-47600698D01*
X183776500Y-47869146D01*
X183776500Y-48142854D01*
X183829898Y-48411302D01*
X183934641Y-48664175D01*
X184086705Y-48891754D01*
X184280246Y-49085295D01*
X184507825Y-49237359D01*
X184601113Y-49276000D01*
X184507825Y-49314641D01*
X184280246Y-49466705D01*
X184086705Y-49660246D01*
X183985974Y-49811000D01*
X183908380Y-49811000D01*
X183962102Y-49681302D01*
X184015500Y-49412854D01*
X184015500Y-49139146D01*
X183962102Y-48870698D01*
X183857359Y-48617825D01*
X183705295Y-48390246D01*
X183511754Y-48196705D01*
X183284175Y-48044641D01*
X183190887Y-48006000D01*
X183284175Y-47967359D01*
X183511754Y-47815295D01*
X183705295Y-47621754D01*
X183857359Y-47394175D01*
X183962102Y-47141302D01*
X184015500Y-46872854D01*
X184015500Y-46599146D01*
X183962102Y-46330698D01*
X183857359Y-46077825D01*
X183705295Y-45850246D01*
X183511754Y-45656705D01*
X183284175Y-45504641D01*
X183031302Y-45399898D01*
X182762854Y-45346500D01*
X182489146Y-45346500D01*
X182220698Y-45399898D01*
X181967825Y-45504641D01*
X181740246Y-45656705D01*
X181546705Y-45850246D01*
X181394641Y-46077825D01*
X181289898Y-46330698D01*
X181236500Y-46599146D01*
X181236500Y-46872854D01*
X181271872Y-47050682D01*
X181214447Y-47108107D01*
X180790777Y-47108107D01*
X180749205Y-47007744D01*
X180635937Y-46838226D01*
X180491774Y-46694063D01*
X180322256Y-46580795D01*
X180133898Y-46502774D01*
X179933939Y-46463000D01*
X179730061Y-46463000D01*
X179530102Y-46502774D01*
X179341744Y-46580795D01*
X179172226Y-46694063D01*
X179028063Y-46838226D01*
X178914795Y-47007744D01*
X178873223Y-47108107D01*
X176440622Y-47108107D01*
X176376313Y-46952852D01*
X176263045Y-46783334D01*
X176118882Y-46639171D01*
X175949364Y-46525903D01*
X175761006Y-46447882D01*
X175749512Y-46445596D01*
X175747226Y-46434102D01*
X175669205Y-46245744D01*
X175555937Y-46076226D01*
X175411774Y-45932063D01*
X175242256Y-45818795D01*
X175053898Y-45740774D01*
X174853939Y-45701000D01*
X174650061Y-45701000D01*
X174450102Y-45740774D01*
X174261744Y-45818795D01*
X174092226Y-45932063D01*
X173948063Y-46076226D01*
X173834795Y-46245744D01*
X173756774Y-46434102D01*
X173717000Y-46634061D01*
X173717000Y-46837939D01*
X173756774Y-47037898D01*
X173834795Y-47226256D01*
X173948063Y-47395774D01*
X174017000Y-47464711D01*
X174017000Y-47715894D01*
X174013444Y-47752000D01*
X174027635Y-47896085D01*
X174027975Y-47897206D01*
X174069663Y-48034632D01*
X174137913Y-48162319D01*
X174229762Y-48274237D01*
X174257808Y-48297254D01*
X174460747Y-48500193D01*
X176300745Y-50340192D01*
X176323761Y-50368237D01*
X176427704Y-50453541D01*
X176435679Y-50460086D01*
X176563365Y-50528336D01*
X176701914Y-50570364D01*
X176845999Y-50584555D01*
X176882104Y-50580999D01*
X180095897Y-50580999D01*
X180132002Y-50584555D01*
X180168107Y-50580999D01*
X181330891Y-50580999D01*
X181613421Y-50863530D01*
X181546705Y-50930246D01*
X181394641Y-51157825D01*
X181289898Y-51410698D01*
X181236500Y-51679146D01*
X181236500Y-51952854D01*
X181289898Y-52221302D01*
X181394641Y-52474175D01*
X181501433Y-52634000D01*
X180751382Y-52634000D01*
X180749205Y-52628744D01*
X180635937Y-52459226D01*
X180491774Y-52315063D01*
X180322256Y-52201795D01*
X180133898Y-52123774D01*
X179933939Y-52084000D01*
X179730061Y-52084000D01*
X179530102Y-52123774D01*
X179341744Y-52201795D01*
X179172226Y-52315063D01*
X179028063Y-52459226D01*
X178914795Y-52628744D01*
X178912618Y-52634000D01*
X173117647Y-52634000D01*
X170730462Y-50246816D01*
X170730462Y-50066897D01*
X170778182Y-50047131D01*
X170947700Y-49933863D01*
X171091863Y-49789700D01*
X171205131Y-49620182D01*
X171283152Y-49431824D01*
X171322926Y-49231865D01*
X171322926Y-49027987D01*
X171283152Y-48828028D01*
X171205131Y-48639670D01*
X171091863Y-48470152D01*
X170947700Y-48325989D01*
X170778182Y-48212721D01*
X170589824Y-48134700D01*
X170548840Y-48126548D01*
X170540688Y-48085564D01*
X170462667Y-47897206D01*
X170349399Y-47727688D01*
X170205236Y-47583525D01*
X170035718Y-47470257D01*
X169847360Y-47392236D01*
X169647401Y-47352462D01*
X169443523Y-47352462D01*
X169243564Y-47392236D01*
X169055206Y-47470257D01*
X168885688Y-47583525D01*
X168741525Y-47727688D01*
X168628257Y-47897206D01*
X168550236Y-48085564D01*
X168510462Y-48285523D01*
X165319234Y-48285523D01*
X165251774Y-48218063D01*
X165082256Y-48104795D01*
X164893898Y-48026774D01*
X164693939Y-47987000D01*
X164490061Y-47987000D01*
X164484602Y-47988086D01*
X164484602Y-47166605D01*
X164488278Y-47129282D01*
X164484602Y-47091959D01*
X164484602Y-47091949D01*
X164473605Y-46980296D01*
X164430148Y-46837035D01*
X164396797Y-46774641D01*
X164359576Y-46705005D01*
X164288401Y-46618279D01*
X164264603Y-46589281D01*
X164235606Y-46565484D01*
X163345660Y-45675539D01*
X163345660Y-45613401D01*
X163305886Y-45413442D01*
X163227865Y-45225084D01*
X163114597Y-45055566D01*
X162970434Y-44911403D01*
X162800916Y-44798135D01*
X162612558Y-44720114D01*
X162412599Y-44680340D01*
X162208721Y-44680340D01*
X162008762Y-44720114D01*
X162003510Y-44722290D01*
X161986664Y-44637599D01*
X161908643Y-44449241D01*
X161795375Y-44279723D01*
X161651212Y-44135560D01*
X161481694Y-44022292D01*
X161293336Y-43944271D01*
X161093377Y-43904497D01*
X160889499Y-43904497D01*
X160689540Y-43944271D01*
X160501182Y-44022292D01*
X160331664Y-44135560D01*
X160187501Y-44279723D01*
X160074233Y-44449241D01*
X159996212Y-44637599D01*
X159956438Y-44837558D01*
X159956438Y-45041436D01*
X159996212Y-45241395D01*
X160074233Y-45429753D01*
X160140910Y-45529542D01*
X160057055Y-45585572D01*
X159912892Y-45729735D01*
X159799624Y-45899253D01*
X159721603Y-46087611D01*
X159681829Y-46287570D01*
X159681829Y-46349707D01*
X158558280Y-47473257D01*
X158529282Y-47497055D01*
X158505484Y-47526053D01*
X158505483Y-47526054D01*
X158434308Y-47612780D01*
X158363736Y-47744810D01*
X158336174Y-47835675D01*
X158320280Y-47888070D01*
X158318921Y-47901873D01*
X158305606Y-48037056D01*
X158309283Y-48074388D01*
X158309282Y-52067705D01*
X158265345Y-52111642D01*
X158152077Y-52281160D01*
X158074056Y-52469518D01*
X158034282Y-52669477D01*
X142679747Y-52669477D01*
X142649205Y-52595744D01*
X142535937Y-52426226D01*
X142391774Y-52282063D01*
X142222256Y-52168795D01*
X142033898Y-52090774D01*
X141833939Y-52051000D01*
X141630061Y-52051000D01*
X141430102Y-52090774D01*
X141241744Y-52168795D01*
X141072226Y-52282063D01*
X141028289Y-52326000D01*
X139387711Y-52326000D01*
X139343774Y-52282063D01*
X139174256Y-52168795D01*
X138985898Y-52090774D01*
X138785939Y-52051000D01*
X138582061Y-52051000D01*
X138382102Y-52090774D01*
X138193744Y-52168795D01*
X138024226Y-52282063D01*
X137880063Y-52426226D01*
X137766795Y-52595744D01*
X137688774Y-52784102D01*
X137649000Y-52984061D01*
X134618000Y-52984061D01*
X134618000Y-45407711D01*
X134661937Y-45363774D01*
X134775205Y-45194256D01*
X134853226Y-45005898D01*
X134893000Y-44805939D01*
X134893000Y-44795536D01*
X134954509Y-44814195D01*
X134969306Y-44815652D01*
X135084523Y-44827000D01*
X135084531Y-44827000D01*
X135128000Y-44831281D01*
X135171469Y-44827000D01*
X138411000Y-44827000D01*
X138411000Y-44893949D01*
X138450774Y-45093908D01*
X138528795Y-45282266D01*
X138642063Y-45451784D01*
X138786226Y-45595947D01*
X138955744Y-45709215D01*
X139144102Y-45787236D01*
X139344061Y-45827010D01*
X139547939Y-45827010D01*
X139747898Y-45787236D01*
X139915047Y-45718000D01*
X140266289Y-45718000D01*
X140310226Y-45761937D01*
X140479744Y-45875205D01*
X140668102Y-45953226D01*
X140868061Y-45993000D01*
X141071939Y-45993000D01*
X141271898Y-45953226D01*
X141391991Y-45903482D01*
X141391991Y-46282456D01*
X141332329Y-46257743D01*
X141132370Y-46217969D01*
X140928492Y-46217969D01*
X140728533Y-46257743D01*
X140540175Y-46335764D01*
X140370657Y-46449032D01*
X140326720Y-46492969D01*
X139826670Y-46492969D01*
X139821698Y-46489647D01*
X139633340Y-46411626D01*
X139433381Y-46371852D01*
X139229503Y-46371852D01*
X139029544Y-46411626D01*
X138841186Y-46489647D01*
X138671668Y-46602915D01*
X138527505Y-46747078D01*
X138414237Y-46916596D01*
X138336216Y-47104954D01*
X138296442Y-47304913D01*
X138296442Y-47508791D01*
X138336216Y-47708750D01*
X138395291Y-47851369D01*
X138392434Y-47854226D01*
X138279166Y-48023744D01*
X138201145Y-48212102D01*
X138161371Y-48412061D01*
X138161371Y-48615939D01*
X138201145Y-48815898D01*
X138279166Y-49004256D01*
X138392434Y-49173774D01*
X138536597Y-49317937D01*
X138706115Y-49431205D01*
X138894473Y-49509226D01*
X139094432Y-49549000D01*
X139298310Y-49549000D01*
X139498269Y-49509226D01*
X139686627Y-49431205D01*
X139856145Y-49317937D01*
X140000308Y-49173774D01*
X140085485Y-49046298D01*
X140156126Y-49093499D01*
X140344484Y-49171520D01*
X140372666Y-49177126D01*
X140448801Y-49360931D01*
X140562069Y-49530449D01*
X140706232Y-49674612D01*
X140875750Y-49787880D01*
X141064108Y-49865901D01*
X141264067Y-49905675D01*
X141467945Y-49905675D01*
X141667904Y-49865901D01*
X141767000Y-49824854D01*
X141767000Y-49905637D01*
X141814460Y-50144236D01*
X141907557Y-50368992D01*
X142042713Y-50571267D01*
X142214733Y-50743287D01*
X142417008Y-50878443D01*
X142641764Y-50971540D01*
X142880363Y-51019000D01*
X143123637Y-51019000D01*
X143362236Y-50971540D01*
X143586992Y-50878443D01*
X143789267Y-50743287D01*
X143961287Y-50571267D01*
X144096443Y-50368992D01*
X144189540Y-50144236D01*
X144237000Y-49905637D01*
X144237000Y-49662363D01*
X144189540Y-49423764D01*
X144096443Y-49199008D01*
X143961287Y-48996733D01*
X143887000Y-48922446D01*
X143887000Y-44239465D01*
X143891281Y-44195999D01*
X143887000Y-44152533D01*
X143887000Y-44152523D01*
X143874195Y-44022510D01*
X143823589Y-43855687D01*
X143741411Y-43701941D01*
X143630817Y-43567183D01*
X143597045Y-43539467D01*
X143404534Y-43346956D01*
X143376817Y-43313183D01*
X143242059Y-43202589D01*
X143088313Y-43120411D01*
X142921490Y-43069805D01*
X142791477Y-43057000D01*
X142791469Y-43057000D01*
X142748000Y-43052719D01*
X142704531Y-43057000D01*
X135494579Y-43057000D01*
X134331000Y-41893422D01*
X134331000Y-41788363D01*
X134283540Y-41549764D01*
X134190443Y-41325008D01*
X134055287Y-41122733D01*
X133883267Y-40950713D01*
X133680992Y-40815557D01*
X133456236Y-40722460D01*
X133217637Y-40675000D01*
X132974363Y-40675000D01*
X132735764Y-40722460D01*
X132511008Y-40815557D01*
X132308733Y-40950713D01*
X132136713Y-41122733D01*
X132001557Y-41325008D01*
X131908460Y-41549764D01*
X131861000Y-41788363D01*
X131861000Y-42031637D01*
X131908460Y-42270236D01*
X132001557Y-42494992D01*
X132136713Y-42697267D01*
X132260664Y-42821218D01*
X132178795Y-42943744D01*
X132100774Y-43132102D01*
X132061000Y-43332061D01*
X132061000Y-43535939D01*
X132100774Y-43735898D01*
X132178795Y-43924256D01*
X132292063Y-44093774D01*
X132336000Y-44137711D01*
X132336001Y-50557645D01*
X132181939Y-50527000D01*
X131978061Y-50527000D01*
X131778102Y-50566774D01*
X131589744Y-50644795D01*
X131420226Y-50758063D01*
X131276063Y-50902226D01*
X131162795Y-51071744D01*
X131084774Y-51260102D01*
X131045000Y-51460061D01*
X110650741Y-51460061D01*
X111505668Y-50605134D01*
X112895424Y-50605134D01*
X112939361Y-50649071D01*
X113108879Y-50762339D01*
X113297237Y-50840360D01*
X113497196Y-50880134D01*
X113701074Y-50880134D01*
X113901033Y-50840360D01*
X114089391Y-50762339D01*
X114258909Y-50649071D01*
X114403072Y-50504908D01*
X114516340Y-50335390D01*
X114594361Y-50147032D01*
X114634135Y-49947073D01*
X114634135Y-49743195D01*
X114594361Y-49543236D01*
X114516340Y-49354878D01*
X114403072Y-49185360D01*
X114258909Y-49041197D01*
X114089391Y-48927929D01*
X113901033Y-48849908D01*
X113701074Y-48810134D01*
X113497196Y-48810134D01*
X113297237Y-48849908D01*
X113108879Y-48927929D01*
X112939361Y-49041197D01*
X112895424Y-49085134D01*
X111228189Y-49085134D01*
X111190866Y-49081458D01*
X111153543Y-49085134D01*
X111153533Y-49085134D01*
X111041880Y-49096131D01*
X110911509Y-49135678D01*
X110898619Y-49139588D01*
X110766589Y-49210160D01*
X110688787Y-49274011D01*
X110650865Y-49305133D01*
X110627067Y-49334131D01*
X107656199Y-52305000D01*
X107594061Y-52305000D01*
X107394102Y-52344774D01*
X107205744Y-52422795D01*
X107036226Y-52536063D01*
X106892063Y-52680226D01*
X106778795Y-52849744D01*
X106700774Y-53038102D01*
X106661000Y-53238061D01*
X106661000Y-53441939D01*
X106700774Y-53641898D01*
X106778795Y-53830256D01*
X106892063Y-53999774D01*
X107036226Y-54143937D01*
X107205744Y-54257205D01*
X107394102Y-54335226D01*
X107594061Y-54375000D01*
X107797939Y-54375000D01*
X107997898Y-54335226D01*
X108186256Y-54257205D01*
X108355774Y-54143937D01*
X108493928Y-54005783D01*
X108493928Y-54444000D01*
X108506188Y-54568482D01*
X108542498Y-54688180D01*
X108601463Y-54798494D01*
X108680815Y-54895185D01*
X108777506Y-54974537D01*
X108887820Y-55033502D01*
X108960380Y-55055513D01*
X108828525Y-55187368D01*
X108666010Y-55430589D01*
X108554068Y-55700842D01*
X108497000Y-55987740D01*
X108497000Y-56280260D01*
X108554068Y-56567158D01*
X108666010Y-56837411D01*
X108828525Y-57080632D01*
X109035368Y-57287475D01*
X109209760Y-57404000D01*
X109035368Y-57520525D01*
X108828525Y-57727368D01*
X108666010Y-57970589D01*
X108554068Y-58240842D01*
X108497000Y-58527740D01*
X108497000Y-58820260D01*
X108554068Y-59107158D01*
X108666010Y-59377411D01*
X108828525Y-59620632D01*
X109035368Y-59827475D01*
X109209760Y-59944000D01*
X109035368Y-60060525D01*
X108828525Y-60267368D01*
X108666010Y-60510589D01*
X108554068Y-60780842D01*
X108497000Y-61067740D01*
X108497000Y-61360260D01*
X108550456Y-61629001D01*
X107632006Y-61629001D01*
X107594683Y-61625325D01*
X107557360Y-61629001D01*
X107557351Y-61629001D01*
X107445698Y-61639998D01*
X107302437Y-61683455D01*
X107170408Y-61754027D01*
X107116289Y-61798441D01*
X106981898Y-61742774D01*
X106781939Y-61703000D01*
X106578061Y-61703000D01*
X106378102Y-61742774D01*
X106189744Y-61820795D01*
X106020226Y-61934063D01*
X105876063Y-62078226D01*
X105762795Y-62247744D01*
X105684774Y-62436102D01*
X105645000Y-62636061D01*
X95656000Y-62636061D01*
X95656000Y-40410000D01*
X96413928Y-40410000D01*
X96413928Y-43410000D01*
X96426188Y-43534482D01*
X96462498Y-43654180D01*
X96521463Y-43764494D01*
X96600815Y-43861185D01*
X96697506Y-43940537D01*
X96807820Y-43999502D01*
X96927518Y-44035812D01*
X97052000Y-44048072D01*
X100052000Y-44048072D01*
X100176482Y-44035812D01*
X100296180Y-43999502D01*
X100406494Y-43940537D01*
X100503185Y-43861185D01*
X100582537Y-43764494D01*
X100641502Y-43654180D01*
X100677812Y-43534482D01*
X100690072Y-43410000D01*
X100690072Y-40410000D01*
X100677812Y-40285518D01*
X100641502Y-40165820D01*
X100582537Y-40055506D01*
X100503185Y-39958815D01*
X100406494Y-39879463D01*
X100296180Y-39820498D01*
X100176482Y-39784188D01*
X100052000Y-39771928D01*
X97052000Y-39771928D01*
X96927518Y-39784188D01*
X96807820Y-39820498D01*
X96697506Y-39879463D01*
X96600815Y-39958815D01*
X96521463Y-40055506D01*
X96462498Y-40165820D01*
X96426188Y-40285518D01*
X96413928Y-40410000D01*
X95656000Y-40410000D01*
X95656000Y-39522000D01*
X187128245Y-39522000D01*
X186976580Y-39673665D01*
G37*
X186976580Y-39673665D02*
X186766734Y-39987723D01*
X186622188Y-40336686D01*
X186548500Y-40707143D01*
X186548500Y-41084857D01*
X186622188Y-41455314D01*
X186766734Y-41804277D01*
X186976580Y-42118335D01*
X187243665Y-42385420D01*
X187557723Y-42595266D01*
X187906686Y-42739812D01*
X188277143Y-42813500D01*
X188654857Y-42813500D01*
X189025314Y-42739812D01*
X189224377Y-42657357D01*
X189216000Y-42699470D01*
X189216000Y-43152530D01*
X189304387Y-43596885D01*
X189477766Y-44015459D01*
X189729473Y-44392165D01*
X190049835Y-44712527D01*
X190426541Y-44964234D01*
X190845115Y-45137613D01*
X191289470Y-45226000D01*
X191742530Y-45226000D01*
X192186885Y-45137613D01*
X192605459Y-44964234D01*
X192982165Y-44712527D01*
X193302527Y-44392165D01*
X193554234Y-44015459D01*
X193727613Y-43596885D01*
X193816000Y-43152530D01*
X193816000Y-42699470D01*
X193727613Y-42255115D01*
X193554234Y-41836541D01*
X193302527Y-41459835D01*
X192982165Y-41139473D01*
X192605459Y-40887766D01*
X192186885Y-40714387D01*
X191742530Y-40626000D01*
X191289470Y-40626000D01*
X190845115Y-40714387D01*
X190426541Y-40887766D01*
X190383500Y-40916525D01*
X190383500Y-40707143D01*
X190309812Y-40336686D01*
X190165266Y-39987723D01*
X189955420Y-39673665D01*
X189803755Y-39522000D01*
X197206000Y-39522000D01*
X197206000Y-40787934D01*
X197107569Y-40722165D01*
X196841866Y-40612107D01*
X196559797Y-40556000D01*
X196272203Y-40556000D01*
X195990134Y-40612107D01*
X195724431Y-40722165D01*
X195485304Y-40881944D01*
X195281944Y-41085304D01*
X195122165Y-41324431D01*
X195012107Y-41590134D01*
X194956000Y-41872203D01*
X194956000Y-42159797D01*
X195012107Y-42441866D01*
X195122165Y-42707569D01*
X195281944Y-42946696D01*
X195485304Y-43150056D01*
X195688759Y-43286000D01*
X195485304Y-43421944D01*
X195281944Y-43625304D01*
X195122165Y-43864431D01*
X195012107Y-44130134D01*
X194956000Y-44412203D01*
X194956000Y-44699797D01*
X194997141Y-44906626D01*
X194956027Y-44956723D01*
X194885455Y-45088753D01*
X194855181Y-45188557D01*
X194841999Y-45232013D01*
X194831001Y-45343666D01*
X194831001Y-45343677D01*
X194827325Y-45380999D01*
X194831001Y-45418321D01*
X194831001Y-45930684D01*
X180667790Y-60093897D01*
X180635937Y-60046226D01*
X180491774Y-59902063D01*
X180322256Y-59788795D01*
X180133898Y-59710774D01*
X179933939Y-59671000D01*
X179730061Y-59671000D01*
X179530102Y-59710774D01*
X179341744Y-59788795D01*
X179172226Y-59902063D01*
X179028063Y-60046226D01*
X178914795Y-60215744D01*
X178836774Y-60404102D01*
X178826849Y-60454000D01*
X175963711Y-60454000D01*
X175919774Y-60410063D01*
X175750256Y-60296795D01*
X175561898Y-60218774D01*
X175361939Y-60179000D01*
X175158061Y-60179000D01*
X174958102Y-60218774D01*
X174769744Y-60296795D01*
X174600226Y-60410063D01*
X174456063Y-60554226D01*
X174342795Y-60723744D01*
X174264774Y-60912102D01*
X174253465Y-60968957D01*
X174156952Y-61065470D01*
X174123184Y-61093183D01*
X174095471Y-61126951D01*
X174095468Y-61126954D01*
X174012590Y-61227941D01*
X173930412Y-61381687D01*
X173879805Y-61548510D01*
X173862719Y-61722000D01*
X173867001Y-61765478D01*
X173867001Y-61853000D01*
X172606643Y-61853000D01*
X172563177Y-61848719D01*
X172519711Y-61853000D01*
X172519701Y-61853000D01*
X172389688Y-61865805D01*
X172222865Y-61916411D01*
X172069119Y-61998589D01*
X172069117Y-61998590D01*
X172069118Y-61998590D01*
X171968131Y-62081468D01*
X171968129Y-62081470D01*
X171934361Y-62109183D01*
X171906648Y-62142951D01*
X162874435Y-71175165D01*
X162810652Y-71132547D01*
X162585896Y-71039450D01*
X162347297Y-70991990D01*
X162104023Y-70991990D01*
X161865424Y-71039450D01*
X161640668Y-71132547D01*
X161438393Y-71267703D01*
X161266373Y-71439723D01*
X161131217Y-71641998D01*
X161038120Y-71866754D01*
X160990660Y-72105353D01*
X160990660Y-72348627D01*
X161038120Y-72587226D01*
X161131217Y-72811982D01*
X161266373Y-73014257D01*
X161438393Y-73186277D01*
X161640668Y-73321433D01*
X161865424Y-73414530D01*
X162104023Y-73461990D01*
X162347297Y-73461990D01*
X162585896Y-73414530D01*
X162810652Y-73321433D01*
X163012927Y-73186277D01*
X163083888Y-73115316D01*
X163117657Y-73111990D01*
X163117665Y-73111990D01*
X163247678Y-73099185D01*
X163414501Y-73048579D01*
X163568247Y-72966401D01*
X163703005Y-72855807D01*
X163730722Y-72822034D01*
X164133757Y-72418999D01*
X169642198Y-72418999D01*
X173426201Y-76203003D01*
X173449999Y-76232001D01*
X173565724Y-76326974D01*
X173697753Y-76397546D01*
X173841014Y-76441003D01*
X173952667Y-76452000D01*
X173952675Y-76452000D01*
X173990000Y-76455676D01*
X174027325Y-76452000D01*
X179128289Y-76452000D01*
X179172226Y-76495937D01*
X179341744Y-76609205D01*
X179530102Y-76687226D01*
X179730061Y-76727000D01*
X179933939Y-76727000D01*
X180133898Y-76687226D01*
X180322256Y-76609205D01*
X180491774Y-76495937D01*
X180635937Y-76351774D01*
X180749205Y-76182256D01*
X180827226Y-75993898D01*
X180867000Y-75793939D01*
X180867000Y-75590061D01*
X180836356Y-75436000D01*
X180906289Y-75436000D01*
X180950226Y-75479937D01*
X181119744Y-75593205D01*
X181308102Y-75671226D01*
X181508061Y-75711000D01*
X181711939Y-75711000D01*
X181911898Y-75671226D01*
X182100256Y-75593205D01*
X182269774Y-75479937D01*
X182413937Y-75335774D01*
X182527205Y-75166256D01*
X182605226Y-74977898D01*
X182645000Y-74777939D01*
X182645000Y-74574061D01*
X182605226Y-74374102D01*
X182527205Y-74185744D01*
X182497308Y-74141000D01*
X184189951Y-74141000D01*
X184280246Y-74231295D01*
X184507825Y-74383359D01*
X184760698Y-74488102D01*
X185029146Y-74541500D01*
X185302854Y-74541500D01*
X185571302Y-74488102D01*
X185824175Y-74383359D01*
X186051754Y-74231295D01*
X186245295Y-74037754D01*
X186397359Y-73810175D01*
X186502102Y-73557302D01*
X186555500Y-73288854D01*
X186555500Y-73015146D01*
X186502102Y-72746698D01*
X186397359Y-72493825D01*
X186245295Y-72266246D01*
X186051754Y-72072705D01*
X185824175Y-71920641D01*
X185730887Y-71882000D01*
X185824175Y-71843359D01*
X186051754Y-71691295D01*
X186245295Y-71497754D01*
X186397359Y-71270175D01*
X186502102Y-71017302D01*
X186555500Y-70748854D01*
X186555500Y-70475146D01*
X186502102Y-70206698D01*
X186397359Y-69953825D01*
X186245295Y-69726246D01*
X186051754Y-69532705D01*
X185824175Y-69380641D01*
X185730887Y-69342000D01*
X185824175Y-69303359D01*
X186051754Y-69151295D01*
X186245295Y-68957754D01*
X186397359Y-68730175D01*
X186502102Y-68477302D01*
X186555500Y-68208854D01*
X186555500Y-67935146D01*
X186502102Y-67666698D01*
X186397359Y-67413825D01*
X186245295Y-67186246D01*
X186051754Y-66992705D01*
X185824175Y-66840641D01*
X185730887Y-66802000D01*
X185824175Y-66763359D01*
X186051754Y-66611295D01*
X186245295Y-66417754D01*
X186397359Y-66190175D01*
X186502102Y-65937302D01*
X186555500Y-65668854D01*
X186555500Y-65395146D01*
X186502102Y-65126698D01*
X186397359Y-64873825D01*
X186245295Y-64646246D01*
X186051754Y-64452705D01*
X185824175Y-64300641D01*
X185571302Y-64195898D01*
X185302854Y-64142500D01*
X185029146Y-64142500D01*
X184760698Y-64195898D01*
X184507825Y-64300641D01*
X184280246Y-64452705D01*
X184086705Y-64646246D01*
X183934641Y-64873825D01*
X183829898Y-65126698D01*
X183776500Y-65395146D01*
X183776500Y-65668854D01*
X183829898Y-65937302D01*
X183934641Y-66190175D01*
X184086705Y-66417754D01*
X184280246Y-66611295D01*
X184507825Y-66763359D01*
X184601113Y-66802000D01*
X184507825Y-66840641D01*
X184280246Y-66992705D01*
X184086705Y-67186246D01*
X183934641Y-67413825D01*
X183829898Y-67666698D01*
X183776500Y-67935146D01*
X183776500Y-68208854D01*
X183829898Y-68477302D01*
X183934641Y-68730175D01*
X184086705Y-68957754D01*
X184280246Y-69151295D01*
X184507825Y-69303359D01*
X184601113Y-69342000D01*
X184507825Y-69380641D01*
X184280246Y-69532705D01*
X184086705Y-69726246D01*
X183985974Y-69877000D01*
X183908380Y-69877000D01*
X183962102Y-69747302D01*
X184015500Y-69478854D01*
X184015500Y-69205146D01*
X183962102Y-68936698D01*
X183857359Y-68683825D01*
X183705295Y-68456246D01*
X183511754Y-68262705D01*
X183284175Y-68110641D01*
X183190887Y-68072000D01*
X183284175Y-68033359D01*
X183511754Y-67881295D01*
X183705295Y-67687754D01*
X183857359Y-67460175D01*
X183962102Y-67207302D01*
X184015500Y-66938854D01*
X184015500Y-66665146D01*
X183962102Y-66396698D01*
X183857359Y-66143825D01*
X183705295Y-65916246D01*
X183511754Y-65722705D01*
X183284175Y-65570641D01*
X183031302Y-65465898D01*
X182762854Y-65412500D01*
X182489146Y-65412500D01*
X182220698Y-65465898D01*
X181967825Y-65570641D01*
X181867512Y-65637668D01*
X181804655Y-65574812D01*
X181781635Y-65546762D01*
X181669717Y-65454913D01*
X181542030Y-65386663D01*
X181403482Y-65344635D01*
X181295502Y-65334000D01*
X181259397Y-65330444D01*
X181223292Y-65334000D01*
X180801094Y-65334000D01*
X180778205Y-65278741D01*
X180664937Y-65109223D01*
X180520774Y-64965060D01*
X180351256Y-64851792D01*
X180162898Y-64773771D01*
X179962939Y-64733997D01*
X179759061Y-64733997D01*
X179559102Y-64773771D01*
X179370744Y-64851792D01*
X179201226Y-64965060D01*
X179057063Y-65109223D01*
X178943795Y-65278741D01*
X178920906Y-65334000D01*
X178213699Y-65334000D01*
X182774556Y-60773143D01*
X186548500Y-60773143D01*
X186548500Y-61150857D01*
X186622188Y-61521314D01*
X186766734Y-61870277D01*
X186976580Y-62184335D01*
X187243665Y-62451420D01*
X187557723Y-62661266D01*
X187906686Y-62805812D01*
X188277143Y-62879500D01*
X188654857Y-62879500D01*
X189025314Y-62805812D01*
X189224377Y-62723357D01*
X189216000Y-62765470D01*
X189216000Y-63218530D01*
X189304387Y-63662885D01*
X189477766Y-64081459D01*
X189729473Y-64458165D01*
X190049835Y-64778527D01*
X190426541Y-65030234D01*
X190845115Y-65203613D01*
X191289470Y-65292000D01*
X191742530Y-65292000D01*
X192186885Y-65203613D01*
X192605459Y-65030234D01*
X192982165Y-64778527D01*
X193302527Y-64458165D01*
X193554234Y-64081459D01*
X193727613Y-63662885D01*
X193816000Y-63218530D01*
X193816000Y-62765470D01*
X193727613Y-62321115D01*
X193554234Y-61902541D01*
X193302527Y-61525835D01*
X192982165Y-61205473D01*
X192605459Y-60953766D01*
X192186885Y-60780387D01*
X191742530Y-60692000D01*
X191289470Y-60692000D01*
X190845115Y-60780387D01*
X190426541Y-60953766D01*
X190383500Y-60982525D01*
X190383500Y-60773143D01*
X190309812Y-60402686D01*
X190165266Y-60053723D01*
X189955420Y-59739665D01*
X189688335Y-59472580D01*
X189374277Y-59262734D01*
X189025314Y-59118188D01*
X188654857Y-59044500D01*
X188277143Y-59044500D01*
X187906686Y-59118188D01*
X187557723Y-59262734D01*
X187243665Y-59472580D01*
X186976580Y-59739665D01*
X186766734Y-60053723D01*
X186622188Y-60402686D01*
X186548500Y-60773143D01*
X182774556Y-60773143D01*
X186618903Y-56928797D01*
X186622188Y-56945314D01*
X186766734Y-57294277D01*
X186976580Y-57608335D01*
X187243665Y-57875420D01*
X187557723Y-58085266D01*
X187906686Y-58229812D01*
X188277143Y-58303500D01*
X188654857Y-58303500D01*
X189025314Y-58229812D01*
X189374277Y-58085266D01*
X189688335Y-57875420D01*
X189955420Y-57608335D01*
X190165266Y-57294277D01*
X190309812Y-56945314D01*
X190383500Y-56574857D01*
X190383500Y-56365475D01*
X190426541Y-56394234D01*
X190845115Y-56567613D01*
X191289470Y-56656000D01*
X191742530Y-56656000D01*
X192186885Y-56567613D01*
X192605459Y-56394234D01*
X192982165Y-56142527D01*
X193302527Y-55822165D01*
X193554234Y-55445459D01*
X193727613Y-55026885D01*
X193816000Y-54582530D01*
X193816000Y-54129470D01*
X193727613Y-53685115D01*
X193554234Y-53266541D01*
X193302527Y-52889835D01*
X193073693Y-52661001D01*
X194956000Y-52661001D01*
X194956000Y-52869797D01*
X195012107Y-53151866D01*
X195122165Y-53417569D01*
X195281944Y-53656696D01*
X195485304Y-53860056D01*
X195688759Y-53996000D01*
X195485304Y-54131944D01*
X195281944Y-54335304D01*
X195122165Y-54574431D01*
X195012107Y-54840134D01*
X194956000Y-55122203D01*
X194956000Y-55409797D01*
X195012107Y-55691866D01*
X195122165Y-55957569D01*
X195281944Y-56196696D01*
X195485304Y-56400056D01*
X195724431Y-56559835D01*
X195990134Y-56669893D01*
X196272203Y-56726000D01*
X196559797Y-56726000D01*
X196841866Y-56669893D01*
X197107569Y-56559835D01*
X197206000Y-56494065D01*
X197206001Y-60853935D01*
X197107569Y-60788165D01*
X196841866Y-60678107D01*
X196559797Y-60622000D01*
X196272203Y-60622000D01*
X195990134Y-60678107D01*
X195724431Y-60788165D01*
X195485304Y-60947944D01*
X195281944Y-61151304D01*
X195122165Y-61390431D01*
X195012107Y-61656134D01*
X194956000Y-61938203D01*
X194956000Y-62225797D01*
X195012107Y-62507866D01*
X195122165Y-62773569D01*
X195281944Y-63012696D01*
X195485304Y-63216056D01*
X195688759Y-63352000D01*
X195485304Y-63487944D01*
X195281944Y-63691304D01*
X195122165Y-63930431D01*
X195012107Y-64196134D01*
X194956000Y-64478203D01*
X194956000Y-64765797D01*
X195012107Y-65047866D01*
X195122165Y-65313569D01*
X195281944Y-65552696D01*
X195485304Y-65756056D01*
X195724431Y-65915835D01*
X195990134Y-66025893D01*
X196272203Y-66082000D01*
X196559797Y-66082000D01*
X196841866Y-66025893D01*
X197107569Y-65915835D01*
X197206001Y-65850065D01*
X197206001Y-71563935D01*
X197107569Y-71498165D01*
X196841866Y-71388107D01*
X196559797Y-71332000D01*
X196272203Y-71332000D01*
X195990134Y-71388107D01*
X195724431Y-71498165D01*
X195485304Y-71657944D01*
X195281944Y-71861304D01*
X195122165Y-72100431D01*
X195012107Y-72366134D01*
X194956000Y-72648203D01*
X194956000Y-72935797D01*
X195012107Y-73217866D01*
X195122165Y-73483569D01*
X195281944Y-73722696D01*
X195485304Y-73926056D01*
X195688759Y-74062000D01*
X195485304Y-74197944D01*
X195281944Y-74401304D01*
X195122165Y-74640431D01*
X195012107Y-74906134D01*
X194956000Y-75188203D01*
X194956000Y-75475797D01*
X195012107Y-75757866D01*
X195122165Y-76023569D01*
X195281944Y-76262696D01*
X195485304Y-76466056D01*
X195724431Y-76625835D01*
X195990134Y-76735893D01*
X196272203Y-76792000D01*
X196559797Y-76792000D01*
X196841866Y-76735893D01*
X197107569Y-76625835D01*
X197206001Y-76560065D01*
X197206001Y-78080000D01*
X189480935Y-78080000D01*
X189688335Y-77941420D01*
X189955420Y-77674335D01*
X190165266Y-77360277D01*
X190309812Y-77011314D01*
X190383500Y-76640857D01*
X190383500Y-76431475D01*
X190426541Y-76460234D01*
X190845115Y-76633613D01*
X191289470Y-76722000D01*
X191742530Y-76722000D01*
X192186885Y-76633613D01*
X192605459Y-76460234D01*
X192982165Y-76208527D01*
X193302527Y-75888165D01*
X193554234Y-75511459D01*
X193727613Y-75092885D01*
X193816000Y-74648530D01*
X193816000Y-74195470D01*
X193727613Y-73751115D01*
X193554234Y-73332541D01*
X193302527Y-72955835D01*
X192982165Y-72635473D01*
X192605459Y-72383766D01*
X192186885Y-72210387D01*
X191742530Y-72122000D01*
X191289470Y-72122000D01*
X190845115Y-72210387D01*
X190426541Y-72383766D01*
X190049835Y-72635473D01*
X189729473Y-72955835D01*
X189477766Y-73332541D01*
X189304387Y-73751115D01*
X189216000Y-74195470D01*
X189216000Y-74648530D01*
X189224377Y-74690643D01*
X189025314Y-74608188D01*
X188654857Y-74534500D01*
X188277143Y-74534500D01*
X187906686Y-74608188D01*
X187557723Y-74752734D01*
X187243665Y-74962580D01*
X186976580Y-75229665D01*
X186766734Y-75543723D01*
X186622188Y-75892686D01*
X186548500Y-76263143D01*
X186548500Y-76640857D01*
X186622188Y-77011314D01*
X186766734Y-77360277D01*
X186976580Y-77674335D01*
X187243665Y-77941420D01*
X187451065Y-78080000D01*
X134818896Y-78080000D01*
X134905185Y-78009185D01*
X134984537Y-77912494D01*
X135043502Y-77802180D01*
X135079812Y-77682482D01*
X135092072Y-77558000D01*
X135092072Y-75858000D01*
X135079812Y-75733518D01*
X135043502Y-75613820D01*
X134984537Y-75503506D01*
X134905185Y-75406815D01*
X134835956Y-75350000D01*
X137703928Y-75350000D01*
X137703928Y-77050000D01*
X137716188Y-77174482D01*
X137752498Y-77294180D01*
X137811463Y-77404494D01*
X137890815Y-77501185D01*
X137987506Y-77580537D01*
X138097820Y-77639502D01*
X138217518Y-77675812D01*
X138342000Y-77688072D01*
X140042000Y-77688072D01*
X140166482Y-77675812D01*
X140286180Y-77639502D01*
X140396494Y-77580537D01*
X140493185Y-77501185D01*
X140572537Y-77404494D01*
X140631502Y-77294180D01*
X140653513Y-77221620D01*
X140785368Y-77353475D01*
X141028589Y-77515990D01*
X141298842Y-77627932D01*
X141585740Y-77685000D01*
X141878260Y-77685000D01*
X142165158Y-77627932D01*
X142435411Y-77515990D01*
X142678632Y-77353475D01*
X142885475Y-77146632D01*
X143002000Y-76972240D01*
X143118525Y-77146632D01*
X143325368Y-77353475D01*
X143568589Y-77515990D01*
X143838842Y-77627932D01*
X144125740Y-77685000D01*
X144418260Y-77685000D01*
X144705158Y-77627932D01*
X144975411Y-77515990D01*
X145218632Y-77353475D01*
X145425475Y-77146632D01*
X145587990Y-76903411D01*
X145699932Y-76633158D01*
X145757000Y-76346260D01*
X145757000Y-76053740D01*
X145699932Y-75766842D01*
X145587990Y-75496589D01*
X145425475Y-75253368D01*
X145218632Y-75046525D01*
X144975411Y-74884010D01*
X144705158Y-74772068D01*
X144418260Y-74715000D01*
X144125740Y-74715000D01*
X143838842Y-74772068D01*
X143568589Y-74884010D01*
X143325368Y-75046525D01*
X143118525Y-75253368D01*
X143002000Y-75427760D01*
X142885475Y-75253368D01*
X142678632Y-75046525D01*
X142435411Y-74884010D01*
X142165158Y-74772068D01*
X141878260Y-74715000D01*
X141585740Y-74715000D01*
X141298842Y-74772068D01*
X141028589Y-74884010D01*
X140785368Y-75046525D01*
X140653513Y-75178380D01*
X140631502Y-75105820D01*
X140572537Y-74995506D01*
X140493185Y-74898815D01*
X140396494Y-74819463D01*
X140286180Y-74760498D01*
X140166482Y-74724188D01*
X140042000Y-74711928D01*
X138342000Y-74711928D01*
X138217518Y-74724188D01*
X138097820Y-74760498D01*
X137987506Y-74819463D01*
X137890815Y-74898815D01*
X137811463Y-74995506D01*
X137752498Y-75105820D01*
X137716188Y-75225518D01*
X137703928Y-75350000D01*
X134835956Y-75350000D01*
X134808494Y-75327463D01*
X134698180Y-75268498D01*
X134578482Y-75232188D01*
X134454000Y-75219928D01*
X132754000Y-75219928D01*
X132629518Y-75232188D01*
X132509820Y-75268498D01*
X132399506Y-75327463D01*
X132302815Y-75406815D01*
X132223463Y-75503506D01*
X132164498Y-75613820D01*
X132142487Y-75686380D01*
X132010632Y-75554525D01*
X131767411Y-75392010D01*
X131497158Y-75280068D01*
X131210260Y-75223000D01*
X130917740Y-75223000D01*
X130630842Y-75280068D01*
X130360589Y-75392010D01*
X130117368Y-75554525D01*
X129910525Y-75761368D01*
X129748010Y-76004589D01*
X129636068Y-76274842D01*
X129579000Y-76561740D01*
X129579000Y-76854260D01*
X129636068Y-77141158D01*
X129748010Y-77411411D01*
X129910525Y-77654632D01*
X130117368Y-77861475D01*
X130360589Y-78023990D01*
X130495810Y-78080000D01*
X123134896Y-78080000D01*
X123221185Y-78009185D01*
X123300537Y-77912494D01*
X123359502Y-77802180D01*
X123395812Y-77682482D01*
X123408072Y-77558000D01*
X123408072Y-75858000D01*
X123395812Y-75733518D01*
X123359502Y-75613820D01*
X123300537Y-75503506D01*
X123221185Y-75406815D01*
X123124494Y-75327463D01*
X123014180Y-75268498D01*
X122894482Y-75232188D01*
X122770000Y-75219928D01*
X121070000Y-75219928D01*
X120945518Y-75232188D01*
X120825820Y-75268498D01*
X120715506Y-75327463D01*
X120618815Y-75406815D01*
X120539463Y-75503506D01*
X120480498Y-75613820D01*
X120458487Y-75686380D01*
X120326632Y-75554525D01*
X120083411Y-75392010D01*
X119813158Y-75280068D01*
X119526260Y-75223000D01*
X119233740Y-75223000D01*
X118946842Y-75280068D01*
X118676589Y-75392010D01*
X118433368Y-75554525D01*
X118226525Y-75761368D01*
X118064010Y-76004589D01*
X117952068Y-76274842D01*
X117895000Y-76561740D01*
X117895000Y-76854260D01*
X117952068Y-77141158D01*
X118064010Y-77411411D01*
X118226525Y-77654632D01*
X118433368Y-77861475D01*
X118676589Y-78023990D01*
X118811810Y-78080000D01*
X95656000Y-78080000D01*
X95656000Y-62636061D01*
X105645000Y-62636061D01*
X105645000Y-62839939D01*
X105684774Y-63039898D01*
X105762795Y-63228256D01*
X105876063Y-63397774D01*
X106020226Y-63541937D01*
X106189744Y-63655205D01*
X106378102Y-63733226D01*
X106578061Y-63773000D01*
X106781939Y-63773000D01*
X106981898Y-63733226D01*
X107170256Y-63655205D01*
X107339774Y-63541937D01*
X107394724Y-63486987D01*
X107537932Y-63443546D01*
X107669961Y-63372974D01*
X107785686Y-63278001D01*
X107809489Y-63248997D01*
X107909485Y-63149001D01*
X108625247Y-63149001D01*
X108554068Y-63320842D01*
X108497000Y-63607740D01*
X108497000Y-63900260D01*
X108554068Y-64187158D01*
X108666010Y-64457411D01*
X108828525Y-64700632D01*
X109035368Y-64907475D01*
X109209760Y-65024000D01*
X109035368Y-65140525D01*
X108828525Y-65347368D01*
X108666010Y-65590589D01*
X108554068Y-65860842D01*
X108497000Y-66147740D01*
X108497000Y-66440260D01*
X108554068Y-66727158D01*
X108666010Y-66997411D01*
X108828525Y-67240632D01*
X109035368Y-67447475D01*
X109209760Y-67564000D01*
X109035368Y-67680525D01*
X108828525Y-67887368D01*
X108666010Y-68130589D01*
X108554068Y-68400842D01*
X108497000Y-68687740D01*
X108497000Y-68980260D01*
X108554068Y-69267158D01*
X108666010Y-69537411D01*
X108828525Y-69780632D01*
X109035368Y-69987475D01*
X109278589Y-70149990D01*
X109548842Y-70261932D01*
X109835740Y-70319000D01*
X110128260Y-70319000D01*
X110415158Y-70261932D01*
X110685411Y-70149990D01*
X110928632Y-69987475D01*
X111135475Y-69780632D01*
X111260178Y-69594000D01*
X111468678Y-69594000D01*
X111506000Y-69597676D01*
X111543322Y-69594000D01*
X111543333Y-69594000D01*
X111654986Y-69583003D01*
X111798247Y-69539546D01*
X111930276Y-69468974D01*
X112046001Y-69374001D01*
X112069804Y-69344997D01*
X112473061Y-68941740D01*
X135675000Y-68941740D01*
X135675000Y-69234260D01*
X135732068Y-69521158D01*
X135844010Y-69791411D01*
X136006525Y-70034632D01*
X136213368Y-70241475D01*
X136387760Y-70358000D01*
X136213368Y-70474525D01*
X136006525Y-70681368D01*
X135844010Y-70924589D01*
X135732068Y-71194842D01*
X135675000Y-71481740D01*
X135675000Y-71774260D01*
X135732068Y-72061158D01*
X135844010Y-72331411D01*
X136006525Y-72574632D01*
X136213368Y-72781475D01*
X136456589Y-72943990D01*
X136726842Y-73055932D01*
X137013740Y-73113000D01*
X137306260Y-73113000D01*
X137593158Y-73055932D01*
X137863411Y-72943990D01*
X138106632Y-72781475D01*
X138313475Y-72574632D01*
X138430000Y-72400240D01*
X138546525Y-72574632D01*
X138753368Y-72781475D01*
X138996589Y-72943990D01*
X139266842Y-73055932D01*
X139553740Y-73113000D01*
X139846260Y-73113000D01*
X140133158Y-73055932D01*
X140403411Y-72943990D01*
X140646632Y-72781475D01*
X140853475Y-72574632D01*
X141015990Y-72331411D01*
X141127932Y-72061158D01*
X141185000Y-71774260D01*
X141185000Y-71481740D01*
X141127932Y-71194842D01*
X141015990Y-70924589D01*
X140853475Y-70681368D01*
X140721620Y-70549513D01*
X140794180Y-70527502D01*
X140904494Y-70468537D01*
X141001185Y-70389185D01*
X141080537Y-70292494D01*
X141139502Y-70182180D01*
X141175812Y-70062482D01*
X141188072Y-69938000D01*
X141188072Y-68238000D01*
X141175812Y-68113518D01*
X141139502Y-67993820D01*
X141080537Y-67883506D01*
X141001185Y-67786815D01*
X140904494Y-67707463D01*
X140794180Y-67648498D01*
X140674482Y-67612188D01*
X140550000Y-67599928D01*
X138850000Y-67599928D01*
X138725518Y-67612188D01*
X138605820Y-67648498D01*
X138495506Y-67707463D01*
X138398815Y-67786815D01*
X138319463Y-67883506D01*
X138260498Y-67993820D01*
X138238487Y-68066380D01*
X138106632Y-67934525D01*
X137863411Y-67772010D01*
X137593158Y-67660068D01*
X137306260Y-67603000D01*
X137013740Y-67603000D01*
X136726842Y-67660068D01*
X136456589Y-67772010D01*
X136213368Y-67934525D01*
X136006525Y-68141368D01*
X135844010Y-68384589D01*
X135732068Y-68654842D01*
X135675000Y-68941740D01*
X112473061Y-68941740D01*
X113577802Y-67837000D01*
X113639939Y-67837000D01*
X113839898Y-67797226D01*
X114028256Y-67719205D01*
X114197774Y-67605937D01*
X114341937Y-67461774D01*
X114455205Y-67292256D01*
X114533226Y-67103898D01*
X114573000Y-66903939D01*
X114573000Y-66700061D01*
X114533226Y-66500102D01*
X114455205Y-66311744D01*
X114341937Y-66142226D01*
X114280617Y-66080906D01*
X114319000Y-65887939D01*
X114319000Y-65684061D01*
X114279226Y-65484102D01*
X114201205Y-65295744D01*
X114087937Y-65126226D01*
X113983711Y-65022000D01*
X114940024Y-65022000D01*
X114977346Y-65025676D01*
X115014668Y-65022000D01*
X115014679Y-65022000D01*
X115126332Y-65011003D01*
X115269593Y-64967546D01*
X115401622Y-64896974D01*
X115517347Y-64802001D01*
X115541150Y-64772998D01*
X117350001Y-62964148D01*
X117350000Y-64231354D01*
X117306063Y-64275291D01*
X117192795Y-64444809D01*
X117114774Y-64633167D01*
X117075000Y-64833126D01*
X117075000Y-65037004D01*
X117114774Y-65236963D01*
X117192795Y-65425321D01*
X117306063Y-65594839D01*
X117450226Y-65739002D01*
X117619744Y-65852270D01*
X117808102Y-65930291D01*
X118008061Y-65970065D01*
X118211939Y-65970065D01*
X118411898Y-65930291D01*
X118600256Y-65852270D01*
X118745000Y-65755555D01*
X118889744Y-65852270D01*
X119078102Y-65930291D01*
X119278061Y-65970065D01*
X119481939Y-65970065D01*
X119681898Y-65930291D01*
X119870256Y-65852270D01*
X120039774Y-65739002D01*
X120183937Y-65594839D01*
X120297205Y-65425321D01*
X120317825Y-65375540D01*
X120354063Y-65429774D01*
X120498226Y-65573937D01*
X120667744Y-65687205D01*
X120856102Y-65765226D01*
X121056061Y-65805000D01*
X121259939Y-65805000D01*
X121459898Y-65765226D01*
X121648256Y-65687205D01*
X121817774Y-65573937D01*
X121961650Y-65430061D01*
X126727000Y-65430061D01*
X126727000Y-65633939D01*
X126766774Y-65833898D01*
X126844795Y-66022256D01*
X126958063Y-66191774D01*
X127102226Y-66335937D01*
X127271744Y-66449205D01*
X127460102Y-66527226D01*
X127660061Y-66567000D01*
X127863939Y-66567000D01*
X128063898Y-66527226D01*
X128252256Y-66449205D01*
X128421774Y-66335937D01*
X128565937Y-66191774D01*
X128679205Y-66022256D01*
X128757226Y-65833898D01*
X128768619Y-65776619D01*
X128825898Y-65765226D01*
X129014256Y-65687205D01*
X129183774Y-65573937D01*
X129327937Y-65429774D01*
X129441205Y-65260256D01*
X129519226Y-65071898D01*
X129559000Y-64871939D01*
X129559000Y-64668061D01*
X129519226Y-64468102D01*
X129465271Y-64337845D01*
X130854311Y-62948806D01*
X130869619Y-62985762D01*
X130982887Y-63155280D01*
X131026824Y-63199217D01*
X131026825Y-64300229D01*
X131026348Y-64300324D01*
X130837990Y-64378345D01*
X130668472Y-64491613D01*
X130524309Y-64635776D01*
X130411041Y-64805294D01*
X130333020Y-64993652D01*
X130293246Y-65193611D01*
X130293246Y-65397489D01*
X130333020Y-65597448D01*
X130411041Y-65785806D01*
X130524309Y-65955324D01*
X130668472Y-66099487D01*
X130837990Y-66212755D01*
X131026348Y-66290776D01*
X131226307Y-66330550D01*
X131430185Y-66330550D01*
X131630144Y-66290776D01*
X131818502Y-66212755D01*
X131988020Y-66099487D01*
X132132183Y-65955324D01*
X132245451Y-65785806D01*
X132323472Y-65597448D01*
X132363246Y-65397489D01*
X132363246Y-65332594D01*
X132421798Y-65261248D01*
X132492370Y-65129219D01*
X132535827Y-64985958D01*
X132546824Y-64874305D01*
X132546824Y-64874296D01*
X132550500Y-64836973D01*
X132546824Y-64799650D01*
X132546824Y-64025625D01*
X134601000Y-66079802D01*
X134601000Y-66141939D01*
X134640774Y-66341898D01*
X134718795Y-66530256D01*
X134832063Y-66699774D01*
X134976226Y-66843937D01*
X135145744Y-66957205D01*
X135334102Y-67035226D01*
X135534061Y-67075000D01*
X135737939Y-67075000D01*
X135937898Y-67035226D01*
X136126256Y-66957205D01*
X136295774Y-66843937D01*
X136398000Y-66741711D01*
X136500226Y-66843937D01*
X136669744Y-66957205D01*
X136858102Y-67035226D01*
X137058061Y-67075000D01*
X137261939Y-67075000D01*
X137461898Y-67035226D01*
X137650256Y-66957205D01*
X137819774Y-66843937D01*
X137963937Y-66699774D01*
X138077205Y-66530256D01*
X138155226Y-66341898D01*
X138195000Y-66141939D01*
X138195000Y-65938061D01*
X138155226Y-65738102D01*
X138077205Y-65549744D01*
X137963937Y-65380226D01*
X137819774Y-65236063D01*
X137650256Y-65122795D01*
X137461898Y-65044774D01*
X137261939Y-65005000D01*
X137199802Y-65005000D01*
X134872000Y-62677199D01*
X134872000Y-62382061D01*
X137649000Y-62382061D01*
X137649000Y-62585939D01*
X137688774Y-62785898D01*
X137766795Y-62974256D01*
X137880063Y-63143774D01*
X138024226Y-63287937D01*
X138193744Y-63401205D01*
X138382102Y-63479226D01*
X138582061Y-63519000D01*
X138760672Y-63519000D01*
X138755484Y-63571676D01*
X138755484Y-63571687D01*
X138751808Y-63609009D01*
X138755484Y-63646331D01*
X138755484Y-64040162D01*
X138751808Y-64077484D01*
X138755484Y-64114806D01*
X138755484Y-64114816D01*
X138766481Y-64226469D01*
X138800081Y-64337236D01*
X138809938Y-64369730D01*
X138880510Y-64501760D01*
X138889853Y-64513144D01*
X138975483Y-64617485D01*
X139004487Y-64641288D01*
X141168201Y-66805003D01*
X141191999Y-66834001D01*
X141220997Y-66857799D01*
X141307723Y-66928974D01*
X141435759Y-66997411D01*
X141439753Y-66999546D01*
X141583014Y-67043003D01*
X141694667Y-67054000D01*
X141694677Y-67054000D01*
X141732000Y-67057676D01*
X141769322Y-67054000D01*
X144076289Y-67054000D01*
X144120226Y-67097937D01*
X144289744Y-67211205D01*
X144478102Y-67289226D01*
X144678061Y-67329000D01*
X144881939Y-67329000D01*
X145081898Y-67289226D01*
X145270256Y-67211205D01*
X145439774Y-67097937D01*
X145583937Y-66953774D01*
X145697205Y-66784256D01*
X145775226Y-66595898D01*
X145815000Y-66395939D01*
X145815000Y-66192061D01*
X145775226Y-65992102D01*
X145697205Y-65803744D01*
X145645892Y-65726949D01*
X145708917Y-65574794D01*
X145748691Y-65374835D01*
X145748691Y-65170957D01*
X145708917Y-64970998D01*
X145651467Y-64832302D01*
X145696251Y-64765278D01*
X145774272Y-64576920D01*
X145814046Y-64376961D01*
X145814046Y-64173083D01*
X145812955Y-64167599D01*
X146904050Y-64167599D01*
X146932238Y-64209786D01*
X147076401Y-64353949D01*
X147245919Y-64467217D01*
X147434277Y-64545238D01*
X147634236Y-64585012D01*
X147838114Y-64585012D01*
X148038073Y-64545238D01*
X148226431Y-64467217D01*
X148395949Y-64353949D01*
X148540112Y-64209786D01*
X148653380Y-64040268D01*
X148731401Y-63851910D01*
X148771175Y-63651951D01*
X148771175Y-63448073D01*
X148731401Y-63248114D01*
X148653380Y-63059756D01*
X148540112Y-62890238D01*
X148395949Y-62746075D01*
X148226431Y-62632807D01*
X148038073Y-62554786D01*
X147838114Y-62515012D01*
X147634236Y-62515012D01*
X147434277Y-62554786D01*
X147245919Y-62632807D01*
X147223781Y-62647599D01*
X142446204Y-62647599D01*
X143373804Y-61720000D01*
X148394289Y-61720000D01*
X148438226Y-61763937D01*
X148607744Y-61877205D01*
X148796102Y-61955226D01*
X148996061Y-61995000D01*
X149199939Y-61995000D01*
X149399898Y-61955226D01*
X149588256Y-61877205D01*
X149757774Y-61763937D01*
X149901937Y-61619774D01*
X150015205Y-61450256D01*
X150093226Y-61261898D01*
X150133000Y-61061939D01*
X150133000Y-60858061D01*
X150093226Y-60658102D01*
X150015205Y-60469744D01*
X149901937Y-60300226D01*
X149757774Y-60156063D01*
X149588256Y-60042795D01*
X149399898Y-59964774D01*
X149199939Y-59925000D01*
X148996061Y-59925000D01*
X148796102Y-59964774D01*
X148607744Y-60042795D01*
X148438226Y-60156063D01*
X148394289Y-60200000D01*
X143096324Y-60200000D01*
X143059001Y-60196324D01*
X143021678Y-60200000D01*
X143021669Y-60200000D01*
X142910016Y-60210997D01*
X142794961Y-60245898D01*
X142766755Y-60254454D01*
X142634725Y-60325026D01*
X142582024Y-60368277D01*
X142519001Y-60419999D01*
X142495203Y-60448997D01*
X141954956Y-60989245D01*
X141883774Y-60918063D01*
X141714256Y-60804795D01*
X141525898Y-60726774D01*
X141325939Y-60687000D01*
X141122061Y-60687000D01*
X140922102Y-60726774D01*
X140733744Y-60804795D01*
X140564226Y-60918063D01*
X140420063Y-61062226D01*
X140306795Y-61231744D01*
X140228774Y-61420102D01*
X140189000Y-61620061D01*
X140189000Y-61682199D01*
X140147199Y-61724000D01*
X139387711Y-61724000D01*
X139343774Y-61680063D01*
X139174256Y-61566795D01*
X138985898Y-61488774D01*
X138785939Y-61449000D01*
X138582061Y-61449000D01*
X138382102Y-61488774D01*
X138193744Y-61566795D01*
X138024226Y-61680063D01*
X137880063Y-61824226D01*
X137766795Y-61993744D01*
X137688774Y-62182102D01*
X137649000Y-62382061D01*
X134872000Y-62382061D01*
X134872000Y-62171711D01*
X134915937Y-62127774D01*
X135029205Y-61958256D01*
X135107226Y-61769898D01*
X135118619Y-61712619D01*
X135175898Y-61701226D01*
X135364256Y-61623205D01*
X135533774Y-61509937D01*
X135677937Y-61365774D01*
X135791205Y-61196256D01*
X135869226Y-61007898D01*
X135909000Y-60807939D01*
X135909000Y-60604061D01*
X135869226Y-60404102D01*
X135791205Y-60215744D01*
X135677937Y-60046226D01*
X135533774Y-59902063D01*
X135364256Y-59788795D01*
X135175898Y-59710774D01*
X134975939Y-59671000D01*
X134772061Y-59671000D01*
X134572102Y-59710774D01*
X134383744Y-59788795D01*
X134214226Y-59902063D01*
X134170289Y-59946000D01*
X131101322Y-59946000D01*
X131063999Y-59942324D01*
X131026676Y-59946000D01*
X131026667Y-59946000D01*
X130915014Y-59956997D01*
X130771753Y-60000454D01*
X130639724Y-60071026D01*
X130523999Y-60165999D01*
X130500201Y-60194997D01*
X127250998Y-63444201D01*
X127222000Y-63467999D01*
X127198202Y-63496997D01*
X127198201Y-63496998D01*
X127127026Y-63583724D01*
X127056454Y-63715754D01*
X127029227Y-63805512D01*
X127012998Y-63859014D01*
X127002091Y-63969753D01*
X126998324Y-64008000D01*
X127002001Y-64045332D01*
X127002000Y-64828289D01*
X126958063Y-64872226D01*
X126844795Y-65041744D01*
X126766774Y-65230102D01*
X126727000Y-65430061D01*
X121961650Y-65430061D01*
X121961937Y-65429774D01*
X122075205Y-65260256D01*
X122153226Y-65071898D01*
X122193000Y-64871939D01*
X122193000Y-64668061D01*
X122153226Y-64468102D01*
X122075205Y-64279744D01*
X121961937Y-64110226D01*
X121817774Y-63966063D01*
X121648256Y-63852795D01*
X121459898Y-63774774D01*
X121400824Y-63763024D01*
X121400824Y-62619881D01*
X121429744Y-62639205D01*
X121618102Y-62717226D01*
X121818061Y-62757000D01*
X122021939Y-62757000D01*
X122221898Y-62717226D01*
X122410256Y-62639205D01*
X122579774Y-62525937D01*
X122723937Y-62381774D01*
X122837205Y-62212256D01*
X122915226Y-62023898D01*
X122955000Y-61823939D01*
X122955000Y-61620061D01*
X122915226Y-61420102D01*
X122837205Y-61231744D01*
X122723937Y-61062226D01*
X122579774Y-60918063D01*
X122410256Y-60804795D01*
X122221898Y-60726774D01*
X122021939Y-60687000D01*
X121959802Y-60687000D01*
X121156925Y-59884124D01*
X121158166Y-59883877D01*
X121260226Y-59985937D01*
X121429744Y-60099205D01*
X121618102Y-60177226D01*
X121818061Y-60217000D01*
X122021939Y-60217000D01*
X122221898Y-60177226D01*
X122410256Y-60099205D01*
X122579774Y-59985937D01*
X122723937Y-59841774D01*
X122837205Y-59672256D01*
X122915226Y-59483898D01*
X122955000Y-59283939D01*
X122955000Y-59080061D01*
X122915226Y-58880102D01*
X122837205Y-58691744D01*
X122723937Y-58522226D01*
X122680000Y-58478289D01*
X122680000Y-57810061D01*
X150349000Y-57810061D01*
X150349000Y-58013939D01*
X150388774Y-58213898D01*
X150466795Y-58402256D01*
X150563510Y-58547000D01*
X150466795Y-58691744D01*
X150388774Y-58880102D01*
X150349000Y-59080061D01*
X150349000Y-59283939D01*
X150388774Y-59483898D01*
X150466795Y-59672256D01*
X150482538Y-59695817D01*
X150471455Y-59712404D01*
X150393434Y-59900762D01*
X150353660Y-60100721D01*
X150353660Y-60304599D01*
X150393434Y-60504558D01*
X150471455Y-60692916D01*
X150584723Y-60862434D01*
X150728886Y-61006597D01*
X150898404Y-61119865D01*
X151086762Y-61197886D01*
X151286721Y-61237660D01*
X151490599Y-61237660D01*
X151690558Y-61197886D01*
X151878916Y-61119865D01*
X152048434Y-61006597D01*
X152192597Y-60862434D01*
X152298459Y-60704000D01*
X153728289Y-60704000D01*
X153772226Y-60747937D01*
X153941744Y-60861205D01*
X154130102Y-60939226D01*
X154282303Y-60969500D01*
X154276795Y-60977744D01*
X154198774Y-61166102D01*
X154159000Y-61366061D01*
X154159000Y-61428198D01*
X152302209Y-63284990D01*
X151729875Y-63284990D01*
X151685898Y-63266774D01*
X151485939Y-63227000D01*
X151282061Y-63227000D01*
X151082102Y-63266774D01*
X150893744Y-63344795D01*
X150724226Y-63458063D01*
X150580063Y-63602226D01*
X150466795Y-63771744D01*
X150388774Y-63960102D01*
X150349000Y-64160061D01*
X150349000Y-64363939D01*
X150388774Y-64563898D01*
X150466795Y-64752256D01*
X150580063Y-64921774D01*
X150682123Y-65023834D01*
X150665231Y-65108756D01*
X150665231Y-65312634D01*
X150705005Y-65512593D01*
X150783026Y-65700951D01*
X150896294Y-65870469D01*
X151040457Y-66014632D01*
X151209975Y-66127900D01*
X151398333Y-66205921D01*
X151598292Y-66245695D01*
X151802170Y-66245695D01*
X152002129Y-66205921D01*
X152190487Y-66127900D01*
X152360005Y-66014632D01*
X152403942Y-65970695D01*
X152683983Y-65970695D01*
X152721305Y-65974371D01*
X152758627Y-65970695D01*
X152758638Y-65970695D01*
X152870291Y-65959698D01*
X153013552Y-65916241D01*
X153145581Y-65845669D01*
X153261306Y-65750696D01*
X153285109Y-65721692D01*
X155487802Y-63519000D01*
X155549939Y-63519000D01*
X155749898Y-63479226D01*
X155938256Y-63401205D01*
X156107774Y-63287937D01*
X156251937Y-63143774D01*
X156365205Y-62974256D01*
X156443226Y-62785898D01*
X156483000Y-62585939D01*
X156483000Y-62382061D01*
X156443226Y-62182102D01*
X156365205Y-61993744D01*
X156251937Y-61824226D01*
X156190617Y-61762906D01*
X156229000Y-61569939D01*
X156229000Y-61366061D01*
X157969000Y-61366061D01*
X157969000Y-61569939D01*
X158008774Y-61769898D01*
X158086795Y-61958256D01*
X158200063Y-62127774D01*
X158344226Y-62271937D01*
X158513744Y-62385205D01*
X158702102Y-62463226D01*
X158902061Y-62503000D01*
X159105939Y-62503000D01*
X159305898Y-62463226D01*
X159494256Y-62385205D01*
X159663774Y-62271937D01*
X159807937Y-62127774D01*
X159921205Y-61958256D01*
X159999226Y-61769898D01*
X160009151Y-61720000D01*
X160236667Y-61720000D01*
X160274000Y-61723677D01*
X160311333Y-61720000D01*
X160422986Y-61709003D01*
X160566247Y-61665546D01*
X160651342Y-61620061D01*
X162541000Y-61620061D01*
X162541000Y-61823939D01*
X162580774Y-62023898D01*
X162658795Y-62212256D01*
X162772063Y-62381774D01*
X162916226Y-62525937D01*
X163085744Y-62639205D01*
X163274102Y-62717226D01*
X163474061Y-62757000D01*
X163677939Y-62757000D01*
X163877898Y-62717226D01*
X164066256Y-62639205D01*
X164235774Y-62525937D01*
X164379937Y-62381774D01*
X164493205Y-62212256D01*
X164571226Y-62023898D01*
X164611000Y-61823939D01*
X164611000Y-61620061D01*
X164571226Y-61420102D01*
X164493205Y-61231744D01*
X164379937Y-61062226D01*
X164336000Y-61018289D01*
X164336000Y-58879448D01*
X164421739Y-58822159D01*
X164565902Y-58677996D01*
X164679170Y-58508478D01*
X164757191Y-58320120D01*
X164796965Y-58120161D01*
X164796965Y-57916283D01*
X164757191Y-57716324D01*
X164679170Y-57527966D01*
X164565902Y-57358448D01*
X164509515Y-57302061D01*
X173971000Y-57302061D01*
X173971000Y-57505939D01*
X174010774Y-57705898D01*
X174088795Y-57894256D01*
X174202063Y-58063774D01*
X174346226Y-58207937D01*
X174515744Y-58321205D01*
X174704102Y-58399226D01*
X174904061Y-58439000D01*
X175107939Y-58439000D01*
X175307898Y-58399226D01*
X175496256Y-58321205D01*
X175665774Y-58207937D01*
X175709711Y-58164000D01*
X179128289Y-58164000D01*
X179172226Y-58207937D01*
X179341744Y-58321205D01*
X179530102Y-58399226D01*
X179730061Y-58439000D01*
X179933939Y-58439000D01*
X180133898Y-58399226D01*
X180322256Y-58321205D01*
X180491774Y-58207937D01*
X180635937Y-58063774D01*
X180749205Y-57894256D01*
X180827226Y-57705898D01*
X180867000Y-57505939D01*
X180867000Y-57302061D01*
X180827226Y-57102102D01*
X180749205Y-56913744D01*
X180635937Y-56744226D01*
X180491774Y-56600063D01*
X180322256Y-56486795D01*
X180133898Y-56408774D01*
X179933939Y-56369000D01*
X179730061Y-56369000D01*
X179530102Y-56408774D01*
X179341744Y-56486795D01*
X179172226Y-56600063D01*
X179128289Y-56644000D01*
X175709711Y-56644000D01*
X175665774Y-56600063D01*
X175496256Y-56486795D01*
X175307898Y-56408774D01*
X175107939Y-56369000D01*
X174904061Y-56369000D01*
X174704102Y-56408774D01*
X174515744Y-56486795D01*
X174346226Y-56600063D01*
X174202063Y-56744226D01*
X174088795Y-56913744D01*
X174010774Y-57102102D01*
X173971000Y-57302061D01*
X164509515Y-57302061D01*
X164421739Y-57214285D01*
X164252221Y-57101017D01*
X164063863Y-57022996D01*
X163863904Y-56983222D01*
X163660026Y-56983222D01*
X163460067Y-57022996D01*
X163271709Y-57101017D01*
X163102191Y-57214285D01*
X162958028Y-57358448D01*
X162844760Y-57527966D01*
X162766739Y-57716324D01*
X162726965Y-57916283D01*
X162726965Y-58120161D01*
X162766739Y-58320120D01*
X162816001Y-58439048D01*
X162816000Y-61018289D01*
X162772063Y-61062226D01*
X162658795Y-61231744D01*
X162580774Y-61420102D01*
X162541000Y-61620061D01*
X160651342Y-61620061D01*
X160698276Y-61594974D01*
X160814001Y-61500001D01*
X160908974Y-61384276D01*
X160979546Y-61252247D01*
X161023003Y-61108986D01*
X161037677Y-60960000D01*
X161034000Y-60922667D01*
X161034000Y-60901711D01*
X161077937Y-60857774D01*
X161191205Y-60688256D01*
X161269226Y-60499898D01*
X161309000Y-60299939D01*
X161309000Y-60096061D01*
X161269226Y-59896102D01*
X161191205Y-59707744D01*
X161077937Y-59538226D01*
X160933774Y-59394063D01*
X160764256Y-59280795D01*
X160575898Y-59202774D01*
X160375939Y-59163000D01*
X160172061Y-59163000D01*
X159972102Y-59202774D01*
X159783744Y-59280795D01*
X159614226Y-59394063D01*
X159470063Y-59538226D01*
X159356795Y-59707744D01*
X159278774Y-59896102D01*
X159239000Y-60096061D01*
X159239000Y-60248616D01*
X159219753Y-60254454D01*
X159087724Y-60325026D01*
X158971999Y-60419999D01*
X158961329Y-60433000D01*
X158902061Y-60433000D01*
X158702102Y-60472774D01*
X158513744Y-60550795D01*
X158344226Y-60664063D01*
X158200063Y-60808226D01*
X158086795Y-60977744D01*
X158008774Y-61166102D01*
X157969000Y-61366061D01*
X156229000Y-61366061D01*
X156189226Y-61166102D01*
X156111205Y-60977744D01*
X155997937Y-60808226D01*
X155853774Y-60664063D01*
X155684256Y-60550795D01*
X155495898Y-60472774D01*
X155343697Y-60442500D01*
X155349205Y-60434256D01*
X155427226Y-60245898D01*
X155467000Y-60045939D01*
X155467000Y-59842061D01*
X155427226Y-59642102D01*
X155349205Y-59453744D01*
X155288421Y-59362774D01*
X155290545Y-59359596D01*
X155368566Y-59171238D01*
X155408340Y-58971279D01*
X155408340Y-58767401D01*
X155368566Y-58567442D01*
X155290545Y-58379084D01*
X155289020Y-58376801D01*
X155371577Y-58253245D01*
X155449598Y-58064887D01*
X155489372Y-57864928D01*
X155489372Y-57661050D01*
X155449598Y-57461091D01*
X155371577Y-57272733D01*
X155258309Y-57103215D01*
X155114146Y-56959052D01*
X154944628Y-56845784D01*
X154756270Y-56767763D01*
X154556311Y-56727989D01*
X154352433Y-56727989D01*
X154152474Y-56767763D01*
X153964116Y-56845784D01*
X153794598Y-56959052D01*
X153650435Y-57103215D01*
X153617838Y-57152000D01*
X152087711Y-57152000D01*
X152043774Y-57108063D01*
X151874256Y-56994795D01*
X151685898Y-56916774D01*
X151485939Y-56877000D01*
X151282061Y-56877000D01*
X151082102Y-56916774D01*
X150893744Y-56994795D01*
X150724226Y-57108063D01*
X150580063Y-57252226D01*
X150466795Y-57421744D01*
X150388774Y-57610102D01*
X150349000Y-57810061D01*
X122680000Y-57810061D01*
X122680000Y-57148000D01*
X123210363Y-57148000D01*
X123247685Y-57151676D01*
X123285007Y-57148000D01*
X123285018Y-57148000D01*
X123396671Y-57137003D01*
X123539932Y-57093546D01*
X123671961Y-57022974D01*
X123787686Y-56928001D01*
X123811489Y-56898997D01*
X124208997Y-56501489D01*
X124238001Y-56477686D01*
X124332974Y-56361961D01*
X124403546Y-56229932D01*
X124446987Y-56086724D01*
X124501937Y-56031774D01*
X124615205Y-55862256D01*
X124693226Y-55673898D01*
X124733000Y-55473939D01*
X124733000Y-55270061D01*
X124693226Y-55070102D01*
X124615205Y-54881744D01*
X124501937Y-54712226D01*
X124357774Y-54568063D01*
X124188256Y-54454795D01*
X123999898Y-54376774D01*
X123799939Y-54337000D01*
X123596061Y-54337000D01*
X123396102Y-54376774D01*
X123207744Y-54454795D01*
X123038226Y-54568063D01*
X122976906Y-54629383D01*
X122783939Y-54591000D01*
X122580061Y-54591000D01*
X122380102Y-54630774D01*
X122191744Y-54708795D01*
X122022226Y-54822063D01*
X121978289Y-54866000D01*
X121957322Y-54866000D01*
X121919999Y-54862324D01*
X121882676Y-54866000D01*
X121882667Y-54866000D01*
X121771014Y-54876997D01*
X121627753Y-54920454D01*
X121495724Y-54991026D01*
X121379999Y-55085999D01*
X121356201Y-55114997D01*
X120460307Y-56010891D01*
X120431304Y-56034694D01*
X120396137Y-56077546D01*
X120336331Y-56150419D01*
X120293830Y-56229932D01*
X120265759Y-56282449D01*
X120222302Y-56425710D01*
X120211305Y-56537363D01*
X120211305Y-56537373D01*
X120207629Y-56574695D01*
X120211305Y-56612018D01*
X120211306Y-58162057D01*
X120167368Y-58205995D01*
X120054100Y-58375513D01*
X119976079Y-58563871D01*
X119936305Y-58763830D01*
X119936305Y-58967708D01*
X119976079Y-59167667D01*
X119982844Y-59184000D01*
X111748882Y-59184000D01*
X115753015Y-55179868D01*
X115782012Y-55156071D01*
X115876985Y-55040346D01*
X115947557Y-54908317D01*
X115991014Y-54765056D01*
X116002011Y-54653403D01*
X116002011Y-54653395D01*
X116005687Y-54616070D01*
X116002011Y-54578745D01*
X116002011Y-53791662D01*
X116045948Y-53747725D01*
X116159216Y-53578207D01*
X116237237Y-53389849D01*
X116277011Y-53189890D01*
X116277011Y-52986012D01*
X116237237Y-52786053D01*
X116159216Y-52597695D01*
X116045948Y-52428177D01*
X115901785Y-52284014D01*
X115732267Y-52170746D01*
X115543909Y-52092725D01*
X115343950Y-52052951D01*
X115140072Y-52052951D01*
X114940113Y-52092725D01*
X114751755Y-52170746D01*
X114582237Y-52284014D01*
X114438074Y-52428177D01*
X114324806Y-52597695D01*
X114246785Y-52786053D01*
X114237988Y-52830277D01*
X114197774Y-52790063D01*
X114028256Y-52676795D01*
X113839898Y-52598774D01*
X113639939Y-52559000D01*
X113436061Y-52559000D01*
X113236102Y-52598774D01*
X113047744Y-52676795D01*
X112878226Y-52790063D01*
X112834289Y-52834000D01*
X111470072Y-52834000D01*
X111470072Y-52744000D01*
X111457812Y-52619518D01*
X111421502Y-52499820D01*
X111362537Y-52389506D01*
X111283185Y-52292815D01*
X111186494Y-52213463D01*
X111076180Y-52154498D01*
X110956482Y-52118188D01*
X110832000Y-52105928D01*
X110004874Y-52105928D01*
X110650741Y-51460061D01*
X131045000Y-51460061D01*
X131045000Y-51663939D01*
X131084774Y-51863898D01*
X131162795Y-52052256D01*
X131276063Y-52221774D01*
X131320000Y-52265711D01*
X131320001Y-54318668D01*
X131316324Y-54356000D01*
X131320001Y-54393333D01*
X131330998Y-54504986D01*
X131338120Y-54528464D01*
X131374454Y-54648246D01*
X131445026Y-54780276D01*
X131494151Y-54840134D01*
X131540000Y-54896001D01*
X131568998Y-54919799D01*
X133548201Y-56899003D01*
X133571999Y-56928001D01*
X133600997Y-56951799D01*
X133687723Y-57022974D01*
X133795593Y-57080632D01*
X133819753Y-57093546D01*
X133963014Y-57137003D01*
X134074667Y-57148000D01*
X134074677Y-57148000D01*
X134112000Y-57151676D01*
X134149323Y-57148000D01*
X136456289Y-57148000D01*
X136500226Y-57191937D01*
X136669744Y-57305205D01*
X136858102Y-57383226D01*
X137058061Y-57423000D01*
X137261939Y-57423000D01*
X137461898Y-57383226D01*
X137650256Y-57305205D01*
X137819774Y-57191937D01*
X137863711Y-57148000D01*
X140266289Y-57148000D01*
X140310226Y-57191937D01*
X140479744Y-57305205D01*
X140668102Y-57383226D01*
X140868061Y-57423000D01*
X141071939Y-57423000D01*
X141271898Y-57383226D01*
X141460256Y-57305205D01*
X141629774Y-57191937D01*
X141773937Y-57047774D01*
X141887205Y-56878256D01*
X141965226Y-56689898D01*
X142005000Y-56489939D01*
X142005000Y-56286061D01*
X141965226Y-56086102D01*
X141887205Y-55897744D01*
X141773937Y-55728226D01*
X141629774Y-55584063D01*
X141460256Y-55470795D01*
X141271898Y-55392774D01*
X141071939Y-55353000D01*
X140868061Y-55353000D01*
X140668102Y-55392774D01*
X140479744Y-55470795D01*
X140310226Y-55584063D01*
X140266289Y-55628000D01*
X137863711Y-55628000D01*
X137819774Y-55584063D01*
X137650256Y-55470795D01*
X137461898Y-55392774D01*
X137261939Y-55353000D01*
X137058061Y-55353000D01*
X136858102Y-55392774D01*
X136669744Y-55470795D01*
X136500226Y-55584063D01*
X136456289Y-55628000D01*
X134426802Y-55628000D01*
X134151665Y-55352864D01*
X134159898Y-55351226D01*
X134348256Y-55273205D01*
X134352961Y-55270061D01*
X143491000Y-55270061D01*
X143491000Y-55473939D01*
X143530774Y-55673898D01*
X143608795Y-55862256D01*
X143722063Y-56031774D01*
X143866226Y-56175937D01*
X144035744Y-56289205D01*
X144224102Y-56367226D01*
X144424061Y-56407000D01*
X144627939Y-56407000D01*
X144827898Y-56367226D01*
X145016256Y-56289205D01*
X145185774Y-56175937D01*
X145229711Y-56132000D01*
X147028678Y-56132000D01*
X147066000Y-56135676D01*
X147103322Y-56132000D01*
X147103333Y-56132000D01*
X147214986Y-56121003D01*
X147358247Y-56077546D01*
X147490276Y-56006974D01*
X147606001Y-55912001D01*
X147629804Y-55882998D01*
X148121802Y-55391000D01*
X148183939Y-55391000D01*
X148383898Y-55351226D01*
X148572256Y-55273205D01*
X148741774Y-55159937D01*
X148885937Y-55015774D01*
X148999205Y-54846256D01*
X149077226Y-54657898D01*
X149117000Y-54457939D01*
X149117000Y-54254061D01*
X149077226Y-54054102D01*
X148999205Y-53865744D01*
X148885937Y-53696226D01*
X148741774Y-53552063D01*
X148572256Y-53438795D01*
X148383898Y-53360774D01*
X148183939Y-53321000D01*
X147980061Y-53321000D01*
X147780102Y-53360774D01*
X147591744Y-53438795D01*
X147422226Y-53552063D01*
X147278063Y-53696226D01*
X147164795Y-53865744D01*
X147086774Y-54054102D01*
X147047000Y-54254061D01*
X147047000Y-54316198D01*
X146751199Y-54612000D01*
X145229711Y-54612000D01*
X145185774Y-54568063D01*
X145016256Y-54454795D01*
X144827898Y-54376774D01*
X144627939Y-54337000D01*
X144424061Y-54337000D01*
X144224102Y-54376774D01*
X144035744Y-54454795D01*
X143866226Y-54568063D01*
X143722063Y-54712226D01*
X143608795Y-54881744D01*
X143530774Y-55070102D01*
X143491000Y-55270061D01*
X134352961Y-55270061D01*
X134517774Y-55159937D01*
X134661937Y-55015774D01*
X134775205Y-54846256D01*
X134853226Y-54657898D01*
X134893000Y-54457939D01*
X134893000Y-54254061D01*
X134853226Y-54054102D01*
X134775205Y-53865744D01*
X134661937Y-53696226D01*
X134618000Y-53652289D01*
X134618000Y-52984061D01*
X137649000Y-52984061D01*
X137649000Y-53187939D01*
X137688774Y-53387898D01*
X137766795Y-53576256D01*
X137880063Y-53745774D01*
X138024226Y-53889937D01*
X138193744Y-54003205D01*
X138382102Y-54081226D01*
X138582061Y-54121000D01*
X138785939Y-54121000D01*
X138985898Y-54081226D01*
X139174256Y-54003205D01*
X139343774Y-53889937D01*
X139387711Y-53846000D01*
X141028289Y-53846000D01*
X141072226Y-53889937D01*
X141241744Y-54003205D01*
X141430102Y-54081226D01*
X141630061Y-54121000D01*
X141833939Y-54121000D01*
X142033898Y-54081226D01*
X142222256Y-54003205D01*
X142391774Y-53889937D01*
X142535937Y-53745774D01*
X142649205Y-53576256D01*
X142727226Y-53387898D01*
X142767000Y-53187939D01*
X142767000Y-52984061D01*
X142727226Y-52784102D01*
X142679747Y-52669477D01*
X158034282Y-52669477D01*
X158034282Y-52873355D01*
X158074056Y-53073314D01*
X158152077Y-53261672D01*
X158265345Y-53431190D01*
X158409508Y-53575353D01*
X158579026Y-53688621D01*
X158767384Y-53766642D01*
X158967343Y-53806416D01*
X159171221Y-53806416D01*
X159371180Y-53766642D01*
X159559538Y-53688621D01*
X159673067Y-53612764D01*
X159691045Y-53624776D01*
X159879403Y-53702797D01*
X160079362Y-53742571D01*
X160283240Y-53742571D01*
X160483199Y-53702797D01*
X160497234Y-53696983D01*
X160497235Y-55851963D01*
X160213199Y-56136000D01*
X159961711Y-56136000D01*
X159917774Y-56092063D01*
X159748256Y-55978795D01*
X159559898Y-55900774D01*
X159359939Y-55861000D01*
X159156061Y-55861000D01*
X158956102Y-55900774D01*
X158767744Y-55978795D01*
X158598226Y-56092063D01*
X158454063Y-56236226D01*
X158340795Y-56405744D01*
X158262774Y-56594102D01*
X158223000Y-56794061D01*
X158223000Y-56997939D01*
X158262774Y-57197898D01*
X158340795Y-57386256D01*
X158454063Y-57555774D01*
X158598226Y-57699937D01*
X158767744Y-57813205D01*
X158956102Y-57891226D01*
X159156061Y-57931000D01*
X159359939Y-57931000D01*
X159559898Y-57891226D01*
X159748256Y-57813205D01*
X159917774Y-57699937D01*
X159961711Y-57656000D01*
X160490678Y-57656000D01*
X160528000Y-57659676D01*
X160565322Y-57656000D01*
X160565333Y-57656000D01*
X160676986Y-57645003D01*
X160820247Y-57601546D01*
X160952276Y-57530974D01*
X161068001Y-57436001D01*
X161091803Y-57406998D01*
X161768236Y-56730565D01*
X161797235Y-56706767D01*
X161892208Y-56591042D01*
X161962780Y-56459013D01*
X162006237Y-56315752D01*
X162017234Y-56204099D01*
X162020911Y-56166766D01*
X162017234Y-56129433D01*
X162017234Y-52713478D01*
X162110977Y-52807221D01*
X162280495Y-52920489D01*
X162289603Y-52924262D01*
X162289603Y-52937853D01*
X162329377Y-53137812D01*
X162407398Y-53326170D01*
X162520666Y-53495688D01*
X162664829Y-53639851D01*
X162834347Y-53753119D01*
X163022705Y-53831140D01*
X163222664Y-53870914D01*
X163426542Y-53870914D01*
X163626501Y-53831140D01*
X163814859Y-53753119D01*
X163984377Y-53639851D01*
X164128540Y-53495688D01*
X164241808Y-53326170D01*
X164319829Y-53137812D01*
X164332586Y-53073677D01*
X164490061Y-53105000D01*
X164693939Y-53105000D01*
X164893898Y-53065226D01*
X165082256Y-52987205D01*
X165251774Y-52873937D01*
X165395937Y-52729774D01*
X165509205Y-52560256D01*
X165587226Y-52371898D01*
X165627000Y-52171939D01*
X165627000Y-51968061D01*
X165587226Y-51768102D01*
X165509205Y-51579744D01*
X165395937Y-51410226D01*
X165352000Y-51366289D01*
X165352000Y-49725711D01*
X165395937Y-49681774D01*
X165509205Y-49512256D01*
X165587226Y-49323898D01*
X165627000Y-49123939D01*
X165627000Y-48920061D01*
X165587226Y-48720102D01*
X165509205Y-48531744D01*
X165395937Y-48362226D01*
X165319234Y-48285523D01*
X168510462Y-48285523D01*
X168510462Y-48489401D01*
X168550236Y-48689360D01*
X168628257Y-48877718D01*
X168741525Y-49047236D01*
X168810462Y-49116173D01*
X168810463Y-50701547D01*
X168806906Y-50737662D01*
X168821097Y-50881747D01*
X168848336Y-50971540D01*
X168863126Y-51020295D01*
X168931376Y-51147982D01*
X169023225Y-51259900D01*
X169051270Y-51282916D01*
X172081546Y-54313193D01*
X172104562Y-54341238D01*
X172216480Y-54433087D01*
X172344167Y-54501337D01*
X172433593Y-54528464D01*
X172482714Y-54543365D01*
X172626800Y-54557556D01*
X172662905Y-54554000D01*
X178850868Y-54554000D01*
X178873402Y-54608401D01*
X178986670Y-54777919D01*
X179130833Y-54922082D01*
X179300351Y-55035350D01*
X179488709Y-55113371D01*
X179688668Y-55153145D01*
X179892546Y-55153145D01*
X180092505Y-55113371D01*
X180280863Y-55035350D01*
X180450381Y-54922082D01*
X180594544Y-54777919D01*
X180707812Y-54608401D01*
X180730346Y-54554000D01*
X182175094Y-54554000D01*
X182211199Y-54557556D01*
X182247304Y-54554000D01*
X182355284Y-54543365D01*
X182493832Y-54501337D01*
X182621519Y-54433087D01*
X182733437Y-54341238D01*
X182756457Y-54313188D01*
X183248646Y-53821000D01*
X183985974Y-53821000D01*
X184086705Y-53971754D01*
X184280246Y-54165295D01*
X184507825Y-54317359D01*
X184760698Y-54422102D01*
X185029146Y-54475500D01*
X185302854Y-54475500D01*
X185571302Y-54422102D01*
X185824175Y-54317359D01*
X186051754Y-54165295D01*
X186245295Y-53971754D01*
X186397359Y-53744175D01*
X186502102Y-53491302D01*
X186555500Y-53222854D01*
X186555500Y-52949146D01*
X186502102Y-52680698D01*
X186397359Y-52427825D01*
X186245295Y-52200246D01*
X186051754Y-52006705D01*
X185824175Y-51854641D01*
X185730887Y-51816000D01*
X185824175Y-51777359D01*
X186051754Y-51625295D01*
X186245295Y-51431754D01*
X186397359Y-51204175D01*
X186502102Y-50951302D01*
X186555500Y-50682854D01*
X186555500Y-50409146D01*
X186502102Y-50140698D01*
X186397359Y-49887825D01*
X186245295Y-49660246D01*
X186051754Y-49466705D01*
X185824175Y-49314641D01*
X185730887Y-49276000D01*
X185824175Y-49237359D01*
X186051754Y-49085295D01*
X186245295Y-48891754D01*
X186397359Y-48664175D01*
X186502102Y-48411302D01*
X186555500Y-48142854D01*
X186555500Y-47869146D01*
X186502102Y-47600698D01*
X186397359Y-47347825D01*
X186245295Y-47120246D01*
X186051754Y-46926705D01*
X185824175Y-46774641D01*
X185730887Y-46736000D01*
X185824175Y-46697359D01*
X186051754Y-46545295D01*
X186245295Y-46351754D01*
X186397359Y-46124175D01*
X186502102Y-45871302D01*
X186555500Y-45602854D01*
X186555500Y-45329146D01*
X186502102Y-45060698D01*
X186397359Y-44807825D01*
X186245295Y-44580246D01*
X186051754Y-44386705D01*
X185824175Y-44234641D01*
X185571302Y-44129898D01*
X185302854Y-44076500D01*
X185029146Y-44076500D01*
X184760698Y-44129898D01*
X184507825Y-44234641D01*
X184280246Y-44386705D01*
X184086705Y-44580246D01*
X183934641Y-44807825D01*
X183829898Y-45060698D01*
X183776500Y-45329146D01*
X183776500Y-45602854D01*
X183829898Y-45871302D01*
X183934641Y-46124175D01*
X184086705Y-46351754D01*
X184280246Y-46545295D01*
X184507825Y-46697359D01*
X184601113Y-46736000D01*
X184507825Y-46774641D01*
X184280246Y-46926705D01*
X184086705Y-47120246D01*
X183934641Y-47347825D01*
X183829898Y-47600698D01*
X183776500Y-47869146D01*
X183776500Y-48142854D01*
X183829898Y-48411302D01*
X183934641Y-48664175D01*
X184086705Y-48891754D01*
X184280246Y-49085295D01*
X184507825Y-49237359D01*
X184601113Y-49276000D01*
X184507825Y-49314641D01*
X184280246Y-49466705D01*
X184086705Y-49660246D01*
X183985974Y-49811000D01*
X183908380Y-49811000D01*
X183962102Y-49681302D01*
X184015500Y-49412854D01*
X184015500Y-49139146D01*
X183962102Y-48870698D01*
X183857359Y-48617825D01*
X183705295Y-48390246D01*
X183511754Y-48196705D01*
X183284175Y-48044641D01*
X183190887Y-48006000D01*
X183284175Y-47967359D01*
X183511754Y-47815295D01*
X183705295Y-47621754D01*
X183857359Y-47394175D01*
X183962102Y-47141302D01*
X184015500Y-46872854D01*
X184015500Y-46599146D01*
X183962102Y-46330698D01*
X183857359Y-46077825D01*
X183705295Y-45850246D01*
X183511754Y-45656705D01*
X183284175Y-45504641D01*
X183031302Y-45399898D01*
X182762854Y-45346500D01*
X182489146Y-45346500D01*
X182220698Y-45399898D01*
X181967825Y-45504641D01*
X181740246Y-45656705D01*
X181546705Y-45850246D01*
X181394641Y-46077825D01*
X181289898Y-46330698D01*
X181236500Y-46599146D01*
X181236500Y-46872854D01*
X181271872Y-47050682D01*
X181214447Y-47108107D01*
X180790777Y-47108107D01*
X180749205Y-47007744D01*
X180635937Y-46838226D01*
X180491774Y-46694063D01*
X180322256Y-46580795D01*
X180133898Y-46502774D01*
X179933939Y-46463000D01*
X179730061Y-46463000D01*
X179530102Y-46502774D01*
X179341744Y-46580795D01*
X179172226Y-46694063D01*
X179028063Y-46838226D01*
X178914795Y-47007744D01*
X178873223Y-47108107D01*
X176440622Y-47108107D01*
X176376313Y-46952852D01*
X176263045Y-46783334D01*
X176118882Y-46639171D01*
X175949364Y-46525903D01*
X175761006Y-46447882D01*
X175749512Y-46445596D01*
X175747226Y-46434102D01*
X175669205Y-46245744D01*
X175555937Y-46076226D01*
X175411774Y-45932063D01*
X175242256Y-45818795D01*
X175053898Y-45740774D01*
X174853939Y-45701000D01*
X174650061Y-45701000D01*
X174450102Y-45740774D01*
X174261744Y-45818795D01*
X174092226Y-45932063D01*
X173948063Y-46076226D01*
X173834795Y-46245744D01*
X173756774Y-46434102D01*
X173717000Y-46634061D01*
X173717000Y-46837939D01*
X173756774Y-47037898D01*
X173834795Y-47226256D01*
X173948063Y-47395774D01*
X174017000Y-47464711D01*
X174017000Y-47715894D01*
X174013444Y-47752000D01*
X174027635Y-47896085D01*
X174027975Y-47897206D01*
X174069663Y-48034632D01*
X174137913Y-48162319D01*
X174229762Y-48274237D01*
X174257808Y-48297254D01*
X174460747Y-48500193D01*
X176300745Y-50340192D01*
X176323761Y-50368237D01*
X176427704Y-50453541D01*
X176435679Y-50460086D01*
X176563365Y-50528336D01*
X176701914Y-50570364D01*
X176845999Y-50584555D01*
X176882104Y-50580999D01*
X180095897Y-50580999D01*
X180132002Y-50584555D01*
X180168107Y-50580999D01*
X181330891Y-50580999D01*
X181613421Y-50863530D01*
X181546705Y-50930246D01*
X181394641Y-51157825D01*
X181289898Y-51410698D01*
X181236500Y-51679146D01*
X181236500Y-51952854D01*
X181289898Y-52221302D01*
X181394641Y-52474175D01*
X181501433Y-52634000D01*
X180751382Y-52634000D01*
X180749205Y-52628744D01*
X180635937Y-52459226D01*
X180491774Y-52315063D01*
X180322256Y-52201795D01*
X180133898Y-52123774D01*
X179933939Y-52084000D01*
X179730061Y-52084000D01*
X179530102Y-52123774D01*
X179341744Y-52201795D01*
X179172226Y-52315063D01*
X179028063Y-52459226D01*
X178914795Y-52628744D01*
X178912618Y-52634000D01*
X173117647Y-52634000D01*
X170730462Y-50246816D01*
X170730462Y-50066897D01*
X170778182Y-50047131D01*
X170947700Y-49933863D01*
X171091863Y-49789700D01*
X171205131Y-49620182D01*
X171283152Y-49431824D01*
X171322926Y-49231865D01*
X171322926Y-49027987D01*
X171283152Y-48828028D01*
X171205131Y-48639670D01*
X171091863Y-48470152D01*
X170947700Y-48325989D01*
X170778182Y-48212721D01*
X170589824Y-48134700D01*
X170548840Y-48126548D01*
X170540688Y-48085564D01*
X170462667Y-47897206D01*
X170349399Y-47727688D01*
X170205236Y-47583525D01*
X170035718Y-47470257D01*
X169847360Y-47392236D01*
X169647401Y-47352462D01*
X169443523Y-47352462D01*
X169243564Y-47392236D01*
X169055206Y-47470257D01*
X168885688Y-47583525D01*
X168741525Y-47727688D01*
X168628257Y-47897206D01*
X168550236Y-48085564D01*
X168510462Y-48285523D01*
X165319234Y-48285523D01*
X165251774Y-48218063D01*
X165082256Y-48104795D01*
X164893898Y-48026774D01*
X164693939Y-47987000D01*
X164490061Y-47987000D01*
X164484602Y-47988086D01*
X164484602Y-47166605D01*
X164488278Y-47129282D01*
X164484602Y-47091959D01*
X164484602Y-47091949D01*
X164473605Y-46980296D01*
X164430148Y-46837035D01*
X164396797Y-46774641D01*
X164359576Y-46705005D01*
X164288401Y-46618279D01*
X164264603Y-46589281D01*
X164235606Y-46565484D01*
X163345660Y-45675539D01*
X163345660Y-45613401D01*
X163305886Y-45413442D01*
X163227865Y-45225084D01*
X163114597Y-45055566D01*
X162970434Y-44911403D01*
X162800916Y-44798135D01*
X162612558Y-44720114D01*
X162412599Y-44680340D01*
X162208721Y-44680340D01*
X162008762Y-44720114D01*
X162003510Y-44722290D01*
X161986664Y-44637599D01*
X161908643Y-44449241D01*
X161795375Y-44279723D01*
X161651212Y-44135560D01*
X161481694Y-44022292D01*
X161293336Y-43944271D01*
X161093377Y-43904497D01*
X160889499Y-43904497D01*
X160689540Y-43944271D01*
X160501182Y-44022292D01*
X160331664Y-44135560D01*
X160187501Y-44279723D01*
X160074233Y-44449241D01*
X159996212Y-44637599D01*
X159956438Y-44837558D01*
X159956438Y-45041436D01*
X159996212Y-45241395D01*
X160074233Y-45429753D01*
X160140910Y-45529542D01*
X160057055Y-45585572D01*
X159912892Y-45729735D01*
X159799624Y-45899253D01*
X159721603Y-46087611D01*
X159681829Y-46287570D01*
X159681829Y-46349707D01*
X158558280Y-47473257D01*
X158529282Y-47497055D01*
X158505484Y-47526053D01*
X158505483Y-47526054D01*
X158434308Y-47612780D01*
X158363736Y-47744810D01*
X158336174Y-47835675D01*
X158320280Y-47888070D01*
X158318921Y-47901873D01*
X158305606Y-48037056D01*
X158309283Y-48074388D01*
X158309282Y-52067705D01*
X158265345Y-52111642D01*
X158152077Y-52281160D01*
X158074056Y-52469518D01*
X158034282Y-52669477D01*
X142679747Y-52669477D01*
X142649205Y-52595744D01*
X142535937Y-52426226D01*
X142391774Y-52282063D01*
X142222256Y-52168795D01*
X142033898Y-52090774D01*
X141833939Y-52051000D01*
X141630061Y-52051000D01*
X141430102Y-52090774D01*
X141241744Y-52168795D01*
X141072226Y-52282063D01*
X141028289Y-52326000D01*
X139387711Y-52326000D01*
X139343774Y-52282063D01*
X139174256Y-52168795D01*
X138985898Y-52090774D01*
X138785939Y-52051000D01*
X138582061Y-52051000D01*
X138382102Y-52090774D01*
X138193744Y-52168795D01*
X138024226Y-52282063D01*
X137880063Y-52426226D01*
X137766795Y-52595744D01*
X137688774Y-52784102D01*
X137649000Y-52984061D01*
X134618000Y-52984061D01*
X134618000Y-45407711D01*
X134661937Y-45363774D01*
X134775205Y-45194256D01*
X134853226Y-45005898D01*
X134893000Y-44805939D01*
X134893000Y-44795536D01*
X134954509Y-44814195D01*
X134969306Y-44815652D01*
X135084523Y-44827000D01*
X135084531Y-44827000D01*
X135128000Y-44831281D01*
X135171469Y-44827000D01*
X138411000Y-44827000D01*
X138411000Y-44893949D01*
X138450774Y-45093908D01*
X138528795Y-45282266D01*
X138642063Y-45451784D01*
X138786226Y-45595947D01*
X138955744Y-45709215D01*
X139144102Y-45787236D01*
X139344061Y-45827010D01*
X139547939Y-45827010D01*
X139747898Y-45787236D01*
X139915047Y-45718000D01*
X140266289Y-45718000D01*
X140310226Y-45761937D01*
X140479744Y-45875205D01*
X140668102Y-45953226D01*
X140868061Y-45993000D01*
X141071939Y-45993000D01*
X141271898Y-45953226D01*
X141391991Y-45903482D01*
X141391991Y-46282456D01*
X141332329Y-46257743D01*
X141132370Y-46217969D01*
X140928492Y-46217969D01*
X140728533Y-46257743D01*
X140540175Y-46335764D01*
X140370657Y-46449032D01*
X140326720Y-46492969D01*
X139826670Y-46492969D01*
X139821698Y-46489647D01*
X139633340Y-46411626D01*
X139433381Y-46371852D01*
X139229503Y-46371852D01*
X139029544Y-46411626D01*
X138841186Y-46489647D01*
X138671668Y-46602915D01*
X138527505Y-46747078D01*
X138414237Y-46916596D01*
X138336216Y-47104954D01*
X138296442Y-47304913D01*
X138296442Y-47508791D01*
X138336216Y-47708750D01*
X138395291Y-47851369D01*
X138392434Y-47854226D01*
X138279166Y-48023744D01*
X138201145Y-48212102D01*
X138161371Y-48412061D01*
X138161371Y-48615939D01*
X138201145Y-48815898D01*
X138279166Y-49004256D01*
X138392434Y-49173774D01*
X138536597Y-49317937D01*
X138706115Y-49431205D01*
X138894473Y-49509226D01*
X139094432Y-49549000D01*
X139298310Y-49549000D01*
X139498269Y-49509226D01*
X139686627Y-49431205D01*
X139856145Y-49317937D01*
X140000308Y-49173774D01*
X140085485Y-49046298D01*
X140156126Y-49093499D01*
X140344484Y-49171520D01*
X140372666Y-49177126D01*
X140448801Y-49360931D01*
X140562069Y-49530449D01*
X140706232Y-49674612D01*
X140875750Y-49787880D01*
X141064108Y-49865901D01*
X141264067Y-49905675D01*
X141467945Y-49905675D01*
X141667904Y-49865901D01*
X141767000Y-49824854D01*
X141767000Y-49905637D01*
X141814460Y-50144236D01*
X141907557Y-50368992D01*
X142042713Y-50571267D01*
X142214733Y-50743287D01*
X142417008Y-50878443D01*
X142641764Y-50971540D01*
X142880363Y-51019000D01*
X143123637Y-51019000D01*
X143362236Y-50971540D01*
X143586992Y-50878443D01*
X143789267Y-50743287D01*
X143961287Y-50571267D01*
X144096443Y-50368992D01*
X144189540Y-50144236D01*
X144237000Y-49905637D01*
X144237000Y-49662363D01*
X144189540Y-49423764D01*
X144096443Y-49199008D01*
X143961287Y-48996733D01*
X143887000Y-48922446D01*
X143887000Y-44239465D01*
X143891281Y-44195999D01*
X143887000Y-44152533D01*
X143887000Y-44152523D01*
X143874195Y-44022510D01*
X143823589Y-43855687D01*
X143741411Y-43701941D01*
X143630817Y-43567183D01*
X143597045Y-43539467D01*
X143404534Y-43346956D01*
X143376817Y-43313183D01*
X143242059Y-43202589D01*
X143088313Y-43120411D01*
X142921490Y-43069805D01*
X142791477Y-43057000D01*
X142791469Y-43057000D01*
X142748000Y-43052719D01*
X142704531Y-43057000D01*
X135494579Y-43057000D01*
X134331000Y-41893422D01*
X134331000Y-41788363D01*
X134283540Y-41549764D01*
X134190443Y-41325008D01*
X134055287Y-41122733D01*
X133883267Y-40950713D01*
X133680992Y-40815557D01*
X133456236Y-40722460D01*
X133217637Y-40675000D01*
X132974363Y-40675000D01*
X132735764Y-40722460D01*
X132511008Y-40815557D01*
X132308733Y-40950713D01*
X132136713Y-41122733D01*
X132001557Y-41325008D01*
X131908460Y-41549764D01*
X131861000Y-41788363D01*
X131861000Y-42031637D01*
X131908460Y-42270236D01*
X132001557Y-42494992D01*
X132136713Y-42697267D01*
X132260664Y-42821218D01*
X132178795Y-42943744D01*
X132100774Y-43132102D01*
X132061000Y-43332061D01*
X132061000Y-43535939D01*
X132100774Y-43735898D01*
X132178795Y-43924256D01*
X132292063Y-44093774D01*
X132336000Y-44137711D01*
X132336001Y-50557645D01*
X132181939Y-50527000D01*
X131978061Y-50527000D01*
X131778102Y-50566774D01*
X131589744Y-50644795D01*
X131420226Y-50758063D01*
X131276063Y-50902226D01*
X131162795Y-51071744D01*
X131084774Y-51260102D01*
X131045000Y-51460061D01*
X110650741Y-51460061D01*
X111505668Y-50605134D01*
X112895424Y-50605134D01*
X112939361Y-50649071D01*
X113108879Y-50762339D01*
X113297237Y-50840360D01*
X113497196Y-50880134D01*
X113701074Y-50880134D01*
X113901033Y-50840360D01*
X114089391Y-50762339D01*
X114258909Y-50649071D01*
X114403072Y-50504908D01*
X114516340Y-50335390D01*
X114594361Y-50147032D01*
X114634135Y-49947073D01*
X114634135Y-49743195D01*
X114594361Y-49543236D01*
X114516340Y-49354878D01*
X114403072Y-49185360D01*
X114258909Y-49041197D01*
X114089391Y-48927929D01*
X113901033Y-48849908D01*
X113701074Y-48810134D01*
X113497196Y-48810134D01*
X113297237Y-48849908D01*
X113108879Y-48927929D01*
X112939361Y-49041197D01*
X112895424Y-49085134D01*
X111228189Y-49085134D01*
X111190866Y-49081458D01*
X111153543Y-49085134D01*
X111153533Y-49085134D01*
X111041880Y-49096131D01*
X110911509Y-49135678D01*
X110898619Y-49139588D01*
X110766589Y-49210160D01*
X110688787Y-49274011D01*
X110650865Y-49305133D01*
X110627067Y-49334131D01*
X107656199Y-52305000D01*
X107594061Y-52305000D01*
X107394102Y-52344774D01*
X107205744Y-52422795D01*
X107036226Y-52536063D01*
X106892063Y-52680226D01*
X106778795Y-52849744D01*
X106700774Y-53038102D01*
X106661000Y-53238061D01*
X106661000Y-53441939D01*
X106700774Y-53641898D01*
X106778795Y-53830256D01*
X106892063Y-53999774D01*
X107036226Y-54143937D01*
X107205744Y-54257205D01*
X107394102Y-54335226D01*
X107594061Y-54375000D01*
X107797939Y-54375000D01*
X107997898Y-54335226D01*
X108186256Y-54257205D01*
X108355774Y-54143937D01*
X108493928Y-54005783D01*
X108493928Y-54444000D01*
X108506188Y-54568482D01*
X108542498Y-54688180D01*
X108601463Y-54798494D01*
X108680815Y-54895185D01*
X108777506Y-54974537D01*
X108887820Y-55033502D01*
X108960380Y-55055513D01*
X108828525Y-55187368D01*
X108666010Y-55430589D01*
X108554068Y-55700842D01*
X108497000Y-55987740D01*
X108497000Y-56280260D01*
X108554068Y-56567158D01*
X108666010Y-56837411D01*
X108828525Y-57080632D01*
X109035368Y-57287475D01*
X109209760Y-57404000D01*
X109035368Y-57520525D01*
X108828525Y-57727368D01*
X108666010Y-57970589D01*
X108554068Y-58240842D01*
X108497000Y-58527740D01*
X108497000Y-58820260D01*
X108554068Y-59107158D01*
X108666010Y-59377411D01*
X108828525Y-59620632D01*
X109035368Y-59827475D01*
X109209760Y-59944000D01*
X109035368Y-60060525D01*
X108828525Y-60267368D01*
X108666010Y-60510589D01*
X108554068Y-60780842D01*
X108497000Y-61067740D01*
X108497000Y-61360260D01*
X108550456Y-61629001D01*
X107632006Y-61629001D01*
X107594683Y-61625325D01*
X107557360Y-61629001D01*
X107557351Y-61629001D01*
X107445698Y-61639998D01*
X107302437Y-61683455D01*
X107170408Y-61754027D01*
X107116289Y-61798441D01*
X106981898Y-61742774D01*
X106781939Y-61703000D01*
X106578061Y-61703000D01*
X106378102Y-61742774D01*
X106189744Y-61820795D01*
X106020226Y-61934063D01*
X105876063Y-62078226D01*
X105762795Y-62247744D01*
X105684774Y-62436102D01*
X105645000Y-62636061D01*
X95656000Y-62636061D01*
X95656000Y-40410000D01*
X96413928Y-40410000D01*
X96413928Y-43410000D01*
X96426188Y-43534482D01*
X96462498Y-43654180D01*
X96521463Y-43764494D01*
X96600815Y-43861185D01*
X96697506Y-43940537D01*
X96807820Y-43999502D01*
X96927518Y-44035812D01*
X97052000Y-44048072D01*
X100052000Y-44048072D01*
X100176482Y-44035812D01*
X100296180Y-43999502D01*
X100406494Y-43940537D01*
X100503185Y-43861185D01*
X100582537Y-43764494D01*
X100641502Y-43654180D01*
X100677812Y-43534482D01*
X100690072Y-43410000D01*
X100690072Y-40410000D01*
X100677812Y-40285518D01*
X100641502Y-40165820D01*
X100582537Y-40055506D01*
X100503185Y-39958815D01*
X100406494Y-39879463D01*
X100296180Y-39820498D01*
X100176482Y-39784188D01*
X100052000Y-39771928D01*
X97052000Y-39771928D01*
X96927518Y-39784188D01*
X96807820Y-39820498D01*
X96697506Y-39879463D01*
X96600815Y-39958815D01*
X96521463Y-40055506D01*
X96462498Y-40165820D01*
X96426188Y-40285518D01*
X96413928Y-40410000D01*
X95656000Y-40410000D01*
X95656000Y-39522000D01*
X187128245Y-39522000D01*
X186976580Y-39673665D01*
G36*
X179836499Y-68427939D02*
G01*
X179876273Y-68627898D01*
X179954294Y-68816256D01*
X180067562Y-68985774D01*
X180211725Y-69129937D01*
X180381243Y-69243205D01*
X180569601Y-69321226D01*
X180769560Y-69361000D01*
X180836500Y-69361000D01*
X180836500Y-69812046D01*
X180832943Y-69848161D01*
X180847134Y-69992246D01*
X180876716Y-70089762D01*
X180889163Y-70130794D01*
X180957413Y-70258481D01*
X181049262Y-70370399D01*
X181077307Y-70393415D01*
X181613421Y-70929530D01*
X181573766Y-70969185D01*
X181544367Y-70957008D01*
X181344408Y-70917234D01*
X181275439Y-70917234D01*
X181226813Y-70877328D01*
X181094784Y-70806756D01*
X180951523Y-70763299D01*
X180839870Y-70752302D01*
X180839859Y-70752302D01*
X180802537Y-70748626D01*
X180765215Y-70752302D01*
X175038711Y-70752302D01*
X174994774Y-70708365D01*
X174825256Y-70595097D01*
X174636898Y-70517076D01*
X174511725Y-70492178D01*
X174649774Y-70399937D01*
X174729842Y-70319869D01*
X174790247Y-70301546D01*
X174922276Y-70230974D01*
X175038001Y-70136001D01*
X175061804Y-70106997D01*
X176844802Y-68324000D01*
X179836499Y-68324000D01*
X179836499Y-68427939D01*
G37*
X179836499Y-68427939D02*
X179876273Y-68627898D01*
X179954294Y-68816256D01*
X180067562Y-68985774D01*
X180211725Y-69129937D01*
X180381243Y-69243205D01*
X180569601Y-69321226D01*
X180769560Y-69361000D01*
X180836500Y-69361000D01*
X180836500Y-69812046D01*
X180832943Y-69848161D01*
X180847134Y-69992246D01*
X180876716Y-70089762D01*
X180889163Y-70130794D01*
X180957413Y-70258481D01*
X181049262Y-70370399D01*
X181077307Y-70393415D01*
X181613421Y-70929530D01*
X181573766Y-70969185D01*
X181544367Y-70957008D01*
X181344408Y-70917234D01*
X181275439Y-70917234D01*
X181226813Y-70877328D01*
X181094784Y-70806756D01*
X180951523Y-70763299D01*
X180839870Y-70752302D01*
X180839859Y-70752302D01*
X180802537Y-70748626D01*
X180765215Y-70752302D01*
X175038711Y-70752302D01*
X174994774Y-70708365D01*
X174825256Y-70595097D01*
X174636898Y-70517076D01*
X174511725Y-70492178D01*
X174649774Y-70399937D01*
X174729842Y-70319869D01*
X174790247Y-70301546D01*
X174922276Y-70230974D01*
X175038001Y-70136001D01*
X175061804Y-70106997D01*
X176844802Y-68324000D01*
X179836499Y-68324000D01*
X179836499Y-68427939D01*
M02*
