G04 #@! TF.GenerationSoftware,KiCad,Pcbnew,(5.1.5)-3*
G04 #@! TF.CreationDate,2020-07-08T17:40:24+02:00*
G04 #@! TF.ProjectId,Mbed_Devboard,4d626564-5f44-4657-9662-6f6172642e6b,rev?*
G04 #@! TF.SameCoordinates,Original*
G04 #@! TF.FileFunction,Soldermask,Top*
G04 #@! TF.FilePolarity,Negative*
%FSLAX46Y46*%
G04 Gerber Fmt 4.6, Leading zero omitted, Abs format (unit mm)*
G04 Created by KiCad (PCBNEW (5.1.5)-3) date 2020-07-08 17:40:24*
%MOMM*%
%LPD*%
G04 APERTURE LIST*
%ADD10C,0.100000*%
G04 APERTURE END LIST*
D10*
G36*
X179034674Y-76977465D02*
G01*
X179072367Y-76988899D01*
X179107103Y-77007466D01*
X179137548Y-77032452D01*
X179162534Y-77062897D01*
X179181101Y-77097633D01*
X179192535Y-77135326D01*
X179197000Y-77180661D01*
X179197000Y-78267339D01*
X179192535Y-78312674D01*
X179181101Y-78350367D01*
X179162534Y-78385103D01*
X179137548Y-78415548D01*
X179107103Y-78440534D01*
X179072367Y-78459101D01*
X179034674Y-78470535D01*
X178989339Y-78475000D01*
X178152661Y-78475000D01*
X178107326Y-78470535D01*
X178069633Y-78459101D01*
X178034897Y-78440534D01*
X178004452Y-78415548D01*
X177979466Y-78385103D01*
X177960899Y-78350367D01*
X177949465Y-78312674D01*
X177945000Y-78267339D01*
X177945000Y-77180661D01*
X177949465Y-77135326D01*
X177960899Y-77097633D01*
X177979466Y-77062897D01*
X178004452Y-77032452D01*
X178034897Y-77007466D01*
X178069633Y-76988899D01*
X178107326Y-76977465D01*
X178152661Y-76973000D01*
X178989339Y-76973000D01*
X179034674Y-76977465D01*
G37*
G36*
X176984674Y-76977465D02*
G01*
X177022367Y-76988899D01*
X177057103Y-77007466D01*
X177087548Y-77032452D01*
X177112534Y-77062897D01*
X177131101Y-77097633D01*
X177142535Y-77135326D01*
X177147000Y-77180661D01*
X177147000Y-78267339D01*
X177142535Y-78312674D01*
X177131101Y-78350367D01*
X177112534Y-78385103D01*
X177087548Y-78415548D01*
X177057103Y-78440534D01*
X177022367Y-78459101D01*
X176984674Y-78470535D01*
X176939339Y-78475000D01*
X176102661Y-78475000D01*
X176057326Y-78470535D01*
X176019633Y-78459101D01*
X175984897Y-78440534D01*
X175954452Y-78415548D01*
X175929466Y-78385103D01*
X175910899Y-78350367D01*
X175899465Y-78312674D01*
X175895000Y-78267339D01*
X175895000Y-77180661D01*
X175899465Y-77135326D01*
X175910899Y-77097633D01*
X175929466Y-77062897D01*
X175954452Y-77032452D01*
X175984897Y-77007466D01*
X176019633Y-76988899D01*
X176057326Y-76977465D01*
X176102661Y-76973000D01*
X176939339Y-76973000D01*
X176984674Y-76977465D01*
G37*
G36*
X169036239Y-71995467D02*
G01*
X169350282Y-72057934D01*
X169941926Y-72303001D01*
X170312931Y-72550899D01*
X170474391Y-72658783D01*
X170927217Y-73111609D01*
X170984585Y-73197466D01*
X171282999Y-73644074D01*
X171528066Y-74235718D01*
X171528066Y-74235719D01*
X171653000Y-74863803D01*
X171653000Y-75504197D01*
X171609819Y-75721282D01*
X171528066Y-76132282D01*
X171282999Y-76723926D01*
X171031046Y-77101000D01*
X170927217Y-77256391D01*
X170474391Y-77709217D01*
X170410207Y-77752103D01*
X169941926Y-78064999D01*
X169350282Y-78310066D01*
X169036239Y-78372533D01*
X168722197Y-78435000D01*
X168081803Y-78435000D01*
X167767761Y-78372533D01*
X167453718Y-78310066D01*
X166862074Y-78064999D01*
X166393793Y-77752103D01*
X166329609Y-77709217D01*
X165876783Y-77256391D01*
X165772954Y-77101000D01*
X165521001Y-76723926D01*
X165275934Y-76132282D01*
X165194181Y-75721282D01*
X165151000Y-75504197D01*
X165151000Y-74863803D01*
X165275934Y-74235719D01*
X165275934Y-74235718D01*
X165521001Y-73644074D01*
X165819415Y-73197466D01*
X165876783Y-73111609D01*
X166329609Y-72658783D01*
X166491069Y-72550899D01*
X166862074Y-72303001D01*
X167453718Y-72057934D01*
X167767761Y-71995467D01*
X168081803Y-71933000D01*
X168722197Y-71933000D01*
X169036239Y-71995467D01*
G37*
G36*
X107314239Y-71995467D02*
G01*
X107628282Y-72057934D01*
X108219926Y-72303001D01*
X108590931Y-72550899D01*
X108752391Y-72658783D01*
X109205217Y-73111609D01*
X109262585Y-73197466D01*
X109560999Y-73644074D01*
X109806066Y-74235718D01*
X109806066Y-74235719D01*
X109931000Y-74863803D01*
X109931000Y-75504197D01*
X109887819Y-75721282D01*
X109806066Y-76132282D01*
X109560999Y-76723926D01*
X109309046Y-77101000D01*
X109205217Y-77256391D01*
X108752391Y-77709217D01*
X108688207Y-77752103D01*
X108219926Y-78064999D01*
X107628282Y-78310066D01*
X107314239Y-78372533D01*
X107000197Y-78435000D01*
X106359803Y-78435000D01*
X106045761Y-78372533D01*
X105731718Y-78310066D01*
X105140074Y-78064999D01*
X104671793Y-77752103D01*
X104607609Y-77709217D01*
X104154783Y-77256391D01*
X104050954Y-77101000D01*
X103799001Y-76723926D01*
X103553934Y-76132282D01*
X103472181Y-75721282D01*
X103429000Y-75504197D01*
X103429000Y-74863803D01*
X103553934Y-74235719D01*
X103553934Y-74235718D01*
X103799001Y-73644074D01*
X104097415Y-73197466D01*
X104154783Y-73111609D01*
X104607609Y-72658783D01*
X104769069Y-72550899D01*
X105140074Y-72303001D01*
X105731718Y-72057934D01*
X106045761Y-71995467D01*
X106359803Y-71933000D01*
X107000197Y-71933000D01*
X107314239Y-71995467D01*
G37*
G36*
X155782674Y-76612465D02*
G01*
X155820367Y-76623899D01*
X155855103Y-76642466D01*
X155885548Y-76667452D01*
X155910534Y-76697897D01*
X155929101Y-76732633D01*
X155940535Y-76770326D01*
X155945000Y-76815661D01*
X155945000Y-77652339D01*
X155940535Y-77697674D01*
X155929101Y-77735367D01*
X155910534Y-77770103D01*
X155885548Y-77800548D01*
X155855103Y-77825534D01*
X155820367Y-77844101D01*
X155782674Y-77855535D01*
X155737339Y-77860000D01*
X154650661Y-77860000D01*
X154605326Y-77855535D01*
X154567633Y-77844101D01*
X154532897Y-77825534D01*
X154502452Y-77800548D01*
X154477466Y-77770103D01*
X154458899Y-77735367D01*
X154447465Y-77697674D01*
X154443000Y-77652339D01*
X154443000Y-76815661D01*
X154447465Y-76770326D01*
X154458899Y-76732633D01*
X154477466Y-76697897D01*
X154502452Y-76667452D01*
X154532897Y-76642466D01*
X154567633Y-76623899D01*
X154605326Y-76612465D01*
X154650661Y-76608000D01*
X155737339Y-76608000D01*
X155782674Y-76612465D01*
G37*
G36*
X157814674Y-76603465D02*
G01*
X157852367Y-76614899D01*
X157887103Y-76633466D01*
X157917548Y-76658452D01*
X157942534Y-76688897D01*
X157961101Y-76723633D01*
X157972535Y-76761326D01*
X157977000Y-76806661D01*
X157977000Y-77643339D01*
X157972535Y-77688674D01*
X157961101Y-77726367D01*
X157942534Y-77761103D01*
X157917548Y-77791548D01*
X157887103Y-77816534D01*
X157852367Y-77835101D01*
X157814674Y-77846535D01*
X157769339Y-77851000D01*
X156682661Y-77851000D01*
X156637326Y-77846535D01*
X156599633Y-77835101D01*
X156564897Y-77816534D01*
X156534452Y-77791548D01*
X156509466Y-77761103D01*
X156490899Y-77726367D01*
X156479465Y-77688674D01*
X156475000Y-77643339D01*
X156475000Y-76806661D01*
X156479465Y-76761326D01*
X156490899Y-76723633D01*
X156509466Y-76688897D01*
X156534452Y-76658452D01*
X156564897Y-76633466D01*
X156599633Y-76614899D01*
X156637326Y-76603465D01*
X156682661Y-76599000D01*
X157769339Y-76599000D01*
X157814674Y-76603465D01*
G37*
G36*
X159846674Y-76603465D02*
G01*
X159884367Y-76614899D01*
X159919103Y-76633466D01*
X159949548Y-76658452D01*
X159974534Y-76688897D01*
X159993101Y-76723633D01*
X160004535Y-76761326D01*
X160009000Y-76806661D01*
X160009000Y-77643339D01*
X160004535Y-77688674D01*
X159993101Y-77726367D01*
X159974534Y-77761103D01*
X159949548Y-77791548D01*
X159919103Y-77816534D01*
X159884367Y-77835101D01*
X159846674Y-77846535D01*
X159801339Y-77851000D01*
X158714661Y-77851000D01*
X158669326Y-77846535D01*
X158631633Y-77835101D01*
X158596897Y-77816534D01*
X158566452Y-77791548D01*
X158541466Y-77761103D01*
X158522899Y-77726367D01*
X158511465Y-77688674D01*
X158507000Y-77643339D01*
X158507000Y-76806661D01*
X158511465Y-76761326D01*
X158522899Y-76723633D01*
X158541466Y-76688897D01*
X158566452Y-76658452D01*
X158596897Y-76633466D01*
X158631633Y-76614899D01*
X158669326Y-76603465D01*
X158714661Y-76599000D01*
X159801339Y-76599000D01*
X159846674Y-76603465D01*
G37*
G36*
X153750674Y-76594465D02*
G01*
X153788367Y-76605899D01*
X153823103Y-76624466D01*
X153853548Y-76649452D01*
X153878534Y-76679897D01*
X153897101Y-76714633D01*
X153908535Y-76752326D01*
X153913000Y-76797661D01*
X153913000Y-77634339D01*
X153908535Y-77679674D01*
X153897101Y-77717367D01*
X153878534Y-77752103D01*
X153853548Y-77782548D01*
X153823103Y-77807534D01*
X153788367Y-77826101D01*
X153750674Y-77837535D01*
X153705339Y-77842000D01*
X152618661Y-77842000D01*
X152573326Y-77837535D01*
X152535633Y-77826101D01*
X152500897Y-77807534D01*
X152470452Y-77782548D01*
X152445466Y-77752103D01*
X152426899Y-77717367D01*
X152415465Y-77679674D01*
X152411000Y-77634339D01*
X152411000Y-76797661D01*
X152415465Y-76752326D01*
X152426899Y-76714633D01*
X152445466Y-76679897D01*
X152470452Y-76649452D01*
X152500897Y-76624466D01*
X152535633Y-76605899D01*
X152573326Y-76594465D01*
X152618661Y-76590000D01*
X153705339Y-76590000D01*
X153750674Y-76594465D01*
G37*
G36*
X188854966Y-75169745D02*
G01*
X189097647Y-75270267D01*
X189097649Y-75270268D01*
X189316057Y-75416203D01*
X189501797Y-75601943D01*
X189647732Y-75820351D01*
X189647733Y-75820353D01*
X189748255Y-76063034D01*
X189799500Y-76320660D01*
X189799500Y-76583340D01*
X189748255Y-76840966D01*
X189691715Y-76977465D01*
X189647732Y-77083649D01*
X189501797Y-77302057D01*
X189316057Y-77487797D01*
X189097649Y-77633732D01*
X189097648Y-77633733D01*
X189097647Y-77633733D01*
X188854966Y-77734255D01*
X188597340Y-77785500D01*
X188334660Y-77785500D01*
X188077034Y-77734255D01*
X187834353Y-77633733D01*
X187834352Y-77633733D01*
X187834351Y-77633732D01*
X187615943Y-77487797D01*
X187430203Y-77302057D01*
X187284268Y-77083649D01*
X187240285Y-76977465D01*
X187183745Y-76840966D01*
X187132500Y-76583340D01*
X187132500Y-76320660D01*
X187183745Y-76063034D01*
X187284267Y-75820353D01*
X187284268Y-75820351D01*
X187430203Y-75601943D01*
X187615943Y-75416203D01*
X187834351Y-75270268D01*
X187834353Y-75270267D01*
X188077034Y-75169745D01*
X188334660Y-75118500D01*
X188597340Y-75118500D01*
X188854966Y-75169745D01*
G37*
G36*
X122821000Y-77609000D02*
G01*
X121019000Y-77609000D01*
X121019000Y-75807000D01*
X122821000Y-75807000D01*
X122821000Y-77609000D01*
G37*
G36*
X134505000Y-77609000D02*
G01*
X132703000Y-77609000D01*
X132703000Y-75807000D01*
X134505000Y-75807000D01*
X134505000Y-77609000D01*
G37*
G36*
X131177512Y-75811927D02*
G01*
X131326812Y-75841624D01*
X131490784Y-75909544D01*
X131638354Y-76008147D01*
X131763853Y-76133646D01*
X131862456Y-76281216D01*
X131930376Y-76445188D01*
X131947393Y-76530742D01*
X131961859Y-76603465D01*
X131965000Y-76619259D01*
X131965000Y-76796741D01*
X131930376Y-76970812D01*
X131862456Y-77134784D01*
X131763853Y-77282354D01*
X131638354Y-77407853D01*
X131490784Y-77506456D01*
X131326812Y-77574376D01*
X131177512Y-77604073D01*
X131152742Y-77609000D01*
X130975258Y-77609000D01*
X130950488Y-77604073D01*
X130801188Y-77574376D01*
X130637216Y-77506456D01*
X130489646Y-77407853D01*
X130364147Y-77282354D01*
X130265544Y-77134784D01*
X130197624Y-76970812D01*
X130163000Y-76796741D01*
X130163000Y-76619259D01*
X130166142Y-76603465D01*
X130180607Y-76530742D01*
X130197624Y-76445188D01*
X130265544Y-76281216D01*
X130364147Y-76133646D01*
X130489646Y-76008147D01*
X130637216Y-75909544D01*
X130801188Y-75841624D01*
X130950488Y-75811927D01*
X130975258Y-75807000D01*
X131152742Y-75807000D01*
X131177512Y-75811927D01*
G37*
G36*
X128637512Y-75811927D02*
G01*
X128786812Y-75841624D01*
X128950784Y-75909544D01*
X129098354Y-76008147D01*
X129223853Y-76133646D01*
X129322456Y-76281216D01*
X129390376Y-76445188D01*
X129407393Y-76530742D01*
X129421859Y-76603465D01*
X129425000Y-76619259D01*
X129425000Y-76796741D01*
X129390376Y-76970812D01*
X129322456Y-77134784D01*
X129223853Y-77282354D01*
X129098354Y-77407853D01*
X128950784Y-77506456D01*
X128786812Y-77574376D01*
X128637512Y-77604073D01*
X128612742Y-77609000D01*
X128435258Y-77609000D01*
X128410488Y-77604073D01*
X128261188Y-77574376D01*
X128097216Y-77506456D01*
X127949646Y-77407853D01*
X127824147Y-77282354D01*
X127725544Y-77134784D01*
X127657624Y-76970812D01*
X127623000Y-76796741D01*
X127623000Y-76619259D01*
X127626142Y-76603465D01*
X127640607Y-76530742D01*
X127657624Y-76445188D01*
X127725544Y-76281216D01*
X127824147Y-76133646D01*
X127949646Y-76008147D01*
X128097216Y-75909544D01*
X128261188Y-75841624D01*
X128410488Y-75811927D01*
X128435258Y-75807000D01*
X128612742Y-75807000D01*
X128637512Y-75811927D01*
G37*
G36*
X119493512Y-75811927D02*
G01*
X119642812Y-75841624D01*
X119806784Y-75909544D01*
X119954354Y-76008147D01*
X120079853Y-76133646D01*
X120178456Y-76281216D01*
X120246376Y-76445188D01*
X120263393Y-76530742D01*
X120277859Y-76603465D01*
X120281000Y-76619259D01*
X120281000Y-76796741D01*
X120246376Y-76970812D01*
X120178456Y-77134784D01*
X120079853Y-77282354D01*
X119954354Y-77407853D01*
X119806784Y-77506456D01*
X119642812Y-77574376D01*
X119493512Y-77604073D01*
X119468742Y-77609000D01*
X119291258Y-77609000D01*
X119266488Y-77604073D01*
X119117188Y-77574376D01*
X118953216Y-77506456D01*
X118805646Y-77407853D01*
X118680147Y-77282354D01*
X118581544Y-77134784D01*
X118513624Y-76970812D01*
X118479000Y-76796741D01*
X118479000Y-76619259D01*
X118482142Y-76603465D01*
X118496607Y-76530742D01*
X118513624Y-76445188D01*
X118581544Y-76281216D01*
X118680147Y-76133646D01*
X118805646Y-76008147D01*
X118953216Y-75909544D01*
X119117188Y-75841624D01*
X119266488Y-75811927D01*
X119291258Y-75807000D01*
X119468742Y-75807000D01*
X119493512Y-75811927D01*
G37*
G36*
X116953512Y-75811927D02*
G01*
X117102812Y-75841624D01*
X117266784Y-75909544D01*
X117414354Y-76008147D01*
X117539853Y-76133646D01*
X117638456Y-76281216D01*
X117706376Y-76445188D01*
X117723393Y-76530742D01*
X117737859Y-76603465D01*
X117741000Y-76619259D01*
X117741000Y-76796741D01*
X117706376Y-76970812D01*
X117638456Y-77134784D01*
X117539853Y-77282354D01*
X117414354Y-77407853D01*
X117266784Y-77506456D01*
X117102812Y-77574376D01*
X116953512Y-77604073D01*
X116928742Y-77609000D01*
X116751258Y-77609000D01*
X116726488Y-77604073D01*
X116577188Y-77574376D01*
X116413216Y-77506456D01*
X116265646Y-77407853D01*
X116140147Y-77282354D01*
X116041544Y-77134784D01*
X115973624Y-76970812D01*
X115939000Y-76796741D01*
X115939000Y-76619259D01*
X115942142Y-76603465D01*
X115956607Y-76530742D01*
X115973624Y-76445188D01*
X116041544Y-76281216D01*
X116140147Y-76133646D01*
X116265646Y-76008147D01*
X116413216Y-75909544D01*
X116577188Y-75841624D01*
X116726488Y-75811927D01*
X116751258Y-75807000D01*
X116928742Y-75807000D01*
X116953512Y-75811927D01*
G37*
G36*
X146925512Y-75303927D02*
G01*
X147074812Y-75333624D01*
X147238784Y-75401544D01*
X147386354Y-75500147D01*
X147511853Y-75625646D01*
X147610456Y-75773216D01*
X147678376Y-75937188D01*
X147713000Y-76111259D01*
X147713000Y-76288741D01*
X147678376Y-76462812D01*
X147610456Y-76626784D01*
X147511853Y-76774354D01*
X147386354Y-76899853D01*
X147238784Y-76998456D01*
X147074812Y-77066376D01*
X146936124Y-77093962D01*
X146900742Y-77101000D01*
X146723258Y-77101000D01*
X146687876Y-77093962D01*
X146549188Y-77066376D01*
X146385216Y-76998456D01*
X146237646Y-76899853D01*
X146112147Y-76774354D01*
X146013544Y-76626784D01*
X145945624Y-76462812D01*
X145911000Y-76288741D01*
X145911000Y-76111259D01*
X145945624Y-75937188D01*
X146013544Y-75773216D01*
X146112147Y-75625646D01*
X146237646Y-75500147D01*
X146385216Y-75401544D01*
X146549188Y-75333624D01*
X146698488Y-75303927D01*
X146723258Y-75299000D01*
X146900742Y-75299000D01*
X146925512Y-75303927D01*
G37*
G36*
X141845512Y-75303927D02*
G01*
X141994812Y-75333624D01*
X142158784Y-75401544D01*
X142306354Y-75500147D01*
X142431853Y-75625646D01*
X142530456Y-75773216D01*
X142598376Y-75937188D01*
X142633000Y-76111259D01*
X142633000Y-76288741D01*
X142598376Y-76462812D01*
X142530456Y-76626784D01*
X142431853Y-76774354D01*
X142306354Y-76899853D01*
X142158784Y-76998456D01*
X141994812Y-77066376D01*
X141856124Y-77093962D01*
X141820742Y-77101000D01*
X141643258Y-77101000D01*
X141607876Y-77093962D01*
X141469188Y-77066376D01*
X141305216Y-76998456D01*
X141157646Y-76899853D01*
X141032147Y-76774354D01*
X140933544Y-76626784D01*
X140865624Y-76462812D01*
X140831000Y-76288741D01*
X140831000Y-76111259D01*
X140865624Y-75937188D01*
X140933544Y-75773216D01*
X141032147Y-75625646D01*
X141157646Y-75500147D01*
X141305216Y-75401544D01*
X141469188Y-75333624D01*
X141618488Y-75303927D01*
X141643258Y-75299000D01*
X141820742Y-75299000D01*
X141845512Y-75303927D01*
G37*
G36*
X140093000Y-77101000D02*
G01*
X138291000Y-77101000D01*
X138291000Y-75299000D01*
X140093000Y-75299000D01*
X140093000Y-77101000D01*
G37*
G36*
X144385512Y-75303927D02*
G01*
X144534812Y-75333624D01*
X144698784Y-75401544D01*
X144846354Y-75500147D01*
X144971853Y-75625646D01*
X145070456Y-75773216D01*
X145138376Y-75937188D01*
X145173000Y-76111259D01*
X145173000Y-76288741D01*
X145138376Y-76462812D01*
X145070456Y-76626784D01*
X144971853Y-76774354D01*
X144846354Y-76899853D01*
X144698784Y-76998456D01*
X144534812Y-77066376D01*
X144396124Y-77093962D01*
X144360742Y-77101000D01*
X144183258Y-77101000D01*
X144147876Y-77093962D01*
X144009188Y-77066376D01*
X143845216Y-76998456D01*
X143697646Y-76899853D01*
X143572147Y-76774354D01*
X143473544Y-76626784D01*
X143405624Y-76462812D01*
X143371000Y-76288741D01*
X143371000Y-76111259D01*
X143405624Y-75937188D01*
X143473544Y-75773216D01*
X143572147Y-75625646D01*
X143697646Y-75500147D01*
X143845216Y-75401544D01*
X144009188Y-75333624D01*
X144158488Y-75303927D01*
X144183258Y-75299000D01*
X144360742Y-75299000D01*
X144385512Y-75303927D01*
G37*
G36*
X176975674Y-74945465D02*
G01*
X177013367Y-74956899D01*
X177048103Y-74975466D01*
X177078548Y-75000452D01*
X177103534Y-75030897D01*
X177122101Y-75065633D01*
X177133535Y-75103326D01*
X177138000Y-75148661D01*
X177138000Y-76235339D01*
X177133535Y-76280674D01*
X177122101Y-76318367D01*
X177103534Y-76353103D01*
X177078548Y-76383548D01*
X177048103Y-76408534D01*
X177013367Y-76427101D01*
X176975674Y-76438535D01*
X176930339Y-76443000D01*
X176093661Y-76443000D01*
X176048326Y-76438535D01*
X176010633Y-76427101D01*
X175975897Y-76408534D01*
X175945452Y-76383548D01*
X175920466Y-76353103D01*
X175901899Y-76318367D01*
X175890465Y-76280674D01*
X175886000Y-76235339D01*
X175886000Y-75148661D01*
X175890465Y-75103326D01*
X175901899Y-75065633D01*
X175920466Y-75030897D01*
X175945452Y-75000452D01*
X175975897Y-74975466D01*
X176010633Y-74956899D01*
X176048326Y-74945465D01*
X176093661Y-74941000D01*
X176930339Y-74941000D01*
X176975674Y-74945465D01*
G37*
G36*
X179025674Y-74945465D02*
G01*
X179063367Y-74956899D01*
X179098103Y-74975466D01*
X179128548Y-75000452D01*
X179153534Y-75030897D01*
X179172101Y-75065633D01*
X179183535Y-75103326D01*
X179188000Y-75148661D01*
X179188000Y-76235339D01*
X179183535Y-76280674D01*
X179172101Y-76318367D01*
X179153534Y-76353103D01*
X179128548Y-76383548D01*
X179098103Y-76408534D01*
X179063367Y-76427101D01*
X179025674Y-76438535D01*
X178980339Y-76443000D01*
X178143661Y-76443000D01*
X178098326Y-76438535D01*
X178060633Y-76427101D01*
X178025897Y-76408534D01*
X177995452Y-76383548D01*
X177970466Y-76353103D01*
X177951899Y-76318367D01*
X177940465Y-76280674D01*
X177936000Y-76235339D01*
X177936000Y-75148661D01*
X177940465Y-75103326D01*
X177951899Y-75065633D01*
X177970466Y-75030897D01*
X177995452Y-75000452D01*
X178025897Y-74975466D01*
X178060633Y-74956899D01*
X178098326Y-74945465D01*
X178143661Y-74941000D01*
X178980339Y-74941000D01*
X179025674Y-74945465D01*
G37*
G36*
X196586899Y-74472832D02*
G01*
X196671520Y-74489664D01*
X196830942Y-74555699D01*
X196974418Y-74651566D01*
X197096434Y-74773582D01*
X197192301Y-74917058D01*
X197252322Y-75061962D01*
X197258336Y-75076481D01*
X197289834Y-75234829D01*
X197292000Y-75245721D01*
X197292000Y-75418279D01*
X197258336Y-75587520D01*
X197192301Y-75746942D01*
X197096434Y-75890418D01*
X196974418Y-76012434D01*
X196830942Y-76108301D01*
X196671520Y-76174336D01*
X196502280Y-76208000D01*
X196329720Y-76208000D01*
X196160480Y-76174336D01*
X196001058Y-76108301D01*
X195857582Y-76012434D01*
X195735566Y-75890418D01*
X195639699Y-75746942D01*
X195573664Y-75587520D01*
X195540000Y-75418279D01*
X195540000Y-75245721D01*
X195542167Y-75234829D01*
X195573664Y-75076481D01*
X195579678Y-75061962D01*
X195639699Y-74917058D01*
X195735566Y-74773582D01*
X195857582Y-74651566D01*
X196001058Y-74555699D01*
X196160480Y-74489664D01*
X196329720Y-74456000D01*
X196502280Y-74456000D01*
X196586899Y-74472832D01*
G37*
G36*
X192016538Y-72771944D02*
G01*
X192273254Y-72878280D01*
X192328831Y-72901301D01*
X192609886Y-73089096D01*
X192848904Y-73328114D01*
X193009141Y-73567925D01*
X193036700Y-73609171D01*
X193166056Y-73921462D01*
X193232000Y-74252987D01*
X193232000Y-74591013D01*
X193166056Y-74922538D01*
X193072392Y-75148661D01*
X193036699Y-75234831D01*
X192848904Y-75515886D01*
X192609886Y-75754904D01*
X192328831Y-75942699D01*
X192328830Y-75942700D01*
X192328829Y-75942700D01*
X192016538Y-76072056D01*
X191685013Y-76138000D01*
X191346987Y-76138000D01*
X191015462Y-76072056D01*
X190703171Y-75942700D01*
X190703170Y-75942700D01*
X190703169Y-75942699D01*
X190422114Y-75754904D01*
X190183096Y-75515886D01*
X189995301Y-75234831D01*
X189959608Y-75148661D01*
X189865944Y-74922538D01*
X189800000Y-74591013D01*
X189800000Y-74252987D01*
X189865944Y-73921462D01*
X189995300Y-73609171D01*
X190022860Y-73567925D01*
X190183096Y-73328114D01*
X190422114Y-73089096D01*
X190703169Y-72901301D01*
X190758746Y-72878280D01*
X191015462Y-72771944D01*
X191346987Y-72706000D01*
X191685013Y-72706000D01*
X192016538Y-72771944D01*
G37*
G36*
X155782674Y-74562465D02*
G01*
X155820367Y-74573899D01*
X155855103Y-74592466D01*
X155885548Y-74617452D01*
X155910534Y-74647897D01*
X155929101Y-74682633D01*
X155940535Y-74720326D01*
X155945000Y-74765661D01*
X155945000Y-75602339D01*
X155940535Y-75647674D01*
X155929101Y-75685367D01*
X155910534Y-75720103D01*
X155885548Y-75750548D01*
X155855103Y-75775534D01*
X155820367Y-75794101D01*
X155782674Y-75805535D01*
X155737339Y-75810000D01*
X154650661Y-75810000D01*
X154605326Y-75805535D01*
X154567633Y-75794101D01*
X154532897Y-75775534D01*
X154502452Y-75750548D01*
X154477466Y-75720103D01*
X154458899Y-75685367D01*
X154447465Y-75647674D01*
X154443000Y-75602339D01*
X154443000Y-74765661D01*
X154447465Y-74720326D01*
X154458899Y-74682633D01*
X154477466Y-74647897D01*
X154502452Y-74617452D01*
X154532897Y-74592466D01*
X154567633Y-74573899D01*
X154605326Y-74562465D01*
X154650661Y-74558000D01*
X155737339Y-74558000D01*
X155782674Y-74562465D01*
G37*
G36*
X159846674Y-74553465D02*
G01*
X159884367Y-74564899D01*
X159919103Y-74583466D01*
X159949548Y-74608452D01*
X159974534Y-74638897D01*
X159993101Y-74673633D01*
X160004535Y-74711326D01*
X160009000Y-74756661D01*
X160009000Y-75593339D01*
X160004535Y-75638674D01*
X159993101Y-75676367D01*
X159974534Y-75711103D01*
X159949548Y-75741548D01*
X159919103Y-75766534D01*
X159884367Y-75785101D01*
X159846674Y-75796535D01*
X159801339Y-75801000D01*
X158714661Y-75801000D01*
X158669326Y-75796535D01*
X158631633Y-75785101D01*
X158596897Y-75766534D01*
X158566452Y-75741548D01*
X158541466Y-75711103D01*
X158522899Y-75676367D01*
X158511465Y-75638674D01*
X158507000Y-75593339D01*
X158507000Y-74756661D01*
X158511465Y-74711326D01*
X158522899Y-74673633D01*
X158541466Y-74638897D01*
X158566452Y-74608452D01*
X158596897Y-74583466D01*
X158631633Y-74564899D01*
X158669326Y-74553465D01*
X158714661Y-74549000D01*
X159801339Y-74549000D01*
X159846674Y-74553465D01*
G37*
G36*
X157814674Y-74553465D02*
G01*
X157852367Y-74564899D01*
X157887103Y-74583466D01*
X157917548Y-74608452D01*
X157942534Y-74638897D01*
X157961101Y-74673633D01*
X157972535Y-74711326D01*
X157977000Y-74756661D01*
X157977000Y-75593339D01*
X157972535Y-75638674D01*
X157961101Y-75676367D01*
X157942534Y-75711103D01*
X157917548Y-75741548D01*
X157887103Y-75766534D01*
X157852367Y-75785101D01*
X157814674Y-75796535D01*
X157769339Y-75801000D01*
X156682661Y-75801000D01*
X156637326Y-75796535D01*
X156599633Y-75785101D01*
X156564897Y-75766534D01*
X156534452Y-75741548D01*
X156509466Y-75711103D01*
X156490899Y-75676367D01*
X156479465Y-75638674D01*
X156475000Y-75593339D01*
X156475000Y-74756661D01*
X156479465Y-74711326D01*
X156490899Y-74673633D01*
X156509466Y-74638897D01*
X156534452Y-74608452D01*
X156564897Y-74583466D01*
X156599633Y-74564899D01*
X156637326Y-74553465D01*
X156682661Y-74549000D01*
X157769339Y-74549000D01*
X157814674Y-74553465D01*
G37*
G36*
X153750674Y-74544465D02*
G01*
X153788367Y-74555899D01*
X153823103Y-74574466D01*
X153853548Y-74599452D01*
X153878534Y-74629897D01*
X153897101Y-74664633D01*
X153908535Y-74702326D01*
X153913000Y-74747661D01*
X153913000Y-75584339D01*
X153908535Y-75629674D01*
X153897101Y-75667367D01*
X153878534Y-75702103D01*
X153853548Y-75732548D01*
X153823103Y-75757534D01*
X153788367Y-75776101D01*
X153750674Y-75787535D01*
X153705339Y-75792000D01*
X152618661Y-75792000D01*
X152573326Y-75787535D01*
X152535633Y-75776101D01*
X152500897Y-75757534D01*
X152470452Y-75732548D01*
X152445466Y-75702103D01*
X152426899Y-75667367D01*
X152415465Y-75629674D01*
X152411000Y-75584339D01*
X152411000Y-74747661D01*
X152415465Y-74702326D01*
X152426899Y-74664633D01*
X152445466Y-74629897D01*
X152470452Y-74599452D01*
X152500897Y-74574466D01*
X152535633Y-74555899D01*
X152573326Y-74544465D01*
X152618661Y-74540000D01*
X153705339Y-74540000D01*
X153750674Y-74544465D01*
G37*
G36*
X131264674Y-73167465D02*
G01*
X131302367Y-73178899D01*
X131337103Y-73197466D01*
X131367548Y-73222452D01*
X131392534Y-73252897D01*
X131411101Y-73287633D01*
X131422535Y-73325326D01*
X131427000Y-73370661D01*
X131427000Y-74457339D01*
X131422535Y-74502674D01*
X131411101Y-74540367D01*
X131392534Y-74575103D01*
X131367548Y-74605548D01*
X131337103Y-74630534D01*
X131302367Y-74649101D01*
X131264674Y-74660535D01*
X131219339Y-74665000D01*
X130382661Y-74665000D01*
X130337326Y-74660535D01*
X130299633Y-74649101D01*
X130264897Y-74630534D01*
X130234452Y-74605548D01*
X130209466Y-74575103D01*
X130190899Y-74540367D01*
X130179465Y-74502674D01*
X130175000Y-74457339D01*
X130175000Y-73370661D01*
X130179465Y-73325326D01*
X130190899Y-73287633D01*
X130209466Y-73252897D01*
X130234452Y-73222452D01*
X130264897Y-73197466D01*
X130299633Y-73178899D01*
X130337326Y-73167465D01*
X130382661Y-73163000D01*
X131219339Y-73163000D01*
X131264674Y-73167465D01*
G37*
G36*
X121376674Y-73167465D02*
G01*
X121414367Y-73178899D01*
X121449103Y-73197466D01*
X121479548Y-73222452D01*
X121504534Y-73252897D01*
X121523101Y-73287633D01*
X121534535Y-73325326D01*
X121539000Y-73370661D01*
X121539000Y-74457339D01*
X121534535Y-74502674D01*
X121523101Y-74540367D01*
X121504534Y-74575103D01*
X121479548Y-74605548D01*
X121449103Y-74630534D01*
X121414367Y-74649101D01*
X121376674Y-74660535D01*
X121331339Y-74665000D01*
X120494661Y-74665000D01*
X120449326Y-74660535D01*
X120411633Y-74649101D01*
X120376897Y-74630534D01*
X120346452Y-74605548D01*
X120321466Y-74575103D01*
X120302899Y-74540367D01*
X120291465Y-74502674D01*
X120287000Y-74457339D01*
X120287000Y-73370661D01*
X120291465Y-73325326D01*
X120302899Y-73287633D01*
X120321466Y-73252897D01*
X120346452Y-73222452D01*
X120376897Y-73197466D01*
X120411633Y-73178899D01*
X120449326Y-73167465D01*
X120494661Y-73163000D01*
X121331339Y-73163000D01*
X121376674Y-73167465D01*
G37*
G36*
X133314674Y-73167465D02*
G01*
X133352367Y-73178899D01*
X133387103Y-73197466D01*
X133417548Y-73222452D01*
X133442534Y-73252897D01*
X133461101Y-73287633D01*
X133472535Y-73325326D01*
X133477000Y-73370661D01*
X133477000Y-74457339D01*
X133472535Y-74502674D01*
X133461101Y-74540367D01*
X133442534Y-74575103D01*
X133417548Y-74605548D01*
X133387103Y-74630534D01*
X133352367Y-74649101D01*
X133314674Y-74660535D01*
X133269339Y-74665000D01*
X132432661Y-74665000D01*
X132387326Y-74660535D01*
X132349633Y-74649101D01*
X132314897Y-74630534D01*
X132284452Y-74605548D01*
X132259466Y-74575103D01*
X132240899Y-74540367D01*
X132229465Y-74502674D01*
X132225000Y-74457339D01*
X132225000Y-73370661D01*
X132229465Y-73325326D01*
X132240899Y-73287633D01*
X132259466Y-73252897D01*
X132284452Y-73222452D01*
X132314897Y-73197466D01*
X132349633Y-73178899D01*
X132387326Y-73167465D01*
X132432661Y-73163000D01*
X133269339Y-73163000D01*
X133314674Y-73167465D01*
G37*
G36*
X119326674Y-73167465D02*
G01*
X119364367Y-73178899D01*
X119399103Y-73197466D01*
X119429548Y-73222452D01*
X119454534Y-73252897D01*
X119473101Y-73287633D01*
X119484535Y-73325326D01*
X119489000Y-73370661D01*
X119489000Y-74457339D01*
X119484535Y-74502674D01*
X119473101Y-74540367D01*
X119454534Y-74575103D01*
X119429548Y-74605548D01*
X119399103Y-74630534D01*
X119364367Y-74649101D01*
X119326674Y-74660535D01*
X119281339Y-74665000D01*
X118444661Y-74665000D01*
X118399326Y-74660535D01*
X118361633Y-74649101D01*
X118326897Y-74630534D01*
X118296452Y-74605548D01*
X118271466Y-74575103D01*
X118252899Y-74540367D01*
X118241465Y-74502674D01*
X118237000Y-74457339D01*
X118237000Y-73370661D01*
X118241465Y-73325326D01*
X118252899Y-73287633D01*
X118271466Y-73252897D01*
X118296452Y-73222452D01*
X118326897Y-73197466D01*
X118361633Y-73178899D01*
X118399326Y-73167465D01*
X118444661Y-73163000D01*
X119281339Y-73163000D01*
X119326674Y-73167465D01*
G37*
G36*
X179034674Y-72659465D02*
G01*
X179072367Y-72670899D01*
X179107103Y-72689466D01*
X179137548Y-72714452D01*
X179162534Y-72744897D01*
X179181101Y-72779633D01*
X179192535Y-72817326D01*
X179197000Y-72862661D01*
X179197000Y-73949339D01*
X179192535Y-73994674D01*
X179181101Y-74032367D01*
X179162534Y-74067103D01*
X179137548Y-74097548D01*
X179107103Y-74122534D01*
X179072367Y-74141101D01*
X179034674Y-74152535D01*
X178989339Y-74157000D01*
X178152661Y-74157000D01*
X178107326Y-74152535D01*
X178069633Y-74141101D01*
X178034897Y-74122534D01*
X178004452Y-74097548D01*
X177979466Y-74067103D01*
X177960899Y-74032367D01*
X177949465Y-73994674D01*
X177945000Y-73949339D01*
X177945000Y-72862661D01*
X177949465Y-72817326D01*
X177960899Y-72779633D01*
X177979466Y-72744897D01*
X178004452Y-72714452D01*
X178034897Y-72689466D01*
X178069633Y-72670899D01*
X178107326Y-72659465D01*
X178152661Y-72655000D01*
X178989339Y-72655000D01*
X179034674Y-72659465D01*
G37*
G36*
X176984674Y-72659465D02*
G01*
X177022367Y-72670899D01*
X177057103Y-72689466D01*
X177087548Y-72714452D01*
X177112534Y-72744897D01*
X177131101Y-72779633D01*
X177142535Y-72817326D01*
X177147000Y-72862661D01*
X177147000Y-73949339D01*
X177142535Y-73994674D01*
X177131101Y-74032367D01*
X177112534Y-74067103D01*
X177087548Y-74097548D01*
X177057103Y-74122534D01*
X177022367Y-74141101D01*
X176984674Y-74152535D01*
X176939339Y-74157000D01*
X176102661Y-74157000D01*
X176057326Y-74152535D01*
X176019633Y-74141101D01*
X175984897Y-74122534D01*
X175954452Y-74097548D01*
X175929466Y-74067103D01*
X175910899Y-74032367D01*
X175899465Y-73994674D01*
X175895000Y-73949339D01*
X175895000Y-72862661D01*
X175899465Y-72817326D01*
X175910899Y-72779633D01*
X175929466Y-72744897D01*
X175954452Y-72714452D01*
X175984897Y-72689466D01*
X176019633Y-72670899D01*
X176057326Y-72659465D01*
X176102661Y-72655000D01*
X176939339Y-72655000D01*
X176984674Y-72659465D01*
G37*
G36*
X185400956Y-72377455D02*
G01*
X185487975Y-72413500D01*
X185547548Y-72438176D01*
X185679473Y-72526325D01*
X185791675Y-72638527D01*
X185879824Y-72770452D01*
X185879824Y-72770453D01*
X185940545Y-72917044D01*
X185971500Y-73072665D01*
X185971500Y-73231335D01*
X185940545Y-73386956D01*
X185905138Y-73472434D01*
X185879824Y-73533548D01*
X185791675Y-73665473D01*
X185679473Y-73777675D01*
X185547548Y-73865824D01*
X185498683Y-73886064D01*
X185400956Y-73926545D01*
X185245335Y-73957500D01*
X185086665Y-73957500D01*
X184931044Y-73926545D01*
X184833317Y-73886064D01*
X184784452Y-73865824D01*
X184652527Y-73777675D01*
X184540325Y-73665473D01*
X184452176Y-73533548D01*
X184426862Y-73472434D01*
X184391455Y-73386956D01*
X184360500Y-73231335D01*
X184360500Y-73072665D01*
X184391455Y-72917044D01*
X184452176Y-72770453D01*
X184452176Y-72770452D01*
X184540325Y-72638527D01*
X184652527Y-72526325D01*
X184784452Y-72438176D01*
X184844025Y-72413500D01*
X184931044Y-72377455D01*
X185086665Y-72346500D01*
X185245335Y-72346500D01*
X185400956Y-72377455D01*
G37*
G36*
X128350674Y-72539465D02*
G01*
X128388367Y-72550899D01*
X128423103Y-72569466D01*
X128453548Y-72594452D01*
X128478534Y-72624897D01*
X128497101Y-72659633D01*
X128508535Y-72697326D01*
X128513000Y-72742661D01*
X128513000Y-73579339D01*
X128508535Y-73624674D01*
X128497101Y-73662367D01*
X128478534Y-73697103D01*
X128453548Y-73727548D01*
X128423103Y-73752534D01*
X128388367Y-73771101D01*
X128350674Y-73782535D01*
X128305339Y-73787000D01*
X127218661Y-73787000D01*
X127173326Y-73782535D01*
X127135633Y-73771101D01*
X127100897Y-73752534D01*
X127070452Y-73727548D01*
X127045466Y-73697103D01*
X127026899Y-73662367D01*
X127015465Y-73624674D01*
X127011000Y-73579339D01*
X127011000Y-72742661D01*
X127015465Y-72697326D01*
X127026899Y-72659633D01*
X127045466Y-72624897D01*
X127070452Y-72594452D01*
X127100897Y-72569466D01*
X127135633Y-72550899D01*
X127173326Y-72539465D01*
X127218661Y-72535000D01*
X128305339Y-72535000D01*
X128350674Y-72539465D01*
G37*
G36*
X124286674Y-72539465D02*
G01*
X124324367Y-72550899D01*
X124359103Y-72569466D01*
X124389548Y-72594452D01*
X124414534Y-72624897D01*
X124433101Y-72659633D01*
X124444535Y-72697326D01*
X124449000Y-72742661D01*
X124449000Y-73579339D01*
X124444535Y-73624674D01*
X124433101Y-73662367D01*
X124414534Y-73697103D01*
X124389548Y-73727548D01*
X124359103Y-73752534D01*
X124324367Y-73771101D01*
X124286674Y-73782535D01*
X124241339Y-73787000D01*
X123154661Y-73787000D01*
X123109326Y-73782535D01*
X123071633Y-73771101D01*
X123036897Y-73752534D01*
X123006452Y-73727548D01*
X122981466Y-73697103D01*
X122962899Y-73662367D01*
X122951465Y-73624674D01*
X122947000Y-73579339D01*
X122947000Y-72742661D01*
X122951465Y-72697326D01*
X122962899Y-72659633D01*
X122981466Y-72624897D01*
X123006452Y-72594452D01*
X123036897Y-72569466D01*
X123071633Y-72550899D01*
X123109326Y-72539465D01*
X123154661Y-72535000D01*
X124241339Y-72535000D01*
X124286674Y-72539465D01*
G37*
G36*
X196586899Y-71932832D02*
G01*
X196671520Y-71949664D01*
X196830942Y-72015699D01*
X196974418Y-72111566D01*
X197096434Y-72233582D01*
X197192301Y-72377058D01*
X197258336Y-72536480D01*
X197266961Y-72579840D01*
X197285074Y-72670899D01*
X197292000Y-72705721D01*
X197292000Y-72878279D01*
X197258336Y-73047520D01*
X197192301Y-73206942D01*
X197096434Y-73350418D01*
X196974418Y-73472434D01*
X196830942Y-73568301D01*
X196671520Y-73634336D01*
X196502280Y-73668000D01*
X196329720Y-73668000D01*
X196160480Y-73634336D01*
X196001058Y-73568301D01*
X195857582Y-73472434D01*
X195735566Y-73350418D01*
X195639699Y-73206942D01*
X195573664Y-73047520D01*
X195540000Y-72878279D01*
X195540000Y-72705721D01*
X195546927Y-72670899D01*
X195565039Y-72579840D01*
X195573664Y-72536480D01*
X195639699Y-72377058D01*
X195735566Y-72233582D01*
X195857582Y-72111566D01*
X196001058Y-72015699D01*
X196160480Y-71949664D01*
X196329720Y-71916000D01*
X196502280Y-71916000D01*
X196586899Y-71932832D01*
G37*
G36*
X103342674Y-71643465D02*
G01*
X103380367Y-71654899D01*
X103415103Y-71673466D01*
X103445548Y-71698452D01*
X103470534Y-71728897D01*
X103489101Y-71763633D01*
X103500535Y-71801326D01*
X103505000Y-71846661D01*
X103505000Y-72933339D01*
X103500535Y-72978674D01*
X103489101Y-73016367D01*
X103470534Y-73051103D01*
X103445548Y-73081548D01*
X103415103Y-73106534D01*
X103380367Y-73125101D01*
X103342674Y-73136535D01*
X103297339Y-73141000D01*
X102460661Y-73141000D01*
X102415326Y-73136535D01*
X102377633Y-73125101D01*
X102342897Y-73106534D01*
X102312452Y-73081548D01*
X102287466Y-73051103D01*
X102268899Y-73016367D01*
X102257465Y-72978674D01*
X102253000Y-72933339D01*
X102253000Y-71846661D01*
X102257465Y-71801326D01*
X102268899Y-71763633D01*
X102287466Y-71728897D01*
X102312452Y-71698452D01*
X102342897Y-71673466D01*
X102377633Y-71654899D01*
X102415326Y-71643465D01*
X102460661Y-71639000D01*
X103297339Y-71639000D01*
X103342674Y-71643465D01*
G37*
G36*
X101292674Y-71643465D02*
G01*
X101330367Y-71654899D01*
X101365103Y-71673466D01*
X101395548Y-71698452D01*
X101420534Y-71728897D01*
X101439101Y-71763633D01*
X101450535Y-71801326D01*
X101455000Y-71846661D01*
X101455000Y-72933339D01*
X101450535Y-72978674D01*
X101439101Y-73016367D01*
X101420534Y-73051103D01*
X101395548Y-73081548D01*
X101365103Y-73106534D01*
X101330367Y-73125101D01*
X101292674Y-73136535D01*
X101247339Y-73141000D01*
X100410661Y-73141000D01*
X100365326Y-73136535D01*
X100327633Y-73125101D01*
X100292897Y-73106534D01*
X100262452Y-73081548D01*
X100237466Y-73051103D01*
X100218899Y-73016367D01*
X100207465Y-72978674D01*
X100203000Y-72933339D01*
X100203000Y-71846661D01*
X100207465Y-71801326D01*
X100218899Y-71763633D01*
X100237466Y-71728897D01*
X100262452Y-71698452D01*
X100292897Y-71673466D01*
X100327633Y-71654899D01*
X100365326Y-71643465D01*
X100410661Y-71639000D01*
X101247339Y-71639000D01*
X101292674Y-71643465D01*
G37*
G36*
X182860956Y-71107455D02*
G01*
X182958683Y-71147936D01*
X183007548Y-71168176D01*
X183139473Y-71256325D01*
X183251675Y-71368527D01*
X183339824Y-71500452D01*
X183351789Y-71529339D01*
X183400545Y-71647044D01*
X183431500Y-71802665D01*
X183431500Y-71961335D01*
X183400545Y-72116956D01*
X183365172Y-72202353D01*
X183339824Y-72263548D01*
X183251675Y-72395473D01*
X183139473Y-72507675D01*
X183007548Y-72595824D01*
X182961934Y-72614718D01*
X182860956Y-72656545D01*
X182705335Y-72687500D01*
X182546665Y-72687500D01*
X182391044Y-72656545D01*
X182290066Y-72614718D01*
X182244452Y-72595824D01*
X182112527Y-72507675D01*
X182000325Y-72395473D01*
X181912176Y-72263548D01*
X181886828Y-72202353D01*
X181851455Y-72116956D01*
X181820500Y-71961335D01*
X181820500Y-71802665D01*
X181851455Y-71647044D01*
X181900211Y-71529339D01*
X181912176Y-71500452D01*
X182000325Y-71368527D01*
X182112527Y-71256325D01*
X182244452Y-71168176D01*
X182293317Y-71147936D01*
X182391044Y-71107455D01*
X182546665Y-71076500D01*
X182705335Y-71076500D01*
X182860956Y-71107455D01*
G37*
G36*
X120782928Y-70539764D02*
G01*
X120804009Y-70546160D01*
X120823445Y-70556548D01*
X120840476Y-70570524D01*
X120854452Y-70587555D01*
X120864840Y-70606991D01*
X120871236Y-70628072D01*
X120874000Y-70656140D01*
X120874000Y-72469860D01*
X120871236Y-72497928D01*
X120864840Y-72519009D01*
X120854452Y-72538445D01*
X120840476Y-72555476D01*
X120823445Y-72569452D01*
X120804009Y-72579840D01*
X120782928Y-72586236D01*
X120754860Y-72589000D01*
X120291140Y-72589000D01*
X120263072Y-72586236D01*
X120241991Y-72579840D01*
X120222555Y-72569452D01*
X120205524Y-72555476D01*
X120191548Y-72538445D01*
X120181160Y-72519009D01*
X120174764Y-72497928D01*
X120172000Y-72469860D01*
X120172000Y-70656140D01*
X120174764Y-70628072D01*
X120181160Y-70606991D01*
X120191548Y-70587555D01*
X120205524Y-70570524D01*
X120222555Y-70556548D01*
X120241991Y-70546160D01*
X120263072Y-70539764D01*
X120291140Y-70537000D01*
X120754860Y-70537000D01*
X120782928Y-70539764D01*
G37*
G36*
X122052928Y-70539764D02*
G01*
X122074009Y-70546160D01*
X122093445Y-70556548D01*
X122110476Y-70570524D01*
X122124452Y-70587555D01*
X122134840Y-70606991D01*
X122141236Y-70628072D01*
X122144000Y-70656140D01*
X122144000Y-72469860D01*
X122141236Y-72497928D01*
X122134840Y-72519009D01*
X122124452Y-72538445D01*
X122110476Y-72555476D01*
X122093445Y-72569452D01*
X122074009Y-72579840D01*
X122052928Y-72586236D01*
X122024860Y-72589000D01*
X121561140Y-72589000D01*
X121533072Y-72586236D01*
X121511991Y-72579840D01*
X121492555Y-72569452D01*
X121475524Y-72555476D01*
X121461548Y-72538445D01*
X121451160Y-72519009D01*
X121444764Y-72497928D01*
X121442000Y-72469860D01*
X121442000Y-70656140D01*
X121444764Y-70628072D01*
X121451160Y-70606991D01*
X121461548Y-70587555D01*
X121475524Y-70570524D01*
X121492555Y-70556548D01*
X121511991Y-70546160D01*
X121533072Y-70539764D01*
X121561140Y-70537000D01*
X122024860Y-70537000D01*
X122052928Y-70539764D01*
G37*
G36*
X119512928Y-70539764D02*
G01*
X119534009Y-70546160D01*
X119553445Y-70556548D01*
X119570476Y-70570524D01*
X119584452Y-70587555D01*
X119594840Y-70606991D01*
X119601236Y-70628072D01*
X119604000Y-70656140D01*
X119604000Y-72469860D01*
X119601236Y-72497928D01*
X119594840Y-72519009D01*
X119584452Y-72538445D01*
X119570476Y-72555476D01*
X119553445Y-72569452D01*
X119534009Y-72579840D01*
X119512928Y-72586236D01*
X119484860Y-72589000D01*
X119021140Y-72589000D01*
X118993072Y-72586236D01*
X118971991Y-72579840D01*
X118952555Y-72569452D01*
X118935524Y-72555476D01*
X118921548Y-72538445D01*
X118911160Y-72519009D01*
X118904764Y-72497928D01*
X118902000Y-72469860D01*
X118902000Y-70656140D01*
X118904764Y-70628072D01*
X118911160Y-70606991D01*
X118921548Y-70587555D01*
X118935524Y-70570524D01*
X118952555Y-70556548D01*
X118971991Y-70546160D01*
X118993072Y-70539764D01*
X119021140Y-70537000D01*
X119484860Y-70537000D01*
X119512928Y-70539764D01*
G37*
G36*
X118242928Y-70539764D02*
G01*
X118264009Y-70546160D01*
X118283445Y-70556548D01*
X118300476Y-70570524D01*
X118314452Y-70587555D01*
X118324840Y-70606991D01*
X118331236Y-70628072D01*
X118334000Y-70656140D01*
X118334000Y-72469860D01*
X118331236Y-72497928D01*
X118324840Y-72519009D01*
X118314452Y-72538445D01*
X118300476Y-72555476D01*
X118283445Y-72569452D01*
X118264009Y-72579840D01*
X118242928Y-72586236D01*
X118214860Y-72589000D01*
X117751140Y-72589000D01*
X117723072Y-72586236D01*
X117701991Y-72579840D01*
X117682555Y-72569452D01*
X117665524Y-72555476D01*
X117651548Y-72538445D01*
X117641160Y-72519009D01*
X117634764Y-72497928D01*
X117632000Y-72469860D01*
X117632000Y-70656140D01*
X117634764Y-70628072D01*
X117641160Y-70606991D01*
X117651548Y-70587555D01*
X117665524Y-70570524D01*
X117682555Y-70556548D01*
X117701991Y-70546160D01*
X117723072Y-70539764D01*
X117751140Y-70537000D01*
X118214860Y-70537000D01*
X118242928Y-70539764D01*
G37*
G36*
X133736928Y-70539764D02*
G01*
X133758009Y-70546160D01*
X133777445Y-70556548D01*
X133794476Y-70570524D01*
X133808452Y-70587555D01*
X133818840Y-70606991D01*
X133825236Y-70628072D01*
X133828000Y-70656140D01*
X133828000Y-72469860D01*
X133825236Y-72497928D01*
X133818840Y-72519009D01*
X133808452Y-72538445D01*
X133794476Y-72555476D01*
X133777445Y-72569452D01*
X133758009Y-72579840D01*
X133736928Y-72586236D01*
X133708860Y-72589000D01*
X133245140Y-72589000D01*
X133217072Y-72586236D01*
X133195991Y-72579840D01*
X133176555Y-72569452D01*
X133159524Y-72555476D01*
X133145548Y-72538445D01*
X133135160Y-72519009D01*
X133128764Y-72497928D01*
X133126000Y-72469860D01*
X133126000Y-70656140D01*
X133128764Y-70628072D01*
X133135160Y-70606991D01*
X133145548Y-70587555D01*
X133159524Y-70570524D01*
X133176555Y-70556548D01*
X133195991Y-70546160D01*
X133217072Y-70539764D01*
X133245140Y-70537000D01*
X133708860Y-70537000D01*
X133736928Y-70539764D01*
G37*
G36*
X132466928Y-70539764D02*
G01*
X132488009Y-70546160D01*
X132507445Y-70556548D01*
X132524476Y-70570524D01*
X132538452Y-70587555D01*
X132548840Y-70606991D01*
X132555236Y-70628072D01*
X132558000Y-70656140D01*
X132558000Y-72469860D01*
X132555236Y-72497928D01*
X132548840Y-72519009D01*
X132538452Y-72538445D01*
X132524476Y-72555476D01*
X132507445Y-72569452D01*
X132488009Y-72579840D01*
X132466928Y-72586236D01*
X132438860Y-72589000D01*
X131975140Y-72589000D01*
X131947072Y-72586236D01*
X131925991Y-72579840D01*
X131906555Y-72569452D01*
X131889524Y-72555476D01*
X131875548Y-72538445D01*
X131865160Y-72519009D01*
X131858764Y-72497928D01*
X131856000Y-72469860D01*
X131856000Y-70656140D01*
X131858764Y-70628072D01*
X131865160Y-70606991D01*
X131875548Y-70587555D01*
X131889524Y-70570524D01*
X131906555Y-70556548D01*
X131925991Y-70546160D01*
X131947072Y-70539764D01*
X131975140Y-70537000D01*
X132438860Y-70537000D01*
X132466928Y-70539764D01*
G37*
G36*
X131196928Y-70539764D02*
G01*
X131218009Y-70546160D01*
X131237445Y-70556548D01*
X131254476Y-70570524D01*
X131268452Y-70587555D01*
X131278840Y-70606991D01*
X131285236Y-70628072D01*
X131288000Y-70656140D01*
X131288000Y-72469860D01*
X131285236Y-72497928D01*
X131278840Y-72519009D01*
X131268452Y-72538445D01*
X131254476Y-72555476D01*
X131237445Y-72569452D01*
X131218009Y-72579840D01*
X131196928Y-72586236D01*
X131168860Y-72589000D01*
X130705140Y-72589000D01*
X130677072Y-72586236D01*
X130655991Y-72579840D01*
X130636555Y-72569452D01*
X130619524Y-72555476D01*
X130605548Y-72538445D01*
X130595160Y-72519009D01*
X130588764Y-72497928D01*
X130586000Y-72469860D01*
X130586000Y-70656140D01*
X130588764Y-70628072D01*
X130595160Y-70606991D01*
X130605548Y-70587555D01*
X130619524Y-70570524D01*
X130636555Y-70556548D01*
X130655991Y-70546160D01*
X130677072Y-70539764D01*
X130705140Y-70537000D01*
X131168860Y-70537000D01*
X131196928Y-70539764D01*
G37*
G36*
X129926928Y-70539764D02*
G01*
X129948009Y-70546160D01*
X129967445Y-70556548D01*
X129984476Y-70570524D01*
X129998452Y-70587555D01*
X130008840Y-70606991D01*
X130015236Y-70628072D01*
X130018000Y-70656140D01*
X130018000Y-72469860D01*
X130015236Y-72497928D01*
X130008840Y-72519009D01*
X129998452Y-72538445D01*
X129984476Y-72555476D01*
X129967445Y-72569452D01*
X129948009Y-72579840D01*
X129926928Y-72586236D01*
X129898860Y-72589000D01*
X129435140Y-72589000D01*
X129407072Y-72586236D01*
X129385991Y-72579840D01*
X129366555Y-72569452D01*
X129349524Y-72555476D01*
X129335548Y-72538445D01*
X129325160Y-72519009D01*
X129318764Y-72497928D01*
X129316000Y-72469860D01*
X129316000Y-70656140D01*
X129318764Y-70628072D01*
X129325160Y-70606991D01*
X129335548Y-70587555D01*
X129349524Y-70570524D01*
X129366555Y-70556548D01*
X129385991Y-70546160D01*
X129407072Y-70539764D01*
X129435140Y-70537000D01*
X129898860Y-70537000D01*
X129926928Y-70539764D01*
G37*
G36*
X137273512Y-70731927D02*
G01*
X137422812Y-70761624D01*
X137586784Y-70829544D01*
X137734354Y-70928147D01*
X137859853Y-71053646D01*
X137958456Y-71201216D01*
X138026376Y-71365188D01*
X138046195Y-71464827D01*
X138061000Y-71539258D01*
X138061000Y-71716742D01*
X138056970Y-71737000D01*
X138026376Y-71890812D01*
X137958456Y-72054784D01*
X137859853Y-72202354D01*
X137734354Y-72327853D01*
X137586784Y-72426456D01*
X137422812Y-72494376D01*
X137273512Y-72524073D01*
X137248742Y-72529000D01*
X137071258Y-72529000D01*
X137046488Y-72524073D01*
X136897188Y-72494376D01*
X136733216Y-72426456D01*
X136585646Y-72327853D01*
X136460147Y-72202354D01*
X136361544Y-72054784D01*
X136293624Y-71890812D01*
X136263030Y-71737000D01*
X136259000Y-71716742D01*
X136259000Y-71539258D01*
X136273805Y-71464827D01*
X136293624Y-71365188D01*
X136361544Y-71201216D01*
X136460147Y-71053646D01*
X136585646Y-70928147D01*
X136733216Y-70829544D01*
X136897188Y-70761624D01*
X137046488Y-70731927D01*
X137071258Y-70727000D01*
X137248742Y-70727000D01*
X137273512Y-70731927D01*
G37*
G36*
X139813512Y-70731927D02*
G01*
X139962812Y-70761624D01*
X140126784Y-70829544D01*
X140274354Y-70928147D01*
X140399853Y-71053646D01*
X140498456Y-71201216D01*
X140566376Y-71365188D01*
X140586195Y-71464827D01*
X140601000Y-71539258D01*
X140601000Y-71716742D01*
X140596970Y-71737000D01*
X140566376Y-71890812D01*
X140498456Y-72054784D01*
X140399853Y-72202354D01*
X140274354Y-72327853D01*
X140126784Y-72426456D01*
X139962812Y-72494376D01*
X139813512Y-72524073D01*
X139788742Y-72529000D01*
X139611258Y-72529000D01*
X139586488Y-72524073D01*
X139437188Y-72494376D01*
X139273216Y-72426456D01*
X139125646Y-72327853D01*
X139000147Y-72202354D01*
X138901544Y-72054784D01*
X138833624Y-71890812D01*
X138803030Y-71737000D01*
X138799000Y-71716742D01*
X138799000Y-71539258D01*
X138813805Y-71464827D01*
X138833624Y-71365188D01*
X138901544Y-71201216D01*
X139000147Y-71053646D01*
X139125646Y-70928147D01*
X139273216Y-70829544D01*
X139437188Y-70761624D01*
X139586488Y-70731927D01*
X139611258Y-70727000D01*
X139788742Y-70727000D01*
X139813512Y-70731927D01*
G37*
G36*
X179034674Y-70627465D02*
G01*
X179072367Y-70638899D01*
X179107103Y-70657466D01*
X179137548Y-70682452D01*
X179162534Y-70712897D01*
X179181101Y-70747633D01*
X179192535Y-70785326D01*
X179197000Y-70830661D01*
X179197000Y-71917339D01*
X179192535Y-71962674D01*
X179181101Y-72000367D01*
X179162534Y-72035103D01*
X179137548Y-72065548D01*
X179107103Y-72090534D01*
X179072367Y-72109101D01*
X179034674Y-72120535D01*
X178989339Y-72125000D01*
X178152661Y-72125000D01*
X178107326Y-72120535D01*
X178069633Y-72109101D01*
X178034897Y-72090534D01*
X178004452Y-72065548D01*
X177979466Y-72035103D01*
X177960899Y-72000367D01*
X177949465Y-71962674D01*
X177945000Y-71917339D01*
X177945000Y-70830661D01*
X177949465Y-70785326D01*
X177960899Y-70747633D01*
X177979466Y-70712897D01*
X178004452Y-70682452D01*
X178034897Y-70657466D01*
X178069633Y-70638899D01*
X178107326Y-70627465D01*
X178152661Y-70623000D01*
X178989339Y-70623000D01*
X179034674Y-70627465D01*
G37*
G36*
X176984674Y-70627465D02*
G01*
X177022367Y-70638899D01*
X177057103Y-70657466D01*
X177087548Y-70682452D01*
X177112534Y-70712897D01*
X177131101Y-70747633D01*
X177142535Y-70785326D01*
X177147000Y-70830661D01*
X177147000Y-71917339D01*
X177142535Y-71962674D01*
X177131101Y-72000367D01*
X177112534Y-72035103D01*
X177087548Y-72065548D01*
X177057103Y-72090534D01*
X177022367Y-72109101D01*
X176984674Y-72120535D01*
X176939339Y-72125000D01*
X176102661Y-72125000D01*
X176057326Y-72120535D01*
X176019633Y-72109101D01*
X175984897Y-72090534D01*
X175954452Y-72065548D01*
X175929466Y-72035103D01*
X175910899Y-72000367D01*
X175899465Y-71962674D01*
X175895000Y-71917339D01*
X175895000Y-70830661D01*
X175899465Y-70785326D01*
X175910899Y-70747633D01*
X175929466Y-70712897D01*
X175954452Y-70682452D01*
X175984897Y-70657466D01*
X176019633Y-70638899D01*
X176057326Y-70627465D01*
X176102661Y-70623000D01*
X176939339Y-70623000D01*
X176984674Y-70627465D01*
G37*
G36*
X124286674Y-70489465D02*
G01*
X124324367Y-70500899D01*
X124359103Y-70519466D01*
X124389548Y-70544452D01*
X124414534Y-70574897D01*
X124433101Y-70609633D01*
X124444535Y-70647326D01*
X124449000Y-70692661D01*
X124449000Y-71529339D01*
X124444535Y-71574674D01*
X124433101Y-71612367D01*
X124414534Y-71647103D01*
X124389548Y-71677548D01*
X124359103Y-71702534D01*
X124324367Y-71721101D01*
X124286674Y-71732535D01*
X124241339Y-71737000D01*
X123154661Y-71737000D01*
X123109326Y-71732535D01*
X123071633Y-71721101D01*
X123036897Y-71702534D01*
X123006452Y-71677548D01*
X122981466Y-71647103D01*
X122962899Y-71612367D01*
X122951465Y-71574674D01*
X122947000Y-71529339D01*
X122947000Y-70692661D01*
X122951465Y-70647326D01*
X122962899Y-70609633D01*
X122981466Y-70574897D01*
X123006452Y-70544452D01*
X123036897Y-70519466D01*
X123071633Y-70500899D01*
X123109326Y-70489465D01*
X123154661Y-70485000D01*
X124241339Y-70485000D01*
X124286674Y-70489465D01*
G37*
G36*
X128350674Y-70489465D02*
G01*
X128388367Y-70500899D01*
X128423103Y-70519466D01*
X128453548Y-70544452D01*
X128478534Y-70574897D01*
X128497101Y-70609633D01*
X128508535Y-70647326D01*
X128513000Y-70692661D01*
X128513000Y-71529339D01*
X128508535Y-71574674D01*
X128497101Y-71612367D01*
X128478534Y-71647103D01*
X128453548Y-71677548D01*
X128423103Y-71702534D01*
X128388367Y-71721101D01*
X128350674Y-71732535D01*
X128305339Y-71737000D01*
X127218661Y-71737000D01*
X127173326Y-71732535D01*
X127135633Y-71721101D01*
X127100897Y-71702534D01*
X127070452Y-71677548D01*
X127045466Y-71647103D01*
X127026899Y-71612367D01*
X127015465Y-71574674D01*
X127011000Y-71529339D01*
X127011000Y-70692661D01*
X127015465Y-70647326D01*
X127026899Y-70609633D01*
X127045466Y-70574897D01*
X127070452Y-70544452D01*
X127100897Y-70519466D01*
X127135633Y-70500899D01*
X127173326Y-70489465D01*
X127218661Y-70485000D01*
X128305339Y-70485000D01*
X128350674Y-70489465D01*
G37*
G36*
X185400956Y-69837455D02*
G01*
X185489001Y-69873925D01*
X185547548Y-69898176D01*
X185679473Y-69986325D01*
X185791675Y-70098527D01*
X185879824Y-70230452D01*
X185879824Y-70230453D01*
X185940545Y-70377044D01*
X185971500Y-70532665D01*
X185971500Y-70691335D01*
X185940545Y-70846956D01*
X185904677Y-70933548D01*
X185879824Y-70993548D01*
X185791675Y-71125473D01*
X185679473Y-71237675D01*
X185547548Y-71325824D01*
X185498683Y-71346064D01*
X185400956Y-71386545D01*
X185245335Y-71417500D01*
X185086665Y-71417500D01*
X184931044Y-71386545D01*
X184833317Y-71346064D01*
X184784452Y-71325824D01*
X184652527Y-71237675D01*
X184540325Y-71125473D01*
X184452176Y-70993548D01*
X184427323Y-70933548D01*
X184391455Y-70846956D01*
X184360500Y-70691335D01*
X184360500Y-70532665D01*
X184391455Y-70377044D01*
X184452176Y-70230453D01*
X184452176Y-70230452D01*
X184540325Y-70098527D01*
X184652527Y-69986325D01*
X184784452Y-69898176D01*
X184842999Y-69873925D01*
X184931044Y-69837455D01*
X185086665Y-69806500D01*
X185245335Y-69806500D01*
X185400956Y-69837455D01*
G37*
G36*
X152734674Y-69745465D02*
G01*
X152772367Y-69756899D01*
X152807103Y-69775466D01*
X152837548Y-69800452D01*
X152862534Y-69830897D01*
X152881101Y-69865633D01*
X152892535Y-69903326D01*
X152897000Y-69948661D01*
X152897000Y-70785339D01*
X152892535Y-70830674D01*
X152881101Y-70868367D01*
X152862534Y-70903103D01*
X152837548Y-70933548D01*
X152807103Y-70958534D01*
X152772367Y-70977101D01*
X152734674Y-70988535D01*
X152689339Y-70993000D01*
X151602661Y-70993000D01*
X151557326Y-70988535D01*
X151519633Y-70977101D01*
X151484897Y-70958534D01*
X151454452Y-70933548D01*
X151429466Y-70903103D01*
X151410899Y-70868367D01*
X151399465Y-70830674D01*
X151395000Y-70785339D01*
X151395000Y-69948661D01*
X151399465Y-69903326D01*
X151410899Y-69865633D01*
X151429466Y-69830897D01*
X151454452Y-69800452D01*
X151484897Y-69775466D01*
X151519633Y-69756899D01*
X151557326Y-69745465D01*
X151602661Y-69741000D01*
X152689339Y-69741000D01*
X152734674Y-69745465D01*
G37*
G36*
X158830674Y-69745465D02*
G01*
X158868367Y-69756899D01*
X158903103Y-69775466D01*
X158933548Y-69800452D01*
X158958534Y-69830897D01*
X158977101Y-69865633D01*
X158988535Y-69903326D01*
X158993000Y-69948661D01*
X158993000Y-70785339D01*
X158988535Y-70830674D01*
X158977101Y-70868367D01*
X158958534Y-70903103D01*
X158933548Y-70933548D01*
X158903103Y-70958534D01*
X158868367Y-70977101D01*
X158830674Y-70988535D01*
X158785339Y-70993000D01*
X157698661Y-70993000D01*
X157653326Y-70988535D01*
X157615633Y-70977101D01*
X157580897Y-70958534D01*
X157550452Y-70933548D01*
X157525466Y-70903103D01*
X157506899Y-70868367D01*
X157495465Y-70830674D01*
X157491000Y-70785339D01*
X157491000Y-69948661D01*
X157495465Y-69903326D01*
X157506899Y-69865633D01*
X157525466Y-69830897D01*
X157550452Y-69800452D01*
X157580897Y-69775466D01*
X157615633Y-69756899D01*
X157653326Y-69745465D01*
X157698661Y-69741000D01*
X158785339Y-69741000D01*
X158830674Y-69745465D01*
G37*
G36*
X160862674Y-69745465D02*
G01*
X160900367Y-69756899D01*
X160935103Y-69775466D01*
X160965548Y-69800452D01*
X160990534Y-69830897D01*
X161009101Y-69865633D01*
X161020535Y-69903326D01*
X161025000Y-69948661D01*
X161025000Y-70785339D01*
X161020535Y-70830674D01*
X161009101Y-70868367D01*
X160990534Y-70903103D01*
X160965548Y-70933548D01*
X160935103Y-70958534D01*
X160900367Y-70977101D01*
X160862674Y-70988535D01*
X160817339Y-70993000D01*
X159730661Y-70993000D01*
X159685326Y-70988535D01*
X159647633Y-70977101D01*
X159612897Y-70958534D01*
X159582452Y-70933548D01*
X159557466Y-70903103D01*
X159538899Y-70868367D01*
X159527465Y-70830674D01*
X159523000Y-70785339D01*
X159523000Y-69948661D01*
X159527465Y-69903326D01*
X159538899Y-69865633D01*
X159557466Y-69830897D01*
X159582452Y-69800452D01*
X159612897Y-69775466D01*
X159647633Y-69756899D01*
X159685326Y-69745465D01*
X159730661Y-69741000D01*
X160817339Y-69741000D01*
X160862674Y-69745465D01*
G37*
G36*
X162894674Y-69736465D02*
G01*
X162932367Y-69747899D01*
X162967103Y-69766466D01*
X162997548Y-69791452D01*
X163022534Y-69821897D01*
X163041101Y-69856633D01*
X163052535Y-69894326D01*
X163057000Y-69939661D01*
X163057000Y-70776339D01*
X163052535Y-70821674D01*
X163041101Y-70859367D01*
X163022534Y-70894103D01*
X162997548Y-70924548D01*
X162967103Y-70949534D01*
X162932367Y-70968101D01*
X162894674Y-70979535D01*
X162849339Y-70984000D01*
X161762661Y-70984000D01*
X161717326Y-70979535D01*
X161679633Y-70968101D01*
X161644897Y-70949534D01*
X161614452Y-70924548D01*
X161589466Y-70894103D01*
X161570899Y-70859367D01*
X161559465Y-70821674D01*
X161555000Y-70776339D01*
X161555000Y-69939661D01*
X161559465Y-69894326D01*
X161570899Y-69856633D01*
X161589466Y-69821897D01*
X161614452Y-69791452D01*
X161644897Y-69766466D01*
X161679633Y-69747899D01*
X161717326Y-69736465D01*
X161762661Y-69732000D01*
X162849339Y-69732000D01*
X162894674Y-69736465D01*
G37*
G36*
X156798674Y-69736465D02*
G01*
X156836367Y-69747899D01*
X156871103Y-69766466D01*
X156901548Y-69791452D01*
X156926534Y-69821897D01*
X156945101Y-69856633D01*
X156956535Y-69894326D01*
X156961000Y-69939661D01*
X156961000Y-70776339D01*
X156956535Y-70821674D01*
X156945101Y-70859367D01*
X156926534Y-70894103D01*
X156901548Y-70924548D01*
X156871103Y-70949534D01*
X156836367Y-70968101D01*
X156798674Y-70979535D01*
X156753339Y-70984000D01*
X155666661Y-70984000D01*
X155621326Y-70979535D01*
X155583633Y-70968101D01*
X155548897Y-70949534D01*
X155518452Y-70924548D01*
X155493466Y-70894103D01*
X155474899Y-70859367D01*
X155463465Y-70821674D01*
X155459000Y-70776339D01*
X155459000Y-69939661D01*
X155463465Y-69894326D01*
X155474899Y-69856633D01*
X155493466Y-69821897D01*
X155518452Y-69791452D01*
X155548897Y-69766466D01*
X155583633Y-69747899D01*
X155621326Y-69736465D01*
X155666661Y-69732000D01*
X156753339Y-69732000D01*
X156798674Y-69736465D01*
G37*
G36*
X154766674Y-69736465D02*
G01*
X154804367Y-69747899D01*
X154839103Y-69766466D01*
X154869548Y-69791452D01*
X154894534Y-69821897D01*
X154913101Y-69856633D01*
X154924535Y-69894326D01*
X154929000Y-69939661D01*
X154929000Y-70776339D01*
X154924535Y-70821674D01*
X154913101Y-70859367D01*
X154894534Y-70894103D01*
X154869548Y-70924548D01*
X154839103Y-70949534D01*
X154804367Y-70968101D01*
X154766674Y-70979535D01*
X154721339Y-70984000D01*
X153634661Y-70984000D01*
X153589326Y-70979535D01*
X153551633Y-70968101D01*
X153516897Y-70949534D01*
X153486452Y-70924548D01*
X153461466Y-70894103D01*
X153442899Y-70859367D01*
X153431465Y-70821674D01*
X153427000Y-70776339D01*
X153427000Y-69939661D01*
X153431465Y-69894326D01*
X153442899Y-69856633D01*
X153461466Y-69821897D01*
X153486452Y-69791452D01*
X153516897Y-69766466D01*
X153551633Y-69747899D01*
X153589326Y-69736465D01*
X153634661Y-69732000D01*
X154721339Y-69732000D01*
X154766674Y-69736465D01*
G37*
G36*
X103527000Y-70523000D02*
G01*
X102425000Y-70523000D01*
X102425000Y-69421000D01*
X103527000Y-69421000D01*
X103527000Y-70523000D01*
G37*
G36*
X97727000Y-70523000D02*
G01*
X96625000Y-70523000D01*
X96625000Y-69421000D01*
X97727000Y-69421000D01*
X97727000Y-70523000D01*
G37*
G36*
X182860956Y-68567455D02*
G01*
X182956181Y-68606899D01*
X183007548Y-68628176D01*
X183139473Y-68716325D01*
X183251675Y-68828527D01*
X183339824Y-68960452D01*
X183339824Y-68960453D01*
X183400545Y-69107044D01*
X183431500Y-69262665D01*
X183431500Y-69421335D01*
X183400545Y-69576956D01*
X183365172Y-69662353D01*
X183339824Y-69723548D01*
X183251675Y-69855473D01*
X183139473Y-69967675D01*
X183007548Y-70055824D01*
X183001005Y-70058534D01*
X182860956Y-70116545D01*
X182705335Y-70147500D01*
X182546665Y-70147500D01*
X182391044Y-70116545D01*
X182250995Y-70058534D01*
X182244452Y-70055824D01*
X182112527Y-69967675D01*
X182000325Y-69855473D01*
X181912176Y-69723548D01*
X181886828Y-69662353D01*
X181851455Y-69576956D01*
X181820500Y-69421335D01*
X181820500Y-69262665D01*
X181851455Y-69107044D01*
X181912176Y-68960453D01*
X181912176Y-68960452D01*
X182000325Y-68828527D01*
X182112527Y-68716325D01*
X182244452Y-68628176D01*
X182295819Y-68606899D01*
X182391044Y-68567455D01*
X182546665Y-68536500D01*
X182705335Y-68536500D01*
X182860956Y-68567455D01*
G37*
G36*
X179043674Y-68595465D02*
G01*
X179081367Y-68606899D01*
X179116103Y-68625466D01*
X179146548Y-68650452D01*
X179171534Y-68680897D01*
X179190101Y-68715633D01*
X179201535Y-68753326D01*
X179206000Y-68798661D01*
X179206000Y-69885339D01*
X179201535Y-69930674D01*
X179190101Y-69968367D01*
X179171534Y-70003103D01*
X179146548Y-70033548D01*
X179116103Y-70058534D01*
X179081367Y-70077101D01*
X179043674Y-70088535D01*
X178998339Y-70093000D01*
X178161661Y-70093000D01*
X178116326Y-70088535D01*
X178078633Y-70077101D01*
X178043897Y-70058534D01*
X178013452Y-70033548D01*
X177988466Y-70003103D01*
X177969899Y-69968367D01*
X177958465Y-69930674D01*
X177954000Y-69885339D01*
X177954000Y-68798661D01*
X177958465Y-68753326D01*
X177969899Y-68715633D01*
X177988466Y-68680897D01*
X178013452Y-68650452D01*
X178043897Y-68625466D01*
X178078633Y-68606899D01*
X178116326Y-68595465D01*
X178161661Y-68591000D01*
X178998339Y-68591000D01*
X179043674Y-68595465D01*
G37*
G36*
X176993674Y-68595465D02*
G01*
X177031367Y-68606899D01*
X177066103Y-68625466D01*
X177096548Y-68650452D01*
X177121534Y-68680897D01*
X177140101Y-68715633D01*
X177151535Y-68753326D01*
X177156000Y-68798661D01*
X177156000Y-69885339D01*
X177151535Y-69930674D01*
X177140101Y-69968367D01*
X177121534Y-70003103D01*
X177096548Y-70033548D01*
X177066103Y-70058534D01*
X177031367Y-70077101D01*
X176993674Y-70088535D01*
X176948339Y-70093000D01*
X176111661Y-70093000D01*
X176066326Y-70088535D01*
X176028633Y-70077101D01*
X175993897Y-70058534D01*
X175963452Y-70033548D01*
X175938466Y-70003103D01*
X175919899Y-69968367D01*
X175908465Y-69930674D01*
X175904000Y-69885339D01*
X175904000Y-68798661D01*
X175908465Y-68753326D01*
X175919899Y-68715633D01*
X175938466Y-68680897D01*
X175963452Y-68650452D01*
X175993897Y-68625466D01*
X176028633Y-68606899D01*
X176066326Y-68595465D01*
X176111661Y-68591000D01*
X176948339Y-68591000D01*
X176993674Y-68595465D01*
G37*
G36*
X137273512Y-68191927D02*
G01*
X137422812Y-68221624D01*
X137586784Y-68289544D01*
X137734354Y-68388147D01*
X137859853Y-68513646D01*
X137958456Y-68661216D01*
X138026376Y-68825188D01*
X138061000Y-68999259D01*
X138061000Y-69176741D01*
X138026376Y-69350812D01*
X137958456Y-69514784D01*
X137859853Y-69662354D01*
X137734354Y-69787853D01*
X137586784Y-69886456D01*
X137422812Y-69954376D01*
X137273512Y-69984073D01*
X137248742Y-69989000D01*
X137071258Y-69989000D01*
X137046488Y-69984073D01*
X136897188Y-69954376D01*
X136733216Y-69886456D01*
X136585646Y-69787853D01*
X136460147Y-69662354D01*
X136361544Y-69514784D01*
X136293624Y-69350812D01*
X136259000Y-69176741D01*
X136259000Y-68999259D01*
X136293624Y-68825188D01*
X136361544Y-68661216D01*
X136460147Y-68513646D01*
X136585646Y-68388147D01*
X136733216Y-68289544D01*
X136897188Y-68221624D01*
X137046488Y-68191927D01*
X137071258Y-68187000D01*
X137248742Y-68187000D01*
X137273512Y-68191927D01*
G37*
G36*
X140601000Y-69989000D02*
G01*
X138799000Y-69989000D01*
X138799000Y-68187000D01*
X140601000Y-68187000D01*
X140601000Y-69989000D01*
G37*
G36*
X110095512Y-67937927D02*
G01*
X110244812Y-67967624D01*
X110408784Y-68035544D01*
X110556354Y-68134147D01*
X110681853Y-68259646D01*
X110780456Y-68407216D01*
X110848376Y-68571188D01*
X110873535Y-68697675D01*
X110883000Y-68745258D01*
X110883000Y-68922742D01*
X110878970Y-68943000D01*
X110848376Y-69096812D01*
X110780456Y-69260784D01*
X110681853Y-69408354D01*
X110556354Y-69533853D01*
X110408784Y-69632456D01*
X110244812Y-69700376D01*
X110095512Y-69730073D01*
X110070742Y-69735000D01*
X109893258Y-69735000D01*
X109868488Y-69730073D01*
X109719188Y-69700376D01*
X109555216Y-69632456D01*
X109407646Y-69533853D01*
X109282147Y-69408354D01*
X109183544Y-69260784D01*
X109115624Y-69096812D01*
X109085030Y-68943000D01*
X109081000Y-68922742D01*
X109081000Y-68745258D01*
X109090465Y-68697675D01*
X109115624Y-68571188D01*
X109183544Y-68407216D01*
X109282147Y-68259646D01*
X109407646Y-68134147D01*
X109555216Y-68035544D01*
X109719188Y-67967624D01*
X109868488Y-67937927D01*
X109893258Y-67933000D01*
X110070742Y-67933000D01*
X110095512Y-67937927D01*
G37*
G36*
X152734674Y-67695465D02*
G01*
X152772367Y-67706899D01*
X152807103Y-67725466D01*
X152837548Y-67750452D01*
X152862534Y-67780897D01*
X152881101Y-67815633D01*
X152892535Y-67853326D01*
X152897000Y-67898661D01*
X152897000Y-68735339D01*
X152892535Y-68780674D01*
X152881101Y-68818367D01*
X152862534Y-68853103D01*
X152837548Y-68883548D01*
X152807103Y-68908534D01*
X152772367Y-68927101D01*
X152734674Y-68938535D01*
X152689339Y-68943000D01*
X151602661Y-68943000D01*
X151557326Y-68938535D01*
X151519633Y-68927101D01*
X151484897Y-68908534D01*
X151454452Y-68883548D01*
X151429466Y-68853103D01*
X151410899Y-68818367D01*
X151399465Y-68780674D01*
X151395000Y-68735339D01*
X151395000Y-67898661D01*
X151399465Y-67853326D01*
X151410899Y-67815633D01*
X151429466Y-67780897D01*
X151454452Y-67750452D01*
X151484897Y-67725466D01*
X151519633Y-67706899D01*
X151557326Y-67695465D01*
X151602661Y-67691000D01*
X152689339Y-67691000D01*
X152734674Y-67695465D01*
G37*
G36*
X158830674Y-67695465D02*
G01*
X158868367Y-67706899D01*
X158903103Y-67725466D01*
X158933548Y-67750452D01*
X158958534Y-67780897D01*
X158977101Y-67815633D01*
X158988535Y-67853326D01*
X158993000Y-67898661D01*
X158993000Y-68735339D01*
X158988535Y-68780674D01*
X158977101Y-68818367D01*
X158958534Y-68853103D01*
X158933548Y-68883548D01*
X158903103Y-68908534D01*
X158868367Y-68927101D01*
X158830674Y-68938535D01*
X158785339Y-68943000D01*
X157698661Y-68943000D01*
X157653326Y-68938535D01*
X157615633Y-68927101D01*
X157580897Y-68908534D01*
X157550452Y-68883548D01*
X157525466Y-68853103D01*
X157506899Y-68818367D01*
X157495465Y-68780674D01*
X157491000Y-68735339D01*
X157491000Y-67898661D01*
X157495465Y-67853326D01*
X157506899Y-67815633D01*
X157525466Y-67780897D01*
X157550452Y-67750452D01*
X157580897Y-67725466D01*
X157615633Y-67706899D01*
X157653326Y-67695465D01*
X157698661Y-67691000D01*
X158785339Y-67691000D01*
X158830674Y-67695465D01*
G37*
G36*
X160862674Y-67695465D02*
G01*
X160900367Y-67706899D01*
X160935103Y-67725466D01*
X160965548Y-67750452D01*
X160990534Y-67780897D01*
X161009101Y-67815633D01*
X161020535Y-67853326D01*
X161025000Y-67898661D01*
X161025000Y-68735339D01*
X161020535Y-68780674D01*
X161009101Y-68818367D01*
X160990534Y-68853103D01*
X160965548Y-68883548D01*
X160935103Y-68908534D01*
X160900367Y-68927101D01*
X160862674Y-68938535D01*
X160817339Y-68943000D01*
X159730661Y-68943000D01*
X159685326Y-68938535D01*
X159647633Y-68927101D01*
X159612897Y-68908534D01*
X159582452Y-68883548D01*
X159557466Y-68853103D01*
X159538899Y-68818367D01*
X159527465Y-68780674D01*
X159523000Y-68735339D01*
X159523000Y-67898661D01*
X159527465Y-67853326D01*
X159538899Y-67815633D01*
X159557466Y-67780897D01*
X159582452Y-67750452D01*
X159612897Y-67725466D01*
X159647633Y-67706899D01*
X159685326Y-67695465D01*
X159730661Y-67691000D01*
X160817339Y-67691000D01*
X160862674Y-67695465D01*
G37*
G36*
X154766674Y-67686465D02*
G01*
X154804367Y-67697899D01*
X154839103Y-67716466D01*
X154869548Y-67741452D01*
X154894534Y-67771897D01*
X154913101Y-67806633D01*
X154924535Y-67844326D01*
X154929000Y-67889661D01*
X154929000Y-68726339D01*
X154924535Y-68771674D01*
X154913101Y-68809367D01*
X154894534Y-68844103D01*
X154869548Y-68874548D01*
X154839103Y-68899534D01*
X154804367Y-68918101D01*
X154766674Y-68929535D01*
X154721339Y-68934000D01*
X153634661Y-68934000D01*
X153589326Y-68929535D01*
X153551633Y-68918101D01*
X153516897Y-68899534D01*
X153486452Y-68874548D01*
X153461466Y-68844103D01*
X153442899Y-68809367D01*
X153431465Y-68771674D01*
X153427000Y-68726339D01*
X153427000Y-67889661D01*
X153431465Y-67844326D01*
X153442899Y-67806633D01*
X153461466Y-67771897D01*
X153486452Y-67741452D01*
X153516897Y-67716466D01*
X153551633Y-67697899D01*
X153589326Y-67686465D01*
X153634661Y-67682000D01*
X154721339Y-67682000D01*
X154766674Y-67686465D01*
G37*
G36*
X162894674Y-67686465D02*
G01*
X162932367Y-67697899D01*
X162967103Y-67716466D01*
X162997548Y-67741452D01*
X163022534Y-67771897D01*
X163041101Y-67806633D01*
X163052535Y-67844326D01*
X163057000Y-67889661D01*
X163057000Y-68726339D01*
X163052535Y-68771674D01*
X163041101Y-68809367D01*
X163022534Y-68844103D01*
X162997548Y-68874548D01*
X162967103Y-68899534D01*
X162932367Y-68918101D01*
X162894674Y-68929535D01*
X162849339Y-68934000D01*
X161762661Y-68934000D01*
X161717326Y-68929535D01*
X161679633Y-68918101D01*
X161644897Y-68899534D01*
X161614452Y-68874548D01*
X161589466Y-68844103D01*
X161570899Y-68809367D01*
X161559465Y-68771674D01*
X161555000Y-68726339D01*
X161555000Y-67889661D01*
X161559465Y-67844326D01*
X161570899Y-67806633D01*
X161589466Y-67771897D01*
X161614452Y-67741452D01*
X161644897Y-67716466D01*
X161679633Y-67697899D01*
X161717326Y-67686465D01*
X161762661Y-67682000D01*
X162849339Y-67682000D01*
X162894674Y-67686465D01*
G37*
G36*
X156798674Y-67686465D02*
G01*
X156836367Y-67697899D01*
X156871103Y-67716466D01*
X156901548Y-67741452D01*
X156926534Y-67771897D01*
X156945101Y-67806633D01*
X156956535Y-67844326D01*
X156961000Y-67889661D01*
X156961000Y-68726339D01*
X156956535Y-68771674D01*
X156945101Y-68809367D01*
X156926534Y-68844103D01*
X156901548Y-68874548D01*
X156871103Y-68899534D01*
X156836367Y-68918101D01*
X156798674Y-68929535D01*
X156753339Y-68934000D01*
X155666661Y-68934000D01*
X155621326Y-68929535D01*
X155583633Y-68918101D01*
X155548897Y-68899534D01*
X155518452Y-68874548D01*
X155493466Y-68844103D01*
X155474899Y-68809367D01*
X155463465Y-68771674D01*
X155459000Y-68726339D01*
X155459000Y-67889661D01*
X155463465Y-67844326D01*
X155474899Y-67806633D01*
X155493466Y-67771897D01*
X155518452Y-67741452D01*
X155548897Y-67716466D01*
X155583633Y-67697899D01*
X155621326Y-67686465D01*
X155666661Y-67682000D01*
X156753339Y-67682000D01*
X156798674Y-67686465D01*
G37*
G36*
X185400956Y-67297455D02*
G01*
X185498683Y-67337936D01*
X185547548Y-67358176D01*
X185679473Y-67446325D01*
X185791675Y-67558527D01*
X185879824Y-67690452D01*
X185899050Y-67736869D01*
X185940545Y-67837044D01*
X185971500Y-67992665D01*
X185971500Y-68151335D01*
X185940545Y-68306956D01*
X185900064Y-68404683D01*
X185879824Y-68453548D01*
X185791675Y-68585473D01*
X185679473Y-68697675D01*
X185547548Y-68785824D01*
X185498683Y-68806064D01*
X185400956Y-68846545D01*
X185245335Y-68877500D01*
X185086665Y-68877500D01*
X184931044Y-68846545D01*
X184833317Y-68806064D01*
X184784452Y-68785824D01*
X184652527Y-68697675D01*
X184540325Y-68585473D01*
X184452176Y-68453548D01*
X184431936Y-68404683D01*
X184391455Y-68306956D01*
X184360500Y-68151335D01*
X184360500Y-67992665D01*
X184391455Y-67837044D01*
X184432950Y-67736869D01*
X184452176Y-67690452D01*
X184540325Y-67558527D01*
X184652527Y-67446325D01*
X184784452Y-67358176D01*
X184833317Y-67337936D01*
X184931044Y-67297455D01*
X185086665Y-67266500D01*
X185245335Y-67266500D01*
X185400956Y-67297455D01*
G37*
G36*
X106252674Y-67459465D02*
G01*
X106290367Y-67470899D01*
X106325103Y-67489466D01*
X106355548Y-67514452D01*
X106380534Y-67544897D01*
X106399101Y-67579633D01*
X106410535Y-67617326D01*
X106415000Y-67662661D01*
X106415000Y-68499339D01*
X106410535Y-68544674D01*
X106399101Y-68582367D01*
X106380534Y-68617103D01*
X106355548Y-68647548D01*
X106325103Y-68672534D01*
X106290367Y-68691101D01*
X106252674Y-68702535D01*
X106207339Y-68707000D01*
X105120661Y-68707000D01*
X105075326Y-68702535D01*
X105037633Y-68691101D01*
X105002897Y-68672534D01*
X104972452Y-68647548D01*
X104947466Y-68617103D01*
X104928899Y-68582367D01*
X104917465Y-68544674D01*
X104913000Y-68499339D01*
X104913000Y-67662661D01*
X104917465Y-67617326D01*
X104928899Y-67579633D01*
X104947466Y-67544897D01*
X104972452Y-67514452D01*
X105002897Y-67489466D01*
X105037633Y-67470899D01*
X105075326Y-67459465D01*
X105120661Y-67455000D01*
X106207339Y-67455000D01*
X106252674Y-67459465D01*
G37*
G36*
X176975674Y-66563465D02*
G01*
X177013367Y-66574899D01*
X177048103Y-66593466D01*
X177078548Y-66618452D01*
X177103534Y-66648897D01*
X177122101Y-66683633D01*
X177133535Y-66721326D01*
X177138000Y-66766661D01*
X177138000Y-67853339D01*
X177133535Y-67898674D01*
X177122101Y-67936367D01*
X177103534Y-67971103D01*
X177078548Y-68001548D01*
X177048103Y-68026534D01*
X177013367Y-68045101D01*
X176975674Y-68056535D01*
X176930339Y-68061000D01*
X176093661Y-68061000D01*
X176048326Y-68056535D01*
X176010633Y-68045101D01*
X175975897Y-68026534D01*
X175945452Y-68001548D01*
X175920466Y-67971103D01*
X175901899Y-67936367D01*
X175890465Y-67898674D01*
X175886000Y-67853339D01*
X175886000Y-66766661D01*
X175890465Y-66721326D01*
X175901899Y-66683633D01*
X175920466Y-66648897D01*
X175945452Y-66618452D01*
X175975897Y-66593466D01*
X176010633Y-66574899D01*
X176048326Y-66563465D01*
X176093661Y-66559000D01*
X176930339Y-66559000D01*
X176975674Y-66563465D01*
G37*
G36*
X179025674Y-66563465D02*
G01*
X179063367Y-66574899D01*
X179098103Y-66593466D01*
X179128548Y-66618452D01*
X179153534Y-66648897D01*
X179172101Y-66683633D01*
X179183535Y-66721326D01*
X179188000Y-66766661D01*
X179188000Y-67853339D01*
X179183535Y-67898674D01*
X179172101Y-67936367D01*
X179153534Y-67971103D01*
X179128548Y-68001548D01*
X179098103Y-68026534D01*
X179063367Y-68045101D01*
X179025674Y-68056535D01*
X178980339Y-68061000D01*
X178143661Y-68061000D01*
X178098326Y-68056535D01*
X178060633Y-68045101D01*
X178025897Y-68026534D01*
X177995452Y-68001548D01*
X177970466Y-67971103D01*
X177951899Y-67936367D01*
X177940465Y-67898674D01*
X177936000Y-67853339D01*
X177936000Y-66766661D01*
X177940465Y-66721326D01*
X177951899Y-66683633D01*
X177970466Y-66648897D01*
X177995452Y-66618452D01*
X178025897Y-66593466D01*
X178060633Y-66574899D01*
X178098326Y-66563465D01*
X178143661Y-66559000D01*
X178980339Y-66559000D01*
X179025674Y-66563465D01*
G37*
G36*
X120782928Y-65589764D02*
G01*
X120804009Y-65596160D01*
X120823445Y-65606548D01*
X120840476Y-65620524D01*
X120854452Y-65637555D01*
X120864840Y-65656991D01*
X120871236Y-65678072D01*
X120874000Y-65706140D01*
X120874000Y-67519860D01*
X120871236Y-67547928D01*
X120864840Y-67569009D01*
X120854452Y-67588445D01*
X120840476Y-67605476D01*
X120823445Y-67619452D01*
X120804009Y-67629840D01*
X120782928Y-67636236D01*
X120754860Y-67639000D01*
X120291140Y-67639000D01*
X120263072Y-67636236D01*
X120241991Y-67629840D01*
X120222555Y-67619452D01*
X120205524Y-67605476D01*
X120191548Y-67588445D01*
X120181160Y-67569009D01*
X120174764Y-67547928D01*
X120172000Y-67519860D01*
X120172000Y-65706140D01*
X120174764Y-65678072D01*
X120181160Y-65656991D01*
X120191548Y-65637555D01*
X120205524Y-65620524D01*
X120222555Y-65606548D01*
X120241991Y-65596160D01*
X120263072Y-65589764D01*
X120291140Y-65587000D01*
X120754860Y-65587000D01*
X120782928Y-65589764D01*
G37*
G36*
X129926928Y-65589764D02*
G01*
X129948009Y-65596160D01*
X129967445Y-65606548D01*
X129984476Y-65620524D01*
X129998452Y-65637555D01*
X130008840Y-65656991D01*
X130015236Y-65678072D01*
X130018000Y-65706140D01*
X130018000Y-67519860D01*
X130015236Y-67547928D01*
X130008840Y-67569009D01*
X129998452Y-67588445D01*
X129984476Y-67605476D01*
X129967445Y-67619452D01*
X129948009Y-67629840D01*
X129926928Y-67636236D01*
X129898860Y-67639000D01*
X129435140Y-67639000D01*
X129407072Y-67636236D01*
X129385991Y-67629840D01*
X129366555Y-67619452D01*
X129349524Y-67605476D01*
X129335548Y-67588445D01*
X129325160Y-67569009D01*
X129318764Y-67547928D01*
X129316000Y-67519860D01*
X129316000Y-65706140D01*
X129318764Y-65678072D01*
X129325160Y-65656991D01*
X129335548Y-65637555D01*
X129349524Y-65620524D01*
X129366555Y-65606548D01*
X129385991Y-65596160D01*
X129407072Y-65589764D01*
X129435140Y-65587000D01*
X129898860Y-65587000D01*
X129926928Y-65589764D01*
G37*
G36*
X133736928Y-65589764D02*
G01*
X133758009Y-65596160D01*
X133777445Y-65606548D01*
X133794476Y-65620524D01*
X133808452Y-65637555D01*
X133818840Y-65656991D01*
X133825236Y-65678072D01*
X133828000Y-65706140D01*
X133828000Y-67519860D01*
X133825236Y-67547928D01*
X133818840Y-67569009D01*
X133808452Y-67588445D01*
X133794476Y-67605476D01*
X133777445Y-67619452D01*
X133758009Y-67629840D01*
X133736928Y-67636236D01*
X133708860Y-67639000D01*
X133245140Y-67639000D01*
X133217072Y-67636236D01*
X133195991Y-67629840D01*
X133176555Y-67619452D01*
X133159524Y-67605476D01*
X133145548Y-67588445D01*
X133135160Y-67569009D01*
X133128764Y-67547928D01*
X133126000Y-67519860D01*
X133126000Y-65706140D01*
X133128764Y-65678072D01*
X133135160Y-65656991D01*
X133145548Y-65637555D01*
X133159524Y-65620524D01*
X133176555Y-65606548D01*
X133195991Y-65596160D01*
X133217072Y-65589764D01*
X133245140Y-65587000D01*
X133708860Y-65587000D01*
X133736928Y-65589764D01*
G37*
G36*
X132466928Y-65589764D02*
G01*
X132488009Y-65596160D01*
X132507445Y-65606548D01*
X132524476Y-65620524D01*
X132538452Y-65637555D01*
X132548840Y-65656991D01*
X132555236Y-65678072D01*
X132558000Y-65706140D01*
X132558000Y-67519860D01*
X132555236Y-67547928D01*
X132548840Y-67569009D01*
X132538452Y-67588445D01*
X132524476Y-67605476D01*
X132507445Y-67619452D01*
X132488009Y-67629840D01*
X132466928Y-67636236D01*
X132438860Y-67639000D01*
X131975140Y-67639000D01*
X131947072Y-67636236D01*
X131925991Y-67629840D01*
X131906555Y-67619452D01*
X131889524Y-67605476D01*
X131875548Y-67588445D01*
X131865160Y-67569009D01*
X131858764Y-67547928D01*
X131856000Y-67519860D01*
X131856000Y-65706140D01*
X131858764Y-65678072D01*
X131865160Y-65656991D01*
X131875548Y-65637555D01*
X131889524Y-65620524D01*
X131906555Y-65606548D01*
X131925991Y-65596160D01*
X131947072Y-65589764D01*
X131975140Y-65587000D01*
X132438860Y-65587000D01*
X132466928Y-65589764D01*
G37*
G36*
X131196928Y-65589764D02*
G01*
X131218009Y-65596160D01*
X131237445Y-65606548D01*
X131254476Y-65620524D01*
X131268452Y-65637555D01*
X131278840Y-65656991D01*
X131285236Y-65678072D01*
X131288000Y-65706140D01*
X131288000Y-67519860D01*
X131285236Y-67547928D01*
X131278840Y-67569009D01*
X131268452Y-67588445D01*
X131254476Y-67605476D01*
X131237445Y-67619452D01*
X131218009Y-67629840D01*
X131196928Y-67636236D01*
X131168860Y-67639000D01*
X130705140Y-67639000D01*
X130677072Y-67636236D01*
X130655991Y-67629840D01*
X130636555Y-67619452D01*
X130619524Y-67605476D01*
X130605548Y-67588445D01*
X130595160Y-67569009D01*
X130588764Y-67547928D01*
X130586000Y-67519860D01*
X130586000Y-65706140D01*
X130588764Y-65678072D01*
X130595160Y-65656991D01*
X130605548Y-65637555D01*
X130619524Y-65620524D01*
X130636555Y-65606548D01*
X130655991Y-65596160D01*
X130677072Y-65589764D01*
X130705140Y-65587000D01*
X131168860Y-65587000D01*
X131196928Y-65589764D01*
G37*
G36*
X122052928Y-65589764D02*
G01*
X122074009Y-65596160D01*
X122093445Y-65606548D01*
X122110476Y-65620524D01*
X122124452Y-65637555D01*
X122134840Y-65656991D01*
X122141236Y-65678072D01*
X122144000Y-65706140D01*
X122144000Y-67519860D01*
X122141236Y-67547928D01*
X122134840Y-67569009D01*
X122124452Y-67588445D01*
X122110476Y-67605476D01*
X122093445Y-67619452D01*
X122074009Y-67629840D01*
X122052928Y-67636236D01*
X122024860Y-67639000D01*
X121561140Y-67639000D01*
X121533072Y-67636236D01*
X121511991Y-67629840D01*
X121492555Y-67619452D01*
X121475524Y-67605476D01*
X121461548Y-67588445D01*
X121451160Y-67569009D01*
X121444764Y-67547928D01*
X121442000Y-67519860D01*
X121442000Y-65706140D01*
X121444764Y-65678072D01*
X121451160Y-65656991D01*
X121461548Y-65637555D01*
X121475524Y-65620524D01*
X121492555Y-65606548D01*
X121511991Y-65596160D01*
X121533072Y-65589764D01*
X121561140Y-65587000D01*
X122024860Y-65587000D01*
X122052928Y-65589764D01*
G37*
G36*
X119512928Y-65589764D02*
G01*
X119534009Y-65596160D01*
X119553445Y-65606548D01*
X119570476Y-65620524D01*
X119584452Y-65637555D01*
X119594840Y-65656991D01*
X119601236Y-65678072D01*
X119604000Y-65706140D01*
X119604000Y-67519860D01*
X119601236Y-67547928D01*
X119594840Y-67569009D01*
X119584452Y-67588445D01*
X119570476Y-67605476D01*
X119553445Y-67619452D01*
X119534009Y-67629840D01*
X119512928Y-67636236D01*
X119484860Y-67639000D01*
X119021140Y-67639000D01*
X118993072Y-67636236D01*
X118971991Y-67629840D01*
X118952555Y-67619452D01*
X118935524Y-67605476D01*
X118921548Y-67588445D01*
X118911160Y-67569009D01*
X118904764Y-67547928D01*
X118902000Y-67519860D01*
X118902000Y-65706140D01*
X118904764Y-65678072D01*
X118911160Y-65656991D01*
X118921548Y-65637555D01*
X118935524Y-65620524D01*
X118952555Y-65606548D01*
X118971991Y-65596160D01*
X118993072Y-65589764D01*
X119021140Y-65587000D01*
X119484860Y-65587000D01*
X119512928Y-65589764D01*
G37*
G36*
X118242928Y-65589764D02*
G01*
X118264009Y-65596160D01*
X118283445Y-65606548D01*
X118300476Y-65620524D01*
X118314452Y-65637555D01*
X118324840Y-65656991D01*
X118331236Y-65678072D01*
X118334000Y-65706140D01*
X118334000Y-67519860D01*
X118331236Y-67547928D01*
X118324840Y-67569009D01*
X118314452Y-67588445D01*
X118300476Y-67605476D01*
X118283445Y-67619452D01*
X118264009Y-67629840D01*
X118242928Y-67636236D01*
X118214860Y-67639000D01*
X117751140Y-67639000D01*
X117723072Y-67636236D01*
X117701991Y-67629840D01*
X117682555Y-67619452D01*
X117665524Y-67605476D01*
X117651548Y-67588445D01*
X117641160Y-67569009D01*
X117634764Y-67547928D01*
X117632000Y-67519860D01*
X117632000Y-65706140D01*
X117634764Y-65678072D01*
X117641160Y-65656991D01*
X117651548Y-65637555D01*
X117665524Y-65620524D01*
X117682555Y-65606548D01*
X117701991Y-65596160D01*
X117723072Y-65589764D01*
X117751140Y-65587000D01*
X118214860Y-65587000D01*
X118242928Y-65589764D01*
G37*
G36*
X182860956Y-66027455D02*
G01*
X182958683Y-66067936D01*
X183007548Y-66088176D01*
X183139473Y-66176325D01*
X183251675Y-66288527D01*
X183339824Y-66420452D01*
X183351789Y-66449339D01*
X183400545Y-66567044D01*
X183431500Y-66722665D01*
X183431500Y-66881335D01*
X183400545Y-67036956D01*
X183360064Y-67134683D01*
X183339824Y-67183548D01*
X183251675Y-67315473D01*
X183139473Y-67427675D01*
X183007548Y-67515824D01*
X182971728Y-67530661D01*
X182860956Y-67576545D01*
X182705335Y-67607500D01*
X182546665Y-67607500D01*
X182391044Y-67576545D01*
X182280272Y-67530661D01*
X182244452Y-67515824D01*
X182112527Y-67427675D01*
X182000325Y-67315473D01*
X181912176Y-67183548D01*
X181891936Y-67134683D01*
X181851455Y-67036956D01*
X181820500Y-66881335D01*
X181820500Y-66722665D01*
X181851455Y-66567044D01*
X181900211Y-66449339D01*
X181912176Y-66420452D01*
X182000325Y-66288527D01*
X182112527Y-66176325D01*
X182244452Y-66088176D01*
X182293317Y-66067936D01*
X182391044Y-66027455D01*
X182546665Y-65996500D01*
X182705335Y-65996500D01*
X182860956Y-66027455D01*
G37*
G36*
X110095512Y-65397927D02*
G01*
X110244812Y-65427624D01*
X110408784Y-65495544D01*
X110556354Y-65594147D01*
X110681853Y-65719646D01*
X110780456Y-65867216D01*
X110848376Y-66031188D01*
X110883000Y-66205259D01*
X110883000Y-66382741D01*
X110848376Y-66556812D01*
X110780456Y-66720784D01*
X110681853Y-66868354D01*
X110556354Y-66993853D01*
X110408784Y-67092456D01*
X110244812Y-67160376D01*
X110095512Y-67190073D01*
X110070742Y-67195000D01*
X109893258Y-67195000D01*
X109868488Y-67190073D01*
X109719188Y-67160376D01*
X109555216Y-67092456D01*
X109407646Y-66993853D01*
X109282147Y-66868354D01*
X109183544Y-66720784D01*
X109115624Y-66556812D01*
X109081000Y-66382741D01*
X109081000Y-66205259D01*
X109115624Y-66031188D01*
X109183544Y-65867216D01*
X109282147Y-65719646D01*
X109407646Y-65594147D01*
X109555216Y-65495544D01*
X109719188Y-65427624D01*
X109868488Y-65397927D01*
X109893258Y-65393000D01*
X110070742Y-65393000D01*
X110095512Y-65397927D01*
G37*
G36*
X97727000Y-66723000D02*
G01*
X96625000Y-66723000D01*
X96625000Y-65621000D01*
X97727000Y-65621000D01*
X97727000Y-66723000D01*
G37*
G36*
X103527000Y-66723000D02*
G01*
X102425000Y-66723000D01*
X102425000Y-65621000D01*
X103527000Y-65621000D01*
X103527000Y-66723000D01*
G37*
G36*
X106252674Y-65409465D02*
G01*
X106290367Y-65420899D01*
X106325103Y-65439466D01*
X106355548Y-65464452D01*
X106380534Y-65494897D01*
X106399101Y-65529633D01*
X106410535Y-65567326D01*
X106415000Y-65612661D01*
X106415000Y-66449339D01*
X106410535Y-66494674D01*
X106399101Y-66532367D01*
X106380534Y-66567103D01*
X106355548Y-66597548D01*
X106325103Y-66622534D01*
X106290367Y-66641101D01*
X106252674Y-66652535D01*
X106207339Y-66657000D01*
X105120661Y-66657000D01*
X105075326Y-66652535D01*
X105037633Y-66641101D01*
X105002897Y-66622534D01*
X104972452Y-66597548D01*
X104947466Y-66567103D01*
X104928899Y-66532367D01*
X104917465Y-66494674D01*
X104913000Y-66449339D01*
X104913000Y-65612661D01*
X104917465Y-65567326D01*
X104928899Y-65529633D01*
X104947466Y-65494897D01*
X104972452Y-65464452D01*
X105002897Y-65439466D01*
X105037633Y-65420899D01*
X105075326Y-65409465D01*
X105120661Y-65405000D01*
X106207339Y-65405000D01*
X106252674Y-65409465D01*
G37*
G36*
X185400956Y-64757455D02*
G01*
X185498683Y-64797936D01*
X185547548Y-64818176D01*
X185679473Y-64906325D01*
X185791675Y-65018527D01*
X185879824Y-65150452D01*
X185879824Y-65150453D01*
X185940545Y-65297044D01*
X185971500Y-65452665D01*
X185971500Y-65611335D01*
X185940545Y-65766956D01*
X185900064Y-65864683D01*
X185879824Y-65913548D01*
X185791675Y-66045473D01*
X185679473Y-66157675D01*
X185547548Y-66245824D01*
X185498683Y-66266064D01*
X185400956Y-66306545D01*
X185245335Y-66337500D01*
X185086665Y-66337500D01*
X184931044Y-66306545D01*
X184833317Y-66266064D01*
X184784452Y-66245824D01*
X184652527Y-66157675D01*
X184540325Y-66045473D01*
X184452176Y-65913548D01*
X184431936Y-65864683D01*
X184391455Y-65766956D01*
X184360500Y-65611335D01*
X184360500Y-65452665D01*
X184391455Y-65297044D01*
X184452176Y-65150453D01*
X184452176Y-65150452D01*
X184540325Y-65018527D01*
X184652527Y-64906325D01*
X184784452Y-64818176D01*
X184833317Y-64797936D01*
X184931044Y-64757455D01*
X185086665Y-64726500D01*
X185245335Y-64726500D01*
X185400956Y-64757455D01*
G37*
G36*
X179025674Y-64277465D02*
G01*
X179063367Y-64288899D01*
X179098103Y-64307466D01*
X179128548Y-64332452D01*
X179153534Y-64362897D01*
X179172101Y-64397633D01*
X179183535Y-64435326D01*
X179188000Y-64480661D01*
X179188000Y-65567339D01*
X179183535Y-65612674D01*
X179172101Y-65650367D01*
X179153534Y-65685103D01*
X179128548Y-65715548D01*
X179098103Y-65740534D01*
X179063367Y-65759101D01*
X179025674Y-65770535D01*
X178980339Y-65775000D01*
X178143661Y-65775000D01*
X178098326Y-65770535D01*
X178060633Y-65759101D01*
X178025897Y-65740534D01*
X177995452Y-65715548D01*
X177970466Y-65685103D01*
X177951899Y-65650367D01*
X177940465Y-65612674D01*
X177936000Y-65567339D01*
X177936000Y-64480661D01*
X177940465Y-64435326D01*
X177951899Y-64397633D01*
X177970466Y-64362897D01*
X177995452Y-64332452D01*
X178025897Y-64307466D01*
X178060633Y-64288899D01*
X178098326Y-64277465D01*
X178143661Y-64273000D01*
X178980339Y-64273000D01*
X179025674Y-64277465D01*
G37*
G36*
X176975674Y-64277465D02*
G01*
X177013367Y-64288899D01*
X177048103Y-64307466D01*
X177078548Y-64332452D01*
X177103534Y-64362897D01*
X177122101Y-64397633D01*
X177133535Y-64435326D01*
X177138000Y-64480661D01*
X177138000Y-65567339D01*
X177133535Y-65612674D01*
X177122101Y-65650367D01*
X177103534Y-65685103D01*
X177078548Y-65715548D01*
X177048103Y-65740534D01*
X177013367Y-65759101D01*
X176975674Y-65770535D01*
X176930339Y-65775000D01*
X176093661Y-65775000D01*
X176048326Y-65770535D01*
X176010633Y-65759101D01*
X175975897Y-65740534D01*
X175945452Y-65715548D01*
X175920466Y-65685103D01*
X175901899Y-65650367D01*
X175890465Y-65612674D01*
X175886000Y-65567339D01*
X175886000Y-64480661D01*
X175890465Y-64435326D01*
X175901899Y-64397633D01*
X175920466Y-64362897D01*
X175945452Y-64332452D01*
X175975897Y-64307466D01*
X176010633Y-64288899D01*
X176048326Y-64277465D01*
X176093661Y-64273000D01*
X176930339Y-64273000D01*
X176975674Y-64277465D01*
G37*
G36*
X172675674Y-64023465D02*
G01*
X172713367Y-64034899D01*
X172748103Y-64053466D01*
X172778548Y-64078452D01*
X172803534Y-64108897D01*
X172822101Y-64143633D01*
X172833535Y-64181326D01*
X172838000Y-64226661D01*
X172838000Y-65313339D01*
X172833535Y-65358674D01*
X172822101Y-65396367D01*
X172803534Y-65431103D01*
X172778548Y-65461548D01*
X172748103Y-65486534D01*
X172713367Y-65505101D01*
X172675674Y-65516535D01*
X172630339Y-65521000D01*
X171793661Y-65521000D01*
X171748326Y-65516535D01*
X171710633Y-65505101D01*
X171675897Y-65486534D01*
X171645452Y-65461548D01*
X171620466Y-65431103D01*
X171601899Y-65396367D01*
X171590465Y-65358674D01*
X171586000Y-65313339D01*
X171586000Y-64226661D01*
X171590465Y-64181326D01*
X171601899Y-64143633D01*
X171620466Y-64108897D01*
X171645452Y-64078452D01*
X171675897Y-64053466D01*
X171710633Y-64034899D01*
X171748326Y-64023465D01*
X171793661Y-64019000D01*
X172630339Y-64019000D01*
X172675674Y-64023465D01*
G37*
G36*
X170625674Y-64023465D02*
G01*
X170663367Y-64034899D01*
X170698103Y-64053466D01*
X170728548Y-64078452D01*
X170753534Y-64108897D01*
X170772101Y-64143633D01*
X170783535Y-64181326D01*
X170788000Y-64226661D01*
X170788000Y-65313339D01*
X170783535Y-65358674D01*
X170772101Y-65396367D01*
X170753534Y-65431103D01*
X170728548Y-65461548D01*
X170698103Y-65486534D01*
X170663367Y-65505101D01*
X170625674Y-65516535D01*
X170580339Y-65521000D01*
X169743661Y-65521000D01*
X169698326Y-65516535D01*
X169660633Y-65505101D01*
X169625897Y-65486534D01*
X169595452Y-65461548D01*
X169570466Y-65431103D01*
X169551899Y-65396367D01*
X169540465Y-65358674D01*
X169536000Y-65313339D01*
X169536000Y-64226661D01*
X169540465Y-64181326D01*
X169551899Y-64143633D01*
X169570466Y-64108897D01*
X169595452Y-64078452D01*
X169625897Y-64053466D01*
X169660633Y-64034899D01*
X169698326Y-64023465D01*
X169743661Y-64019000D01*
X170580339Y-64019000D01*
X170625674Y-64023465D01*
G37*
G36*
X196586899Y-63762832D02*
G01*
X196671520Y-63779664D01*
X196830942Y-63845699D01*
X196974418Y-63941566D01*
X197096434Y-64063582D01*
X197192301Y-64207058D01*
X197258336Y-64366480D01*
X197258336Y-64366481D01*
X197292000Y-64535720D01*
X197292000Y-64708280D01*
X197282951Y-64753770D01*
X197258336Y-64877520D01*
X197192301Y-65036942D01*
X197096434Y-65180418D01*
X196974418Y-65302434D01*
X196830942Y-65398301D01*
X196671520Y-65464336D01*
X196502280Y-65498000D01*
X196329720Y-65498000D01*
X196160480Y-65464336D01*
X196001058Y-65398301D01*
X195857582Y-65302434D01*
X195735566Y-65180418D01*
X195639699Y-65036942D01*
X195573664Y-64877520D01*
X195549049Y-64753770D01*
X195540000Y-64708280D01*
X195540000Y-64535720D01*
X195573664Y-64366481D01*
X195573664Y-64366480D01*
X195639699Y-64207058D01*
X195735566Y-64063582D01*
X195857582Y-63941566D01*
X196001058Y-63845699D01*
X196160480Y-63779664D01*
X196245101Y-63762832D01*
X196329720Y-63746000D01*
X196502280Y-63746000D01*
X196586899Y-63762832D01*
G37*
G36*
X182860956Y-63487455D02*
G01*
X182949001Y-63523925D01*
X183007548Y-63548176D01*
X183139473Y-63636325D01*
X183251675Y-63748527D01*
X183339824Y-63880452D01*
X183339824Y-63880453D01*
X183400545Y-64027044D01*
X183431500Y-64182665D01*
X183431500Y-64341335D01*
X183400545Y-64496956D01*
X183361597Y-64590983D01*
X183339824Y-64643548D01*
X183251675Y-64775473D01*
X183139473Y-64887675D01*
X183007548Y-64975824D01*
X182958683Y-64996064D01*
X182860956Y-65036545D01*
X182705335Y-65067500D01*
X182546665Y-65067500D01*
X182391044Y-65036545D01*
X182293317Y-64996064D01*
X182244452Y-64975824D01*
X182112527Y-64887675D01*
X182000325Y-64775473D01*
X181912176Y-64643548D01*
X181890403Y-64590983D01*
X181851455Y-64496956D01*
X181820500Y-64341335D01*
X181820500Y-64182665D01*
X181851455Y-64027044D01*
X181912176Y-63880453D01*
X181912176Y-63880452D01*
X182000325Y-63748527D01*
X182112527Y-63636325D01*
X182244452Y-63548176D01*
X182302999Y-63523925D01*
X182391044Y-63487455D01*
X182546665Y-63456500D01*
X182705335Y-63456500D01*
X182860956Y-63487455D01*
G37*
G36*
X155149674Y-63261465D02*
G01*
X155187367Y-63272899D01*
X155222103Y-63291466D01*
X155252548Y-63316452D01*
X155277534Y-63346897D01*
X155296101Y-63381633D01*
X155307535Y-63419326D01*
X155312000Y-63464661D01*
X155312000Y-64551339D01*
X155307535Y-64596674D01*
X155296101Y-64634367D01*
X155277534Y-64669103D01*
X155252548Y-64699548D01*
X155222103Y-64724534D01*
X155187367Y-64743101D01*
X155149674Y-64754535D01*
X155104339Y-64759000D01*
X154267661Y-64759000D01*
X154222326Y-64754535D01*
X154184633Y-64743101D01*
X154149897Y-64724534D01*
X154119452Y-64699548D01*
X154094466Y-64669103D01*
X154075899Y-64634367D01*
X154064465Y-64596674D01*
X154060000Y-64551339D01*
X154060000Y-63464661D01*
X154064465Y-63419326D01*
X154075899Y-63381633D01*
X154094466Y-63346897D01*
X154119452Y-63316452D01*
X154149897Y-63291466D01*
X154184633Y-63272899D01*
X154222326Y-63261465D01*
X154267661Y-63257000D01*
X155104339Y-63257000D01*
X155149674Y-63261465D01*
G37*
G36*
X153099674Y-63261465D02*
G01*
X153137367Y-63272899D01*
X153172103Y-63291466D01*
X153202548Y-63316452D01*
X153227534Y-63346897D01*
X153246101Y-63381633D01*
X153257535Y-63419326D01*
X153262000Y-63464661D01*
X153262000Y-64551339D01*
X153257535Y-64596674D01*
X153246101Y-64634367D01*
X153227534Y-64669103D01*
X153202548Y-64699548D01*
X153172103Y-64724534D01*
X153137367Y-64743101D01*
X153099674Y-64754535D01*
X153054339Y-64759000D01*
X152217661Y-64759000D01*
X152172326Y-64754535D01*
X152134633Y-64743101D01*
X152099897Y-64724534D01*
X152069452Y-64699548D01*
X152044466Y-64669103D01*
X152025899Y-64634367D01*
X152014465Y-64596674D01*
X152010000Y-64551339D01*
X152010000Y-63464661D01*
X152014465Y-63419326D01*
X152025899Y-63381633D01*
X152044466Y-63346897D01*
X152069452Y-63316452D01*
X152099897Y-63291466D01*
X152134633Y-63272899D01*
X152172326Y-63261465D01*
X152217661Y-63257000D01*
X153054339Y-63257000D01*
X153099674Y-63261465D01*
G37*
G36*
X192016538Y-61341944D02*
G01*
X192328829Y-61471300D01*
X192328831Y-61471301D01*
X192609886Y-61659096D01*
X192848904Y-61898114D01*
X193029423Y-62168279D01*
X193036700Y-62179171D01*
X193166056Y-62491462D01*
X193232000Y-62822987D01*
X193232000Y-63161013D01*
X193166056Y-63492538D01*
X193061068Y-63746000D01*
X193036699Y-63804831D01*
X192848904Y-64085886D01*
X192609886Y-64324904D01*
X192328831Y-64512699D01*
X192328830Y-64512700D01*
X192328829Y-64512700D01*
X192016538Y-64642056D01*
X191685013Y-64708000D01*
X191346987Y-64708000D01*
X191015462Y-64642056D01*
X190703171Y-64512700D01*
X190703170Y-64512700D01*
X190703169Y-64512699D01*
X190422114Y-64324904D01*
X190183096Y-64085886D01*
X189995301Y-63804831D01*
X189970932Y-63746000D01*
X189865944Y-63492538D01*
X189800000Y-63161013D01*
X189800000Y-62822987D01*
X189865944Y-62491462D01*
X189995300Y-62179171D01*
X190002578Y-62168279D01*
X190183096Y-61898114D01*
X190422114Y-61659096D01*
X190703169Y-61471301D01*
X190703171Y-61471300D01*
X191015462Y-61341944D01*
X191346987Y-61276000D01*
X191685013Y-61276000D01*
X192016538Y-61341944D01*
G37*
G36*
X110095512Y-62857927D02*
G01*
X110244812Y-62887624D01*
X110408784Y-62955544D01*
X110556354Y-63054147D01*
X110681853Y-63179646D01*
X110780456Y-63327216D01*
X110848376Y-63491188D01*
X110883000Y-63665259D01*
X110883000Y-63842741D01*
X110848376Y-64016812D01*
X110780456Y-64180784D01*
X110681853Y-64328354D01*
X110556354Y-64453853D01*
X110408784Y-64552456D01*
X110244812Y-64620376D01*
X110095512Y-64650073D01*
X110070742Y-64655000D01*
X109893258Y-64655000D01*
X109868488Y-64650073D01*
X109719188Y-64620376D01*
X109555216Y-64552456D01*
X109407646Y-64453853D01*
X109282147Y-64328354D01*
X109183544Y-64180784D01*
X109115624Y-64016812D01*
X109081000Y-63842741D01*
X109081000Y-63665259D01*
X109115624Y-63491188D01*
X109183544Y-63327216D01*
X109282147Y-63179646D01*
X109407646Y-63054147D01*
X109555216Y-62955544D01*
X109719188Y-62887624D01*
X109868488Y-62857927D01*
X109893258Y-62853000D01*
X110070742Y-62853000D01*
X110095512Y-62857927D01*
G37*
G36*
X103568000Y-64108000D02*
G01*
X102466000Y-64108000D01*
X102466000Y-63006000D01*
X103568000Y-63006000D01*
X103568000Y-64108000D01*
G37*
G36*
X97768000Y-64108000D02*
G01*
X96666000Y-64108000D01*
X96666000Y-63006000D01*
X97768000Y-63006000D01*
X97768000Y-64108000D01*
G37*
G36*
X164241000Y-63929000D02*
G01*
X158339000Y-63929000D01*
X158339000Y-62377000D01*
X164241000Y-62377000D01*
X164241000Y-63929000D01*
G37*
G36*
X179025674Y-62245465D02*
G01*
X179063367Y-62256899D01*
X179098103Y-62275466D01*
X179128548Y-62300452D01*
X179153534Y-62330897D01*
X179172101Y-62365633D01*
X179183535Y-62403326D01*
X179188000Y-62448661D01*
X179188000Y-63535339D01*
X179183535Y-63580674D01*
X179172101Y-63618367D01*
X179153534Y-63653103D01*
X179128548Y-63683548D01*
X179098103Y-63708534D01*
X179063367Y-63727101D01*
X179025674Y-63738535D01*
X178980339Y-63743000D01*
X178143661Y-63743000D01*
X178098326Y-63738535D01*
X178060633Y-63727101D01*
X178025897Y-63708534D01*
X177995452Y-63683548D01*
X177970466Y-63653103D01*
X177951899Y-63618367D01*
X177940465Y-63580674D01*
X177936000Y-63535339D01*
X177936000Y-62448661D01*
X177940465Y-62403326D01*
X177951899Y-62365633D01*
X177970466Y-62330897D01*
X177995452Y-62300452D01*
X178025897Y-62275466D01*
X178060633Y-62256899D01*
X178098326Y-62245465D01*
X178143661Y-62241000D01*
X178980339Y-62241000D01*
X179025674Y-62245465D01*
G37*
G36*
X176975674Y-62245465D02*
G01*
X177013367Y-62256899D01*
X177048103Y-62275466D01*
X177078548Y-62300452D01*
X177103534Y-62330897D01*
X177122101Y-62365633D01*
X177133535Y-62403326D01*
X177138000Y-62448661D01*
X177138000Y-63535339D01*
X177133535Y-63580674D01*
X177122101Y-63618367D01*
X177103534Y-63653103D01*
X177078548Y-63683548D01*
X177048103Y-63708534D01*
X177013367Y-63727101D01*
X176975674Y-63738535D01*
X176930339Y-63743000D01*
X176093661Y-63743000D01*
X176048326Y-63738535D01*
X176010633Y-63727101D01*
X175975897Y-63708534D01*
X175945452Y-63683548D01*
X175920466Y-63653103D01*
X175901899Y-63618367D01*
X175890465Y-63580674D01*
X175886000Y-63535339D01*
X175886000Y-62448661D01*
X175890465Y-62403326D01*
X175901899Y-62365633D01*
X175920466Y-62330897D01*
X175945452Y-62300452D01*
X175975897Y-62275466D01*
X176010633Y-62256899D01*
X176048326Y-62245465D01*
X176093661Y-62241000D01*
X176930339Y-62241000D01*
X176975674Y-62245465D01*
G37*
G36*
X170625674Y-61991465D02*
G01*
X170663367Y-62002899D01*
X170698103Y-62021466D01*
X170728548Y-62046452D01*
X170753534Y-62076897D01*
X170772101Y-62111633D01*
X170783535Y-62149326D01*
X170788000Y-62194661D01*
X170788000Y-63281339D01*
X170783535Y-63326674D01*
X170772101Y-63364367D01*
X170753534Y-63399103D01*
X170728548Y-63429548D01*
X170698103Y-63454534D01*
X170663367Y-63473101D01*
X170625674Y-63484535D01*
X170580339Y-63489000D01*
X169743661Y-63489000D01*
X169698326Y-63484535D01*
X169660633Y-63473101D01*
X169625897Y-63454534D01*
X169595452Y-63429548D01*
X169570466Y-63399103D01*
X169551899Y-63364367D01*
X169540465Y-63326674D01*
X169536000Y-63281339D01*
X169536000Y-62194661D01*
X169540465Y-62149326D01*
X169551899Y-62111633D01*
X169570466Y-62076897D01*
X169595452Y-62046452D01*
X169625897Y-62021466D01*
X169660633Y-62002899D01*
X169698326Y-61991465D01*
X169743661Y-61987000D01*
X170580339Y-61987000D01*
X170625674Y-61991465D01*
G37*
G36*
X172675674Y-61991465D02*
G01*
X172713367Y-62002899D01*
X172748103Y-62021466D01*
X172778548Y-62046452D01*
X172803534Y-62076897D01*
X172822101Y-62111633D01*
X172833535Y-62149326D01*
X172838000Y-62194661D01*
X172838000Y-63281339D01*
X172833535Y-63326674D01*
X172822101Y-63364367D01*
X172803534Y-63399103D01*
X172778548Y-63429548D01*
X172748103Y-63454534D01*
X172713367Y-63473101D01*
X172675674Y-63484535D01*
X172630339Y-63489000D01*
X171793661Y-63489000D01*
X171748326Y-63484535D01*
X171710633Y-63473101D01*
X171675897Y-63454534D01*
X171645452Y-63429548D01*
X171620466Y-63399103D01*
X171601899Y-63364367D01*
X171590465Y-63326674D01*
X171586000Y-63281339D01*
X171586000Y-62194661D01*
X171590465Y-62149326D01*
X171601899Y-62111633D01*
X171620466Y-62076897D01*
X171645452Y-62046452D01*
X171675897Y-62021466D01*
X171710633Y-62002899D01*
X171748326Y-61991465D01*
X171793661Y-61987000D01*
X172630339Y-61987000D01*
X172675674Y-61991465D01*
G37*
G36*
X196671520Y-61239664D02*
G01*
X196830942Y-61305699D01*
X196974418Y-61401566D01*
X197096434Y-61523582D01*
X197192301Y-61667058D01*
X197258336Y-61826480D01*
X197258336Y-61826481D01*
X197292000Y-61995720D01*
X197292000Y-62168280D01*
X197276647Y-62245465D01*
X197258336Y-62337520D01*
X197192301Y-62496942D01*
X197096434Y-62640418D01*
X196974418Y-62762434D01*
X196830942Y-62858301D01*
X196671520Y-62924336D01*
X196502280Y-62958000D01*
X196329720Y-62958000D01*
X196160480Y-62924336D01*
X196001058Y-62858301D01*
X195857582Y-62762434D01*
X195735566Y-62640418D01*
X195639699Y-62496942D01*
X195573664Y-62337520D01*
X195555353Y-62245465D01*
X195540000Y-62168280D01*
X195540000Y-61995720D01*
X195573664Y-61826481D01*
X195573664Y-61826480D01*
X195639699Y-61667058D01*
X195735566Y-61523582D01*
X195857582Y-61401566D01*
X196001058Y-61305699D01*
X196160480Y-61239664D01*
X196329720Y-61206000D01*
X196502280Y-61206000D01*
X196671520Y-61239664D01*
G37*
G36*
X146241674Y-61229465D02*
G01*
X146279367Y-61240899D01*
X146314103Y-61259466D01*
X146344548Y-61284452D01*
X146369534Y-61314897D01*
X146388101Y-61349633D01*
X146399535Y-61387326D01*
X146404000Y-61432661D01*
X146404000Y-62519339D01*
X146399535Y-62564674D01*
X146388101Y-62602367D01*
X146369534Y-62637103D01*
X146344548Y-62667548D01*
X146314103Y-62692534D01*
X146279367Y-62711101D01*
X146241674Y-62722535D01*
X146196339Y-62727000D01*
X145359661Y-62727000D01*
X145314326Y-62722535D01*
X145276633Y-62711101D01*
X145241897Y-62692534D01*
X145211452Y-62667548D01*
X145186466Y-62637103D01*
X145167899Y-62602367D01*
X145156465Y-62564674D01*
X145152000Y-62519339D01*
X145152000Y-61432661D01*
X145156465Y-61387326D01*
X145167899Y-61349633D01*
X145186466Y-61314897D01*
X145211452Y-61284452D01*
X145241897Y-61259466D01*
X145276633Y-61240899D01*
X145314326Y-61229465D01*
X145359661Y-61225000D01*
X146196339Y-61225000D01*
X146241674Y-61229465D01*
G37*
G36*
X148291674Y-61229465D02*
G01*
X148329367Y-61240899D01*
X148364103Y-61259466D01*
X148394548Y-61284452D01*
X148419534Y-61314897D01*
X148438101Y-61349633D01*
X148449535Y-61387326D01*
X148454000Y-61432661D01*
X148454000Y-62519339D01*
X148449535Y-62564674D01*
X148438101Y-62602367D01*
X148419534Y-62637103D01*
X148394548Y-62667548D01*
X148364103Y-62692534D01*
X148329367Y-62711101D01*
X148291674Y-62722535D01*
X148246339Y-62727000D01*
X147409661Y-62727000D01*
X147364326Y-62722535D01*
X147326633Y-62711101D01*
X147291897Y-62692534D01*
X147261452Y-62667548D01*
X147236466Y-62637103D01*
X147217899Y-62602367D01*
X147206465Y-62564674D01*
X147202000Y-62519339D01*
X147202000Y-61432661D01*
X147206465Y-61387326D01*
X147217899Y-61349633D01*
X147236466Y-61314897D01*
X147261452Y-61284452D01*
X147291897Y-61259466D01*
X147326633Y-61240899D01*
X147364326Y-61229465D01*
X147409661Y-61225000D01*
X148246339Y-61225000D01*
X148291674Y-61229465D01*
G37*
G36*
X153496674Y-61363465D02*
G01*
X153534367Y-61374899D01*
X153569103Y-61393466D01*
X153599548Y-61418452D01*
X153624534Y-61448897D01*
X153643101Y-61483633D01*
X153654535Y-61521326D01*
X153659000Y-61566661D01*
X153659000Y-62403339D01*
X153654535Y-62448674D01*
X153643101Y-62486367D01*
X153624534Y-62521103D01*
X153599548Y-62551548D01*
X153569103Y-62576534D01*
X153534367Y-62595101D01*
X153496674Y-62606535D01*
X153451339Y-62611000D01*
X152364661Y-62611000D01*
X152319326Y-62606535D01*
X152281633Y-62595101D01*
X152246897Y-62576534D01*
X152216452Y-62551548D01*
X152191466Y-62521103D01*
X152172899Y-62486367D01*
X152161465Y-62448674D01*
X152157000Y-62403339D01*
X152157000Y-61566661D01*
X152161465Y-61521326D01*
X152172899Y-61483633D01*
X152191466Y-61448897D01*
X152216452Y-61418452D01*
X152246897Y-61393466D01*
X152281633Y-61374899D01*
X152319326Y-61363465D01*
X152364661Y-61359000D01*
X153451339Y-61359000D01*
X153496674Y-61363465D01*
G37*
G36*
X106252674Y-61109465D02*
G01*
X106290367Y-61120899D01*
X106325103Y-61139466D01*
X106355548Y-61164452D01*
X106380534Y-61194897D01*
X106399101Y-61229633D01*
X106410535Y-61267326D01*
X106415000Y-61312661D01*
X106415000Y-62149339D01*
X106410535Y-62194674D01*
X106399101Y-62232367D01*
X106380534Y-62267103D01*
X106355548Y-62297548D01*
X106325103Y-62322534D01*
X106290367Y-62341101D01*
X106252674Y-62352535D01*
X106207339Y-62357000D01*
X105120661Y-62357000D01*
X105075326Y-62352535D01*
X105037633Y-62341101D01*
X105002897Y-62322534D01*
X104972452Y-62297548D01*
X104947466Y-62267103D01*
X104928899Y-62232367D01*
X104917465Y-62194674D01*
X104913000Y-62149339D01*
X104913000Y-61312661D01*
X104917465Y-61267326D01*
X104928899Y-61229633D01*
X104947466Y-61194897D01*
X104972452Y-61164452D01*
X105002897Y-61139466D01*
X105037633Y-61120899D01*
X105075326Y-61109465D01*
X105120661Y-61105000D01*
X106207339Y-61105000D01*
X106252674Y-61109465D01*
G37*
G36*
X188854966Y-59679745D02*
G01*
X188854969Y-59679746D01*
X188854968Y-59679746D01*
X189097649Y-59780268D01*
X189316057Y-59926203D01*
X189501797Y-60111943D01*
X189636138Y-60313000D01*
X189647733Y-60330353D01*
X189748255Y-60573034D01*
X189799500Y-60830660D01*
X189799500Y-61093340D01*
X189748255Y-61350966D01*
X189704334Y-61457000D01*
X189647732Y-61593649D01*
X189501797Y-61812057D01*
X189316057Y-61997797D01*
X189097649Y-62143732D01*
X189097648Y-62143733D01*
X189097647Y-62143733D01*
X188854966Y-62244255D01*
X188597340Y-62295500D01*
X188334660Y-62295500D01*
X188077034Y-62244255D01*
X187834353Y-62143733D01*
X187834352Y-62143733D01*
X187834351Y-62143732D01*
X187615943Y-61997797D01*
X187430203Y-61812057D01*
X187284268Y-61593649D01*
X187227666Y-61457000D01*
X187183745Y-61350966D01*
X187132500Y-61093340D01*
X187132500Y-60830660D01*
X187183745Y-60573034D01*
X187284267Y-60330353D01*
X187295862Y-60313000D01*
X187430203Y-60111943D01*
X187615943Y-59926203D01*
X187834351Y-59780268D01*
X188077032Y-59679746D01*
X188077031Y-59679746D01*
X188077034Y-59679745D01*
X188334660Y-59628500D01*
X188597340Y-59628500D01*
X188854966Y-59679745D01*
G37*
G36*
X110095512Y-60317927D02*
G01*
X110244812Y-60347624D01*
X110408784Y-60415544D01*
X110556354Y-60514147D01*
X110681853Y-60639646D01*
X110780456Y-60787216D01*
X110848376Y-60951188D01*
X110876651Y-61093338D01*
X110879859Y-61109465D01*
X110883000Y-61125259D01*
X110883000Y-61302741D01*
X110848376Y-61476812D01*
X110780456Y-61640784D01*
X110681853Y-61788354D01*
X110556354Y-61913853D01*
X110408784Y-62012456D01*
X110244812Y-62080376D01*
X110106124Y-62107962D01*
X110070742Y-62115000D01*
X109893258Y-62115000D01*
X109857876Y-62107962D01*
X109719188Y-62080376D01*
X109555216Y-62012456D01*
X109407646Y-61913853D01*
X109282147Y-61788354D01*
X109183544Y-61640784D01*
X109115624Y-61476812D01*
X109081000Y-61302741D01*
X109081000Y-61125259D01*
X109084142Y-61109465D01*
X109087349Y-61093338D01*
X109115624Y-60951188D01*
X109183544Y-60787216D01*
X109282147Y-60639646D01*
X109407646Y-60514147D01*
X109555216Y-60415544D01*
X109719188Y-60347624D01*
X109868488Y-60317927D01*
X109893258Y-60313000D01*
X110070742Y-60313000D01*
X110095512Y-60317927D01*
G37*
G36*
X166291000Y-61879000D02*
G01*
X164739000Y-61879000D01*
X164739000Y-55977000D01*
X166291000Y-55977000D01*
X166291000Y-61879000D01*
G37*
G36*
X157841000Y-61879000D02*
G01*
X156289000Y-61879000D01*
X156289000Y-55977000D01*
X157841000Y-55977000D01*
X157841000Y-61879000D01*
G37*
G36*
X176993674Y-59959465D02*
G01*
X177031367Y-59970899D01*
X177066103Y-59989466D01*
X177096548Y-60014452D01*
X177121534Y-60044897D01*
X177140101Y-60079633D01*
X177151535Y-60117326D01*
X177156000Y-60162661D01*
X177156000Y-61249339D01*
X177151535Y-61294674D01*
X177140101Y-61332367D01*
X177121534Y-61367103D01*
X177096548Y-61397548D01*
X177066103Y-61422534D01*
X177031367Y-61441101D01*
X176993674Y-61452535D01*
X176948339Y-61457000D01*
X176111661Y-61457000D01*
X176066326Y-61452535D01*
X176028633Y-61441101D01*
X175993897Y-61422534D01*
X175963452Y-61397548D01*
X175938466Y-61367103D01*
X175919899Y-61332367D01*
X175908465Y-61294674D01*
X175904000Y-61249339D01*
X175904000Y-60162661D01*
X175908465Y-60117326D01*
X175919899Y-60079633D01*
X175938466Y-60044897D01*
X175963452Y-60014452D01*
X175993897Y-59989466D01*
X176028633Y-59970899D01*
X176066326Y-59959465D01*
X176111661Y-59955000D01*
X176948339Y-59955000D01*
X176993674Y-59959465D01*
G37*
G36*
X172684674Y-59959465D02*
G01*
X172722367Y-59970899D01*
X172757103Y-59989466D01*
X172787548Y-60014452D01*
X172812534Y-60044897D01*
X172831101Y-60079633D01*
X172842535Y-60117326D01*
X172847000Y-60162661D01*
X172847000Y-61249339D01*
X172842535Y-61294674D01*
X172831101Y-61332367D01*
X172812534Y-61367103D01*
X172787548Y-61397548D01*
X172757103Y-61422534D01*
X172722367Y-61441101D01*
X172684674Y-61452535D01*
X172639339Y-61457000D01*
X171802661Y-61457000D01*
X171757326Y-61452535D01*
X171719633Y-61441101D01*
X171684897Y-61422534D01*
X171654452Y-61397548D01*
X171629466Y-61367103D01*
X171610899Y-61332367D01*
X171599465Y-61294674D01*
X171595000Y-61249339D01*
X171595000Y-60162661D01*
X171599465Y-60117326D01*
X171610899Y-60079633D01*
X171629466Y-60044897D01*
X171654452Y-60014452D01*
X171684897Y-59989466D01*
X171719633Y-59970899D01*
X171757326Y-59959465D01*
X171802661Y-59955000D01*
X172639339Y-59955000D01*
X172684674Y-59959465D01*
G37*
G36*
X170634674Y-59959465D02*
G01*
X170672367Y-59970899D01*
X170707103Y-59989466D01*
X170737548Y-60014452D01*
X170762534Y-60044897D01*
X170781101Y-60079633D01*
X170792535Y-60117326D01*
X170797000Y-60162661D01*
X170797000Y-61249339D01*
X170792535Y-61294674D01*
X170781101Y-61332367D01*
X170762534Y-61367103D01*
X170737548Y-61397548D01*
X170707103Y-61422534D01*
X170672367Y-61441101D01*
X170634674Y-61452535D01*
X170589339Y-61457000D01*
X169752661Y-61457000D01*
X169707326Y-61452535D01*
X169669633Y-61441101D01*
X169634897Y-61422534D01*
X169604452Y-61397548D01*
X169579466Y-61367103D01*
X169560899Y-61332367D01*
X169549465Y-61294674D01*
X169545000Y-61249339D01*
X169545000Y-60162661D01*
X169549465Y-60117326D01*
X169560899Y-60079633D01*
X169579466Y-60044897D01*
X169604452Y-60014452D01*
X169634897Y-59989466D01*
X169669633Y-59970899D01*
X169707326Y-59959465D01*
X169752661Y-59955000D01*
X170589339Y-59955000D01*
X170634674Y-59959465D01*
G37*
G36*
X179043674Y-59959465D02*
G01*
X179081367Y-59970899D01*
X179116103Y-59989466D01*
X179146548Y-60014452D01*
X179171534Y-60044897D01*
X179190101Y-60079633D01*
X179201535Y-60117326D01*
X179206000Y-60162661D01*
X179206000Y-61249339D01*
X179201535Y-61294674D01*
X179190101Y-61332367D01*
X179171534Y-61367103D01*
X179146548Y-61397548D01*
X179116103Y-61422534D01*
X179081367Y-61441101D01*
X179043674Y-61452535D01*
X178998339Y-61457000D01*
X178161661Y-61457000D01*
X178116326Y-61452535D01*
X178078633Y-61441101D01*
X178043897Y-61422534D01*
X178013452Y-61397548D01*
X177988466Y-61367103D01*
X177969899Y-61332367D01*
X177958465Y-61294674D01*
X177954000Y-61249339D01*
X177954000Y-60162661D01*
X177958465Y-60117326D01*
X177969899Y-60079633D01*
X177988466Y-60044897D01*
X178013452Y-60014452D01*
X178043897Y-59989466D01*
X178078633Y-59970899D01*
X178116326Y-59959465D01*
X178161661Y-59955000D01*
X178998339Y-59955000D01*
X179043674Y-59959465D01*
G37*
G36*
X148309674Y-59197465D02*
G01*
X148347367Y-59208899D01*
X148382103Y-59227466D01*
X148412548Y-59252452D01*
X148437534Y-59282897D01*
X148456101Y-59317633D01*
X148467535Y-59355326D01*
X148472000Y-59400661D01*
X148472000Y-60487339D01*
X148467535Y-60532674D01*
X148456101Y-60570367D01*
X148437534Y-60605103D01*
X148412548Y-60635548D01*
X148382103Y-60660534D01*
X148347367Y-60679101D01*
X148309674Y-60690535D01*
X148264339Y-60695000D01*
X147427661Y-60695000D01*
X147382326Y-60690535D01*
X147344633Y-60679101D01*
X147309897Y-60660534D01*
X147279452Y-60635548D01*
X147254466Y-60605103D01*
X147235899Y-60570367D01*
X147224465Y-60532674D01*
X147220000Y-60487339D01*
X147220000Y-59400661D01*
X147224465Y-59355326D01*
X147235899Y-59317633D01*
X147254466Y-59282897D01*
X147279452Y-59252452D01*
X147309897Y-59227466D01*
X147344633Y-59208899D01*
X147382326Y-59197465D01*
X147427661Y-59193000D01*
X148264339Y-59193000D01*
X148309674Y-59197465D01*
G37*
G36*
X146259674Y-59197465D02*
G01*
X146297367Y-59208899D01*
X146332103Y-59227466D01*
X146362548Y-59252452D01*
X146387534Y-59282897D01*
X146406101Y-59317633D01*
X146417535Y-59355326D01*
X146422000Y-59400661D01*
X146422000Y-60487339D01*
X146417535Y-60532674D01*
X146406101Y-60570367D01*
X146387534Y-60605103D01*
X146362548Y-60635548D01*
X146332103Y-60660534D01*
X146297367Y-60679101D01*
X146259674Y-60690535D01*
X146214339Y-60695000D01*
X145377661Y-60695000D01*
X145332326Y-60690535D01*
X145294633Y-60679101D01*
X145259897Y-60660534D01*
X145229452Y-60635548D01*
X145204466Y-60605103D01*
X145185899Y-60570367D01*
X145174465Y-60532674D01*
X145170000Y-60487339D01*
X145170000Y-59400661D01*
X145174465Y-59355326D01*
X145185899Y-59317633D01*
X145204466Y-59282897D01*
X145229452Y-59252452D01*
X145259897Y-59227466D01*
X145294633Y-59208899D01*
X145332326Y-59197465D01*
X145377661Y-59193000D01*
X146214339Y-59193000D01*
X146259674Y-59197465D01*
G37*
G36*
X153496674Y-59313465D02*
G01*
X153534367Y-59324899D01*
X153569103Y-59343466D01*
X153599548Y-59368452D01*
X153624534Y-59398897D01*
X153643101Y-59433633D01*
X153654535Y-59471326D01*
X153659000Y-59516661D01*
X153659000Y-60353339D01*
X153654535Y-60398674D01*
X153643101Y-60436367D01*
X153624534Y-60471103D01*
X153599548Y-60501548D01*
X153569103Y-60526534D01*
X153534367Y-60545101D01*
X153496674Y-60556535D01*
X153451339Y-60561000D01*
X152364661Y-60561000D01*
X152319326Y-60556535D01*
X152281633Y-60545101D01*
X152246897Y-60526534D01*
X152216452Y-60501548D01*
X152191466Y-60471103D01*
X152172899Y-60436367D01*
X152161465Y-60398674D01*
X152157000Y-60353339D01*
X152157000Y-59516661D01*
X152161465Y-59471326D01*
X152172899Y-59433633D01*
X152191466Y-59398897D01*
X152216452Y-59368452D01*
X152246897Y-59343466D01*
X152281633Y-59324899D01*
X152319326Y-59313465D01*
X152364661Y-59309000D01*
X153451339Y-59309000D01*
X153496674Y-59313465D01*
G37*
G36*
X103568000Y-60308000D02*
G01*
X102466000Y-60308000D01*
X102466000Y-59206000D01*
X103568000Y-59206000D01*
X103568000Y-60308000D01*
G37*
G36*
X97768000Y-60308000D02*
G01*
X96666000Y-60308000D01*
X96666000Y-59206000D01*
X97768000Y-59206000D01*
X97768000Y-60308000D01*
G37*
G36*
X106252674Y-59059465D02*
G01*
X106290367Y-59070899D01*
X106325103Y-59089466D01*
X106355548Y-59114452D01*
X106380534Y-59144897D01*
X106399101Y-59179633D01*
X106410535Y-59217326D01*
X106415000Y-59262661D01*
X106415000Y-60099339D01*
X106410535Y-60144674D01*
X106399101Y-60182367D01*
X106380534Y-60217103D01*
X106355548Y-60247548D01*
X106325103Y-60272534D01*
X106290367Y-60291101D01*
X106252674Y-60302535D01*
X106207339Y-60307000D01*
X105120661Y-60307000D01*
X105075326Y-60302535D01*
X105037633Y-60291101D01*
X105002897Y-60272534D01*
X104972452Y-60247548D01*
X104947466Y-60217103D01*
X104928899Y-60182367D01*
X104917465Y-60144674D01*
X104913000Y-60099339D01*
X104913000Y-59262661D01*
X104917465Y-59217326D01*
X104928899Y-59179633D01*
X104947466Y-59144897D01*
X104972452Y-59114452D01*
X105002897Y-59089466D01*
X105037633Y-59070899D01*
X105075326Y-59059465D01*
X105120661Y-59055000D01*
X106207339Y-59055000D01*
X106252674Y-59059465D01*
G37*
G36*
X110095512Y-57777927D02*
G01*
X110244812Y-57807624D01*
X110408784Y-57875544D01*
X110556354Y-57974147D01*
X110681853Y-58099646D01*
X110780456Y-58247216D01*
X110848376Y-58411188D01*
X110883000Y-58585259D01*
X110883000Y-58762741D01*
X110848376Y-58936812D01*
X110780456Y-59100784D01*
X110681853Y-59248354D01*
X110556354Y-59373853D01*
X110408784Y-59472456D01*
X110244812Y-59540376D01*
X110095512Y-59570073D01*
X110070742Y-59575000D01*
X109893258Y-59575000D01*
X109868488Y-59570073D01*
X109719188Y-59540376D01*
X109555216Y-59472456D01*
X109407646Y-59373853D01*
X109282147Y-59248354D01*
X109183544Y-59100784D01*
X109115624Y-58936812D01*
X109081000Y-58762741D01*
X109081000Y-58585259D01*
X109115624Y-58411188D01*
X109183544Y-58247216D01*
X109282147Y-58099646D01*
X109407646Y-57974147D01*
X109555216Y-57875544D01*
X109719188Y-57807624D01*
X109868488Y-57777927D01*
X109893258Y-57773000D01*
X110070742Y-57773000D01*
X110095512Y-57777927D01*
G37*
G36*
X179043674Y-57927465D02*
G01*
X179081367Y-57938899D01*
X179116103Y-57957466D01*
X179146548Y-57982452D01*
X179171534Y-58012897D01*
X179190101Y-58047633D01*
X179201535Y-58085326D01*
X179206000Y-58130661D01*
X179206000Y-59217339D01*
X179201535Y-59262674D01*
X179190101Y-59300367D01*
X179171534Y-59335103D01*
X179146548Y-59365548D01*
X179116103Y-59390534D01*
X179081367Y-59409101D01*
X179043674Y-59420535D01*
X178998339Y-59425000D01*
X178161661Y-59425000D01*
X178116326Y-59420535D01*
X178078633Y-59409101D01*
X178043897Y-59390534D01*
X178013452Y-59365548D01*
X177988466Y-59335103D01*
X177969899Y-59300367D01*
X177958465Y-59262674D01*
X177954000Y-59217339D01*
X177954000Y-58130661D01*
X177958465Y-58085326D01*
X177969899Y-58047633D01*
X177988466Y-58012897D01*
X178013452Y-57982452D01*
X178043897Y-57957466D01*
X178078633Y-57938899D01*
X178116326Y-57927465D01*
X178161661Y-57923000D01*
X178998339Y-57923000D01*
X179043674Y-57927465D01*
G37*
G36*
X170643674Y-57927465D02*
G01*
X170681367Y-57938899D01*
X170716103Y-57957466D01*
X170746548Y-57982452D01*
X170771534Y-58012897D01*
X170790101Y-58047633D01*
X170801535Y-58085326D01*
X170806000Y-58130661D01*
X170806000Y-59217339D01*
X170801535Y-59262674D01*
X170790101Y-59300367D01*
X170771534Y-59335103D01*
X170746548Y-59365548D01*
X170716103Y-59390534D01*
X170681367Y-59409101D01*
X170643674Y-59420535D01*
X170598339Y-59425000D01*
X169761661Y-59425000D01*
X169716326Y-59420535D01*
X169678633Y-59409101D01*
X169643897Y-59390534D01*
X169613452Y-59365548D01*
X169588466Y-59335103D01*
X169569899Y-59300367D01*
X169558465Y-59262674D01*
X169554000Y-59217339D01*
X169554000Y-58130661D01*
X169558465Y-58085326D01*
X169569899Y-58047633D01*
X169588466Y-58012897D01*
X169613452Y-57982452D01*
X169643897Y-57957466D01*
X169678633Y-57938899D01*
X169716326Y-57927465D01*
X169761661Y-57923000D01*
X170598339Y-57923000D01*
X170643674Y-57927465D01*
G37*
G36*
X172693674Y-57927465D02*
G01*
X172731367Y-57938899D01*
X172766103Y-57957466D01*
X172796548Y-57982452D01*
X172821534Y-58012897D01*
X172840101Y-58047633D01*
X172851535Y-58085326D01*
X172856000Y-58130661D01*
X172856000Y-59217339D01*
X172851535Y-59262674D01*
X172840101Y-59300367D01*
X172821534Y-59335103D01*
X172796548Y-59365548D01*
X172766103Y-59390534D01*
X172731367Y-59409101D01*
X172693674Y-59420535D01*
X172648339Y-59425000D01*
X171811661Y-59425000D01*
X171766326Y-59420535D01*
X171728633Y-59409101D01*
X171693897Y-59390534D01*
X171663452Y-59365548D01*
X171638466Y-59335103D01*
X171619899Y-59300367D01*
X171608465Y-59262674D01*
X171604000Y-59217339D01*
X171604000Y-58130661D01*
X171608465Y-58085326D01*
X171619899Y-58047633D01*
X171638466Y-58012897D01*
X171663452Y-57982452D01*
X171693897Y-57957466D01*
X171728633Y-57938899D01*
X171766326Y-57927465D01*
X171811661Y-57923000D01*
X172648339Y-57923000D01*
X172693674Y-57927465D01*
G37*
G36*
X176993674Y-57927465D02*
G01*
X177031367Y-57938899D01*
X177066103Y-57957466D01*
X177096548Y-57982452D01*
X177121534Y-58012897D01*
X177140101Y-58047633D01*
X177151535Y-58085326D01*
X177156000Y-58130661D01*
X177156000Y-59217339D01*
X177151535Y-59262674D01*
X177140101Y-59300367D01*
X177121534Y-59335103D01*
X177096548Y-59365548D01*
X177066103Y-59390534D01*
X177031367Y-59409101D01*
X176993674Y-59420535D01*
X176948339Y-59425000D01*
X176111661Y-59425000D01*
X176066326Y-59420535D01*
X176028633Y-59409101D01*
X175993897Y-59390534D01*
X175963452Y-59365548D01*
X175938466Y-59335103D01*
X175919899Y-59300367D01*
X175908465Y-59262674D01*
X175904000Y-59217339D01*
X175904000Y-58130661D01*
X175908465Y-58085326D01*
X175919899Y-58047633D01*
X175938466Y-58012897D01*
X175963452Y-57982452D01*
X175993897Y-57957466D01*
X176028633Y-57938899D01*
X176066326Y-57927465D01*
X176111661Y-57923000D01*
X176948339Y-57923000D01*
X176993674Y-57927465D01*
G37*
G36*
X153496674Y-57544465D02*
G01*
X153534367Y-57555899D01*
X153569103Y-57574466D01*
X153599548Y-57599452D01*
X153624534Y-57629897D01*
X153643101Y-57664633D01*
X153654535Y-57702326D01*
X153659000Y-57747661D01*
X153659000Y-58584339D01*
X153654535Y-58629674D01*
X153643101Y-58667367D01*
X153624534Y-58702103D01*
X153599548Y-58732548D01*
X153569103Y-58757534D01*
X153534367Y-58776101D01*
X153496674Y-58787535D01*
X153451339Y-58792000D01*
X152364661Y-58792000D01*
X152319326Y-58787535D01*
X152281633Y-58776101D01*
X152246897Y-58757534D01*
X152216452Y-58732548D01*
X152191466Y-58702103D01*
X152172899Y-58667367D01*
X152161465Y-58629674D01*
X152157000Y-58584339D01*
X152157000Y-57747661D01*
X152161465Y-57702326D01*
X152172899Y-57664633D01*
X152191466Y-57629897D01*
X152216452Y-57599452D01*
X152246897Y-57574466D01*
X152281633Y-57555899D01*
X152319326Y-57544465D01*
X152364661Y-57540000D01*
X153451339Y-57540000D01*
X153496674Y-57544465D01*
G37*
G36*
X148291674Y-57165465D02*
G01*
X148329367Y-57176899D01*
X148364103Y-57195466D01*
X148394548Y-57220452D01*
X148419534Y-57250897D01*
X148438101Y-57285633D01*
X148449535Y-57323326D01*
X148454000Y-57368661D01*
X148454000Y-58455339D01*
X148449535Y-58500674D01*
X148438101Y-58538367D01*
X148419534Y-58573103D01*
X148394548Y-58603548D01*
X148364103Y-58628534D01*
X148329367Y-58647101D01*
X148291674Y-58658535D01*
X148246339Y-58663000D01*
X147409661Y-58663000D01*
X147364326Y-58658535D01*
X147326633Y-58647101D01*
X147291897Y-58628534D01*
X147261452Y-58603548D01*
X147236466Y-58573103D01*
X147217899Y-58538367D01*
X147206465Y-58500674D01*
X147202000Y-58455339D01*
X147202000Y-57368661D01*
X147206465Y-57323326D01*
X147217899Y-57285633D01*
X147236466Y-57250897D01*
X147261452Y-57220452D01*
X147291897Y-57195466D01*
X147326633Y-57176899D01*
X147364326Y-57165465D01*
X147409661Y-57161000D01*
X148246339Y-57161000D01*
X148291674Y-57165465D01*
G37*
G36*
X146241674Y-57165465D02*
G01*
X146279367Y-57176899D01*
X146314103Y-57195466D01*
X146344548Y-57220452D01*
X146369534Y-57250897D01*
X146388101Y-57285633D01*
X146399535Y-57323326D01*
X146404000Y-57368661D01*
X146404000Y-58455339D01*
X146399535Y-58500674D01*
X146388101Y-58538367D01*
X146369534Y-58573103D01*
X146344548Y-58603548D01*
X146314103Y-58628534D01*
X146279367Y-58647101D01*
X146241674Y-58658535D01*
X146196339Y-58663000D01*
X145359661Y-58663000D01*
X145314326Y-58658535D01*
X145276633Y-58647101D01*
X145241897Y-58628534D01*
X145211452Y-58603548D01*
X145186466Y-58573103D01*
X145167899Y-58538367D01*
X145156465Y-58500674D01*
X145152000Y-58455339D01*
X145152000Y-57368661D01*
X145156465Y-57323326D01*
X145167899Y-57285633D01*
X145186466Y-57250897D01*
X145211452Y-57220452D01*
X145241897Y-57195466D01*
X145276633Y-57176899D01*
X145314326Y-57165465D01*
X145359661Y-57161000D01*
X146196339Y-57161000D01*
X146241674Y-57165465D01*
G37*
G36*
X130676000Y-58312000D02*
G01*
X129674000Y-58312000D01*
X129674000Y-56210000D01*
X130676000Y-56210000D01*
X130676000Y-58312000D01*
G37*
G36*
X128136000Y-58312000D02*
G01*
X127134000Y-58312000D01*
X127134000Y-56210000D01*
X128136000Y-56210000D01*
X128136000Y-58312000D01*
G37*
G36*
X126866000Y-58312000D02*
G01*
X125864000Y-58312000D01*
X125864000Y-56210000D01*
X126866000Y-56210000D01*
X126866000Y-58312000D01*
G37*
G36*
X125596000Y-58312000D02*
G01*
X124594000Y-58312000D01*
X124594000Y-56210000D01*
X125596000Y-56210000D01*
X125596000Y-58312000D01*
G37*
G36*
X124326000Y-58312000D02*
G01*
X123324000Y-58312000D01*
X123324000Y-56210000D01*
X124326000Y-56210000D01*
X124326000Y-58312000D01*
G37*
G36*
X133216000Y-58312000D02*
G01*
X132214000Y-58312000D01*
X132214000Y-56210000D01*
X133216000Y-56210000D01*
X133216000Y-58312000D01*
G37*
G36*
X131946000Y-58312000D02*
G01*
X130944000Y-58312000D01*
X130944000Y-56210000D01*
X131946000Y-56210000D01*
X131946000Y-58312000D01*
G37*
G36*
X123056000Y-58312000D02*
G01*
X122054000Y-58312000D01*
X122054000Y-56210000D01*
X123056000Y-56210000D01*
X123056000Y-58312000D01*
G37*
G36*
X129406000Y-58312000D02*
G01*
X128404000Y-58312000D01*
X128404000Y-56210000D01*
X129406000Y-56210000D01*
X129406000Y-58312000D01*
G37*
G36*
X121786000Y-58312000D02*
G01*
X120784000Y-58312000D01*
X120784000Y-56210000D01*
X121786000Y-56210000D01*
X121786000Y-58312000D01*
G37*
G36*
X99768674Y-56657465D02*
G01*
X99806367Y-56668899D01*
X99841103Y-56687466D01*
X99871548Y-56712452D01*
X99896534Y-56742897D01*
X99915101Y-56777633D01*
X99926535Y-56815326D01*
X99931000Y-56860661D01*
X99931000Y-57947339D01*
X99926535Y-57992674D01*
X99915101Y-58030367D01*
X99896534Y-58065103D01*
X99871548Y-58095548D01*
X99841103Y-58120534D01*
X99806367Y-58139101D01*
X99768674Y-58150535D01*
X99723339Y-58155000D01*
X98886661Y-58155000D01*
X98841326Y-58150535D01*
X98803633Y-58139101D01*
X98768897Y-58120534D01*
X98738452Y-58095548D01*
X98713466Y-58065103D01*
X98694899Y-58030367D01*
X98683465Y-57992674D01*
X98679000Y-57947339D01*
X98679000Y-56860661D01*
X98683465Y-56815326D01*
X98694899Y-56777633D01*
X98713466Y-56742897D01*
X98738452Y-56712452D01*
X98768897Y-56687466D01*
X98803633Y-56668899D01*
X98841326Y-56657465D01*
X98886661Y-56653000D01*
X99723339Y-56653000D01*
X99768674Y-56657465D01*
G37*
G36*
X101818674Y-56657465D02*
G01*
X101856367Y-56668899D01*
X101891103Y-56687466D01*
X101921548Y-56712452D01*
X101946534Y-56742897D01*
X101965101Y-56777633D01*
X101976535Y-56815326D01*
X101981000Y-56860661D01*
X101981000Y-57947339D01*
X101976535Y-57992674D01*
X101965101Y-58030367D01*
X101946534Y-58065103D01*
X101921548Y-58095548D01*
X101891103Y-58120534D01*
X101856367Y-58139101D01*
X101818674Y-58150535D01*
X101773339Y-58155000D01*
X100936661Y-58155000D01*
X100891326Y-58150535D01*
X100853633Y-58139101D01*
X100818897Y-58120534D01*
X100788452Y-58095548D01*
X100763466Y-58065103D01*
X100744899Y-58030367D01*
X100733465Y-57992674D01*
X100729000Y-57947339D01*
X100729000Y-56860661D01*
X100733465Y-56815326D01*
X100744899Y-56777633D01*
X100763466Y-56742897D01*
X100788452Y-56712452D01*
X100818897Y-56687466D01*
X100853633Y-56668899D01*
X100891326Y-56657465D01*
X100936661Y-56653000D01*
X101773339Y-56653000D01*
X101818674Y-56657465D01*
G37*
G36*
X143590674Y-56537465D02*
G01*
X143628367Y-56548899D01*
X143663103Y-56567466D01*
X143693548Y-56592452D01*
X143718534Y-56622897D01*
X143737101Y-56657633D01*
X143748535Y-56695326D01*
X143753000Y-56740661D01*
X143753000Y-57577339D01*
X143748535Y-57622674D01*
X143737101Y-57660367D01*
X143718534Y-57695103D01*
X143693548Y-57725548D01*
X143663103Y-57750534D01*
X143628367Y-57769101D01*
X143590674Y-57780535D01*
X143545339Y-57785000D01*
X142458661Y-57785000D01*
X142413326Y-57780535D01*
X142375633Y-57769101D01*
X142340897Y-57750534D01*
X142310452Y-57725548D01*
X142285466Y-57695103D01*
X142266899Y-57660367D01*
X142255465Y-57622674D01*
X142251000Y-57577339D01*
X142251000Y-56740661D01*
X142255465Y-56695326D01*
X142266899Y-56657633D01*
X142285466Y-56622897D01*
X142310452Y-56592452D01*
X142340897Y-56567466D01*
X142375633Y-56548899D01*
X142413326Y-56537465D01*
X142458661Y-56533000D01*
X143545339Y-56533000D01*
X143590674Y-56537465D01*
G37*
G36*
X188854966Y-55103745D02*
G01*
X189059466Y-55188452D01*
X189097649Y-55204268D01*
X189316057Y-55350203D01*
X189501797Y-55535943D01*
X189634802Y-55735000D01*
X189647733Y-55754353D01*
X189748255Y-55997034D01*
X189799500Y-56254660D01*
X189799500Y-56517340D01*
X189748255Y-56774966D01*
X189654887Y-57000375D01*
X189647732Y-57017649D01*
X189501797Y-57236057D01*
X189316057Y-57421797D01*
X189097649Y-57567732D01*
X189097648Y-57567733D01*
X189097647Y-57567733D01*
X188854966Y-57668255D01*
X188597340Y-57719500D01*
X188334660Y-57719500D01*
X188077034Y-57668255D01*
X187834353Y-57567733D01*
X187834352Y-57567733D01*
X187834351Y-57567732D01*
X187615943Y-57421797D01*
X187430203Y-57236057D01*
X187284268Y-57017649D01*
X187277113Y-57000375D01*
X187183745Y-56774966D01*
X187132500Y-56517340D01*
X187132500Y-56254660D01*
X187183745Y-55997034D01*
X187284267Y-55754353D01*
X187297198Y-55735000D01*
X187430203Y-55535943D01*
X187615943Y-55350203D01*
X187834351Y-55204268D01*
X187872534Y-55188452D01*
X188077034Y-55103745D01*
X188334660Y-55052500D01*
X188597340Y-55052500D01*
X188854966Y-55103745D01*
G37*
G36*
X172675674Y-55895465D02*
G01*
X172713367Y-55906899D01*
X172748103Y-55925466D01*
X172778548Y-55950452D01*
X172803534Y-55980897D01*
X172822101Y-56015633D01*
X172833535Y-56053326D01*
X172838000Y-56098661D01*
X172838000Y-57185339D01*
X172833535Y-57230674D01*
X172822101Y-57268367D01*
X172803534Y-57303103D01*
X172778548Y-57333548D01*
X172748103Y-57358534D01*
X172713367Y-57377101D01*
X172675674Y-57388535D01*
X172630339Y-57393000D01*
X171793661Y-57393000D01*
X171748326Y-57388535D01*
X171710633Y-57377101D01*
X171675897Y-57358534D01*
X171645452Y-57333548D01*
X171620466Y-57303103D01*
X171601899Y-57268367D01*
X171590465Y-57230674D01*
X171586000Y-57185339D01*
X171586000Y-56098661D01*
X171590465Y-56053326D01*
X171601899Y-56015633D01*
X171620466Y-55980897D01*
X171645452Y-55950452D01*
X171675897Y-55925466D01*
X171710633Y-55906899D01*
X171748326Y-55895465D01*
X171793661Y-55891000D01*
X172630339Y-55891000D01*
X172675674Y-55895465D01*
G37*
G36*
X170625674Y-55895465D02*
G01*
X170663367Y-55906899D01*
X170698103Y-55925466D01*
X170728548Y-55950452D01*
X170753534Y-55980897D01*
X170772101Y-56015633D01*
X170783535Y-56053326D01*
X170788000Y-56098661D01*
X170788000Y-57185339D01*
X170783535Y-57230674D01*
X170772101Y-57268367D01*
X170753534Y-57303103D01*
X170728548Y-57333548D01*
X170698103Y-57358534D01*
X170663367Y-57377101D01*
X170625674Y-57388535D01*
X170580339Y-57393000D01*
X169743661Y-57393000D01*
X169698326Y-57388535D01*
X169660633Y-57377101D01*
X169625897Y-57358534D01*
X169595452Y-57333548D01*
X169570466Y-57303103D01*
X169551899Y-57268367D01*
X169540465Y-57230674D01*
X169536000Y-57185339D01*
X169536000Y-56098661D01*
X169540465Y-56053326D01*
X169551899Y-56015633D01*
X169570466Y-55980897D01*
X169595452Y-55950452D01*
X169625897Y-55925466D01*
X169660633Y-55906899D01*
X169698326Y-55895465D01*
X169743661Y-55891000D01*
X170580339Y-55891000D01*
X170625674Y-55895465D01*
G37*
G36*
X176984674Y-55895465D02*
G01*
X177022367Y-55906899D01*
X177057103Y-55925466D01*
X177087548Y-55950452D01*
X177112534Y-55980897D01*
X177131101Y-56015633D01*
X177142535Y-56053326D01*
X177147000Y-56098661D01*
X177147000Y-57185339D01*
X177142535Y-57230674D01*
X177131101Y-57268367D01*
X177112534Y-57303103D01*
X177087548Y-57333548D01*
X177057103Y-57358534D01*
X177022367Y-57377101D01*
X176984674Y-57388535D01*
X176939339Y-57393000D01*
X176102661Y-57393000D01*
X176057326Y-57388535D01*
X176019633Y-57377101D01*
X175984897Y-57358534D01*
X175954452Y-57333548D01*
X175929466Y-57303103D01*
X175910899Y-57268367D01*
X175899465Y-57230674D01*
X175895000Y-57185339D01*
X175895000Y-56098661D01*
X175899465Y-56053326D01*
X175910899Y-56015633D01*
X175929466Y-55980897D01*
X175954452Y-55950452D01*
X175984897Y-55925466D01*
X176019633Y-55906899D01*
X176057326Y-55895465D01*
X176102661Y-55891000D01*
X176939339Y-55891000D01*
X176984674Y-55895465D01*
G37*
G36*
X179034674Y-55895465D02*
G01*
X179072367Y-55906899D01*
X179107103Y-55925466D01*
X179137548Y-55950452D01*
X179162534Y-55980897D01*
X179181101Y-56015633D01*
X179192535Y-56053326D01*
X179197000Y-56098661D01*
X179197000Y-57185339D01*
X179192535Y-57230674D01*
X179181101Y-57268367D01*
X179162534Y-57303103D01*
X179137548Y-57333548D01*
X179107103Y-57358534D01*
X179072367Y-57377101D01*
X179034674Y-57388535D01*
X178989339Y-57393000D01*
X178152661Y-57393000D01*
X178107326Y-57388535D01*
X178069633Y-57377101D01*
X178034897Y-57358534D01*
X178004452Y-57333548D01*
X177979466Y-57303103D01*
X177960899Y-57268367D01*
X177949465Y-57230674D01*
X177945000Y-57185339D01*
X177945000Y-56098661D01*
X177949465Y-56053326D01*
X177960899Y-56015633D01*
X177979466Y-55980897D01*
X178004452Y-55950452D01*
X178034897Y-55925466D01*
X178069633Y-55906899D01*
X178107326Y-55895465D01*
X178152661Y-55891000D01*
X178989339Y-55891000D01*
X179034674Y-55895465D01*
G37*
G36*
X110095512Y-55237927D02*
G01*
X110244812Y-55267624D01*
X110408784Y-55335544D01*
X110556354Y-55434147D01*
X110681853Y-55559646D01*
X110780456Y-55707216D01*
X110848376Y-55871188D01*
X110883000Y-56045259D01*
X110883000Y-56222741D01*
X110848376Y-56396812D01*
X110780456Y-56560784D01*
X110681853Y-56708354D01*
X110556354Y-56833853D01*
X110408784Y-56932456D01*
X110244812Y-57000376D01*
X110095512Y-57030073D01*
X110070742Y-57035000D01*
X109893258Y-57035000D01*
X109868488Y-57030073D01*
X109719188Y-57000376D01*
X109555216Y-56932456D01*
X109407646Y-56833853D01*
X109282147Y-56708354D01*
X109183544Y-56560784D01*
X109115624Y-56396812D01*
X109081000Y-56222741D01*
X109081000Y-56045259D01*
X109115624Y-55871188D01*
X109183544Y-55707216D01*
X109282147Y-55559646D01*
X109407646Y-55434147D01*
X109555216Y-55335544D01*
X109719188Y-55267624D01*
X109868488Y-55237927D01*
X109893258Y-55233000D01*
X110070742Y-55233000D01*
X110095512Y-55237927D01*
G37*
G36*
X119551000Y-56762000D02*
G01*
X117449000Y-56762000D01*
X117449000Y-55760000D01*
X119551000Y-55760000D01*
X119551000Y-56762000D01*
G37*
G36*
X136551000Y-56762000D02*
G01*
X134449000Y-56762000D01*
X134449000Y-55760000D01*
X136551000Y-55760000D01*
X136551000Y-56762000D01*
G37*
G36*
X153496674Y-55494465D02*
G01*
X153534367Y-55505899D01*
X153569103Y-55524466D01*
X153599548Y-55549452D01*
X153624534Y-55579897D01*
X153643101Y-55614633D01*
X153654535Y-55652326D01*
X153659000Y-55697661D01*
X153659000Y-56534339D01*
X153654535Y-56579674D01*
X153643101Y-56617367D01*
X153624534Y-56652103D01*
X153599548Y-56682548D01*
X153569103Y-56707534D01*
X153534367Y-56726101D01*
X153496674Y-56737535D01*
X153451339Y-56742000D01*
X152364661Y-56742000D01*
X152319326Y-56737535D01*
X152281633Y-56726101D01*
X152246897Y-56707534D01*
X152216452Y-56682548D01*
X152191466Y-56652103D01*
X152172899Y-56617367D01*
X152161465Y-56579674D01*
X152157000Y-56534339D01*
X152157000Y-55697661D01*
X152161465Y-55652326D01*
X152172899Y-55614633D01*
X152191466Y-55579897D01*
X152216452Y-55549452D01*
X152246897Y-55524466D01*
X152281633Y-55505899D01*
X152319326Y-55494465D01*
X152364661Y-55490000D01*
X153451339Y-55490000D01*
X153496674Y-55494465D01*
G37*
G36*
X148291674Y-55133465D02*
G01*
X148329367Y-55144899D01*
X148364103Y-55163466D01*
X148394548Y-55188452D01*
X148419534Y-55218897D01*
X148438101Y-55253633D01*
X148449535Y-55291326D01*
X148454000Y-55336661D01*
X148454000Y-56423339D01*
X148449535Y-56468674D01*
X148438101Y-56506367D01*
X148419534Y-56541103D01*
X148394548Y-56571548D01*
X148364103Y-56596534D01*
X148329367Y-56615101D01*
X148291674Y-56626535D01*
X148246339Y-56631000D01*
X147409661Y-56631000D01*
X147364326Y-56626535D01*
X147326633Y-56615101D01*
X147291897Y-56596534D01*
X147261452Y-56571548D01*
X147236466Y-56541103D01*
X147217899Y-56506367D01*
X147206465Y-56468674D01*
X147202000Y-56423339D01*
X147202000Y-55336661D01*
X147206465Y-55291326D01*
X147217899Y-55253633D01*
X147236466Y-55218897D01*
X147261452Y-55188452D01*
X147291897Y-55163466D01*
X147326633Y-55144899D01*
X147364326Y-55133465D01*
X147409661Y-55129000D01*
X148246339Y-55129000D01*
X148291674Y-55133465D01*
G37*
G36*
X146241674Y-55133465D02*
G01*
X146279367Y-55144899D01*
X146314103Y-55163466D01*
X146344548Y-55188452D01*
X146369534Y-55218897D01*
X146388101Y-55253633D01*
X146399535Y-55291326D01*
X146404000Y-55336661D01*
X146404000Y-56423339D01*
X146399535Y-56468674D01*
X146388101Y-56506367D01*
X146369534Y-56541103D01*
X146344548Y-56571548D01*
X146314103Y-56596534D01*
X146279367Y-56615101D01*
X146241674Y-56626535D01*
X146196339Y-56631000D01*
X145359661Y-56631000D01*
X145314326Y-56626535D01*
X145276633Y-56615101D01*
X145241897Y-56596534D01*
X145211452Y-56571548D01*
X145186466Y-56541103D01*
X145167899Y-56506367D01*
X145156465Y-56468674D01*
X145152000Y-56423339D01*
X145152000Y-55336661D01*
X145156465Y-55291326D01*
X145167899Y-55253633D01*
X145186466Y-55218897D01*
X145211452Y-55188452D01*
X145241897Y-55163466D01*
X145276633Y-55144899D01*
X145314326Y-55133465D01*
X145359661Y-55129000D01*
X146196339Y-55129000D01*
X146241674Y-55133465D01*
G37*
G36*
X196671520Y-54423664D02*
G01*
X196830942Y-54489699D01*
X196974418Y-54585566D01*
X197096434Y-54707582D01*
X197192301Y-54851058D01*
X197258336Y-55010480D01*
X197258336Y-55010481D01*
X197292000Y-55179720D01*
X197292000Y-55352280D01*
X197290265Y-55361000D01*
X197258336Y-55521520D01*
X197192301Y-55680942D01*
X197096434Y-55824418D01*
X196974418Y-55946434D01*
X196830942Y-56042301D01*
X196671520Y-56108336D01*
X196662777Y-56110075D01*
X196502280Y-56142000D01*
X196329720Y-56142000D01*
X196169223Y-56110075D01*
X196160480Y-56108336D01*
X196001058Y-56042301D01*
X195857582Y-55946434D01*
X195735566Y-55824418D01*
X195639699Y-55680942D01*
X195573664Y-55521520D01*
X195541735Y-55361000D01*
X195540000Y-55352280D01*
X195540000Y-55179720D01*
X195573664Y-55010481D01*
X195573664Y-55010480D01*
X195639699Y-54851058D01*
X195735566Y-54707582D01*
X195857582Y-54585566D01*
X196001058Y-54489699D01*
X196160480Y-54423664D01*
X196329720Y-54390000D01*
X196502280Y-54390000D01*
X196671520Y-54423664D01*
G37*
G36*
X192016538Y-52705944D02*
G01*
X192273254Y-52812280D01*
X192328831Y-52835301D01*
X192609886Y-53023096D01*
X192848904Y-53262114D01*
X192986171Y-53467548D01*
X193036700Y-53543171D01*
X193166056Y-53855462D01*
X193232000Y-54186987D01*
X193232000Y-54525013D01*
X193166056Y-54856538D01*
X193102290Y-55010481D01*
X193036699Y-55168831D01*
X192848904Y-55449886D01*
X192609886Y-55688904D01*
X192328831Y-55876699D01*
X192328830Y-55876700D01*
X192328829Y-55876700D01*
X192016538Y-56006056D01*
X191685013Y-56072000D01*
X191346987Y-56072000D01*
X191015462Y-56006056D01*
X190703171Y-55876700D01*
X190703170Y-55876700D01*
X190703169Y-55876699D01*
X190422114Y-55688904D01*
X190183096Y-55449886D01*
X189995301Y-55168831D01*
X189929710Y-55010481D01*
X189865944Y-54856538D01*
X189800000Y-54525013D01*
X189800000Y-54186987D01*
X189865944Y-53855462D01*
X189995300Y-53543171D01*
X190045830Y-53467548D01*
X190183096Y-53262114D01*
X190422114Y-53023096D01*
X190703169Y-52835301D01*
X190758746Y-52812280D01*
X191015462Y-52705944D01*
X191346987Y-52640000D01*
X191685013Y-52640000D01*
X192016538Y-52705944D01*
G37*
G36*
X143590674Y-54487465D02*
G01*
X143628367Y-54498899D01*
X143663103Y-54517466D01*
X143693548Y-54542452D01*
X143718534Y-54572897D01*
X143737101Y-54607633D01*
X143748535Y-54645326D01*
X143753000Y-54690661D01*
X143753000Y-55527339D01*
X143748535Y-55572674D01*
X143737101Y-55610367D01*
X143718534Y-55645103D01*
X143693548Y-55675548D01*
X143663103Y-55700534D01*
X143628367Y-55719101D01*
X143590674Y-55730535D01*
X143545339Y-55735000D01*
X142458661Y-55735000D01*
X142413326Y-55730535D01*
X142375633Y-55719101D01*
X142340897Y-55700534D01*
X142310452Y-55675548D01*
X142285466Y-55645103D01*
X142266899Y-55610367D01*
X142255465Y-55572674D01*
X142251000Y-55527339D01*
X142251000Y-54690661D01*
X142255465Y-54645326D01*
X142266899Y-54607633D01*
X142285466Y-54572897D01*
X142310452Y-54542452D01*
X142340897Y-54517466D01*
X142375633Y-54498899D01*
X142413326Y-54487465D01*
X142458661Y-54483000D01*
X143545339Y-54483000D01*
X143590674Y-54487465D01*
G37*
G36*
X136551000Y-55492000D02*
G01*
X134449000Y-55492000D01*
X134449000Y-54490000D01*
X136551000Y-54490000D01*
X136551000Y-55492000D01*
G37*
G36*
X119551000Y-55492000D02*
G01*
X117449000Y-55492000D01*
X117449000Y-54490000D01*
X119551000Y-54490000D01*
X119551000Y-55492000D01*
G37*
G36*
X164241000Y-55479000D02*
G01*
X158339000Y-55479000D01*
X158339000Y-53927000D01*
X164241000Y-53927000D01*
X164241000Y-55479000D01*
G37*
G36*
X170634674Y-53863465D02*
G01*
X170672367Y-53874899D01*
X170707103Y-53893466D01*
X170737548Y-53918452D01*
X170762534Y-53948897D01*
X170781101Y-53983633D01*
X170792535Y-54021326D01*
X170797000Y-54066661D01*
X170797000Y-55153339D01*
X170792535Y-55198674D01*
X170781101Y-55236367D01*
X170762534Y-55271103D01*
X170737548Y-55301548D01*
X170707103Y-55326534D01*
X170672367Y-55345101D01*
X170634674Y-55356535D01*
X170589339Y-55361000D01*
X169752661Y-55361000D01*
X169707326Y-55356535D01*
X169669633Y-55345101D01*
X169634897Y-55326534D01*
X169604452Y-55301548D01*
X169579466Y-55271103D01*
X169560899Y-55236367D01*
X169549465Y-55198674D01*
X169545000Y-55153339D01*
X169545000Y-54066661D01*
X169549465Y-54021326D01*
X169560899Y-53983633D01*
X169579466Y-53948897D01*
X169604452Y-53918452D01*
X169634897Y-53893466D01*
X169669633Y-53874899D01*
X169707326Y-53863465D01*
X169752661Y-53859000D01*
X170589339Y-53859000D01*
X170634674Y-53863465D01*
G37*
G36*
X172684674Y-53863465D02*
G01*
X172722367Y-53874899D01*
X172757103Y-53893466D01*
X172787548Y-53918452D01*
X172812534Y-53948897D01*
X172831101Y-53983633D01*
X172842535Y-54021326D01*
X172847000Y-54066661D01*
X172847000Y-55153339D01*
X172842535Y-55198674D01*
X172831101Y-55236367D01*
X172812534Y-55271103D01*
X172787548Y-55301548D01*
X172757103Y-55326534D01*
X172722367Y-55345101D01*
X172684674Y-55356535D01*
X172639339Y-55361000D01*
X171802661Y-55361000D01*
X171757326Y-55356535D01*
X171719633Y-55345101D01*
X171684897Y-55326534D01*
X171654452Y-55301548D01*
X171629466Y-55271103D01*
X171610899Y-55236367D01*
X171599465Y-55198674D01*
X171595000Y-55153339D01*
X171595000Y-54066661D01*
X171599465Y-54021326D01*
X171610899Y-53983633D01*
X171629466Y-53948897D01*
X171654452Y-53918452D01*
X171684897Y-53893466D01*
X171719633Y-53874899D01*
X171757326Y-53863465D01*
X171802661Y-53859000D01*
X172639339Y-53859000D01*
X172684674Y-53863465D01*
G37*
G36*
X176984674Y-53863465D02*
G01*
X177022367Y-53874899D01*
X177057103Y-53893466D01*
X177087548Y-53918452D01*
X177112534Y-53948897D01*
X177131101Y-53983633D01*
X177142535Y-54021326D01*
X177147000Y-54066661D01*
X177147000Y-55153339D01*
X177142535Y-55198674D01*
X177131101Y-55236367D01*
X177112534Y-55271103D01*
X177087548Y-55301548D01*
X177057103Y-55326534D01*
X177022367Y-55345101D01*
X176984674Y-55356535D01*
X176939339Y-55361000D01*
X176102661Y-55361000D01*
X176057326Y-55356535D01*
X176019633Y-55345101D01*
X175984897Y-55326534D01*
X175954452Y-55301548D01*
X175929466Y-55271103D01*
X175910899Y-55236367D01*
X175899465Y-55198674D01*
X175895000Y-55153339D01*
X175895000Y-54066661D01*
X175899465Y-54021326D01*
X175910899Y-53983633D01*
X175929466Y-53948897D01*
X175954452Y-53918452D01*
X175984897Y-53893466D01*
X176019633Y-53874899D01*
X176057326Y-53863465D01*
X176102661Y-53859000D01*
X176939339Y-53859000D01*
X176984674Y-53863465D01*
G37*
G36*
X179034674Y-53863465D02*
G01*
X179072367Y-53874899D01*
X179107103Y-53893466D01*
X179137548Y-53918452D01*
X179162534Y-53948897D01*
X179181101Y-53983633D01*
X179192535Y-54021326D01*
X179197000Y-54066661D01*
X179197000Y-55153339D01*
X179192535Y-55198674D01*
X179181101Y-55236367D01*
X179162534Y-55271103D01*
X179137548Y-55301548D01*
X179107103Y-55326534D01*
X179072367Y-55345101D01*
X179034674Y-55356535D01*
X178989339Y-55361000D01*
X178152661Y-55361000D01*
X178107326Y-55356535D01*
X178069633Y-55345101D01*
X178034897Y-55326534D01*
X178004452Y-55301548D01*
X177979466Y-55271103D01*
X177960899Y-55236367D01*
X177949465Y-55198674D01*
X177945000Y-55153339D01*
X177945000Y-54066661D01*
X177949465Y-54021326D01*
X177960899Y-53983633D01*
X177979466Y-53948897D01*
X178004452Y-53918452D01*
X178034897Y-53893466D01*
X178069633Y-53874899D01*
X178107326Y-53863465D01*
X178152661Y-53859000D01*
X178989339Y-53859000D01*
X179034674Y-53863465D01*
G37*
G36*
X110883000Y-54495000D02*
G01*
X109081000Y-54495000D01*
X109081000Y-52693000D01*
X110883000Y-52693000D01*
X110883000Y-54495000D01*
G37*
G36*
X119551000Y-54222000D02*
G01*
X117449000Y-54222000D01*
X117449000Y-53220000D01*
X119551000Y-53220000D01*
X119551000Y-54222000D01*
G37*
G36*
X136551000Y-54222000D02*
G01*
X134449000Y-54222000D01*
X134449000Y-53220000D01*
X136551000Y-53220000D01*
X136551000Y-54222000D01*
G37*
G36*
X98773997Y-52239051D02*
G01*
X98807652Y-52249261D01*
X98838665Y-52265838D01*
X98865851Y-52288149D01*
X98888162Y-52315335D01*
X98904739Y-52346348D01*
X98914949Y-52380003D01*
X98919000Y-52421138D01*
X98919000Y-53750862D01*
X98914949Y-53791997D01*
X98904739Y-53825652D01*
X98888162Y-53856665D01*
X98865851Y-53883851D01*
X98838665Y-53906162D01*
X98807652Y-53922739D01*
X98773997Y-53932949D01*
X98732862Y-53937000D01*
X96003138Y-53937000D01*
X95962003Y-53932949D01*
X95928348Y-53922739D01*
X95897335Y-53906162D01*
X95870149Y-53883851D01*
X95847838Y-53856665D01*
X95831261Y-53825652D01*
X95821051Y-53791997D01*
X95817000Y-53750862D01*
X95817000Y-52421138D01*
X95821051Y-52380003D01*
X95831261Y-52346348D01*
X95847838Y-52315335D01*
X95870149Y-52288149D01*
X95897335Y-52265838D01*
X95928348Y-52249261D01*
X95962003Y-52239051D01*
X96003138Y-52235000D01*
X98732862Y-52235000D01*
X98773997Y-52239051D01*
G37*
G36*
X103173997Y-52239051D02*
G01*
X103207652Y-52249261D01*
X103238665Y-52265838D01*
X103265851Y-52288149D01*
X103288162Y-52315335D01*
X103304739Y-52346348D01*
X103314949Y-52380003D01*
X103319000Y-52421138D01*
X103319000Y-53750862D01*
X103314949Y-53791997D01*
X103304739Y-53825652D01*
X103288162Y-53856665D01*
X103265851Y-53883851D01*
X103238665Y-53906162D01*
X103207652Y-53922739D01*
X103173997Y-53932949D01*
X103132862Y-53937000D01*
X100403138Y-53937000D01*
X100362003Y-53932949D01*
X100328348Y-53922739D01*
X100297335Y-53906162D01*
X100270149Y-53883851D01*
X100247838Y-53856665D01*
X100231261Y-53825652D01*
X100221051Y-53791997D01*
X100217000Y-53750862D01*
X100217000Y-52421138D01*
X100221051Y-52380003D01*
X100231261Y-52346348D01*
X100247838Y-52315335D01*
X100270149Y-52288149D01*
X100297335Y-52265838D01*
X100328348Y-52249261D01*
X100362003Y-52239051D01*
X100403138Y-52235000D01*
X103132862Y-52235000D01*
X103173997Y-52239051D01*
G37*
G36*
X185400956Y-52311455D02*
G01*
X185498683Y-52351936D01*
X185547548Y-52372176D01*
X185679473Y-52460325D01*
X185791675Y-52572527D01*
X185879824Y-52704452D01*
X185879824Y-52704453D01*
X185940545Y-52851044D01*
X185971500Y-53006665D01*
X185971500Y-53165335D01*
X185940545Y-53320956D01*
X185905138Y-53406434D01*
X185879824Y-53467548D01*
X185791675Y-53599473D01*
X185679473Y-53711675D01*
X185547548Y-53799824D01*
X185501712Y-53818810D01*
X185400956Y-53860545D01*
X185245335Y-53891500D01*
X185086665Y-53891500D01*
X184931044Y-53860545D01*
X184830288Y-53818810D01*
X184784452Y-53799824D01*
X184652527Y-53711675D01*
X184540325Y-53599473D01*
X184452176Y-53467548D01*
X184426862Y-53406434D01*
X184391455Y-53320956D01*
X184360500Y-53165335D01*
X184360500Y-53006665D01*
X184391455Y-52851044D01*
X184452176Y-52704453D01*
X184452176Y-52704452D01*
X184540325Y-52572527D01*
X184652527Y-52460325D01*
X184784452Y-52372176D01*
X184833317Y-52351936D01*
X184931044Y-52311455D01*
X185086665Y-52280500D01*
X185245335Y-52280500D01*
X185400956Y-52311455D01*
G37*
G36*
X196559923Y-51861466D02*
G01*
X196671520Y-51883664D01*
X196830942Y-51949699D01*
X196974418Y-52045566D01*
X197096434Y-52167582D01*
X197192301Y-52311058D01*
X197258336Y-52470480D01*
X197292000Y-52639721D01*
X197292000Y-52812279D01*
X197258336Y-52981520D01*
X197192301Y-53140942D01*
X197096434Y-53284418D01*
X196974418Y-53406434D01*
X196830942Y-53502301D01*
X196671520Y-53568336D01*
X196502280Y-53602000D01*
X196329720Y-53602000D01*
X196160480Y-53568336D01*
X196001058Y-53502301D01*
X195857582Y-53406434D01*
X195735566Y-53284418D01*
X195639699Y-53140942D01*
X195573664Y-52981520D01*
X195540000Y-52812279D01*
X195540000Y-52639721D01*
X195573664Y-52470480D01*
X195639699Y-52311058D01*
X195735566Y-52167582D01*
X195857582Y-52045566D01*
X196001058Y-51949699D01*
X196160480Y-51883664D01*
X196272077Y-51861466D01*
X196329720Y-51850000D01*
X196502280Y-51850000D01*
X196559923Y-51861466D01*
G37*
G36*
X179025674Y-51831465D02*
G01*
X179063367Y-51842899D01*
X179098103Y-51861466D01*
X179128548Y-51886452D01*
X179153534Y-51916897D01*
X179172101Y-51951633D01*
X179183535Y-51989326D01*
X179188000Y-52034661D01*
X179188000Y-53121339D01*
X179183535Y-53166674D01*
X179172101Y-53204367D01*
X179153534Y-53239103D01*
X179128548Y-53269548D01*
X179098103Y-53294534D01*
X179063367Y-53313101D01*
X179025674Y-53324535D01*
X178980339Y-53329000D01*
X178143661Y-53329000D01*
X178098326Y-53324535D01*
X178060633Y-53313101D01*
X178025897Y-53294534D01*
X177995452Y-53269548D01*
X177970466Y-53239103D01*
X177951899Y-53204367D01*
X177940465Y-53166674D01*
X177936000Y-53121339D01*
X177936000Y-52034661D01*
X177940465Y-51989326D01*
X177951899Y-51951633D01*
X177970466Y-51916897D01*
X177995452Y-51886452D01*
X178025897Y-51861466D01*
X178060633Y-51842899D01*
X178098326Y-51831465D01*
X178143661Y-51827000D01*
X178980339Y-51827000D01*
X179025674Y-51831465D01*
G37*
G36*
X176975674Y-51831465D02*
G01*
X177013367Y-51842899D01*
X177048103Y-51861466D01*
X177078548Y-51886452D01*
X177103534Y-51916897D01*
X177122101Y-51951633D01*
X177133535Y-51989326D01*
X177138000Y-52034661D01*
X177138000Y-53121339D01*
X177133535Y-53166674D01*
X177122101Y-53204367D01*
X177103534Y-53239103D01*
X177078548Y-53269548D01*
X177048103Y-53294534D01*
X177013367Y-53313101D01*
X176975674Y-53324535D01*
X176930339Y-53329000D01*
X176093661Y-53329000D01*
X176048326Y-53324535D01*
X176010633Y-53313101D01*
X175975897Y-53294534D01*
X175945452Y-53269548D01*
X175920466Y-53239103D01*
X175901899Y-53204367D01*
X175890465Y-53166674D01*
X175886000Y-53121339D01*
X175886000Y-52034661D01*
X175890465Y-51989326D01*
X175901899Y-51951633D01*
X175920466Y-51916897D01*
X175945452Y-51886452D01*
X175975897Y-51861466D01*
X176010633Y-51842899D01*
X176048326Y-51831465D01*
X176093661Y-51827000D01*
X176930339Y-51827000D01*
X176975674Y-51831465D01*
G37*
G36*
X119551000Y-52952000D02*
G01*
X117449000Y-52952000D01*
X117449000Y-51950000D01*
X119551000Y-51950000D01*
X119551000Y-52952000D01*
G37*
G36*
X136551000Y-52952000D02*
G01*
X134449000Y-52952000D01*
X134449000Y-51950000D01*
X136551000Y-51950000D01*
X136551000Y-52952000D01*
G37*
G36*
X182860956Y-51041455D02*
G01*
X182949001Y-51077925D01*
X183007548Y-51102176D01*
X183139473Y-51190325D01*
X183251675Y-51302527D01*
X183339824Y-51434452D01*
X183339824Y-51434453D01*
X183400545Y-51581044D01*
X183431500Y-51736665D01*
X183431500Y-51895335D01*
X183400545Y-52050956D01*
X183360064Y-52148683D01*
X183339824Y-52197548D01*
X183251675Y-52329473D01*
X183139473Y-52441675D01*
X183007548Y-52529824D01*
X182958683Y-52550064D01*
X182860956Y-52590545D01*
X182705335Y-52621500D01*
X182546665Y-52621500D01*
X182391044Y-52590545D01*
X182293317Y-52550064D01*
X182244452Y-52529824D01*
X182112527Y-52441675D01*
X182000325Y-52329473D01*
X181912176Y-52197548D01*
X181891936Y-52148683D01*
X181851455Y-52050956D01*
X181820500Y-51895335D01*
X181820500Y-51736665D01*
X181851455Y-51581044D01*
X181912176Y-51434453D01*
X181912176Y-51434452D01*
X182000325Y-51302527D01*
X182112527Y-51190325D01*
X182244452Y-51102176D01*
X182302999Y-51077925D01*
X182391044Y-51041455D01*
X182546665Y-51010500D01*
X182705335Y-51010500D01*
X182860956Y-51041455D01*
G37*
G36*
X136551000Y-51682000D02*
G01*
X134449000Y-51682000D01*
X134449000Y-50680000D01*
X136551000Y-50680000D01*
X136551000Y-51682000D01*
G37*
G36*
X119551000Y-51682000D02*
G01*
X117449000Y-51682000D01*
X117449000Y-50680000D01*
X119551000Y-50680000D01*
X119551000Y-51682000D01*
G37*
G36*
X185400956Y-49771455D02*
G01*
X185490710Y-49808633D01*
X185547548Y-49832176D01*
X185679473Y-49920325D01*
X185791675Y-50032527D01*
X185879824Y-50164452D01*
X185879824Y-50164453D01*
X185940545Y-50311044D01*
X185971500Y-50466665D01*
X185971500Y-50625335D01*
X185940545Y-50780956D01*
X185913071Y-50847282D01*
X185879824Y-50927548D01*
X185791675Y-51059473D01*
X185679473Y-51171675D01*
X185547548Y-51259824D01*
X185541005Y-51262534D01*
X185400956Y-51320545D01*
X185245335Y-51351500D01*
X185086665Y-51351500D01*
X184931044Y-51320545D01*
X184790995Y-51262534D01*
X184784452Y-51259824D01*
X184652527Y-51171675D01*
X184540325Y-51059473D01*
X184452176Y-50927548D01*
X184418929Y-50847282D01*
X184391455Y-50780956D01*
X184360500Y-50625335D01*
X184360500Y-50466665D01*
X184391455Y-50311044D01*
X184452176Y-50164453D01*
X184452176Y-50164452D01*
X184540325Y-50032527D01*
X184652527Y-49920325D01*
X184784452Y-49832176D01*
X184841290Y-49808633D01*
X184931044Y-49771455D01*
X185086665Y-49740500D01*
X185245335Y-49740500D01*
X185400956Y-49771455D01*
G37*
G36*
X176984674Y-49799465D02*
G01*
X177022367Y-49810899D01*
X177057103Y-49829466D01*
X177087548Y-49854452D01*
X177112534Y-49884897D01*
X177131101Y-49919633D01*
X177142535Y-49957326D01*
X177147000Y-50002661D01*
X177147000Y-51089339D01*
X177142535Y-51134674D01*
X177131101Y-51172367D01*
X177112534Y-51207103D01*
X177087548Y-51237548D01*
X177057103Y-51262534D01*
X177022367Y-51281101D01*
X176984674Y-51292535D01*
X176939339Y-51297000D01*
X176102661Y-51297000D01*
X176057326Y-51292535D01*
X176019633Y-51281101D01*
X175984897Y-51262534D01*
X175954452Y-51237548D01*
X175929466Y-51207103D01*
X175910899Y-51172367D01*
X175899465Y-51134674D01*
X175895000Y-51089339D01*
X175895000Y-50002661D01*
X175899465Y-49957326D01*
X175910899Y-49919633D01*
X175929466Y-49884897D01*
X175954452Y-49854452D01*
X175984897Y-49829466D01*
X176019633Y-49810899D01*
X176057326Y-49799465D01*
X176102661Y-49795000D01*
X176939339Y-49795000D01*
X176984674Y-49799465D01*
G37*
G36*
X179034674Y-49799465D02*
G01*
X179072367Y-49810899D01*
X179107103Y-49829466D01*
X179137548Y-49854452D01*
X179162534Y-49884897D01*
X179181101Y-49919633D01*
X179192535Y-49957326D01*
X179197000Y-50002661D01*
X179197000Y-51089339D01*
X179192535Y-51134674D01*
X179181101Y-51172367D01*
X179162534Y-51207103D01*
X179137548Y-51237548D01*
X179107103Y-51262534D01*
X179072367Y-51281101D01*
X179034674Y-51292535D01*
X178989339Y-51297000D01*
X178152661Y-51297000D01*
X178107326Y-51292535D01*
X178069633Y-51281101D01*
X178034897Y-51262534D01*
X178004452Y-51237548D01*
X177979466Y-51207103D01*
X177960899Y-51172367D01*
X177949465Y-51134674D01*
X177945000Y-51089339D01*
X177945000Y-50002661D01*
X177949465Y-49957326D01*
X177960899Y-49919633D01*
X177979466Y-49884897D01*
X178004452Y-49854452D01*
X178034897Y-49829466D01*
X178069633Y-49810899D01*
X178107326Y-49799465D01*
X178152661Y-49795000D01*
X178989339Y-49795000D01*
X179034674Y-49799465D01*
G37*
G36*
X166463000Y-51277000D02*
G01*
X165261000Y-51277000D01*
X165261000Y-50075000D01*
X166463000Y-50075000D01*
X166463000Y-51277000D01*
G37*
G36*
X154004674Y-49688465D02*
G01*
X154042367Y-49699899D01*
X154077103Y-49718466D01*
X154107548Y-49743452D01*
X154132534Y-49773897D01*
X154151101Y-49808633D01*
X154162535Y-49846326D01*
X154167000Y-49891661D01*
X154167000Y-50728339D01*
X154162535Y-50773674D01*
X154151101Y-50811367D01*
X154132534Y-50846103D01*
X154107548Y-50876548D01*
X154077103Y-50901534D01*
X154042367Y-50920101D01*
X154004674Y-50931535D01*
X153959339Y-50936000D01*
X152872661Y-50936000D01*
X152827326Y-50931535D01*
X152789633Y-50920101D01*
X152754897Y-50901534D01*
X152724452Y-50876548D01*
X152699466Y-50846103D01*
X152680899Y-50811367D01*
X152669465Y-50773674D01*
X152665000Y-50728339D01*
X152665000Y-49891661D01*
X152669465Y-49846326D01*
X152680899Y-49808633D01*
X152699466Y-49773897D01*
X152724452Y-49743452D01*
X152754897Y-49718466D01*
X152789633Y-49699899D01*
X152827326Y-49688465D01*
X152872661Y-49684000D01*
X153959339Y-49684000D01*
X154004674Y-49688465D01*
G37*
G36*
X156036674Y-49688465D02*
G01*
X156074367Y-49699899D01*
X156109103Y-49718466D01*
X156139548Y-49743452D01*
X156164534Y-49773897D01*
X156183101Y-49808633D01*
X156194535Y-49846326D01*
X156199000Y-49891661D01*
X156199000Y-50728339D01*
X156194535Y-50773674D01*
X156183101Y-50811367D01*
X156164534Y-50846103D01*
X156139548Y-50876548D01*
X156109103Y-50901534D01*
X156074367Y-50920101D01*
X156036674Y-50931535D01*
X155991339Y-50936000D01*
X154904661Y-50936000D01*
X154859326Y-50931535D01*
X154821633Y-50920101D01*
X154786897Y-50901534D01*
X154756452Y-50876548D01*
X154731466Y-50846103D01*
X154712899Y-50811367D01*
X154701465Y-50773674D01*
X154697000Y-50728339D01*
X154697000Y-49891661D01*
X154701465Y-49846326D01*
X154712899Y-49808633D01*
X154731466Y-49773897D01*
X154756452Y-49743452D01*
X154786897Y-49718466D01*
X154821633Y-49699899D01*
X154859326Y-49688465D01*
X154904661Y-49684000D01*
X155991339Y-49684000D01*
X156036674Y-49688465D01*
G37*
G36*
X164164674Y-49679465D02*
G01*
X164202367Y-49690899D01*
X164237103Y-49709466D01*
X164267548Y-49734452D01*
X164292534Y-49764897D01*
X164311101Y-49799633D01*
X164322535Y-49837326D01*
X164327000Y-49882661D01*
X164327000Y-50719339D01*
X164322535Y-50764674D01*
X164311101Y-50802367D01*
X164292534Y-50837103D01*
X164267548Y-50867548D01*
X164237103Y-50892534D01*
X164202367Y-50911101D01*
X164164674Y-50922535D01*
X164119339Y-50927000D01*
X163032661Y-50927000D01*
X162987326Y-50922535D01*
X162949633Y-50911101D01*
X162914897Y-50892534D01*
X162884452Y-50867548D01*
X162859466Y-50837103D01*
X162840899Y-50802367D01*
X162829465Y-50764674D01*
X162825000Y-50719339D01*
X162825000Y-49882661D01*
X162829465Y-49837326D01*
X162840899Y-49799633D01*
X162859466Y-49764897D01*
X162884452Y-49734452D01*
X162914897Y-49709466D01*
X162949633Y-49690899D01*
X162987326Y-49679465D01*
X163032661Y-49675000D01*
X164119339Y-49675000D01*
X164164674Y-49679465D01*
G37*
G36*
X160100674Y-49679465D02*
G01*
X160138367Y-49690899D01*
X160173103Y-49709466D01*
X160203548Y-49734452D01*
X160228534Y-49764897D01*
X160247101Y-49799633D01*
X160258535Y-49837326D01*
X160263000Y-49882661D01*
X160263000Y-50719339D01*
X160258535Y-50764674D01*
X160247101Y-50802367D01*
X160228534Y-50837103D01*
X160203548Y-50867548D01*
X160173103Y-50892534D01*
X160138367Y-50911101D01*
X160100674Y-50922535D01*
X160055339Y-50927000D01*
X158968661Y-50927000D01*
X158923326Y-50922535D01*
X158885633Y-50911101D01*
X158850897Y-50892534D01*
X158820452Y-50867548D01*
X158795466Y-50837103D01*
X158776899Y-50802367D01*
X158765465Y-50764674D01*
X158761000Y-50719339D01*
X158761000Y-49882661D01*
X158765465Y-49837326D01*
X158776899Y-49799633D01*
X158795466Y-49764897D01*
X158820452Y-49734452D01*
X158850897Y-49709466D01*
X158885633Y-49690899D01*
X158923326Y-49679465D01*
X158968661Y-49675000D01*
X160055339Y-49675000D01*
X160100674Y-49679465D01*
G37*
G36*
X158068674Y-49670465D02*
G01*
X158106367Y-49681899D01*
X158141103Y-49700466D01*
X158171548Y-49725452D01*
X158196534Y-49755897D01*
X158215101Y-49790633D01*
X158226535Y-49828326D01*
X158231000Y-49873661D01*
X158231000Y-50710339D01*
X158226535Y-50755674D01*
X158215101Y-50793367D01*
X158196534Y-50828103D01*
X158171548Y-50858548D01*
X158141103Y-50883534D01*
X158106367Y-50902101D01*
X158068674Y-50913535D01*
X158023339Y-50918000D01*
X156936661Y-50918000D01*
X156891326Y-50913535D01*
X156853633Y-50902101D01*
X156818897Y-50883534D01*
X156788452Y-50858548D01*
X156763466Y-50828103D01*
X156744899Y-50793367D01*
X156733465Y-50755674D01*
X156729000Y-50710339D01*
X156729000Y-49873661D01*
X156733465Y-49828326D01*
X156744899Y-49790633D01*
X156763466Y-49755897D01*
X156788452Y-49725452D01*
X156818897Y-49700466D01*
X156853633Y-49681899D01*
X156891326Y-49670465D01*
X156936661Y-49666000D01*
X158023339Y-49666000D01*
X158068674Y-49670465D01*
G37*
G36*
X162132674Y-49670465D02*
G01*
X162170367Y-49681899D01*
X162205103Y-49700466D01*
X162235548Y-49725452D01*
X162260534Y-49755897D01*
X162279101Y-49790633D01*
X162290535Y-49828326D01*
X162295000Y-49873661D01*
X162295000Y-50710339D01*
X162290535Y-50755674D01*
X162279101Y-50793367D01*
X162260534Y-50828103D01*
X162235548Y-50858548D01*
X162205103Y-50883534D01*
X162170367Y-50902101D01*
X162132674Y-50913535D01*
X162087339Y-50918000D01*
X161000661Y-50918000D01*
X160955326Y-50913535D01*
X160917633Y-50902101D01*
X160882897Y-50883534D01*
X160852452Y-50858548D01*
X160827466Y-50828103D01*
X160808899Y-50793367D01*
X160797465Y-50755674D01*
X160793000Y-50710339D01*
X160793000Y-49873661D01*
X160797465Y-49828326D01*
X160808899Y-49790633D01*
X160827466Y-49755897D01*
X160852452Y-49725452D01*
X160882897Y-49700466D01*
X160917633Y-49681899D01*
X160955326Y-49670465D01*
X161000661Y-49666000D01*
X162087339Y-49666000D01*
X162132674Y-49670465D01*
G37*
G36*
X119551000Y-50412000D02*
G01*
X117449000Y-50412000D01*
X117449000Y-49410000D01*
X119551000Y-49410000D01*
X119551000Y-50412000D01*
G37*
G36*
X136551000Y-50412000D02*
G01*
X134449000Y-50412000D01*
X134449000Y-49410000D01*
X136551000Y-49410000D01*
X136551000Y-50412000D01*
G37*
G36*
X108658674Y-48783465D02*
G01*
X108696367Y-48794899D01*
X108731103Y-48813466D01*
X108761548Y-48838452D01*
X108786534Y-48868897D01*
X108805101Y-48903633D01*
X108816535Y-48941326D01*
X108821000Y-48986661D01*
X108821000Y-50073339D01*
X108816535Y-50118674D01*
X108805101Y-50156367D01*
X108786534Y-50191103D01*
X108761548Y-50221548D01*
X108731103Y-50246534D01*
X108696367Y-50265101D01*
X108658674Y-50276535D01*
X108613339Y-50281000D01*
X107776661Y-50281000D01*
X107731326Y-50276535D01*
X107693633Y-50265101D01*
X107658897Y-50246534D01*
X107628452Y-50221548D01*
X107603466Y-50191103D01*
X107584899Y-50156367D01*
X107573465Y-50118674D01*
X107569000Y-50073339D01*
X107569000Y-48986661D01*
X107573465Y-48941326D01*
X107584899Y-48903633D01*
X107603466Y-48868897D01*
X107628452Y-48838452D01*
X107658897Y-48813466D01*
X107693633Y-48794899D01*
X107731326Y-48783465D01*
X107776661Y-48779000D01*
X108613339Y-48779000D01*
X108658674Y-48783465D01*
G37*
G36*
X110708674Y-48783465D02*
G01*
X110746367Y-48794899D01*
X110781103Y-48813466D01*
X110811548Y-48838452D01*
X110836534Y-48868897D01*
X110855101Y-48903633D01*
X110866535Y-48941326D01*
X110871000Y-48986661D01*
X110871000Y-50073339D01*
X110866535Y-50118674D01*
X110855101Y-50156367D01*
X110836534Y-50191103D01*
X110811548Y-50221548D01*
X110781103Y-50246534D01*
X110746367Y-50265101D01*
X110708674Y-50276535D01*
X110663339Y-50281000D01*
X109826661Y-50281000D01*
X109781326Y-50276535D01*
X109743633Y-50265101D01*
X109708897Y-50246534D01*
X109678452Y-50221548D01*
X109653466Y-50191103D01*
X109634899Y-50156367D01*
X109623465Y-50118674D01*
X109619000Y-50073339D01*
X109619000Y-48986661D01*
X109623465Y-48941326D01*
X109634899Y-48903633D01*
X109653466Y-48868897D01*
X109678452Y-48838452D01*
X109708897Y-48813466D01*
X109743633Y-48794899D01*
X109781326Y-48783465D01*
X109826661Y-48779000D01*
X110663339Y-48779000D01*
X110708674Y-48783465D01*
G37*
G36*
X182860956Y-48501455D02*
G01*
X182956424Y-48541000D01*
X183007548Y-48562176D01*
X183139473Y-48650325D01*
X183251675Y-48762527D01*
X183339824Y-48894452D01*
X183339824Y-48894453D01*
X183400545Y-49041044D01*
X183431500Y-49196665D01*
X183431500Y-49355335D01*
X183400545Y-49510956D01*
X183360064Y-49608683D01*
X183339824Y-49657548D01*
X183251675Y-49789473D01*
X183139473Y-49901675D01*
X183007548Y-49989824D01*
X182958683Y-50010064D01*
X182860956Y-50050545D01*
X182705335Y-50081500D01*
X182546665Y-50081500D01*
X182391044Y-50050545D01*
X182293317Y-50010064D01*
X182244452Y-49989824D01*
X182112527Y-49901675D01*
X182000325Y-49789473D01*
X181912176Y-49657548D01*
X181891936Y-49608683D01*
X181851455Y-49510956D01*
X181820500Y-49355335D01*
X181820500Y-49196665D01*
X181851455Y-49041044D01*
X181912176Y-48894453D01*
X181912176Y-48894452D01*
X182000325Y-48762527D01*
X182112527Y-48650325D01*
X182244452Y-48562176D01*
X182295576Y-48541000D01*
X182391044Y-48501455D01*
X182546665Y-48470500D01*
X182705335Y-48470500D01*
X182860956Y-48501455D01*
G37*
G36*
X128551000Y-49802000D02*
G01*
X123449000Y-49802000D01*
X123449000Y-44700000D01*
X128551000Y-44700000D01*
X128551000Y-49802000D01*
G37*
G36*
X179034674Y-47767465D02*
G01*
X179072367Y-47778899D01*
X179107103Y-47797466D01*
X179137548Y-47822452D01*
X179162534Y-47852897D01*
X179181101Y-47887633D01*
X179192535Y-47925326D01*
X179197000Y-47970661D01*
X179197000Y-49057339D01*
X179192535Y-49102674D01*
X179181101Y-49140367D01*
X179162534Y-49175103D01*
X179137548Y-49205548D01*
X179107103Y-49230534D01*
X179072367Y-49249101D01*
X179034674Y-49260535D01*
X178989339Y-49265000D01*
X178152661Y-49265000D01*
X178107326Y-49260535D01*
X178069633Y-49249101D01*
X178034897Y-49230534D01*
X178004452Y-49205548D01*
X177979466Y-49175103D01*
X177960899Y-49140367D01*
X177949465Y-49102674D01*
X177945000Y-49057339D01*
X177945000Y-47970661D01*
X177949465Y-47925326D01*
X177960899Y-47887633D01*
X177979466Y-47852897D01*
X178004452Y-47822452D01*
X178034897Y-47797466D01*
X178069633Y-47778899D01*
X178107326Y-47767465D01*
X178152661Y-47763000D01*
X178989339Y-47763000D01*
X179034674Y-47767465D01*
G37*
G36*
X176984674Y-47767465D02*
G01*
X177022367Y-47778899D01*
X177057103Y-47797466D01*
X177087548Y-47822452D01*
X177112534Y-47852897D01*
X177131101Y-47887633D01*
X177142535Y-47925326D01*
X177147000Y-47970661D01*
X177147000Y-49057339D01*
X177142535Y-49102674D01*
X177131101Y-49140367D01*
X177112534Y-49175103D01*
X177087548Y-49205548D01*
X177057103Y-49230534D01*
X177022367Y-49249101D01*
X176984674Y-49260535D01*
X176939339Y-49265000D01*
X176102661Y-49265000D01*
X176057326Y-49260535D01*
X176019633Y-49249101D01*
X175984897Y-49230534D01*
X175954452Y-49205548D01*
X175929466Y-49175103D01*
X175910899Y-49140367D01*
X175899465Y-49102674D01*
X175895000Y-49057339D01*
X175895000Y-47970661D01*
X175899465Y-47925326D01*
X175910899Y-47887633D01*
X175929466Y-47852897D01*
X175954452Y-47822452D01*
X175984897Y-47797466D01*
X176019633Y-47778899D01*
X176057326Y-47767465D01*
X176102661Y-47763000D01*
X176939339Y-47763000D01*
X176984674Y-47767465D01*
G37*
G36*
X119551000Y-49142000D02*
G01*
X117449000Y-49142000D01*
X117449000Y-48140000D01*
X119551000Y-48140000D01*
X119551000Y-49142000D01*
G37*
G36*
X136551000Y-49142000D02*
G01*
X134449000Y-49142000D01*
X134449000Y-48140000D01*
X136551000Y-48140000D01*
X136551000Y-49142000D01*
G37*
G36*
X156036674Y-47638465D02*
G01*
X156074367Y-47649899D01*
X156109103Y-47668466D01*
X156139548Y-47693452D01*
X156164534Y-47723897D01*
X156183101Y-47758633D01*
X156194535Y-47796326D01*
X156199000Y-47841661D01*
X156199000Y-48678339D01*
X156194535Y-48723674D01*
X156183101Y-48761367D01*
X156164534Y-48796103D01*
X156139548Y-48826548D01*
X156109103Y-48851534D01*
X156074367Y-48870101D01*
X156036674Y-48881535D01*
X155991339Y-48886000D01*
X154904661Y-48886000D01*
X154859326Y-48881535D01*
X154821633Y-48870101D01*
X154786897Y-48851534D01*
X154756452Y-48826548D01*
X154731466Y-48796103D01*
X154712899Y-48761367D01*
X154701465Y-48723674D01*
X154697000Y-48678339D01*
X154697000Y-47841661D01*
X154701465Y-47796326D01*
X154712899Y-47758633D01*
X154731466Y-47723897D01*
X154756452Y-47693452D01*
X154786897Y-47668466D01*
X154821633Y-47649899D01*
X154859326Y-47638465D01*
X154904661Y-47634000D01*
X155991339Y-47634000D01*
X156036674Y-47638465D01*
G37*
G36*
X154004674Y-47638465D02*
G01*
X154042367Y-47649899D01*
X154077103Y-47668466D01*
X154107548Y-47693452D01*
X154132534Y-47723897D01*
X154151101Y-47758633D01*
X154162535Y-47796326D01*
X154167000Y-47841661D01*
X154167000Y-48678339D01*
X154162535Y-48723674D01*
X154151101Y-48761367D01*
X154132534Y-48796103D01*
X154107548Y-48826548D01*
X154077103Y-48851534D01*
X154042367Y-48870101D01*
X154004674Y-48881535D01*
X153959339Y-48886000D01*
X152872661Y-48886000D01*
X152827326Y-48881535D01*
X152789633Y-48870101D01*
X152754897Y-48851534D01*
X152724452Y-48826548D01*
X152699466Y-48796103D01*
X152680899Y-48761367D01*
X152669465Y-48723674D01*
X152665000Y-48678339D01*
X152665000Y-47841661D01*
X152669465Y-47796326D01*
X152680899Y-47758633D01*
X152699466Y-47723897D01*
X152724452Y-47693452D01*
X152754897Y-47668466D01*
X152789633Y-47649899D01*
X152827326Y-47638465D01*
X152872661Y-47634000D01*
X153959339Y-47634000D01*
X154004674Y-47638465D01*
G37*
G36*
X164164674Y-47629465D02*
G01*
X164202367Y-47640899D01*
X164237103Y-47659466D01*
X164267548Y-47684452D01*
X164292534Y-47714897D01*
X164311101Y-47749633D01*
X164322535Y-47787326D01*
X164327000Y-47832661D01*
X164327000Y-48669339D01*
X164322535Y-48714674D01*
X164311101Y-48752367D01*
X164292534Y-48787103D01*
X164267548Y-48817548D01*
X164237103Y-48842534D01*
X164202367Y-48861101D01*
X164164674Y-48872535D01*
X164119339Y-48877000D01*
X163032661Y-48877000D01*
X162987326Y-48872535D01*
X162949633Y-48861101D01*
X162914897Y-48842534D01*
X162884452Y-48817548D01*
X162859466Y-48787103D01*
X162840899Y-48752367D01*
X162829465Y-48714674D01*
X162825000Y-48669339D01*
X162825000Y-47832661D01*
X162829465Y-47787326D01*
X162840899Y-47749633D01*
X162859466Y-47714897D01*
X162884452Y-47684452D01*
X162914897Y-47659466D01*
X162949633Y-47640899D01*
X162987326Y-47629465D01*
X163032661Y-47625000D01*
X164119339Y-47625000D01*
X164164674Y-47629465D01*
G37*
G36*
X160100674Y-47629465D02*
G01*
X160138367Y-47640899D01*
X160173103Y-47659466D01*
X160203548Y-47684452D01*
X160228534Y-47714897D01*
X160247101Y-47749633D01*
X160258535Y-47787326D01*
X160263000Y-47832661D01*
X160263000Y-48669339D01*
X160258535Y-48714674D01*
X160247101Y-48752367D01*
X160228534Y-48787103D01*
X160203548Y-48817548D01*
X160173103Y-48842534D01*
X160138367Y-48861101D01*
X160100674Y-48872535D01*
X160055339Y-48877000D01*
X158968661Y-48877000D01*
X158923326Y-48872535D01*
X158885633Y-48861101D01*
X158850897Y-48842534D01*
X158820452Y-48817548D01*
X158795466Y-48787103D01*
X158776899Y-48752367D01*
X158765465Y-48714674D01*
X158761000Y-48669339D01*
X158761000Y-47832661D01*
X158765465Y-47787326D01*
X158776899Y-47749633D01*
X158795466Y-47714897D01*
X158820452Y-47684452D01*
X158850897Y-47659466D01*
X158885633Y-47640899D01*
X158923326Y-47629465D01*
X158968661Y-47625000D01*
X160055339Y-47625000D01*
X160100674Y-47629465D01*
G37*
G36*
X158068674Y-47620465D02*
G01*
X158106367Y-47631899D01*
X158141103Y-47650466D01*
X158171548Y-47675452D01*
X158196534Y-47705897D01*
X158215101Y-47740633D01*
X158226535Y-47778326D01*
X158231000Y-47823661D01*
X158231000Y-48660339D01*
X158226535Y-48705674D01*
X158215101Y-48743367D01*
X158196534Y-48778103D01*
X158171548Y-48808548D01*
X158141103Y-48833534D01*
X158106367Y-48852101D01*
X158068674Y-48863535D01*
X158023339Y-48868000D01*
X156936661Y-48868000D01*
X156891326Y-48863535D01*
X156853633Y-48852101D01*
X156818897Y-48833534D01*
X156788452Y-48808548D01*
X156763466Y-48778103D01*
X156744899Y-48743367D01*
X156733465Y-48705674D01*
X156729000Y-48660339D01*
X156729000Y-47823661D01*
X156733465Y-47778326D01*
X156744899Y-47740633D01*
X156763466Y-47705897D01*
X156788452Y-47675452D01*
X156818897Y-47650466D01*
X156853633Y-47631899D01*
X156891326Y-47620465D01*
X156936661Y-47616000D01*
X158023339Y-47616000D01*
X158068674Y-47620465D01*
G37*
G36*
X162132674Y-47620465D02*
G01*
X162170367Y-47631899D01*
X162205103Y-47650466D01*
X162235548Y-47675452D01*
X162260534Y-47705897D01*
X162279101Y-47740633D01*
X162290535Y-47778326D01*
X162295000Y-47823661D01*
X162295000Y-48660339D01*
X162290535Y-48705674D01*
X162279101Y-48743367D01*
X162260534Y-48778103D01*
X162235548Y-48808548D01*
X162205103Y-48833534D01*
X162170367Y-48852101D01*
X162132674Y-48863535D01*
X162087339Y-48868000D01*
X161000661Y-48868000D01*
X160955326Y-48863535D01*
X160917633Y-48852101D01*
X160882897Y-48833534D01*
X160852452Y-48808548D01*
X160827466Y-48778103D01*
X160808899Y-48743367D01*
X160797465Y-48705674D01*
X160793000Y-48660339D01*
X160793000Y-47823661D01*
X160797465Y-47778326D01*
X160808899Y-47740633D01*
X160827466Y-47705897D01*
X160852452Y-47675452D01*
X160882897Y-47650466D01*
X160917633Y-47631899D01*
X160955326Y-47620465D01*
X161000661Y-47616000D01*
X162087339Y-47616000D01*
X162132674Y-47620465D01*
G37*
G36*
X185400956Y-47231455D02*
G01*
X185498683Y-47271936D01*
X185547548Y-47292176D01*
X185679473Y-47380325D01*
X185791675Y-47492527D01*
X185879824Y-47624452D01*
X185898055Y-47668466D01*
X185940545Y-47771044D01*
X185971500Y-47926665D01*
X185971500Y-48085335D01*
X185940545Y-48240956D01*
X185900064Y-48338683D01*
X185879824Y-48387548D01*
X185791675Y-48519473D01*
X185679473Y-48631675D01*
X185547548Y-48719824D01*
X185498683Y-48740064D01*
X185400956Y-48780545D01*
X185245335Y-48811500D01*
X185086665Y-48811500D01*
X184931044Y-48780545D01*
X184833317Y-48740064D01*
X184784452Y-48719824D01*
X184652527Y-48631675D01*
X184540325Y-48519473D01*
X184452176Y-48387548D01*
X184431936Y-48338683D01*
X184391455Y-48240956D01*
X184360500Y-48085335D01*
X184360500Y-47926665D01*
X184391455Y-47771044D01*
X184433945Y-47668466D01*
X184452176Y-47624452D01*
X184540325Y-47492527D01*
X184652527Y-47380325D01*
X184784452Y-47292176D01*
X184833317Y-47271936D01*
X184931044Y-47231455D01*
X185086665Y-47200500D01*
X185245335Y-47200500D01*
X185400956Y-47231455D01*
G37*
G36*
X98854585Y-45468802D02*
G01*
X99004410Y-45498604D01*
X99286674Y-45615521D01*
X99540705Y-45785259D01*
X99756741Y-46001295D01*
X99926479Y-46255326D01*
X99979020Y-46382173D01*
X100043396Y-46537591D01*
X100103000Y-46837239D01*
X100103000Y-47142761D01*
X100081773Y-47249476D01*
X100043396Y-47442410D01*
X99926479Y-47724674D01*
X99756741Y-47978705D01*
X99540705Y-48194741D01*
X99286674Y-48364479D01*
X99004410Y-48481396D01*
X98903566Y-48501455D01*
X98704761Y-48541000D01*
X98399239Y-48541000D01*
X98200434Y-48501455D01*
X98099590Y-48481396D01*
X97817326Y-48364479D01*
X97563295Y-48194741D01*
X97347259Y-47978705D01*
X97177521Y-47724674D01*
X97060604Y-47442410D01*
X97022227Y-47249476D01*
X97001000Y-47142761D01*
X97001000Y-46837239D01*
X97060604Y-46537591D01*
X97124980Y-46382173D01*
X97177521Y-46255326D01*
X97347259Y-46001295D01*
X97563295Y-45785259D01*
X97817326Y-45615521D01*
X98099590Y-45498604D01*
X98249415Y-45468802D01*
X98399239Y-45439000D01*
X98704761Y-45439000D01*
X98854585Y-45468802D01*
G37*
G36*
X166463000Y-48477000D02*
G01*
X165261000Y-48477000D01*
X165261000Y-47275000D01*
X166463000Y-47275000D01*
X166463000Y-48477000D01*
G37*
G36*
X108991000Y-47889000D02*
G01*
X107389000Y-47889000D01*
X107389000Y-45787000D01*
X108991000Y-45787000D01*
X108991000Y-47889000D01*
G37*
G36*
X113591000Y-47889000D02*
G01*
X111989000Y-47889000D01*
X111989000Y-45787000D01*
X113591000Y-45787000D01*
X113591000Y-47889000D01*
G37*
G36*
X111291000Y-47889000D02*
G01*
X109689000Y-47889000D01*
X109689000Y-45787000D01*
X111291000Y-45787000D01*
X111291000Y-47889000D01*
G37*
G36*
X136551000Y-47872000D02*
G01*
X134449000Y-47872000D01*
X134449000Y-46870000D01*
X136551000Y-46870000D01*
X136551000Y-47872000D01*
G37*
G36*
X119551000Y-47872000D02*
G01*
X117449000Y-47872000D01*
X117449000Y-46870000D01*
X119551000Y-46870000D01*
X119551000Y-47872000D01*
G37*
G36*
X182860956Y-45961455D02*
G01*
X182957137Y-46001295D01*
X183007548Y-46022176D01*
X183139473Y-46110325D01*
X183251675Y-46222527D01*
X183339824Y-46354452D01*
X183339824Y-46354453D01*
X183400545Y-46501044D01*
X183431500Y-46656665D01*
X183431500Y-46815335D01*
X183400545Y-46970956D01*
X183382746Y-47013925D01*
X183339824Y-47117548D01*
X183251675Y-47249473D01*
X183139473Y-47361675D01*
X183007548Y-47449824D01*
X182958683Y-47470064D01*
X182860956Y-47510545D01*
X182705335Y-47541500D01*
X182546665Y-47541500D01*
X182391044Y-47510545D01*
X182293317Y-47470064D01*
X182244452Y-47449824D01*
X182112527Y-47361675D01*
X182000325Y-47249473D01*
X181912176Y-47117548D01*
X181869254Y-47013925D01*
X181851455Y-46970956D01*
X181820500Y-46815335D01*
X181820500Y-46656665D01*
X181851455Y-46501044D01*
X181912176Y-46354453D01*
X181912176Y-46354452D01*
X182000325Y-46222527D01*
X182112527Y-46110325D01*
X182244452Y-46022176D01*
X182294863Y-46001295D01*
X182391044Y-45961455D01*
X182546665Y-45930500D01*
X182705335Y-45930500D01*
X182860956Y-45961455D01*
G37*
G36*
X116158674Y-46114465D02*
G01*
X116196367Y-46125899D01*
X116231103Y-46144466D01*
X116261548Y-46169452D01*
X116286534Y-46199897D01*
X116305101Y-46234633D01*
X116316535Y-46272326D01*
X116321000Y-46317661D01*
X116321000Y-47154339D01*
X116316535Y-47199674D01*
X116305101Y-47237367D01*
X116286534Y-47272103D01*
X116261548Y-47302548D01*
X116231103Y-47327534D01*
X116196367Y-47346101D01*
X116158674Y-47357535D01*
X116113339Y-47362000D01*
X115026661Y-47362000D01*
X114981326Y-47357535D01*
X114943633Y-47346101D01*
X114908897Y-47327534D01*
X114878452Y-47302548D01*
X114853466Y-47272103D01*
X114834899Y-47237367D01*
X114823465Y-47199674D01*
X114819000Y-47154339D01*
X114819000Y-46317661D01*
X114823465Y-46272326D01*
X114834899Y-46234633D01*
X114853466Y-46199897D01*
X114878452Y-46169452D01*
X114908897Y-46144466D01*
X114943633Y-46125899D01*
X114981326Y-46114465D01*
X115026661Y-46110000D01*
X116113339Y-46110000D01*
X116158674Y-46114465D01*
G37*
G36*
X179034674Y-45735465D02*
G01*
X179072367Y-45746899D01*
X179107103Y-45765466D01*
X179137548Y-45790452D01*
X179162534Y-45820897D01*
X179181101Y-45855633D01*
X179192535Y-45893326D01*
X179197000Y-45938661D01*
X179197000Y-47025339D01*
X179192535Y-47070674D01*
X179181101Y-47108367D01*
X179162534Y-47143103D01*
X179137548Y-47173548D01*
X179107103Y-47198534D01*
X179072367Y-47217101D01*
X179034674Y-47228535D01*
X178989339Y-47233000D01*
X178152661Y-47233000D01*
X178107326Y-47228535D01*
X178069633Y-47217101D01*
X178034897Y-47198534D01*
X178004452Y-47173548D01*
X177979466Y-47143103D01*
X177960899Y-47108367D01*
X177949465Y-47070674D01*
X177945000Y-47025339D01*
X177945000Y-45938661D01*
X177949465Y-45893326D01*
X177960899Y-45855633D01*
X177979466Y-45820897D01*
X178004452Y-45790452D01*
X178034897Y-45765466D01*
X178069633Y-45746899D01*
X178107326Y-45735465D01*
X178152661Y-45731000D01*
X178989339Y-45731000D01*
X179034674Y-45735465D01*
G37*
G36*
X176984674Y-45735465D02*
G01*
X177022367Y-45746899D01*
X177057103Y-45765466D01*
X177087548Y-45790452D01*
X177112534Y-45820897D01*
X177131101Y-45855633D01*
X177142535Y-45893326D01*
X177147000Y-45938661D01*
X177147000Y-47025339D01*
X177142535Y-47070674D01*
X177131101Y-47108367D01*
X177112534Y-47143103D01*
X177087548Y-47173548D01*
X177057103Y-47198534D01*
X177022367Y-47217101D01*
X176984674Y-47228535D01*
X176939339Y-47233000D01*
X176102661Y-47233000D01*
X176057326Y-47228535D01*
X176019633Y-47217101D01*
X175984897Y-47198534D01*
X175954452Y-47173548D01*
X175929466Y-47143103D01*
X175910899Y-47108367D01*
X175899465Y-47070674D01*
X175895000Y-47025339D01*
X175895000Y-45938661D01*
X175899465Y-45893326D01*
X175910899Y-45855633D01*
X175929466Y-45820897D01*
X175954452Y-45790452D01*
X175984897Y-45765466D01*
X176019633Y-45746899D01*
X176057326Y-45735465D01*
X176102661Y-45731000D01*
X176939339Y-45731000D01*
X176984674Y-45735465D01*
G37*
G36*
X119551000Y-46602000D02*
G01*
X117449000Y-46602000D01*
X117449000Y-45600000D01*
X119551000Y-45600000D01*
X119551000Y-46602000D01*
G37*
G36*
X136551000Y-46602000D02*
G01*
X134449000Y-46602000D01*
X134449000Y-45600000D01*
X136551000Y-45600000D01*
X136551000Y-46602000D01*
G37*
G36*
X185400956Y-44691455D02*
G01*
X185498683Y-44731936D01*
X185547548Y-44752176D01*
X185679473Y-44840325D01*
X185791675Y-44952527D01*
X185879824Y-45084452D01*
X185890863Y-45111103D01*
X185940545Y-45231044D01*
X185971500Y-45386665D01*
X185971500Y-45545335D01*
X185940545Y-45700956D01*
X185904904Y-45787000D01*
X185879824Y-45847548D01*
X185791675Y-45979473D01*
X185679473Y-46091675D01*
X185547548Y-46179824D01*
X185499087Y-46199897D01*
X185400956Y-46240545D01*
X185245335Y-46271500D01*
X185086665Y-46271500D01*
X184931044Y-46240545D01*
X184832913Y-46199897D01*
X184784452Y-46179824D01*
X184652527Y-46091675D01*
X184540325Y-45979473D01*
X184452176Y-45847548D01*
X184427096Y-45787000D01*
X184391455Y-45700956D01*
X184360500Y-45545335D01*
X184360500Y-45386665D01*
X184391455Y-45231044D01*
X184441137Y-45111103D01*
X184452176Y-45084452D01*
X184540325Y-44952527D01*
X184652527Y-44840325D01*
X184784452Y-44752176D01*
X184833317Y-44731936D01*
X184931044Y-44691455D01*
X185086665Y-44660500D01*
X185245335Y-44660500D01*
X185400956Y-44691455D01*
G37*
G36*
X169036239Y-39229467D02*
G01*
X169350282Y-39291934D01*
X169941926Y-39537001D01*
X170207224Y-39714268D01*
X170474391Y-39892783D01*
X170927217Y-40345609D01*
X170942388Y-40368314D01*
X171282999Y-40878074D01*
X171528066Y-41469718D01*
X171558090Y-41620661D01*
X171653000Y-42097803D01*
X171653000Y-42738197D01*
X171624687Y-42880534D01*
X171528066Y-43366282D01*
X171282999Y-43957926D01*
X171035265Y-44328685D01*
X170927217Y-44490391D01*
X170474391Y-44943217D01*
X170432900Y-44970940D01*
X169941926Y-45298999D01*
X169350282Y-45544066D01*
X169069083Y-45600000D01*
X168722197Y-45669000D01*
X168081803Y-45669000D01*
X167734917Y-45600000D01*
X167453718Y-45544066D01*
X166862074Y-45298999D01*
X166371100Y-44970940D01*
X166329609Y-44943217D01*
X165876783Y-44490391D01*
X165768735Y-44328685D01*
X165521001Y-43957926D01*
X165275934Y-43366282D01*
X165179313Y-42880534D01*
X165151000Y-42738197D01*
X165151000Y-42097803D01*
X165245910Y-41620661D01*
X165275934Y-41469718D01*
X165521001Y-40878074D01*
X165861612Y-40368314D01*
X165876783Y-40345609D01*
X166329609Y-39892783D01*
X166596776Y-39714268D01*
X166862074Y-39537001D01*
X167453718Y-39291934D01*
X167767761Y-39229467D01*
X168081803Y-39167000D01*
X168722197Y-39167000D01*
X169036239Y-39229467D01*
G37*
G36*
X196586899Y-43696832D02*
G01*
X196671520Y-43713664D01*
X196830942Y-43779699D01*
X196974418Y-43875566D01*
X197096434Y-43997582D01*
X197192301Y-44141058D01*
X197258336Y-44300480D01*
X197292000Y-44469721D01*
X197292000Y-44642279D01*
X197258336Y-44811520D01*
X197192301Y-44970942D01*
X197096434Y-45114418D01*
X196974418Y-45236434D01*
X196830942Y-45332301D01*
X196671520Y-45398336D01*
X196502280Y-45432000D01*
X196329720Y-45432000D01*
X196160480Y-45398336D01*
X196001058Y-45332301D01*
X195857582Y-45236434D01*
X195735566Y-45114418D01*
X195639699Y-44970942D01*
X195573664Y-44811520D01*
X195540000Y-44642279D01*
X195540000Y-44469721D01*
X195573664Y-44300480D01*
X195639699Y-44141058D01*
X195735566Y-43997582D01*
X195857582Y-43875566D01*
X196001058Y-43779699D01*
X196160480Y-43713664D01*
X196245101Y-43696832D01*
X196329720Y-43680000D01*
X196502280Y-43680000D01*
X196586899Y-43696832D01*
G37*
G36*
X119551000Y-45332000D02*
G01*
X117449000Y-45332000D01*
X117449000Y-44330000D01*
X119551000Y-44330000D01*
X119551000Y-45332000D01*
G37*
G36*
X136551000Y-45332000D02*
G01*
X134449000Y-45332000D01*
X134449000Y-44330000D01*
X136551000Y-44330000D01*
X136551000Y-45332000D01*
G37*
G36*
X116158674Y-44064465D02*
G01*
X116196367Y-44075899D01*
X116231103Y-44094466D01*
X116261548Y-44119452D01*
X116286534Y-44149897D01*
X116305101Y-44184633D01*
X116316535Y-44222326D01*
X116321000Y-44267661D01*
X116321000Y-45104339D01*
X116316535Y-45149674D01*
X116305101Y-45187367D01*
X116286534Y-45222103D01*
X116261548Y-45252548D01*
X116231103Y-45277534D01*
X116196367Y-45296101D01*
X116158674Y-45307535D01*
X116113339Y-45312000D01*
X115026661Y-45312000D01*
X114981326Y-45307535D01*
X114943633Y-45296101D01*
X114908897Y-45277534D01*
X114878452Y-45252548D01*
X114853466Y-45222103D01*
X114834899Y-45187367D01*
X114823465Y-45149674D01*
X114819000Y-45104339D01*
X114819000Y-44267661D01*
X114823465Y-44222326D01*
X114834899Y-44184633D01*
X114853466Y-44149897D01*
X114878452Y-44119452D01*
X114908897Y-44094466D01*
X114943633Y-44075899D01*
X114981326Y-44064465D01*
X115026661Y-44060000D01*
X116113339Y-44060000D01*
X116158674Y-44064465D01*
G37*
G36*
X179025674Y-43703465D02*
G01*
X179063367Y-43714899D01*
X179098103Y-43733466D01*
X179128548Y-43758452D01*
X179153534Y-43788897D01*
X179172101Y-43823633D01*
X179183535Y-43861326D01*
X179188000Y-43906661D01*
X179188000Y-44993339D01*
X179183535Y-45038674D01*
X179172101Y-45076367D01*
X179153534Y-45111103D01*
X179128548Y-45141548D01*
X179098103Y-45166534D01*
X179063367Y-45185101D01*
X179025674Y-45196535D01*
X178980339Y-45201000D01*
X178143661Y-45201000D01*
X178098326Y-45196535D01*
X178060633Y-45185101D01*
X178025897Y-45166534D01*
X177995452Y-45141548D01*
X177970466Y-45111103D01*
X177951899Y-45076367D01*
X177940465Y-45038674D01*
X177936000Y-44993339D01*
X177936000Y-43906661D01*
X177940465Y-43861326D01*
X177951899Y-43823633D01*
X177970466Y-43788897D01*
X177995452Y-43758452D01*
X178025897Y-43733466D01*
X178060633Y-43714899D01*
X178098326Y-43703465D01*
X178143661Y-43699000D01*
X178980339Y-43699000D01*
X179025674Y-43703465D01*
G37*
G36*
X176975674Y-43703465D02*
G01*
X177013367Y-43714899D01*
X177048103Y-43733466D01*
X177078548Y-43758452D01*
X177103534Y-43788897D01*
X177122101Y-43823633D01*
X177133535Y-43861326D01*
X177138000Y-43906661D01*
X177138000Y-44993339D01*
X177133535Y-45038674D01*
X177122101Y-45076367D01*
X177103534Y-45111103D01*
X177078548Y-45141548D01*
X177048103Y-45166534D01*
X177013367Y-45185101D01*
X176975674Y-45196535D01*
X176930339Y-45201000D01*
X176093661Y-45201000D01*
X176048326Y-45196535D01*
X176010633Y-45185101D01*
X175975897Y-45166534D01*
X175945452Y-45141548D01*
X175920466Y-45111103D01*
X175901899Y-45076367D01*
X175890465Y-45038674D01*
X175886000Y-44993339D01*
X175886000Y-43906661D01*
X175890465Y-43861326D01*
X175901899Y-43823633D01*
X175920466Y-43788897D01*
X175945452Y-43758452D01*
X175975897Y-43733466D01*
X176010633Y-43714899D01*
X176048326Y-43703465D01*
X176093661Y-43699000D01*
X176930339Y-43699000D01*
X176975674Y-43703465D01*
G37*
G36*
X182860956Y-43421455D02*
G01*
X182956424Y-43461000D01*
X183007548Y-43482176D01*
X183139473Y-43570325D01*
X183251675Y-43682527D01*
X183339824Y-43814452D01*
X183339824Y-43814453D01*
X183400545Y-43961044D01*
X183431500Y-44116665D01*
X183431500Y-44275335D01*
X183400545Y-44430956D01*
X183375925Y-44490392D01*
X183339824Y-44577548D01*
X183251675Y-44709473D01*
X183139473Y-44821675D01*
X183007548Y-44909824D01*
X182958683Y-44930064D01*
X182860956Y-44970545D01*
X182705335Y-45001500D01*
X182546665Y-45001500D01*
X182391044Y-44970545D01*
X182293317Y-44930064D01*
X182244452Y-44909824D01*
X182112527Y-44821675D01*
X182000325Y-44709473D01*
X181912176Y-44577548D01*
X181876075Y-44490392D01*
X181851455Y-44430956D01*
X181820500Y-44275335D01*
X181820500Y-44116665D01*
X181851455Y-43961044D01*
X181912176Y-43814453D01*
X181912176Y-43814452D01*
X182000325Y-43682527D01*
X182112527Y-43570325D01*
X182244452Y-43482176D01*
X182295576Y-43461000D01*
X182391044Y-43421455D01*
X182546665Y-43390500D01*
X182705335Y-43390500D01*
X182860956Y-43421455D01*
G37*
G36*
X192016538Y-41275944D02*
G01*
X192328829Y-41405300D01*
X192328831Y-41405301D01*
X192609886Y-41593096D01*
X192848904Y-41832114D01*
X193029423Y-42102279D01*
X193036700Y-42113171D01*
X193166056Y-42425462D01*
X193232000Y-42756987D01*
X193232000Y-43095013D01*
X193166056Y-43426538D01*
X193067672Y-43664056D01*
X193036699Y-43738831D01*
X192848904Y-44019886D01*
X192609886Y-44258904D01*
X192328831Y-44446699D01*
X192328830Y-44446700D01*
X192328829Y-44446700D01*
X192016538Y-44576056D01*
X191685013Y-44642000D01*
X191346987Y-44642000D01*
X191015462Y-44576056D01*
X190703171Y-44446700D01*
X190703170Y-44446700D01*
X190703169Y-44446699D01*
X190422114Y-44258904D01*
X190183096Y-44019886D01*
X189995301Y-43738831D01*
X189964328Y-43664056D01*
X189865944Y-43426538D01*
X189800000Y-43095013D01*
X189800000Y-42756987D01*
X189865944Y-42425462D01*
X189995300Y-42113171D01*
X190002578Y-42102279D01*
X190183096Y-41832114D01*
X190422114Y-41593096D01*
X190703169Y-41405301D01*
X190703171Y-41405300D01*
X191015462Y-41275944D01*
X191346987Y-41210000D01*
X191685013Y-41210000D01*
X192016538Y-41275944D01*
G37*
G36*
X119551000Y-44062000D02*
G01*
X117449000Y-44062000D01*
X117449000Y-43060000D01*
X119551000Y-43060000D01*
X119551000Y-44062000D01*
G37*
G36*
X136551000Y-44062000D02*
G01*
X134449000Y-44062000D01*
X134449000Y-43060000D01*
X136551000Y-43060000D01*
X136551000Y-44062000D01*
G37*
G36*
X116158674Y-42313465D02*
G01*
X116196367Y-42324899D01*
X116231103Y-42343466D01*
X116261548Y-42368452D01*
X116286534Y-42398897D01*
X116305101Y-42433633D01*
X116316535Y-42471326D01*
X116321000Y-42516661D01*
X116321000Y-43353339D01*
X116316535Y-43398674D01*
X116305101Y-43436367D01*
X116286534Y-43471103D01*
X116261548Y-43501548D01*
X116231103Y-43526534D01*
X116196367Y-43545101D01*
X116158674Y-43556535D01*
X116113339Y-43561000D01*
X115026661Y-43561000D01*
X114981326Y-43556535D01*
X114943633Y-43545101D01*
X114908897Y-43526534D01*
X114878452Y-43501548D01*
X114853466Y-43471103D01*
X114834899Y-43436367D01*
X114823465Y-43398674D01*
X114819000Y-43353339D01*
X114819000Y-42516661D01*
X114823465Y-42471326D01*
X114834899Y-42433633D01*
X114853466Y-42398897D01*
X114878452Y-42368452D01*
X114908897Y-42343466D01*
X114943633Y-42324899D01*
X114981326Y-42313465D01*
X115026661Y-42309000D01*
X116113339Y-42309000D01*
X116158674Y-42313465D01*
G37*
G36*
X100103000Y-43461000D02*
G01*
X97001000Y-43461000D01*
X97001000Y-40359000D01*
X100103000Y-40359000D01*
X100103000Y-43461000D01*
G37*
G36*
X105998674Y-42059465D02*
G01*
X106036367Y-42070899D01*
X106071103Y-42089466D01*
X106101548Y-42114452D01*
X106126534Y-42144897D01*
X106145101Y-42179633D01*
X106156535Y-42217326D01*
X106161000Y-42262661D01*
X106161000Y-43099339D01*
X106156535Y-43144674D01*
X106145101Y-43182367D01*
X106126534Y-43217103D01*
X106101548Y-43247548D01*
X106071103Y-43272534D01*
X106036367Y-43291101D01*
X105998674Y-43302535D01*
X105953339Y-43307000D01*
X104866661Y-43307000D01*
X104821326Y-43302535D01*
X104783633Y-43291101D01*
X104748897Y-43272534D01*
X104718452Y-43247548D01*
X104693466Y-43217103D01*
X104674899Y-43182367D01*
X104663465Y-43144674D01*
X104659000Y-43099339D01*
X104659000Y-42262661D01*
X104663465Y-42217326D01*
X104674899Y-42179633D01*
X104693466Y-42144897D01*
X104718452Y-42114452D01*
X104748897Y-42089466D01*
X104783633Y-42070899D01*
X104821326Y-42059465D01*
X104866661Y-42055000D01*
X105953339Y-42055000D01*
X105998674Y-42059465D01*
G37*
G36*
X176984674Y-41417465D02*
G01*
X177022367Y-41428899D01*
X177057103Y-41447466D01*
X177087548Y-41472452D01*
X177112534Y-41502897D01*
X177131101Y-41537633D01*
X177142535Y-41575326D01*
X177147000Y-41620661D01*
X177147000Y-42707339D01*
X177142535Y-42752674D01*
X177131101Y-42790367D01*
X177112534Y-42825103D01*
X177087548Y-42855548D01*
X177057103Y-42880534D01*
X177022367Y-42899101D01*
X176984674Y-42910535D01*
X176939339Y-42915000D01*
X176102661Y-42915000D01*
X176057326Y-42910535D01*
X176019633Y-42899101D01*
X175984897Y-42880534D01*
X175954452Y-42855548D01*
X175929466Y-42825103D01*
X175910899Y-42790367D01*
X175899465Y-42752674D01*
X175895000Y-42707339D01*
X175895000Y-41620661D01*
X175899465Y-41575326D01*
X175910899Y-41537633D01*
X175929466Y-41502897D01*
X175954452Y-41472452D01*
X175984897Y-41447466D01*
X176019633Y-41428899D01*
X176057326Y-41417465D01*
X176102661Y-41413000D01*
X176939339Y-41413000D01*
X176984674Y-41417465D01*
G37*
G36*
X179034674Y-41417465D02*
G01*
X179072367Y-41428899D01*
X179107103Y-41447466D01*
X179137548Y-41472452D01*
X179162534Y-41502897D01*
X179181101Y-41537633D01*
X179192535Y-41575326D01*
X179197000Y-41620661D01*
X179197000Y-42707339D01*
X179192535Y-42752674D01*
X179181101Y-42790367D01*
X179162534Y-42825103D01*
X179137548Y-42855548D01*
X179107103Y-42880534D01*
X179072367Y-42899101D01*
X179034674Y-42910535D01*
X178989339Y-42915000D01*
X178152661Y-42915000D01*
X178107326Y-42910535D01*
X178069633Y-42899101D01*
X178034897Y-42880534D01*
X178004452Y-42855548D01*
X177979466Y-42825103D01*
X177960899Y-42790367D01*
X177949465Y-42752674D01*
X177945000Y-42707339D01*
X177945000Y-41620661D01*
X177949465Y-41575326D01*
X177960899Y-41537633D01*
X177979466Y-41502897D01*
X178004452Y-41472452D01*
X178034897Y-41447466D01*
X178069633Y-41428899D01*
X178107326Y-41417465D01*
X178152661Y-41413000D01*
X178989339Y-41413000D01*
X179034674Y-41417465D01*
G37*
G36*
X196575739Y-41154612D02*
G01*
X196671520Y-41173664D01*
X196830942Y-41239699D01*
X196974418Y-41335566D01*
X197096434Y-41457582D01*
X197192301Y-41601058D01*
X197258336Y-41760480D01*
X197258336Y-41760481D01*
X197292000Y-41929720D01*
X197292000Y-42102280D01*
X197276613Y-42179633D01*
X197258336Y-42271520D01*
X197192301Y-42430942D01*
X197096434Y-42574418D01*
X196974418Y-42696434D01*
X196830942Y-42792301D01*
X196671520Y-42858336D01*
X196586899Y-42875168D01*
X196502280Y-42892000D01*
X196329720Y-42892000D01*
X196245101Y-42875168D01*
X196160480Y-42858336D01*
X196001058Y-42792301D01*
X195857582Y-42696434D01*
X195735566Y-42574418D01*
X195639699Y-42430942D01*
X195573664Y-42271520D01*
X195555387Y-42179633D01*
X195540000Y-42102280D01*
X195540000Y-41929720D01*
X195573664Y-41760481D01*
X195573664Y-41760480D01*
X195639699Y-41601058D01*
X195735566Y-41457582D01*
X195857582Y-41335566D01*
X196001058Y-41239699D01*
X196160480Y-41173664D01*
X196256261Y-41154612D01*
X196329720Y-41140000D01*
X196502280Y-41140000D01*
X196575739Y-41154612D01*
G37*
G36*
X136551000Y-42792000D02*
G01*
X134449000Y-42792000D01*
X134449000Y-41790000D01*
X136551000Y-41790000D01*
X136551000Y-42792000D01*
G37*
G36*
X119551000Y-42792000D02*
G01*
X117449000Y-42792000D01*
X117449000Y-41790000D01*
X119551000Y-41790000D01*
X119551000Y-42792000D01*
G37*
G36*
X188854966Y-39613745D02*
G01*
X189097647Y-39714267D01*
X189097649Y-39714268D01*
X189316057Y-39860203D01*
X189501797Y-40045943D01*
X189647140Y-40263465D01*
X189647733Y-40264353D01*
X189748255Y-40507034D01*
X189799500Y-40764660D01*
X189799500Y-41027340D01*
X189748255Y-41284966D01*
X189668905Y-41476534D01*
X189647732Y-41527649D01*
X189501797Y-41746057D01*
X189316057Y-41931797D01*
X189097649Y-42077732D01*
X189097648Y-42077733D01*
X189097647Y-42077733D01*
X188854966Y-42178255D01*
X188597340Y-42229500D01*
X188334660Y-42229500D01*
X188077034Y-42178255D01*
X187834353Y-42077733D01*
X187834352Y-42077733D01*
X187834351Y-42077732D01*
X187615943Y-41931797D01*
X187430203Y-41746057D01*
X187284268Y-41527649D01*
X187263095Y-41476534D01*
X187183745Y-41284966D01*
X187132500Y-41027340D01*
X187132500Y-40764660D01*
X187183745Y-40507034D01*
X187284267Y-40264353D01*
X187284860Y-40263465D01*
X187430203Y-40045943D01*
X187615943Y-39860203D01*
X187834351Y-39714268D01*
X187834353Y-39714267D01*
X188077034Y-39613745D01*
X188334660Y-39562500D01*
X188597340Y-39562500D01*
X188854966Y-39613745D01*
G37*
G36*
X112441000Y-41589000D02*
G01*
X108539000Y-41589000D01*
X108539000Y-39487000D01*
X112441000Y-39487000D01*
X112441000Y-41589000D01*
G37*
G36*
X136551000Y-41522000D02*
G01*
X134449000Y-41522000D01*
X134449000Y-40520000D01*
X136551000Y-40520000D01*
X136551000Y-41522000D01*
G37*
G36*
X119551000Y-41522000D02*
G01*
X117449000Y-41522000D01*
X117449000Y-40520000D01*
X119551000Y-40520000D01*
X119551000Y-41522000D01*
G37*
G36*
X116158674Y-40263465D02*
G01*
X116196367Y-40274899D01*
X116231103Y-40293466D01*
X116261548Y-40318452D01*
X116286534Y-40348897D01*
X116305101Y-40383633D01*
X116316535Y-40421326D01*
X116321000Y-40466661D01*
X116321000Y-41303339D01*
X116316535Y-41348674D01*
X116305101Y-41386367D01*
X116286534Y-41421103D01*
X116261548Y-41451548D01*
X116231103Y-41476534D01*
X116196367Y-41495101D01*
X116158674Y-41506535D01*
X116113339Y-41511000D01*
X115026661Y-41511000D01*
X114981326Y-41506535D01*
X114943633Y-41495101D01*
X114908897Y-41476534D01*
X114878452Y-41451548D01*
X114853466Y-41421103D01*
X114834899Y-41386367D01*
X114823465Y-41348674D01*
X114819000Y-41303339D01*
X114819000Y-40466661D01*
X114823465Y-40421326D01*
X114834899Y-40383633D01*
X114853466Y-40348897D01*
X114878452Y-40318452D01*
X114908897Y-40293466D01*
X114943633Y-40274899D01*
X114981326Y-40263465D01*
X115026661Y-40259000D01*
X116113339Y-40259000D01*
X116158674Y-40263465D01*
G37*
G36*
X105998674Y-40009465D02*
G01*
X106036367Y-40020899D01*
X106071103Y-40039466D01*
X106101548Y-40064452D01*
X106126534Y-40094897D01*
X106145101Y-40129633D01*
X106156535Y-40167326D01*
X106161000Y-40212661D01*
X106161000Y-41049339D01*
X106156535Y-41094674D01*
X106145101Y-41132367D01*
X106126534Y-41167103D01*
X106101548Y-41197548D01*
X106071103Y-41222534D01*
X106036367Y-41241101D01*
X105998674Y-41252535D01*
X105953339Y-41257000D01*
X104866661Y-41257000D01*
X104821326Y-41252535D01*
X104783633Y-41241101D01*
X104748897Y-41222534D01*
X104718452Y-41197548D01*
X104693466Y-41167103D01*
X104674899Y-41132367D01*
X104663465Y-41094674D01*
X104659000Y-41049339D01*
X104659000Y-40212661D01*
X104663465Y-40167326D01*
X104674899Y-40129633D01*
X104693466Y-40094897D01*
X104718452Y-40064452D01*
X104748897Y-40039466D01*
X104783633Y-40020899D01*
X104821326Y-40009465D01*
X104866661Y-40005000D01*
X105953339Y-40005000D01*
X105998674Y-40009465D01*
G37*
G36*
X136551000Y-40252000D02*
G01*
X134449000Y-40252000D01*
X134449000Y-39250000D01*
X136551000Y-39250000D01*
X136551000Y-40252000D01*
G37*
G36*
X119551000Y-40252000D02*
G01*
X117449000Y-40252000D01*
X117449000Y-39250000D01*
X119551000Y-39250000D01*
X119551000Y-40252000D01*
G37*
M02*
